<svg width="476" height="110" viewBox="0 0 476 110" fill="none" xmlns="http://www.w3.org/2000/svg">
<path d="M0.174248 0.967995H62.1902V82.856H54.6062L34.1582 26.6H16.3022V32.744H26.2863L7.75825 82.856H0.174248V0.967995ZM31.6622 36.776L41.8383 65.384H20.8142L31.1823 36.776H31.6622ZM62.1902 109.448H0.174248V89H22.0622V82.856H14.3822L18.7982 70.856H43.7583L47.9823 82.856H40.5902V89H62.1902V109.448ZM62.773 109.448V0.967995H122.677V109.448H62.773ZM117.877 71.336C117.877 67.368 116.789 63.912 114.613 60.968C112.437 57.96 109.077 56.104 104.533 55.4V55.016C107.733 54.376 110.325 52.808 112.309 50.312C114.293 47.816 115.285 44.904 115.285 41.576C115.285 37.096 113.717 33.48 110.581 30.728C107.509 27.976 102.805 26.6 96.469 26.6H67.765V32.744H75.637V82.856H67.765V89H96.949C103.861 89 109.077 87.304 112.597 83.912C116.117 80.456 117.877 76.264 117.877 71.336ZM107.797 43.208C107.797 46.664 106.581 49.32 104.149 51.176C101.781 52.968 98.741 53.864 95.029 53.864H82.645V32.744H95.317C99.221 32.744 102.261 33.512 104.437 35.048C106.677 36.584 107.797 39.304 107.797 43.208ZM110.389 70.952C110.389 75.112 109.045 78.152 106.357 80.072C103.733 81.928 100.181 82.856 95.701 82.856H82.645V59.624H98.005C102.101 59.624 105.173 60.648 107.221 62.696C109.333 64.68 110.389 67.432 110.389 70.952ZM123.216 109.448V0.967995H195.12V109.448H123.216ZM190.416 57.8C190.416 48.904 187.536 41.32 181.776 35.048C176.016 28.776 168.464 25.64 159.12 25.64C149.904 25.64 142.384 28.776 136.56 35.048C130.8 41.256 127.92 48.84 127.92 57.8C127.92 66.632 130.736 74.216 136.368 80.552C142 86.824 149.52 89.96 158.928 89.96C165.2 89.96 170.704 88.52 175.44 85.64C180.176 82.696 183.856 78.792 186.48 73.928C189.104 69.064 190.416 63.688 190.416 57.8ZM182.832 57.896C182.832 65.128 180.752 71.24 176.592 76.232C172.432 81.16 166.672 83.624 159.312 83.624C151.76 83.624 145.904 81.064 141.744 75.944C137.584 70.824 135.504 64.744 135.504 57.704C135.504 50.536 137.584 44.456 141.744 39.464C145.904 34.472 151.696 31.976 159.12 31.976C166.352 31.976 172.112 34.44 176.4 39.368C180.688 44.232 182.832 50.408 182.832 57.896ZM195.658 109.448V0.967995H266.506V109.448H195.658ZM255.85 32.744H261.898V26.6H240.298V32.744H249.226V63.368C249.226 76.872 243.242 83.624 231.274 83.624C225.258 83.624 220.81 81.928 217.93 78.536C215.05 75.144 213.61 70.376 213.61 64.232V32.744H222.25V26.6H200.074V32.744H206.506V64.424C206.506 71.144 208.234 77.096 211.69 82.28C215.21 87.4 221.61 89.96 230.89 89.96C237.29 89.96 242.282 88.68 245.866 86.12C249.514 83.496 252.074 80.168 253.546 76.136C255.082 72.04 255.85 67.784 255.85 63.368V32.744ZM267.069 109.448V0.967995H323.901V109.448H267.069ZM314.781 46.088L321.021 45.608L319.101 26.6H271.869L270.045 45.608L276.189 46.088L278.109 32.744H291.933V82.856H281.181V89H309.981V82.856H298.941V32.744H312.861L314.781 46.088ZM324.224 109.448V0.967995H351.2V109.448H324.224ZM351.298 109.448V0.967995H422.146V109.448H351.298ZM411.49 32.744H417.538V26.6H395.938V32.744H404.866V63.368C404.866 76.872 398.882 83.624 386.914 83.624C380.898 83.624 376.45 81.928 373.57 78.536C370.69 75.144 369.25 70.376 369.25 64.232V32.744H377.89V26.6H355.714V32.744H362.146V64.424C362.146 71.144 363.874 77.096 367.33 82.28C370.85 87.4 377.25 89.96 386.53 89.96C392.93 89.96 397.922 88.68 401.506 86.12C405.154 83.496 407.714 80.168 409.186 76.136C410.722 72.04 411.49 67.784 411.49 63.368V32.744ZM422.709 109.448V0.967995H475.797V109.448H422.709ZM470.709 71.528C470.709 66.792 469.557 63.24 467.253 60.872C465.013 58.44 462.293 56.744 459.093 55.784C455.957 54.76 452.981 53.928 450.165 53.288C446.645 52.456 443.445 51.368 440.565 50.024C437.685 48.68 436.245 46.056 436.245 42.152C436.245 38.824 437.429 36.296 439.797 34.568C442.229 32.776 445.397 31.88 449.301 31.88C451.157 31.88 453.109 32.072 455.157 32.456C457.205 32.776 459.221 33.448 461.205 34.472L462.165 43.784L467.925 43.208L467.349 30.824C465.365 29.288 462.613 28.04 459.093 27.08C455.573 26.12 452.085 25.64 448.629 25.64C443.253 25.64 438.581 27.048 434.613 29.864C430.709 32.68 428.757 37.032 428.757 42.92C428.757 47.016 429.717 50.152 431.637 52.328C433.557 54.44 435.957 56.008 438.837 57.032C441.717 57.992 444.629 58.792 447.573 59.432C451.413 60.328 454.965 61.512 458.229 62.984C461.493 64.392 463.125 67.464 463.125 72.2C463.125 76.424 461.621 79.432 458.613 81.224C455.669 82.952 452.149 83.816 448.053 83.816C445.749 83.816 443.541 83.624 441.429 83.24C439.317 82.856 437.205 82.12 435.093 81.032L435.477 73.16L429.717 72.584L428.373 84.872C433.045 88.264 439.733 89.96 448.437 89.96C454.773 89.96 460.053 88.392 464.277 85.256C468.565 82.12 470.709 77.544 470.709 71.528Z" fill="url(#paint0_linear_939_1332)" fill-opacity="0.5"/>
<defs>
<linearGradient id="paint0_linear_939_1332" x1="1" y1="55.5" x2="475" y2="55.5" gradientUnits="userSpaceOnUse">
<stop stop-color="#FF35C4"/>
<stop offset="1" stop-color="#992076"/>
</linearGradient>
</defs>
</svg>
