<svg width="143" height="27" viewBox="0 0 143 27" fill="none" xmlns="http://www.w3.org/2000/svg">
<path d="M0 27L13.0092 0.892799H21.756L34.7208 27H27.8832L25.2636 21.3612H9.3684L6.4824 27H0ZM10.9668 17.01H23.6208L17.538 4.8888H17.094L10.9668 17.01ZM38.7269 27V4.4448L38.2829 0.892799H45.0317L55.0661 18.6528L65.4557 0.892799H71.4497V27H65.5889V10.4388H65.1005L63.3689 14.3016L57.7745 24.336H52.4021L46.8077 14.3016L45.0317 10.4388H44.5877V27H38.7269ZM75.0117 27L88.0209 0.892799H96.7677L109.733 27H102.895L100.275 21.3612H84.3801L81.4941 27H75.0117ZM85.9785 17.01H98.6325L92.5497 4.8888H92.1057L85.9785 17.01ZM110.187 27L111.874 24.336L121.731 13.9464L110.187 0.892799H117.291L125.86 10.7052H126.348L134.962 0.892799H142.066L140.334 3.5124L130.522 13.9464L142.066 27H134.962L126.348 17.0988H125.86L117.291 27H110.187Z" fill="#373737"/>
</svg>
