<svg width="1014" height="193" viewBox="0 0 1014 193" fill="none" xmlns="http://www.w3.org/2000/svg">
<g filter="url(#filter0_d_939_1263)">
<path d="M4 28.8667H960.388L1009.2 97.0969L960.388 165.327H4V28.8667Z" fill="#F0F0F0"/>
</g>
<path d="M182.514 182.421H163.027L157.012 165.382H182.514V182.421Z" fill="#FF35C4"/>
<path d="M290.897 18.0415H319.317L328.088 29.067H290.897V18.0415Z" fill="#FF35C4"/>
<path d="M198.902 18.0415H318.34L285.877 182.421H163.377L198.902 18.0415Z" fill="url(#paint0_linear_939_1263)"/>
<ellipse cx="890.648" cy="101.233" rx="47.8162" ry="45.1041" fill="#373737"/>
<path d="M387.294 118.426V120.698H390.958V122.81H387.294V125.274H391.438V127.466H384.558V116.234H391.438V118.426H387.294ZM405.087 118.442C406.196 118.442 407.076 118.778 407.727 119.45C408.388 120.122 408.719 121.056 408.719 122.25V127.466H405.999V122.618C405.999 122.042 405.844 121.6 405.535 121.29C405.236 120.97 404.82 120.81 404.287 120.81C403.753 120.81 403.332 120.97 403.023 121.29C402.724 121.6 402.575 122.042 402.575 122.618V127.466H399.855V122.618C399.855 122.042 399.7 121.6 399.391 121.29C399.092 120.97 398.676 120.81 398.143 120.81C397.609 120.81 397.188 120.97 396.879 121.29C396.58 121.6 396.431 122.042 396.431 122.618V127.466H393.695V118.538H396.431V119.658C396.708 119.285 397.071 118.992 397.519 118.778C397.967 118.554 398.473 118.442 399.039 118.442C399.711 118.442 400.308 118.586 400.831 118.874C401.364 119.162 401.78 119.573 402.079 120.106C402.388 119.616 402.809 119.216 403.343 118.906C403.876 118.597 404.457 118.442 405.087 118.442ZM413.848 119.802C414.104 119.386 414.472 119.05 414.952 118.794C415.432 118.538 415.981 118.41 416.6 118.41C417.336 118.41 418.003 118.597 418.6 118.97C419.197 119.344 419.667 119.877 420.008 120.57C420.36 121.264 420.536 122.069 420.536 122.986C420.536 123.904 420.36 124.714 420.008 125.418C419.667 126.112 419.197 126.65 418.6 127.034C418.003 127.408 417.336 127.594 416.6 127.594C415.971 127.594 415.421 127.472 414.952 127.226C414.483 126.97 414.115 126.634 413.848 126.218V127.466H411.112V115.626H413.848V119.802ZM417.752 122.986C417.752 122.304 417.56 121.77 417.176 121.386C416.803 120.992 416.339 120.794 415.784 120.794C415.24 120.794 414.776 120.992 414.392 121.386C414.019 121.781 413.832 122.32 413.832 123.002C413.832 123.685 414.019 124.224 414.392 124.618C414.776 125.013 415.24 125.21 415.784 125.21C416.328 125.21 416.792 125.013 417.176 124.618C417.56 124.213 417.752 123.669 417.752 122.986ZM425.188 120.026C425.508 119.536 425.908 119.152 426.388 118.874C426.868 118.586 427.401 118.442 427.988 118.442V121.338H427.236C426.553 121.338 426.041 121.488 425.7 121.786C425.358 122.074 425.188 122.586 425.188 123.322V127.466H422.452V118.538H425.188V120.026ZM429.231 122.986C429.231 122.069 429.402 121.264 429.743 120.57C430.095 119.877 430.57 119.344 431.167 118.97C431.765 118.597 432.431 118.41 433.167 118.41C433.797 118.41 434.346 118.538 434.815 118.794C435.295 119.05 435.663 119.386 435.919 119.802V118.538H438.655V127.466H435.919V126.202C435.653 126.618 435.279 126.954 434.799 127.21C434.33 127.466 433.781 127.594 433.151 127.594C432.426 127.594 431.765 127.408 431.167 127.034C430.57 126.65 430.095 126.112 429.743 125.418C429.402 124.714 429.231 123.904 429.231 122.986ZM435.919 123.002C435.919 122.32 435.727 121.781 435.343 121.386C434.97 120.992 434.511 120.794 433.967 120.794C433.423 120.794 432.959 120.992 432.575 121.386C432.202 121.77 432.015 122.304 432.015 122.986C432.015 123.669 432.202 124.213 432.575 124.618C432.959 125.013 433.423 125.21 433.967 125.21C434.511 125.21 434.97 125.013 435.343 124.618C435.727 124.224 435.919 123.685 435.919 123.002ZM440.571 123.002C440.571 122.074 440.757 121.264 441.131 120.57C441.515 119.877 442.043 119.344 442.715 118.97C443.397 118.597 444.176 118.41 445.051 118.41C446.171 118.41 447.104 118.704 447.851 119.29C448.608 119.877 449.104 120.704 449.339 121.77H446.427C446.181 121.088 445.707 120.746 445.003 120.746C444.501 120.746 444.101 120.944 443.803 121.338C443.504 121.722 443.355 122.277 443.355 123.002C443.355 123.728 443.504 124.288 443.803 124.682C444.101 125.066 444.501 125.258 445.003 125.258C445.707 125.258 446.181 124.917 446.427 124.234H449.339C449.104 125.28 448.608 126.101 447.851 126.698C447.093 127.296 446.16 127.594 445.051 127.594C444.176 127.594 443.397 127.408 442.715 127.034C442.043 126.661 441.515 126.128 441.131 125.434C440.757 124.741 440.571 123.93 440.571 123.002ZM452.658 117.61C452.178 117.61 451.783 117.472 451.474 117.194C451.175 116.906 451.026 116.554 451.026 116.138C451.026 115.712 451.175 115.36 451.474 115.082C451.783 114.794 452.178 114.65 452.658 114.65C453.127 114.65 453.511 114.794 453.81 115.082C454.119 115.36 454.274 115.712 454.274 116.138C454.274 116.554 454.119 116.906 453.81 117.194C453.511 117.472 453.127 117.61 452.658 117.61ZM454.018 118.538V127.466H451.282V118.538H454.018ZM461.921 118.442C462.966 118.442 463.798 118.784 464.417 119.466C465.046 120.138 465.361 121.066 465.361 122.25V127.466H462.641V122.618C462.641 122.021 462.486 121.557 462.177 121.226C461.868 120.896 461.452 120.73 460.929 120.73C460.406 120.73 459.99 120.896 459.681 121.226C459.372 121.557 459.217 122.021 459.217 122.618V127.466H456.481V118.538H459.217V119.722C459.494 119.328 459.868 119.018 460.337 118.794C460.806 118.56 461.334 118.442 461.921 118.442ZM471.134 118.41C471.763 118.41 472.313 118.538 472.782 118.794C473.262 119.05 473.63 119.386 473.886 119.802V118.538H476.622V127.45C476.622 128.272 476.457 129.013 476.126 129.674C475.806 130.346 475.31 130.88 474.638 131.274C473.977 131.669 473.15 131.866 472.158 131.866C470.835 131.866 469.763 131.552 468.942 130.922C468.121 130.304 467.651 129.461 467.534 128.394H470.238C470.323 128.736 470.526 129.002 470.846 129.194C471.166 129.397 471.561 129.498 472.03 129.498C472.595 129.498 473.043 129.333 473.374 129.002C473.715 128.682 473.886 128.165 473.886 127.45V126.186C473.619 126.602 473.251 126.944 472.782 127.21C472.313 127.466 471.763 127.594 471.134 127.594C470.398 127.594 469.731 127.408 469.134 127.034C468.537 126.65 468.062 126.112 467.71 125.418C467.369 124.714 467.198 123.904 467.198 122.986C467.198 122.069 467.369 121.264 467.71 120.57C468.062 119.877 468.537 119.344 469.134 118.97C469.731 118.597 470.398 118.41 471.134 118.41ZM473.886 123.002C473.886 122.32 473.694 121.781 473.31 121.386C472.937 120.992 472.478 120.794 471.934 120.794C471.39 120.794 470.926 120.992 470.542 121.386C470.169 121.77 469.982 122.304 469.982 122.986C469.982 123.669 470.169 124.213 470.542 124.618C470.926 125.013 471.39 125.21 471.934 125.21C472.478 125.21 472.937 125.013 473.31 124.618C473.694 124.224 473.886 123.685 473.886 123.002ZM489.752 121.706C490.403 121.845 490.925 122.17 491.32 122.682C491.715 123.184 491.912 123.76 491.912 124.41C491.912 125.349 491.581 126.096 490.92 126.65C490.269 127.194 489.357 127.466 488.184 127.466H482.952V116.234H488.008C489.149 116.234 490.04 116.496 490.68 117.018C491.331 117.541 491.656 118.25 491.656 119.146C491.656 119.808 491.48 120.357 491.128 120.794C490.787 121.232 490.328 121.536 489.752 121.706ZM485.688 120.778H487.48C487.928 120.778 488.269 120.682 488.504 120.49C488.749 120.288 488.872 119.994 488.872 119.61C488.872 119.226 488.749 118.933 488.504 118.73C488.269 118.528 487.928 118.426 487.48 118.426H485.688V120.778ZM487.704 125.258C488.163 125.258 488.515 125.157 488.76 124.954C489.016 124.741 489.144 124.437 489.144 124.042C489.144 123.648 489.011 123.338 488.744 123.114C488.488 122.89 488.131 122.778 487.672 122.778H485.688V125.258H487.704ZM496.715 120.026C497.035 119.536 497.435 119.152 497.915 118.874C498.395 118.586 498.928 118.442 499.515 118.442V121.338H498.763C498.08 121.338 497.568 121.488 497.227 121.786C496.886 122.074 496.715 122.586 496.715 123.322V127.466H493.979V118.538H496.715V120.026ZM509.719 122.858C509.719 123.114 509.703 123.381 509.671 123.658H503.479C503.521 124.213 503.697 124.64 504.007 124.938C504.327 125.226 504.716 125.37 505.175 125.37C505.857 125.37 506.332 125.082 506.599 124.506H509.511C509.361 125.093 509.089 125.621 508.695 126.09C508.311 126.56 507.825 126.928 507.239 127.194C506.652 127.461 505.996 127.594 505.271 127.594C504.396 127.594 503.617 127.408 502.935 127.034C502.252 126.661 501.719 126.128 501.335 125.434C500.951 124.741 500.759 123.93 500.759 123.002C500.759 122.074 500.945 121.264 501.319 120.57C501.703 119.877 502.236 119.344 502.919 118.97C503.601 118.597 504.385 118.41 505.271 118.41C506.135 118.41 506.903 118.592 507.575 118.954C508.247 119.317 508.769 119.834 509.143 120.506C509.527 121.178 509.719 121.962 509.719 122.858ZM506.919 122.138C506.919 121.669 506.759 121.296 506.439 121.018C506.119 120.741 505.719 120.602 505.239 120.602C504.78 120.602 504.391 120.736 504.071 121.002C503.761 121.269 503.569 121.648 503.495 122.138H506.919ZM511.098 122.986C511.098 122.069 511.269 121.264 511.61 120.57C511.962 119.877 512.437 119.344 513.034 118.97C513.631 118.597 514.298 118.41 515.034 118.41C515.663 118.41 516.213 118.538 516.682 118.794C517.162 119.05 517.53 119.386 517.786 119.802V118.538H520.522V127.466H517.786V126.202C517.519 126.618 517.146 126.954 516.666 127.21C516.197 127.466 515.647 127.594 515.018 127.594C514.293 127.594 513.631 127.408 513.034 127.034C512.437 126.65 511.962 126.112 511.61 125.418C511.269 124.714 511.098 123.904 511.098 122.986ZM517.786 123.002C517.786 122.32 517.594 121.781 517.21 121.386C516.837 120.992 516.378 120.794 515.834 120.794C515.29 120.794 514.826 120.992 514.442 121.386C514.069 121.77 513.882 122.304 513.882 122.986C513.882 123.669 514.069 124.213 514.442 124.618C514.826 125.013 515.29 125.21 515.834 125.21C516.378 125.21 516.837 125.013 517.21 124.618C517.594 124.224 517.786 123.685 517.786 123.002ZM528.438 127.466L525.718 123.722V127.466H522.982V115.626H525.718V122.17L528.422 118.538H531.798L528.086 123.018L531.83 127.466H528.438ZM538.328 125.146V127.466H536.936C535.944 127.466 535.171 127.226 534.616 126.746C534.061 126.256 533.784 125.461 533.784 124.362V120.81H532.696V118.538H533.784V116.362H536.52V118.538H538.312V120.81H536.52V124.394C536.52 124.661 536.584 124.853 536.712 124.97C536.84 125.088 537.053 125.146 537.352 125.146H538.328ZM545.82 118.442C546.844 118.442 547.665 118.784 548.284 119.466C548.903 120.138 549.212 121.066 549.212 122.25V127.466H546.492V122.618C546.492 122.021 546.337 121.557 546.028 121.226C545.719 120.896 545.303 120.73 544.78 120.73C544.257 120.73 543.841 120.896 543.532 121.226C543.223 121.557 543.068 122.021 543.068 122.618V127.466H540.332V115.626H543.068V119.738C543.345 119.344 543.724 119.029 544.204 118.794C544.684 118.56 545.223 118.442 545.82 118.442ZM554.329 120.026C554.649 119.536 555.049 119.152 555.529 118.874C556.009 118.586 556.543 118.442 557.129 118.442V121.338H556.377C555.695 121.338 555.183 121.488 554.841 121.786C554.5 122.074 554.329 122.586 554.329 123.322V127.466H551.593V118.538H554.329V120.026ZM562.981 127.594C562.106 127.594 561.317 127.408 560.613 127.034C559.92 126.661 559.37 126.128 558.965 125.434C558.57 124.741 558.373 123.93 558.373 123.002C558.373 122.085 558.576 121.28 558.981 120.586C559.386 119.882 559.941 119.344 560.645 118.97C561.349 118.597 562.138 118.41 563.013 118.41C563.888 118.41 564.677 118.597 565.381 118.97C566.085 119.344 566.64 119.882 567.045 120.586C567.45 121.28 567.653 122.085 567.653 123.002C567.653 123.92 567.445 124.73 567.029 125.434C566.624 126.128 566.064 126.661 565.349 127.034C564.645 127.408 563.856 127.594 562.981 127.594ZM562.981 125.226C563.504 125.226 563.946 125.034 564.309 124.65C564.682 124.266 564.869 123.717 564.869 123.002C564.869 122.288 564.688 121.738 564.325 121.354C563.973 120.97 563.536 120.778 563.013 120.778C562.48 120.778 562.037 120.97 561.685 121.354C561.333 121.728 561.157 122.277 561.157 123.002C561.157 123.717 561.328 124.266 561.669 124.65C562.021 125.034 562.458 125.226 562.981 125.226ZM578.401 118.538V127.466H575.665V126.25C575.387 126.645 575.009 126.965 574.529 127.21C574.059 127.445 573.537 127.562 572.961 127.562C572.278 127.562 571.675 127.413 571.153 127.114C570.63 126.805 570.225 126.362 569.937 125.786C569.649 125.21 569.505 124.533 569.505 123.754V118.538H572.225V123.386C572.225 123.984 572.379 124.448 572.689 124.778C572.998 125.109 573.414 125.274 573.937 125.274C574.47 125.274 574.891 125.109 575.201 124.778C575.51 124.448 575.665 123.984 575.665 123.386V118.538H578.401ZM584.238 118.41C584.867 118.41 585.417 118.538 585.886 118.794C586.366 119.05 586.734 119.386 586.99 119.802V118.538H589.726V127.45C589.726 128.272 589.561 129.013 589.23 129.674C588.91 130.346 588.414 130.88 587.742 131.274C587.081 131.669 586.254 131.866 585.262 131.866C583.939 131.866 582.867 131.552 582.046 130.922C581.225 130.304 580.755 129.461 580.638 128.394H583.342C583.427 128.736 583.63 129.002 583.95 129.194C584.27 129.397 584.665 129.498 585.134 129.498C585.699 129.498 586.147 129.333 586.478 129.002C586.819 128.682 586.99 128.165 586.99 127.45V126.186C586.723 126.602 586.355 126.944 585.886 127.21C585.417 127.466 584.867 127.594 584.238 127.594C583.502 127.594 582.835 127.408 582.238 127.034C581.641 126.65 581.166 126.112 580.814 125.418C580.473 124.714 580.302 123.904 580.302 122.986C580.302 122.069 580.473 121.264 580.814 120.57C581.166 119.877 581.641 119.344 582.238 118.97C582.835 118.597 583.502 118.41 584.238 118.41ZM586.99 123.002C586.99 122.32 586.798 121.781 586.414 121.386C586.041 120.992 585.582 120.794 585.038 120.794C584.494 120.794 584.03 120.992 583.646 121.386C583.273 121.77 583.086 122.304 583.086 122.986C583.086 123.669 583.273 124.213 583.646 124.618C584.03 125.013 584.494 125.21 585.038 125.21C585.582 125.21 586.041 125.013 586.414 124.618C586.798 124.224 586.99 123.685 586.99 123.002ZM597.673 118.442C598.697 118.442 599.519 118.784 600.137 119.466C600.756 120.138 601.065 121.066 601.065 122.25V127.466H598.345V122.618C598.345 122.021 598.191 121.557 597.881 121.226C597.572 120.896 597.156 120.73 596.633 120.73C596.111 120.73 595.695 120.896 595.385 121.226C595.076 121.557 594.921 122.021 594.921 122.618V127.466H592.185V115.626H594.921V119.738C595.199 119.344 595.577 119.029 596.057 118.794C596.537 118.56 597.076 118.442 597.673 118.442ZM607.079 127.594C606.3 127.594 605.607 127.461 604.999 127.194C604.391 126.928 603.911 126.565 603.559 126.106C603.207 125.637 603.009 125.114 602.967 124.538H605.671C605.703 124.848 605.847 125.098 606.103 125.29C606.359 125.482 606.673 125.578 607.047 125.578C607.388 125.578 607.649 125.514 607.831 125.386C608.023 125.248 608.119 125.072 608.119 124.858C608.119 124.602 607.985 124.416 607.719 124.298C607.452 124.17 607.02 124.032 606.423 123.882C605.783 123.733 605.249 123.578 604.823 123.418C604.396 123.248 604.028 122.986 603.719 122.634C603.409 122.272 603.255 121.786 603.255 121.178C603.255 120.666 603.393 120.202 603.671 119.786C603.959 119.36 604.375 119.024 604.919 118.778C605.473 118.533 606.129 118.41 606.887 118.41C608.007 118.41 608.887 118.688 609.527 119.242C610.177 119.797 610.551 120.533 610.647 121.45H608.119C608.076 121.141 607.937 120.896 607.703 120.714C607.479 120.533 607.18 120.442 606.807 120.442C606.487 120.442 606.241 120.506 606.071 120.634C605.9 120.752 605.815 120.917 605.815 121.13C605.815 121.386 605.948 121.578 606.215 121.706C606.492 121.834 606.919 121.962 607.495 122.09C608.156 122.261 608.695 122.432 609.111 122.602C609.527 122.762 609.889 123.029 610.199 123.402C610.519 123.765 610.684 124.256 610.695 124.874C610.695 125.397 610.545 125.866 610.247 126.282C609.959 126.688 609.537 127.008 608.983 127.242C608.439 127.477 607.804 127.594 607.079 127.594ZM623.711 125.482H619.519L618.847 127.466H615.983L620.047 116.234H623.215L627.279 127.466H624.383L623.711 125.482ZM623.007 123.37L621.615 119.258L620.239 123.37H623.007ZM634.436 118.442C635.481 118.442 636.313 118.784 636.932 119.466C637.561 120.138 637.876 121.066 637.876 122.25V127.466H635.156V122.618C635.156 122.021 635.001 121.557 634.692 121.226C634.383 120.896 633.967 120.73 633.444 120.73C632.921 120.73 632.505 120.896 632.196 121.226C631.887 121.557 631.732 122.021 631.732 122.618V127.466H628.996V118.538H631.732V119.722C632.009 119.328 632.383 119.018 632.852 118.794C633.321 118.56 633.849 118.442 634.436 118.442ZM639.713 122.986C639.713 122.069 639.884 121.264 640.225 120.57C640.577 119.877 641.052 119.344 641.649 118.97C642.246 118.597 642.913 118.41 643.649 118.41C644.236 118.41 644.769 118.533 645.249 118.778C645.74 119.024 646.124 119.354 646.401 119.77V115.626H649.137V127.466H646.401V126.186C646.145 126.613 645.777 126.954 645.297 127.21C644.828 127.466 644.278 127.594 643.649 127.594C642.913 127.594 642.246 127.408 641.649 127.034C641.052 126.65 640.577 126.112 640.225 125.418C639.884 124.714 639.713 123.904 639.713 122.986ZM646.401 123.002C646.401 122.32 646.209 121.781 645.825 121.386C645.452 120.992 644.993 120.794 644.449 120.794C643.905 120.794 643.441 120.992 643.057 121.386C642.684 121.77 642.497 122.304 642.497 122.986C642.497 123.669 642.684 124.213 643.057 124.618C643.441 125.013 643.905 125.21 644.449 125.21C644.993 125.21 645.452 125.013 645.825 124.618C646.209 124.224 646.401 123.685 646.401 123.002ZM670.923 116.234L667.995 127.466H664.683L662.891 120.074L661.035 127.466H657.723L654.875 116.234H657.803L659.419 124.41L661.419 116.234H664.427L666.347 124.41L667.979 116.234H670.923ZM681.191 122.858C681.191 123.114 681.175 123.381 681.143 123.658H674.951C674.994 124.213 675.17 124.64 675.479 124.938C675.799 125.226 676.189 125.37 676.647 125.37C677.33 125.37 677.805 125.082 678.071 124.506H680.983C680.834 125.093 680.562 125.621 680.167 126.09C679.783 126.56 679.298 126.928 678.711 127.194C678.125 127.461 677.469 127.594 676.743 127.594C675.869 127.594 675.09 127.408 674.407 127.034C673.725 126.661 673.191 126.128 672.807 125.434C672.423 124.741 672.231 123.93 672.231 123.002C672.231 122.074 672.418 121.264 672.791 120.57C673.175 119.877 673.709 119.344 674.391 118.97C675.074 118.597 675.858 118.41 676.743 118.41C677.607 118.41 678.375 118.592 679.047 118.954C679.719 119.317 680.242 119.834 680.615 120.506C680.999 121.178 681.191 121.962 681.191 122.858ZM678.391 122.138C678.391 121.669 678.231 121.296 677.911 121.018C677.591 120.741 677.191 120.602 676.711 120.602C676.253 120.602 675.863 120.736 675.543 121.002C675.234 121.269 675.042 121.648 674.967 122.138H678.391ZM685.851 115.626V127.466H683.115V115.626H685.851ZM687.769 123.002C687.769 122.074 687.956 121.264 688.329 120.57C688.713 119.877 689.241 119.344 689.913 118.97C690.596 118.597 691.375 118.41 692.249 118.41C693.369 118.41 694.303 118.704 695.049 119.29C695.807 119.877 696.303 120.704 696.537 121.77H693.625C693.38 121.088 692.905 120.746 692.201 120.746C691.7 120.746 691.3 120.944 691.001 121.338C690.703 121.722 690.553 122.277 690.553 123.002C690.553 123.728 690.703 124.288 691.001 124.682C691.3 125.066 691.7 125.258 692.201 125.258C692.905 125.258 693.38 124.917 693.625 124.234H696.537C696.303 125.28 695.807 126.101 695.049 126.698C694.292 127.296 693.359 127.594 692.249 127.594C691.375 127.594 690.596 127.408 689.913 127.034C689.241 126.661 688.713 126.128 688.329 125.434C687.956 124.741 687.769 123.93 687.769 123.002ZM702.545 127.594C701.67 127.594 700.881 127.408 700.177 127.034C699.484 126.661 698.934 126.128 698.529 125.434C698.134 124.741 697.937 123.93 697.937 123.002C697.937 122.085 698.14 121.28 698.545 120.586C698.95 119.882 699.505 119.344 700.209 118.97C700.913 118.597 701.702 118.41 702.577 118.41C703.452 118.41 704.241 118.597 704.945 118.97C705.649 119.344 706.204 119.882 706.609 120.586C707.014 121.28 707.217 122.085 707.217 123.002C707.217 123.92 707.009 124.73 706.593 125.434C706.188 126.128 705.628 126.661 704.913 127.034C704.209 127.408 703.42 127.594 702.545 127.594ZM702.545 125.226C703.068 125.226 703.51 125.034 703.873 124.65C704.246 124.266 704.433 123.717 704.433 123.002C704.433 122.288 704.252 121.738 703.889 121.354C703.537 120.97 703.1 120.778 702.577 120.778C702.044 120.778 701.601 120.97 701.249 121.354C700.897 121.728 700.721 122.277 700.721 123.002C700.721 123.717 700.892 124.266 701.233 124.65C701.585 125.034 702.022 125.226 702.545 125.226ZM720.54 118.442C721.65 118.442 722.53 118.778 723.18 119.45C723.842 120.122 724.172 121.056 724.172 122.25V127.466H721.452V122.618C721.452 122.042 721.298 121.6 720.988 121.29C720.69 120.97 720.274 120.81 719.74 120.81C719.207 120.81 718.786 120.97 718.476 121.29C718.178 121.6 718.028 122.042 718.028 122.618V127.466H715.308V122.618C715.308 122.042 715.154 121.6 714.844 121.29C714.546 120.97 714.13 120.81 713.596 120.81C713.063 120.81 712.642 120.97 712.332 121.29C712.034 121.6 711.884 122.042 711.884 122.618V127.466H709.148V118.538H711.884V119.658C712.162 119.285 712.524 118.992 712.972 118.778C713.42 118.554 713.927 118.442 714.492 118.442C715.164 118.442 715.762 118.586 716.284 118.874C716.818 119.162 717.234 119.573 717.532 120.106C717.842 119.616 718.263 119.216 718.796 118.906C719.33 118.597 719.911 118.442 720.54 118.442ZM727.942 117.61C727.462 117.61 727.067 117.472 726.758 117.194C726.459 116.906 726.31 116.554 726.31 116.138C726.31 115.712 726.459 115.36 726.758 115.082C727.067 114.794 727.462 114.65 727.942 114.65C728.411 114.65 728.795 114.794 729.094 115.082C729.403 115.36 729.558 115.712 729.558 116.138C729.558 116.554 729.403 116.906 729.094 117.194C728.795 117.472 728.411 117.61 727.942 117.61ZM729.302 118.538V127.466H726.566V118.538H729.302ZM737.205 118.442C738.25 118.442 739.082 118.784 739.701 119.466C740.33 120.138 740.645 121.066 740.645 122.25V127.466H737.925V122.618C737.925 122.021 737.77 121.557 737.461 121.226C737.151 120.896 736.735 120.73 736.213 120.73C735.69 120.73 735.274 120.896 734.965 121.226C734.655 121.557 734.501 122.021 734.501 122.618V127.466H731.765V118.538H734.501V119.722C734.778 119.328 735.151 119.018 735.621 118.794C736.09 118.56 736.618 118.442 737.205 118.442ZM746.418 118.41C747.047 118.41 747.597 118.538 748.066 118.794C748.546 119.05 748.914 119.386 749.17 119.802V118.538H751.906V127.45C751.906 128.272 751.741 129.013 751.41 129.674C751.09 130.346 750.594 130.88 749.922 131.274C749.261 131.669 748.434 131.866 747.442 131.866C746.119 131.866 745.047 131.552 744.226 130.922C743.405 130.304 742.935 129.461 742.818 128.394H745.522C745.607 128.736 745.81 129.002 746.13 129.194C746.45 129.397 746.845 129.498 747.314 129.498C747.879 129.498 748.327 129.333 748.658 129.002C748.999 128.682 749.17 128.165 749.17 127.45V126.186C748.903 126.602 748.535 126.944 748.066 127.21C747.597 127.466 747.047 127.594 746.418 127.594C745.682 127.594 745.015 127.408 744.418 127.034C743.821 126.65 743.346 126.112 742.994 125.418C742.653 124.714 742.482 123.904 742.482 122.986C742.482 122.069 742.653 121.264 742.994 120.57C743.346 119.877 743.821 119.344 744.418 118.97C745.015 118.597 745.682 118.41 746.418 118.41ZM749.17 123.002C749.17 122.32 748.978 121.781 748.594 121.386C748.221 120.992 747.762 120.794 747.218 120.794C746.674 120.794 746.21 120.992 745.826 121.386C745.453 121.77 745.266 122.304 745.266 122.986C745.266 123.669 745.453 124.213 745.826 124.618C746.21 125.013 746.674 125.21 747.218 125.21C747.762 125.21 748.221 125.013 748.594 124.618C748.978 124.224 749.17 123.685 749.17 123.002ZM384.094 145.834C384.094 144.725 384.334 143.738 384.814 142.874C385.294 142 385.961 141.322 386.814 140.842C387.678 140.352 388.654 140.106 389.742 140.106C391.076 140.106 392.217 140.458 393.166 141.162C394.116 141.866 394.75 142.826 395.07 144.042H392.062C391.838 143.573 391.518 143.216 391.102 142.97C390.697 142.725 390.233 142.602 389.71 142.602C388.868 142.602 388.185 142.896 387.662 143.482C387.14 144.069 386.878 144.853 386.878 145.834C386.878 146.816 387.14 147.6 387.662 148.186C388.185 148.773 388.868 149.066 389.71 149.066C390.233 149.066 390.697 148.944 391.102 148.698C391.518 148.453 391.838 148.096 392.062 147.626H395.07C394.75 148.842 394.116 149.802 393.166 150.506C392.217 151.2 391.076 151.546 389.742 151.546C388.654 151.546 387.678 151.306 386.814 150.826C385.961 150.336 385.294 149.658 384.814 148.794C384.334 147.93 384.094 146.944 384.094 145.834ZM401.29 151.594C400.415 151.594 399.626 151.408 398.922 151.034C398.229 150.661 397.679 150.128 397.274 149.434C396.879 148.741 396.682 147.93 396.682 147.002C396.682 146.085 396.885 145.28 397.29 144.586C397.695 143.882 398.25 143.344 398.954 142.97C399.658 142.597 400.447 142.41 401.322 142.41C402.197 142.41 402.986 142.597 403.69 142.97C404.394 143.344 404.949 143.882 405.354 144.586C405.759 145.28 405.962 146.085 405.962 147.002C405.962 147.92 405.754 148.73 405.338 149.434C404.933 150.128 404.373 150.661 403.658 151.034C402.954 151.408 402.165 151.594 401.29 151.594ZM401.29 149.226C401.813 149.226 402.255 149.034 402.618 148.65C402.991 148.266 403.178 147.717 403.178 147.002C403.178 146.288 402.997 145.738 402.634 145.354C402.282 144.97 401.845 144.778 401.322 144.778C400.789 144.778 400.346 144.97 399.994 145.354C399.642 145.728 399.466 146.277 399.466 147.002C399.466 147.717 399.637 148.266 399.978 148.65C400.33 149.034 400.767 149.226 401.29 149.226ZM413.333 142.442C414.379 142.442 415.211 142.784 415.829 143.466C416.459 144.138 416.773 145.066 416.773 146.25V151.466H414.053V146.618C414.053 146.021 413.899 145.557 413.589 145.226C413.28 144.896 412.864 144.73 412.341 144.73C411.819 144.73 411.403 144.896 411.093 145.226C410.784 145.557 410.629 146.021 410.629 146.618V151.466H407.893V142.538H410.629V143.722C410.907 143.328 411.28 143.018 411.749 142.794C412.219 142.56 412.747 142.442 413.333 142.442ZM424.131 149.146V151.466H422.739C421.747 151.466 420.973 151.226 420.419 150.746C419.864 150.256 419.587 149.461 419.587 148.362V144.81H418.499V142.538H419.587V140.362H422.323V142.538H424.115V144.81H422.323V148.394C422.323 148.661 422.387 148.853 422.515 148.97C422.643 149.088 422.856 149.146 423.155 149.146H424.131ZM427.511 141.61C427.031 141.61 426.636 141.472 426.327 141.194C426.028 140.906 425.879 140.554 425.879 140.138C425.879 139.712 426.028 139.36 426.327 139.082C426.636 138.794 427.031 138.65 427.511 138.65C427.98 138.65 428.364 138.794 428.663 139.082C428.972 139.36 429.127 139.712 429.127 140.138C429.127 140.554 428.972 140.906 428.663 141.194C428.364 141.472 427.98 141.61 427.511 141.61ZM428.871 142.538V151.466H426.135V142.538H428.871ZM436.773 142.442C437.819 142.442 438.651 142.784 439.269 143.466C439.899 144.138 440.213 145.066 440.213 146.25V151.466H437.493V146.618C437.493 146.021 437.339 145.557 437.029 145.226C436.72 144.896 436.304 144.73 435.781 144.73C435.259 144.73 434.843 144.896 434.533 145.226C434.224 145.557 434.069 146.021 434.069 146.618V151.466H431.333V142.538H434.069V143.722C434.347 143.328 434.72 143.018 435.189 142.794C435.659 142.56 436.187 142.442 436.773 142.442ZM451.411 142.538V151.466H448.675V150.25C448.397 150.645 448.019 150.965 447.539 151.21C447.069 151.445 446.547 151.562 445.971 151.562C445.288 151.562 444.685 151.413 444.163 151.114C443.64 150.805 443.235 150.362 442.947 149.786C442.659 149.21 442.515 148.533 442.515 147.754V142.538H445.235V147.386C445.235 147.984 445.389 148.448 445.699 148.778C446.008 149.109 446.424 149.274 446.947 149.274C447.48 149.274 447.901 149.109 448.211 148.778C448.52 148.448 448.675 147.984 448.675 147.386V142.538H451.411ZM457.92 151.594C457.045 151.594 456.256 151.408 455.552 151.034C454.859 150.661 454.309 150.128 453.904 149.434C453.509 148.741 453.312 147.93 453.312 147.002C453.312 146.085 453.515 145.28 453.92 144.586C454.325 143.882 454.88 143.344 455.584 142.97C456.288 142.597 457.077 142.41 457.952 142.41C458.827 142.41 459.616 142.597 460.32 142.97C461.024 143.344 461.579 143.882 461.984 144.586C462.389 145.28 462.592 146.085 462.592 147.002C462.592 147.92 462.384 148.73 461.968 149.434C461.563 150.128 461.003 150.661 460.288 151.034C459.584 151.408 458.795 151.594 457.92 151.594ZM457.92 149.226C458.443 149.226 458.885 149.034 459.248 148.65C459.621 148.266 459.808 147.717 459.808 147.002C459.808 146.288 459.627 145.738 459.264 145.354C458.912 144.97 458.475 144.778 457.952 144.778C457.419 144.778 456.976 144.97 456.624 145.354C456.272 145.728 456.096 146.277 456.096 147.002C456.096 147.717 456.267 148.266 456.608 148.65C456.96 149.034 457.397 149.226 457.92 149.226ZM473.339 142.538V151.466H470.603V150.25C470.326 150.645 469.947 150.965 469.467 151.21C468.998 151.445 468.475 151.562 467.899 151.562C467.217 151.562 466.614 151.413 466.091 151.114C465.569 150.805 465.163 150.362 464.875 149.786C464.587 149.21 464.443 148.533 464.443 147.754V142.538H467.163V147.386C467.163 147.984 467.318 148.448 467.627 148.778C467.937 149.109 468.353 149.274 468.875 149.274C469.409 149.274 469.83 149.109 470.139 148.778C470.449 148.448 470.603 147.984 470.603 147.386V142.538H473.339ZM479.417 151.594C478.638 151.594 477.945 151.461 477.337 151.194C476.729 150.928 476.249 150.565 475.897 150.106C475.545 149.637 475.347 149.114 475.305 148.538H478.009C478.041 148.848 478.185 149.098 478.441 149.29C478.697 149.482 479.011 149.578 479.385 149.578C479.726 149.578 479.987 149.514 480.169 149.386C480.361 149.248 480.457 149.072 480.457 148.858C480.457 148.602 480.323 148.416 480.057 148.298C479.79 148.17 479.358 148.032 478.761 147.882C478.121 147.733 477.587 147.578 477.161 147.418C476.734 147.248 476.366 146.986 476.057 146.634C475.747 146.272 475.593 145.786 475.593 145.178C475.593 144.666 475.731 144.202 476.009 143.786C476.297 143.36 476.713 143.024 477.257 142.778C477.811 142.533 478.467 142.41 479.225 142.41C480.345 142.41 481.225 142.688 481.865 143.242C482.515 143.797 482.889 144.533 482.985 145.45H480.457C480.414 145.141 480.275 144.896 480.041 144.714C479.817 144.533 479.518 144.442 479.145 144.442C478.825 144.442 478.579 144.506 478.409 144.634C478.238 144.752 478.153 144.917 478.153 145.13C478.153 145.386 478.286 145.578 478.553 145.706C478.83 145.834 479.257 145.962 479.833 146.09C480.494 146.261 481.033 146.432 481.449 146.602C481.865 146.762 482.227 147.029 482.537 147.402C482.857 147.765 483.022 148.256 483.033 148.874C483.033 149.397 482.883 149.866 482.585 150.282C482.297 150.688 481.875 151.008 481.321 151.242C480.777 151.477 480.142 151.594 479.417 151.594ZM491.793 140.234V151.466H489.057V140.234H491.793ZM505.648 142.442C506.757 142.442 507.637 142.778 508.288 143.45C508.949 144.122 509.28 145.056 509.28 146.25V151.466H506.56V146.618C506.56 146.042 506.405 145.6 506.096 145.29C505.797 144.97 505.381 144.81 504.848 144.81C504.315 144.81 503.893 144.97 503.584 145.29C503.285 145.6 503.136 146.042 503.136 146.618V151.466H500.416V146.618C500.416 146.042 500.261 145.6 499.952 145.29C499.653 144.97 499.237 144.81 498.704 144.81C498.171 144.81 497.749 144.97 497.44 145.29C497.141 145.6 496.992 146.042 496.992 146.618V151.466H494.256V142.538H496.992V143.658C497.269 143.285 497.632 142.992 498.08 142.778C498.528 142.554 499.035 142.442 499.6 142.442C500.272 142.442 500.869 142.586 501.392 142.874C501.925 143.162 502.341 143.573 502.64 144.106C502.949 143.616 503.371 143.216 503.904 142.906C504.437 142.597 505.019 142.442 505.648 142.442ZM514.409 143.802C514.676 143.386 515.044 143.05 515.513 142.794C515.983 142.538 516.532 142.41 517.161 142.41C517.897 142.41 518.564 142.597 519.161 142.97C519.759 143.344 520.228 143.877 520.569 144.57C520.921 145.264 521.097 146.069 521.097 146.986C521.097 147.904 520.921 148.714 520.569 149.418C520.228 150.112 519.759 150.65 519.161 151.034C518.564 151.408 517.897 151.594 517.161 151.594C516.543 151.594 515.993 151.466 515.513 151.21C515.044 150.954 514.676 150.624 514.409 150.218V155.722H511.673V142.538H514.409V143.802ZM518.313 146.986C518.313 146.304 518.121 145.77 517.737 145.386C517.364 144.992 516.9 144.794 516.345 144.794C515.801 144.794 515.337 144.992 514.953 145.386C514.58 145.781 514.393 146.32 514.393 147.002C514.393 147.685 514.58 148.224 514.953 148.618C515.337 149.013 515.801 149.21 516.345 149.21C516.889 149.21 517.353 149.013 517.737 148.618C518.121 148.213 518.313 147.669 518.313 146.986ZM525.749 144.026C526.069 143.536 526.469 143.152 526.949 142.874C527.429 142.586 527.962 142.442 528.549 142.442V145.338H527.797C527.114 145.338 526.602 145.488 526.261 145.786C525.919 146.074 525.749 146.586 525.749 147.322V151.466H523.013V142.538H525.749V144.026ZM534.401 151.594C533.526 151.594 532.737 151.408 532.033 151.034C531.339 150.661 530.79 150.128 530.385 149.434C529.99 148.741 529.793 147.93 529.793 147.002C529.793 146.085 529.995 145.28 530.401 144.586C530.806 143.882 531.361 143.344 532.065 142.97C532.769 142.597 533.558 142.41 534.433 142.41C535.307 142.41 536.097 142.597 536.801 142.97C537.505 143.344 538.059 143.882 538.465 144.586C538.87 145.28 539.073 146.085 539.073 147.002C539.073 147.92 538.865 148.73 538.449 149.434C538.043 150.128 537.483 150.661 536.769 151.034C536.065 151.408 535.275 151.594 534.401 151.594ZM534.401 149.226C534.923 149.226 535.366 149.034 535.729 148.65C536.102 148.266 536.289 147.717 536.289 147.002C536.289 146.288 536.107 145.738 535.745 145.354C535.393 144.97 534.955 144.778 534.433 144.778C533.899 144.778 533.457 144.97 533.105 145.354C532.753 145.728 532.577 146.277 532.577 147.002C532.577 147.717 532.747 148.266 533.089 148.65C533.441 149.034 533.878 149.226 534.401 149.226ZM545.02 148.906L546.956 142.538H549.868L546.7 151.466H543.324L540.156 142.538H543.084L545.02 148.906ZM559.916 146.858C559.916 147.114 559.9 147.381 559.868 147.658H553.676C553.718 148.213 553.894 148.64 554.204 148.938C554.524 149.226 554.913 149.37 555.372 149.37C556.054 149.37 556.529 149.082 556.796 148.506H559.708C559.558 149.093 559.286 149.621 558.892 150.09C558.508 150.56 558.022 150.928 557.436 151.194C556.849 151.461 556.193 151.594 555.468 151.594C554.593 151.594 553.814 151.408 553.132 151.034C552.449 150.661 551.916 150.128 551.532 149.434C551.148 148.741 550.956 147.93 550.956 147.002C550.956 146.074 551.142 145.264 551.516 144.57C551.9 143.877 552.433 143.344 553.116 142.97C553.798 142.597 554.582 142.41 555.468 142.41C556.332 142.41 557.1 142.592 557.772 142.954C558.444 143.317 558.966 143.834 559.34 144.506C559.724 145.178 559.916 145.962 559.916 146.858ZM557.116 146.138C557.116 145.669 556.956 145.296 556.636 145.018C556.316 144.741 555.916 144.602 555.436 144.602C554.977 144.602 554.588 144.736 554.268 145.002C553.958 145.269 553.766 145.648 553.692 146.138H557.116ZM573.231 142.442C574.34 142.442 575.22 142.778 575.871 143.45C576.532 144.122 576.863 145.056 576.863 146.25V151.466H574.143V146.618C574.143 146.042 573.988 145.6 573.679 145.29C573.38 144.97 572.964 144.81 572.431 144.81C571.898 144.81 571.476 144.97 571.167 145.29C570.868 145.6 570.719 146.042 570.719 146.618V151.466H567.999V146.618C567.999 146.042 567.844 145.6 567.535 145.29C567.236 144.97 566.82 144.81 566.287 144.81C565.754 144.81 565.332 144.97 565.023 145.29C564.724 145.6 564.575 146.042 564.575 146.618V151.466H561.839V142.538H564.575V143.658C564.852 143.285 565.215 142.992 565.663 142.778C566.111 142.554 566.618 142.442 567.183 142.442C567.855 142.442 568.452 142.586 568.975 142.874C569.508 143.162 569.924 143.573 570.223 144.106C570.532 143.616 570.954 143.216 571.487 142.906C572.02 142.597 572.602 142.442 573.231 142.442ZM587.673 146.858C587.673 147.114 587.657 147.381 587.625 147.658H581.433C581.475 148.213 581.651 148.64 581.961 148.938C582.281 149.226 582.67 149.37 583.129 149.37C583.811 149.37 584.286 149.082 584.553 148.506H587.465C587.315 149.093 587.043 149.621 586.649 150.09C586.265 150.56 585.779 150.928 585.193 151.194C584.606 151.461 583.95 151.594 583.225 151.594C582.35 151.594 581.571 151.408 580.889 151.034C580.206 150.661 579.673 150.128 579.289 149.434C578.905 148.741 578.713 147.93 578.713 147.002C578.713 146.074 578.899 145.264 579.273 144.57C579.657 143.877 580.19 143.344 580.873 142.97C581.555 142.597 582.339 142.41 583.225 142.41C584.089 142.41 584.857 142.592 585.529 142.954C586.201 143.317 586.723 143.834 587.097 144.506C587.481 145.178 587.673 145.962 587.673 146.858ZM584.873 146.138C584.873 145.669 584.713 145.296 584.393 145.018C584.073 144.741 583.673 144.602 583.193 144.602C582.734 144.602 582.345 144.736 582.025 145.002C581.715 145.269 581.523 145.648 581.449 146.138H584.873ZM595.036 142.442C596.081 142.442 596.913 142.784 597.532 143.466C598.161 144.138 598.476 145.066 598.476 146.25V151.466H595.756V146.618C595.756 146.021 595.601 145.557 595.292 145.226C594.983 144.896 594.567 144.73 594.044 144.73C593.521 144.73 593.105 144.896 592.796 145.226C592.487 145.557 592.332 146.021 592.332 146.618V151.466H589.596V142.538H592.332V143.722C592.609 143.328 592.983 143.018 593.452 142.794C593.921 142.56 594.449 142.442 595.036 142.442ZM605.833 149.146V151.466H604.441C603.449 151.466 602.676 151.226 602.121 150.746C601.566 150.256 601.289 149.461 601.289 148.362V144.81H600.201V142.538H601.289V140.362H604.025V142.538H605.817V144.81H604.025V148.394C604.025 148.661 604.089 148.853 604.217 148.97C604.345 149.088 604.558 149.146 604.857 149.146H605.833ZM609.117 151.594C608.637 151.594 608.242 151.456 607.933 151.178C607.634 150.89 607.485 150.538 607.485 150.122C607.485 149.696 607.634 149.338 607.933 149.05C608.242 148.762 608.637 148.618 609.117 148.618C609.586 148.618 609.97 148.762 610.269 149.05C610.578 149.338 610.733 149.696 610.733 150.122C610.733 150.538 610.578 150.89 610.269 151.178C609.97 151.456 609.586 151.594 609.117 151.594Z" fill="black"/>
<path d="M384.754 68.0673C384.754 65.5713 385.294 63.3513 386.374 61.4073C387.454 59.4393 388.954 57.9153 390.874 56.8353C392.818 55.7313 395.014 55.1793 397.462 55.1793C400.462 55.1793 403.03 55.9713 405.166 57.5553C407.302 59.1393 408.73 61.2993 409.45 64.0353H402.682C402.178 62.9793 401.458 62.1753 400.522 61.6233C399.61 61.0713 398.566 60.7953 397.39 60.7953C395.494 60.7953 393.958 61.4553 392.782 62.7753C391.606 64.0953 391.018 65.8593 391.018 68.0673C391.018 70.2753 391.606 72.0393 392.782 73.3593C393.958 74.6793 395.494 75.3393 397.39 75.3393C398.566 75.3393 399.61 75.0633 400.522 74.5113C401.458 73.9593 402.178 73.1553 402.682 72.0993H409.45C408.73 74.8353 407.302 76.9953 405.166 78.5793C403.03 80.1393 400.462 80.9193 397.462 80.9193C395.014 80.9193 392.818 80.3793 390.874 79.2993C388.954 78.1953 387.454 76.6713 386.374 74.7273C385.294 72.7833 384.754 70.5633 384.754 68.0673ZM420.456 63.9993C421.176 62.8953 422.076 62.0313 423.156 61.4073C424.236 60.7593 425.436 60.4353 426.756 60.4353V66.9513H425.064C423.528 66.9513 422.376 67.2873 421.608 67.9593C420.84 68.6073 420.456 69.7593 420.456 71.4153V80.7393H414.3V60.6513H420.456V63.9993ZM449.715 70.3713C449.715 70.9473 449.679 71.5473 449.607 72.1713H435.675C435.771 73.4193 436.167 74.3793 436.863 75.0513C437.583 75.6993 438.459 76.0233 439.491 76.0233C441.027 76.0233 442.095 75.3753 442.695 74.0793H449.247C448.911 75.3993 448.299 76.5873 447.411 77.6433C446.547 78.6993 445.455 79.5273 444.135 80.1273C442.815 80.7273 441.339 81.0273 439.707 81.0273C437.739 81.0273 435.987 80.6073 434.451 79.7673C432.915 78.9273 431.715 77.7273 430.851 76.1673C429.987 74.6073 429.555 72.7833 429.555 70.6953C429.555 68.6073 429.975 66.7833 430.815 65.2233C431.679 63.6633 432.879 62.4633 434.415 61.6233C435.951 60.7833 437.715 60.3633 439.707 60.3633C441.651 60.3633 443.379 60.7713 444.891 61.5873C446.403 62.4033 447.579 63.5673 448.419 65.0793C449.283 66.5913 449.715 68.3553 449.715 70.3713ZM443.415 68.7513C443.415 67.6953 443.055 66.8553 442.335 66.2313C441.615 65.6073 440.715 65.2953 439.635 65.2953C438.603 65.2953 437.727 65.5953 437.007 66.1953C436.311 66.7953 435.879 67.6473 435.711 68.7513H443.415ZM452.818 70.6593C452.818 68.5953 453.202 66.7833 453.97 65.2233C454.762 63.6633 455.83 62.4633 457.174 61.6233C458.518 60.7833 460.018 60.3633 461.674 60.3633C463.09 60.3633 464.326 60.6513 465.382 61.2273C466.462 61.8033 467.29 62.5593 467.866 63.4953V60.6513H474.022V80.7393H467.866V77.8953C467.266 78.8313 466.426 79.5873 465.346 80.1633C464.29 80.7393 463.054 81.0273 461.638 81.0273C460.006 81.0273 458.518 80.6073 457.174 79.7673C455.83 78.9033 454.762 77.6913 453.97 76.1313C453.202 74.5473 452.818 72.7233 452.818 70.6593ZM467.866 70.6953C467.866 69.1593 467.434 67.9473 466.57 67.0593C465.73 66.1713 464.698 65.7273 463.474 65.7273C462.25 65.7273 461.206 66.1713 460.342 67.0593C459.502 67.9233 459.082 69.1233 459.082 70.6593C459.082 72.1953 459.502 73.4193 460.342 74.3313C461.206 75.2193 462.25 75.6633 463.474 75.6633C464.698 75.6633 465.73 75.2193 466.57 74.3313C467.434 73.4433 467.866 72.2313 467.866 70.6953ZM490.752 75.5193V80.7393H487.62C485.388 80.7393 483.648 80.1993 482.4 79.1193C481.152 78.0153 480.528 76.2273 480.528 73.7553V65.7633H478.08V60.6513H480.528V55.7553H486.684V60.6513H490.716V65.7633H486.684V73.8273C486.684 74.4273 486.828 74.8593 487.116 75.1233C487.404 75.3873 487.884 75.5193 488.556 75.5193H490.752ZM498.357 58.5633C497.277 58.5633 496.389 58.2513 495.693 57.6273C495.021 56.9793 494.685 56.1873 494.685 55.2513C494.685 54.2913 495.021 53.4993 495.693 52.8753C496.389 52.2273 497.277 51.9033 498.357 51.9033C499.413 51.9033 500.277 52.2273 500.949 52.8753C501.645 53.4993 501.993 54.2913 501.993 55.2513C501.993 56.1873 501.645 56.9793 500.949 57.6273C500.277 58.2513 499.413 58.5633 498.357 58.5633ZM501.417 60.6513V80.7393H495.261V60.6513H501.417ZM515.994 74.9793L520.35 60.6513H526.902L519.774 80.7393H512.178L505.05 60.6513H511.638L515.994 74.9793ZM533.669 58.5633C532.589 58.5633 531.701 58.2513 531.005 57.6273C530.333 56.9793 529.997 56.1873 529.997 55.2513C529.997 54.2913 530.333 53.4993 531.005 52.8753C531.701 52.2273 532.589 51.9033 533.669 51.9033C534.725 51.9033 535.589 52.2273 536.261 52.8753C536.957 53.4993 537.305 54.2913 537.305 55.2513C537.305 56.1873 536.957 56.9793 536.261 57.6273C535.589 58.2513 534.725 58.5633 533.669 58.5633ZM536.729 60.6513V80.7393H530.573V60.6513H536.729ZM553.466 75.5193V80.7393H550.334C548.102 80.7393 546.362 80.1993 545.114 79.1193C543.866 78.0153 543.242 76.2273 543.242 73.7553V65.7633H540.794V60.6513H543.242V55.7553H549.398V60.6513H553.43V65.7633H549.398V73.8273C549.398 74.4273 549.542 74.8593 549.83 75.1233C550.118 75.3873 550.598 75.5193 551.27 75.5193H553.466ZM578.495 60.6513L565.895 90.2793H559.271L563.879 80.0553L555.707 60.6513H562.583L567.227 73.2153L571.835 60.6513H578.495Z" fill="black"/>
<path d="M234.327 102.54C235.415 101.676 235.911 101.276 235.815 101.34C238.951 98.7477 241.415 96.6197 243.207 94.9557C245.031 93.2917 246.567 91.5477 247.815 89.7237C249.063 87.8997 249.687 86.1237 249.687 84.3957C249.687 83.0837 249.383 82.0597 248.775 81.3237C248.167 80.5877 247.255 80.2197 246.039 80.2197C244.823 80.2197 243.863 80.6837 243.159 81.6117C242.487 82.5077 242.151 83.7877 242.151 85.4517H234.231C234.295 82.7317 234.871 80.4597 235.959 78.6357C237.079 76.8117 238.535 75.4677 240.327 74.6037C242.151 73.7397 244.167 73.3077 246.375 73.3077C250.183 73.3077 253.047 74.2837 254.967 76.2357C256.919 78.1877 257.895 80.7317 257.895 83.8677C257.895 87.2917 256.727 90.4757 254.391 93.4197C252.055 96.3317 249.079 99.1797 245.463 101.964H258.423V108.636H234.327V102.54Z" fill="black"/>
<defs>
<filter id="filter0_d_939_1263" x="0" y="28.8667" width="1013.2" height="144.46" filterUnits="userSpaceOnUse" color-interpolation-filters="sRGB">
<feFlood flood-opacity="0" result="BackgroundImageFix"/>
<feColorMatrix in="SourceAlpha" type="matrix" values="0 0 0 0 0 0 0 0 0 0 0 0 0 0 0 0 0 0 127 0" result="hardAlpha"/>
<feOffset dy="4"/>
<feGaussianBlur stdDeviation="2"/>
<feComposite in2="hardAlpha" operator="out"/>
<feColorMatrix type="matrix" values="0 0 0 0 0 0 0 0 0 0 0 0 0 0 0 0 0 0 0.25 0"/>
<feBlend mode="normal" in2="BackgroundImageFix" result="effect1_dropShadow_939_1263"/>
<feBlend mode="normal" in="SourceGraphic" in2="effect1_dropShadow_939_1263" result="shape"/>
</filter>
<linearGradient id="paint0_linear_939_1263" x1="163.377" y1="100.231" x2="318.34" y2="100.231" gradientUnits="userSpaceOnUse">
<stop offset="0.1" stop-color="#822FFF"/>
<stop offset="0.9" stop-color="#FF35C4"/>
</linearGradient>
</defs>
</svg>
