<svg width="954" height="192" viewBox="0 0 954 192" fill="none" xmlns="http://www.w3.org/2000/svg">
<g filter="url(#filter0_d_939_1264)">
<path d="M4 28.7998H904.059L950 96.8725L904.059 164.945H4V28.7998Z" fill="#F0F0F0"/>
</g>
<path d="M172 182H153.66L148 165H172V182Z" fill="#FF35C4"/>
<path d="M274 18H300.745L309 29H274V18Z" fill="#FF35C4"/>
<path d="M187.423 18H299.826L269.275 182H153.99L187.423 18Z" fill="url(#paint0_linear_939_1264)"/>
<circle cx="838.427" cy="101" r="45" fill="#373737"/>
<path d="M858.661 83.8962C857.444 82.6884 855.999 81.7303 854.408 81.0766C852.818 80.4229 851.113 80.0864 849.391 80.0864C847.67 80.0864 845.965 80.4229 844.374 81.0766C842.784 81.7303 841.339 82.6884 840.121 83.8962L837.596 86.4016L835.07 83.8962C832.611 81.4577 829.277 80.0877 825.8 80.0877C822.323 80.0877 818.989 81.4577 816.53 83.8962C814.072 86.3347 812.69 89.6421 812.69 93.0907C812.69 96.5394 814.072 99.8467 816.53 102.285L819.056 104.791L837.596 123.18L856.135 104.791L858.661 102.285C859.879 101.078 860.845 99.6447 861.504 98.067C862.163 96.4894 862.502 94.7984 862.502 93.0907C862.502 91.383 862.163 89.6921 861.504 88.1144C860.845 86.5368 859.879 85.1034 858.661 83.8962Z" stroke="url(#paint1_linear_939_1264)" stroke-width="5" stroke-linecap="round" stroke-linejoin="round"/>
<path d="M367.931 127.2L365.595 122.96H364.939V127.2H362.203V115.968H366.795C367.68 115.968 368.432 116.123 369.051 116.432C369.68 116.742 370.15 117.168 370.459 117.712C370.768 118.246 370.923 118.843 370.923 119.504C370.923 120.251 370.71 120.918 370.283 121.504C369.867 122.091 369.248 122.507 368.427 122.752L371.019 127.2H367.931ZM364.939 121.024H366.635C367.136 121.024 367.51 120.902 367.755 120.656C368.011 120.411 368.139 120.064 368.139 119.616C368.139 119.19 368.011 118.854 367.755 118.608C367.51 118.363 367.136 118.24 366.635 118.24H364.939V121.024ZM381.536 122.592C381.536 122.848 381.52 123.115 381.488 123.392H375.296C375.339 123.947 375.515 124.374 375.824 124.672C376.144 124.96 376.534 125.104 376.992 125.104C377.675 125.104 378.15 124.816 378.416 124.24H381.328C381.179 124.827 380.907 125.355 380.512 125.824C380.128 126.294 379.643 126.662 379.056 126.928C378.47 127.195 377.814 127.328 377.088 127.328C376.214 127.328 375.435 127.142 374.752 126.768C374.07 126.395 373.536 125.862 373.152 125.168C372.768 124.475 372.576 123.664 372.576 122.736C372.576 121.808 372.763 120.998 373.136 120.304C373.52 119.611 374.054 119.078 374.736 118.704C375.419 118.331 376.203 118.144 377.088 118.144C377.952 118.144 378.72 118.326 379.392 118.688C380.064 119.051 380.587 119.568 380.96 120.24C381.344 120.912 381.536 121.696 381.536 122.592ZM378.736 121.872C378.736 121.403 378.576 121.03 378.256 120.752C377.936 120.475 377.536 120.336 377.056 120.336C376.598 120.336 376.208 120.47 375.888 120.736C375.579 121.003 375.387 121.382 375.312 121.872H378.736ZM387.092 127.328C386.313 127.328 385.62 127.195 385.012 126.928C384.404 126.662 383.924 126.299 383.572 125.84C383.22 125.371 383.022 124.848 382.98 124.272H385.684C385.716 124.582 385.86 124.832 386.116 125.024C386.372 125.216 386.686 125.312 387.06 125.312C387.401 125.312 387.662 125.248 387.844 125.12C388.036 124.982 388.132 124.806 388.132 124.592C388.132 124.336 387.998 124.15 387.732 124.032C387.465 123.904 387.033 123.766 386.436 123.616C385.796 123.467 385.262 123.312 384.836 123.152C384.409 122.982 384.041 122.72 383.732 122.368C383.422 122.006 383.268 121.52 383.268 120.912C383.268 120.4 383.406 119.936 383.684 119.52C383.972 119.094 384.388 118.758 384.932 118.512C385.486 118.267 386.142 118.144 386.9 118.144C388.02 118.144 388.9 118.422 389.54 118.976C390.19 119.531 390.564 120.267 390.66 121.184H388.132C388.089 120.875 387.95 120.63 387.716 120.448C387.492 120.267 387.193 120.176 386.82 120.176C386.5 120.176 386.254 120.24 386.084 120.368C385.913 120.486 385.828 120.651 385.828 120.864C385.828 121.12 385.961 121.312 386.228 121.44C386.505 121.568 386.932 121.696 387.508 121.824C388.169 121.995 388.708 122.166 389.124 122.336C389.54 122.496 389.902 122.763 390.212 123.136C390.532 123.499 390.697 123.99 390.708 124.608C390.708 125.131 390.558 125.6 390.26 126.016C389.972 126.422 389.55 126.742 388.996 126.976C388.452 127.211 387.817 127.328 387.092 127.328ZM395.598 119.536C395.864 119.12 396.232 118.784 396.702 118.528C397.171 118.272 397.72 118.144 398.35 118.144C399.086 118.144 399.752 118.331 400.35 118.704C400.947 119.078 401.416 119.611 401.758 120.304C402.11 120.998 402.286 121.803 402.286 122.72C402.286 123.638 402.11 124.448 401.758 125.152C401.416 125.846 400.947 126.384 400.35 126.768C399.752 127.142 399.086 127.328 398.35 127.328C397.731 127.328 397.182 127.2 396.702 126.944C396.232 126.688 395.864 126.358 395.598 125.952V131.456H392.862V118.272H395.598V119.536ZM399.502 122.72C399.502 122.038 399.31 121.504 398.926 121.12C398.552 120.726 398.088 120.528 397.534 120.528C396.99 120.528 396.526 120.726 396.142 121.12C395.768 121.515 395.582 122.054 395.582 122.736C395.582 123.419 395.768 123.958 396.142 124.352C396.526 124.747 396.99 124.944 397.534 124.944C398.078 124.944 398.542 124.747 398.926 124.352C399.31 123.947 399.502 123.403 399.502 122.72ZM412.617 122.592C412.617 122.848 412.601 123.115 412.569 123.392H406.377C406.42 123.947 406.596 124.374 406.905 124.672C407.225 124.96 407.614 125.104 408.073 125.104C408.756 125.104 409.23 124.816 409.497 124.24H412.409C412.26 124.827 411.988 125.355 411.593 125.824C411.209 126.294 410.724 126.662 410.137 126.928C409.55 127.195 408.894 127.328 408.169 127.328C407.294 127.328 406.516 127.142 405.833 126.768C405.15 126.395 404.617 125.862 404.233 125.168C403.849 124.475 403.657 123.664 403.657 122.736C403.657 121.808 403.844 120.998 404.217 120.304C404.601 119.611 405.134 119.078 405.817 118.704C406.5 118.331 407.284 118.144 408.169 118.144C409.033 118.144 409.801 118.326 410.473 118.688C411.145 119.051 411.668 119.568 412.041 120.24C412.425 120.912 412.617 121.696 412.617 122.592ZM409.817 121.872C409.817 121.403 409.657 121.03 409.337 120.752C409.017 120.475 408.617 120.336 408.137 120.336C407.678 120.336 407.289 120.47 406.969 120.736C406.66 121.003 406.468 121.382 406.393 121.872H409.817ZM413.996 122.736C413.996 121.808 414.183 120.998 414.556 120.304C414.94 119.611 415.468 119.078 416.14 118.704C416.823 118.331 417.602 118.144 418.476 118.144C419.596 118.144 420.53 118.438 421.276 119.024C422.034 119.611 422.53 120.438 422.764 121.504H419.852C419.607 120.822 419.132 120.48 418.428 120.48C417.927 120.48 417.527 120.678 417.228 121.072C416.93 121.456 416.78 122.011 416.78 122.736C416.78 123.462 416.93 124.022 417.228 124.416C417.527 124.8 417.927 124.992 418.428 124.992C419.132 124.992 419.607 124.651 419.852 123.968H422.764C422.53 125.014 422.034 125.835 421.276 126.432C420.519 127.03 419.586 127.328 418.476 127.328C417.602 127.328 416.823 127.142 416.14 126.768C415.468 126.395 414.94 125.862 414.556 125.168C414.183 124.475 413.996 123.664 413.996 122.736ZM429.684 124.88V127.2H428.292C427.3 127.2 426.527 126.96 425.972 126.48C425.417 125.99 425.14 125.195 425.14 124.096V120.544H424.052V118.272H425.14V116.096H427.876V118.272H429.668V120.544H427.876V124.128C427.876 124.395 427.94 124.587 428.068 124.704C428.196 124.822 428.409 124.88 428.708 124.88H429.684ZM433.064 117.344C432.584 117.344 432.189 117.206 431.88 116.928C431.581 116.64 431.432 116.288 431.432 115.872C431.432 115.446 431.581 115.094 431.88 114.816C432.189 114.528 432.584 114.384 433.064 114.384C433.533 114.384 433.917 114.528 434.216 114.816C434.525 115.094 434.68 115.446 434.68 115.872C434.68 116.288 434.525 116.64 434.216 116.928C433.917 117.206 433.533 117.344 433.064 117.344ZM434.424 118.272V127.2H431.688V118.272H434.424ZM442.327 118.176C443.372 118.176 444.204 118.518 444.823 119.2C445.452 119.872 445.767 120.8 445.767 121.984V127.2H443.047V122.352C443.047 121.755 442.892 121.291 442.583 120.96C442.273 120.63 441.857 120.464 441.335 120.464C440.812 120.464 440.396 120.63 440.087 120.96C439.777 121.291 439.623 121.755 439.623 122.352V127.2H436.887V118.272H439.623V119.456C439.9 119.062 440.273 118.752 440.743 118.528C441.212 118.294 441.74 118.176 442.327 118.176ZM451.54 118.144C452.169 118.144 452.719 118.272 453.188 118.528C453.668 118.784 454.036 119.12 454.292 119.536V118.272H457.028V127.184C457.028 128.006 456.863 128.747 456.532 129.408C456.212 130.08 455.716 130.614 455.044 131.008C454.383 131.403 453.556 131.6 452.564 131.6C451.241 131.6 450.169 131.286 449.348 130.656C448.527 130.038 448.057 129.195 447.94 128.128H450.644C450.729 128.47 450.932 128.736 451.252 128.928C451.572 129.131 451.967 129.232 452.436 129.232C453.001 129.232 453.449 129.067 453.78 128.736C454.121 128.416 454.292 127.899 454.292 127.184V125.92C454.025 126.336 453.657 126.678 453.188 126.944C452.719 127.2 452.169 127.328 451.54 127.328C450.804 127.328 450.137 127.142 449.54 126.768C448.943 126.384 448.468 125.846 448.116 125.152C447.775 124.448 447.604 123.638 447.604 122.72C447.604 121.803 447.775 120.998 448.116 120.304C448.468 119.611 448.943 119.078 449.54 118.704C450.137 118.331 450.804 118.144 451.54 118.144ZM454.292 122.736C454.292 122.054 454.1 121.515 453.716 121.12C453.343 120.726 452.884 120.528 452.34 120.528C451.796 120.528 451.332 120.726 450.948 121.12C450.575 121.504 450.388 122.038 450.388 122.72C450.388 123.403 450.575 123.947 450.948 124.352C451.332 124.747 451.796 124.944 452.34 124.944C452.884 124.944 453.343 124.747 453.716 124.352C454.1 123.958 454.292 123.419 454.292 122.736ZM473.086 115.968V127.2H470.35V122.576H466.094V127.2H463.358V115.968H466.094V120.368H470.35V115.968H473.086ZM484.357 118.272V127.2H481.621V125.984C481.344 126.379 480.965 126.699 480.485 126.944C480.016 127.179 479.493 127.296 478.917 127.296C478.234 127.296 477.632 127.147 477.109 126.848C476.586 126.539 476.181 126.096 475.893 125.52C475.605 124.944 475.461 124.267 475.461 123.488V118.272H478.181V123.12C478.181 123.718 478.336 124.182 478.645 124.512C478.954 124.843 479.37 125.008 479.893 125.008C480.426 125.008 480.848 124.843 481.157 124.512C481.466 124.182 481.621 123.718 481.621 123.12V118.272H484.357ZM498.194 118.176C499.304 118.176 500.184 118.512 500.834 119.184C501.496 119.856 501.826 120.79 501.826 121.984V127.2H499.106V122.352C499.106 121.776 498.952 121.334 498.642 121.024C498.344 120.704 497.928 120.544 497.394 120.544C496.861 120.544 496.44 120.704 496.13 121.024C495.832 121.334 495.682 121.776 495.682 122.352V127.2H492.962V122.352C492.962 121.776 492.808 121.334 492.498 121.024C492.2 120.704 491.784 120.544 491.25 120.544C490.717 120.544 490.296 120.704 489.986 121.024C489.688 121.334 489.538 121.776 489.538 122.352V127.2H486.802V118.272H489.538V119.392C489.816 119.019 490.178 118.726 490.626 118.512C491.074 118.288 491.581 118.176 492.146 118.176C492.818 118.176 493.416 118.32 493.938 118.608C494.472 118.896 494.888 119.307 495.186 119.84C495.496 119.35 495.917 118.95 496.45 118.64C496.984 118.331 497.565 118.176 498.194 118.176ZM503.676 122.72C503.676 121.803 503.846 120.998 504.188 120.304C504.54 119.611 505.014 119.078 505.612 118.704C506.209 118.331 506.876 118.144 507.612 118.144C508.241 118.144 508.79 118.272 509.26 118.528C509.74 118.784 510.108 119.12 510.364 119.536V118.272H513.1V127.2H510.364V125.936C510.097 126.352 509.724 126.688 509.244 126.944C508.774 127.2 508.225 127.328 507.596 127.328C506.87 127.328 506.209 127.142 505.612 126.768C505.014 126.384 504.54 125.846 504.188 125.152C503.846 124.448 503.676 123.638 503.676 122.72ZM510.364 122.736C510.364 122.054 510.172 121.515 509.788 121.12C509.414 120.726 508.956 120.528 508.412 120.528C507.868 120.528 507.404 120.726 507.02 121.12C506.646 121.504 506.46 122.038 506.46 122.72C506.46 123.403 506.646 123.947 507.02 124.352C507.404 124.747 507.868 124.944 508.412 124.944C508.956 124.944 509.414 124.747 509.788 124.352C510.172 123.958 510.364 123.419 510.364 122.736ZM520.999 118.176C522.045 118.176 522.877 118.518 523.495 119.2C524.125 119.872 524.439 120.8 524.439 121.984V127.2H521.719V122.352C521.719 121.755 521.565 121.291 521.255 120.96C520.946 120.63 520.53 120.464 520.007 120.464C519.485 120.464 519.069 120.63 518.759 120.96C518.45 121.291 518.295 121.755 518.295 122.352V127.2H515.559V118.272H518.295V119.456C518.573 119.062 518.946 118.752 519.415 118.528C519.885 118.294 520.413 118.176 520.999 118.176ZM528.196 117.344C527.716 117.344 527.322 117.206 527.012 116.928C526.714 116.64 526.564 116.288 526.564 115.872C526.564 115.446 526.714 115.094 527.012 114.816C527.322 114.528 527.716 114.384 528.196 114.384C528.666 114.384 529.05 114.528 529.348 114.816C529.658 115.094 529.812 115.446 529.812 115.872C529.812 116.288 529.658 116.64 529.348 116.928C529.05 117.206 528.666 117.344 528.196 117.344ZM529.556 118.272V127.2H526.82V118.272H529.556ZM536.995 124.88V127.2H535.603C534.611 127.2 533.838 126.96 533.283 126.48C532.729 125.99 532.451 125.195 532.451 124.096V120.544H531.363V118.272H532.451V116.096H535.187V118.272H536.979V120.544H535.187V124.128C535.187 124.395 535.251 124.587 535.379 124.704C535.507 124.822 535.721 124.88 536.019 124.88H536.995ZM548.119 118.272L542.519 131.44H539.575L541.623 126.896L537.991 118.272H541.047L543.111 123.856L545.159 118.272H548.119ZM560.451 125.216H556.259L555.587 127.2H552.723L556.787 115.968H559.955L564.019 127.2H561.123L560.451 125.216ZM559.747 123.104L558.355 118.992L556.979 123.104H559.747ZM571.176 118.176C572.221 118.176 573.053 118.518 573.672 119.2C574.301 119.872 574.616 120.8 574.616 121.984V127.2H571.896V122.352C571.896 121.755 571.741 121.291 571.432 120.96C571.123 120.63 570.707 120.464 570.184 120.464C569.661 120.464 569.245 120.63 568.936 120.96C568.627 121.291 568.472 121.755 568.472 122.352V127.2H565.736V118.272H568.472V119.456C568.749 119.062 569.123 118.752 569.592 118.528C570.061 118.294 570.589 118.176 571.176 118.176ZM576.453 122.72C576.453 121.803 576.624 120.998 576.965 120.304C577.317 119.611 577.792 119.078 578.389 118.704C578.987 118.331 579.653 118.144 580.389 118.144C580.976 118.144 581.509 118.267 581.989 118.512C582.48 118.758 582.864 119.088 583.141 119.504V115.36H585.877V127.2H583.141V125.92C582.885 126.347 582.517 126.688 582.037 126.944C581.568 127.2 581.019 127.328 580.389 127.328C579.653 127.328 578.987 127.142 578.389 126.768C577.792 126.384 577.317 125.846 576.965 125.152C576.624 124.448 576.453 123.638 576.453 122.72ZM583.141 122.736C583.141 122.054 582.949 121.515 582.565 121.12C582.192 120.726 581.733 120.528 581.189 120.528C580.645 120.528 580.181 120.726 579.797 121.12C579.424 121.504 579.237 122.038 579.237 122.72C579.237 123.403 579.424 123.947 579.797 124.352C580.181 124.747 580.645 124.944 581.189 124.944C581.733 124.944 582.192 124.747 582.565 124.352C582.949 123.958 583.141 123.419 583.141 122.736ZM591.743 121.568C591.743 120.459 591.983 119.472 592.463 118.608C592.943 117.734 593.61 117.056 594.463 116.576C595.327 116.086 596.303 115.84 597.391 115.84C598.725 115.84 599.866 116.192 600.815 116.896C601.765 117.6 602.399 118.56 602.719 119.776H599.711C599.487 119.307 599.167 118.95 598.751 118.704C598.346 118.459 597.882 118.336 597.359 118.336C596.517 118.336 595.834 118.63 595.311 119.216C594.789 119.803 594.527 120.587 594.527 121.568C594.527 122.55 594.789 123.334 595.311 123.92C595.834 124.507 596.517 124.8 597.359 124.8C597.882 124.8 598.346 124.678 598.751 124.432C599.167 124.187 599.487 123.83 599.711 123.36H602.719C602.399 124.576 601.765 125.536 600.815 126.24C599.866 126.934 598.725 127.28 597.391 127.28C596.303 127.28 595.327 127.04 594.463 126.56C593.61 126.07 592.943 125.392 592.463 124.528C591.983 123.664 591.743 122.678 591.743 121.568ZM608.939 127.328C608.064 127.328 607.275 127.142 606.571 126.768C605.877 126.395 605.328 125.862 604.923 125.168C604.528 124.475 604.331 123.664 604.331 122.736C604.331 121.819 604.533 121.014 604.939 120.32C605.344 119.616 605.899 119.078 606.603 118.704C607.307 118.331 608.096 118.144 608.971 118.144C609.845 118.144 610.635 118.331 611.339 118.704C612.043 119.078 612.597 119.616 613.003 120.32C613.408 121.014 613.611 121.819 613.611 122.736C613.611 123.654 613.403 124.464 612.987 125.168C612.581 125.862 612.021 126.395 611.307 126.768C610.603 127.142 609.813 127.328 608.939 127.328ZM608.939 124.96C609.461 124.96 609.904 124.768 610.267 124.384C610.64 124 610.827 123.451 610.827 122.736C610.827 122.022 610.645 121.472 610.283 121.088C609.931 120.704 609.493 120.512 608.971 120.512C608.437 120.512 607.995 120.704 607.643 121.088C607.291 121.462 607.115 122.011 607.115 122.736C607.115 123.451 607.285 124 607.627 124.384C607.979 124.768 608.416 124.96 608.939 124.96ZM626.934 118.176C628.044 118.176 628.924 118.512 629.574 119.184C630.236 119.856 630.566 120.79 630.566 121.984V127.2H627.846V122.352C627.846 121.776 627.692 121.334 627.382 121.024C627.084 120.704 626.668 120.544 626.134 120.544C625.601 120.544 625.18 120.704 624.87 121.024C624.572 121.334 624.422 121.776 624.422 122.352V127.2H621.702V122.352C621.702 121.776 621.548 121.334 621.238 121.024C620.94 120.704 620.524 120.544 619.99 120.544C619.457 120.544 619.036 120.704 618.726 121.024C618.428 121.334 618.278 121.776 618.278 122.352V127.2H615.542V118.272H618.278V119.392C618.556 119.019 618.918 118.726 619.366 118.512C619.814 118.288 620.321 118.176 620.886 118.176C621.558 118.176 622.156 118.32 622.678 118.608C623.212 118.896 623.628 119.307 623.926 119.84C624.236 119.35 624.657 118.95 625.19 118.64C625.724 118.331 626.305 118.176 626.934 118.176ZM635.696 119.536C635.962 119.12 636.33 118.784 636.8 118.528C637.269 118.272 637.818 118.144 638.448 118.144C639.184 118.144 639.85 118.331 640.448 118.704C641.045 119.078 641.514 119.611 641.856 120.304C642.208 120.998 642.384 121.803 642.384 122.72C642.384 123.638 642.208 124.448 641.856 125.152C641.514 125.846 641.045 126.384 640.448 126.768C639.85 127.142 639.184 127.328 638.448 127.328C637.829 127.328 637.28 127.2 636.8 126.944C636.33 126.688 635.962 126.358 635.696 125.952V131.456H632.96V118.272H635.696V119.536ZM639.6 122.72C639.6 122.038 639.408 121.504 639.024 121.12C638.65 120.726 638.186 120.528 637.632 120.528C637.088 120.528 636.624 120.726 636.24 121.12C635.866 121.515 635.68 122.054 635.68 122.736C635.68 123.419 635.866 123.958 636.24 124.352C636.624 124.747 637.088 124.944 637.632 124.944C638.176 124.944 638.64 124.747 639.024 124.352C639.408 123.947 639.6 123.403 639.6 122.72ZM643.755 122.72C643.755 121.803 643.926 120.998 644.267 120.304C644.619 119.611 645.094 119.078 645.691 118.704C646.289 118.331 646.955 118.144 647.691 118.144C648.321 118.144 648.87 118.272 649.339 118.528C649.819 118.784 650.187 119.12 650.443 119.536V118.272H653.179V127.2H650.443V125.936C650.177 126.352 649.803 126.688 649.323 126.944C648.854 127.2 648.305 127.328 647.675 127.328C646.95 127.328 646.289 127.142 645.691 126.768C645.094 126.384 644.619 125.846 644.267 125.152C643.926 124.448 643.755 123.638 643.755 122.72ZM650.443 122.736C650.443 122.054 650.251 121.515 649.867 121.12C649.494 120.726 649.035 120.528 648.491 120.528C647.947 120.528 647.483 120.726 647.099 121.12C646.726 121.504 646.539 122.038 646.539 122.72C646.539 123.403 646.726 123.947 647.099 124.352C647.483 124.747 647.947 124.944 648.491 124.944C649.035 124.944 649.494 124.747 649.867 124.352C650.251 123.958 650.443 123.419 650.443 122.736ZM659.271 127.328C658.492 127.328 657.799 127.195 657.191 126.928C656.583 126.662 656.103 126.299 655.751 125.84C655.399 125.371 655.201 124.848 655.159 124.272H657.863C657.895 124.582 658.039 124.832 658.295 125.024C658.551 125.216 658.865 125.312 659.239 125.312C659.58 125.312 659.841 125.248 660.023 125.12C660.215 124.982 660.311 124.806 660.311 124.592C660.311 124.336 660.177 124.15 659.911 124.032C659.644 123.904 659.212 123.766 658.615 123.616C657.975 123.467 657.441 123.312 657.015 123.152C656.588 122.982 656.22 122.72 655.911 122.368C655.601 122.006 655.447 121.52 655.447 120.912C655.447 120.4 655.585 119.936 655.863 119.52C656.151 119.094 656.567 118.758 657.111 118.512C657.665 118.267 658.321 118.144 659.079 118.144C660.199 118.144 661.079 118.422 661.719 118.976C662.369 119.531 662.743 120.267 662.839 121.184H660.311C660.268 120.875 660.129 120.63 659.895 120.448C659.671 120.267 659.372 120.176 658.999 120.176C658.679 120.176 658.433 120.24 658.263 120.368C658.092 120.486 658.007 120.651 658.007 120.864C658.007 121.12 658.14 121.312 658.407 121.44C658.684 121.568 659.111 121.696 659.687 121.824C660.348 121.995 660.887 122.166 661.303 122.336C661.719 122.496 662.081 122.763 662.391 123.136C662.711 123.499 662.876 123.99 662.887 124.608C662.887 125.131 662.737 125.6 662.439 126.016C662.151 126.422 661.729 126.742 661.175 126.976C660.631 127.211 659.996 127.328 659.271 127.328ZM668.672 127.328C667.894 127.328 667.2 127.195 666.592 126.928C665.984 126.662 665.504 126.299 665.152 125.84C664.8 125.371 664.603 124.848 664.56 124.272H667.264C667.296 124.582 667.44 124.832 667.696 125.024C667.952 125.216 668.267 125.312 668.64 125.312C668.982 125.312 669.243 125.248 669.424 125.12C669.616 124.982 669.712 124.806 669.712 124.592C669.712 124.336 669.579 124.15 669.312 124.032C669.046 123.904 668.614 123.766 668.016 123.616C667.376 123.467 666.843 123.312 666.416 123.152C665.99 122.982 665.622 122.72 665.312 122.368C665.003 122.006 664.848 121.52 664.848 120.912C664.848 120.4 664.987 119.936 665.264 119.52C665.552 119.094 665.968 118.758 666.512 118.512C667.067 118.267 667.723 118.144 668.48 118.144C669.6 118.144 670.48 118.422 671.12 118.976C671.771 119.531 672.144 120.267 672.24 121.184H669.712C669.67 120.875 669.531 120.63 669.296 120.448C669.072 120.267 668.774 120.176 668.4 120.176C668.08 120.176 667.835 120.24 667.664 120.368C667.494 120.486 667.408 120.651 667.408 120.864C667.408 121.12 667.542 121.312 667.808 121.44C668.086 121.568 668.512 121.696 669.088 121.824C669.75 121.995 670.288 122.166 670.704 122.336C671.12 122.496 671.483 122.763 671.792 123.136C672.112 123.499 672.278 123.99 672.288 124.608C672.288 125.131 672.139 125.6 671.84 126.016C671.552 126.422 671.131 126.742 670.576 126.976C670.032 127.211 669.398 127.328 668.672 127.328ZM675.818 117.344C675.338 117.344 674.944 117.206 674.634 116.928C674.336 116.64 674.186 116.288 674.186 115.872C674.186 115.446 674.336 115.094 674.634 114.816C674.944 114.528 675.338 114.384 675.818 114.384C676.288 114.384 676.672 114.528 676.97 114.816C677.28 115.094 677.434 115.446 677.434 115.872C677.434 116.288 677.28 116.64 676.97 116.928C676.672 117.206 676.288 117.344 675.818 117.344ZM677.178 118.272V127.2H674.442V118.272H677.178ZM683.705 127.328C682.83 127.328 682.041 127.142 681.337 126.768C680.644 126.395 680.094 125.862 679.689 125.168C679.294 124.475 679.097 123.664 679.097 122.736C679.097 121.819 679.3 121.014 679.705 120.32C680.11 119.616 680.665 119.078 681.369 118.704C682.073 118.331 682.862 118.144 683.737 118.144C684.612 118.144 685.401 118.331 686.105 118.704C686.809 119.078 687.364 119.616 687.769 120.32C688.174 121.014 688.377 121.819 688.377 122.736C688.377 123.654 688.169 124.464 687.753 125.168C687.348 125.862 686.788 126.395 686.073 126.768C685.369 127.142 684.58 127.328 683.705 127.328ZM683.705 124.96C684.228 124.96 684.67 124.768 685.033 124.384C685.406 124 685.593 123.451 685.593 122.736C685.593 122.022 685.412 121.472 685.049 121.088C684.697 120.704 684.26 120.512 683.737 120.512C683.204 120.512 682.761 120.704 682.409 121.088C682.057 121.462 681.881 122.011 681.881 122.736C681.881 123.451 682.052 124 682.393 124.384C682.745 124.768 683.182 124.96 683.705 124.96ZM695.749 118.176C696.794 118.176 697.626 118.518 698.245 119.2C698.874 119.872 699.189 120.8 699.189 121.984V127.2H696.469V122.352C696.469 121.755 696.314 121.291 696.005 120.96C695.695 120.63 695.279 120.464 694.757 120.464C694.234 120.464 693.818 120.63 693.509 120.96C693.199 121.291 693.045 121.755 693.045 122.352V127.2H690.309V118.272H693.045V119.456C693.322 119.062 693.695 118.752 694.165 118.528C694.634 118.294 695.162 118.176 695.749 118.176ZM708.176 115.968V127.2H705.44V115.968H708.176ZM716.079 118.176C717.125 118.176 717.957 118.518 718.575 119.2C719.205 119.872 719.519 120.8 719.519 121.984V127.2H716.799V122.352C716.799 121.755 716.645 121.291 716.335 120.96C716.026 120.63 715.61 120.464 715.087 120.464C714.565 120.464 714.149 120.63 713.839 120.96C713.53 121.291 713.375 121.755 713.375 122.352V127.2H710.639V118.272H713.375V119.456C713.653 119.062 714.026 118.752 714.495 118.528C714.965 118.294 715.493 118.176 716.079 118.176ZM364.939 142.16V144.432H368.603V146.544H364.939V149.008H369.083V151.2H362.203V139.968H369.083V142.16H364.939ZM375.355 148.64L377.291 142.272H380.203L377.035 151.2H373.659L370.491 142.272H373.419L375.355 148.64ZM390.251 146.592C390.251 146.848 390.235 147.115 390.203 147.392H384.011C384.053 147.947 384.229 148.374 384.539 148.672C384.859 148.96 385.248 149.104 385.707 149.104C386.389 149.104 386.864 148.816 387.131 148.24H390.043C389.893 148.827 389.621 149.355 389.227 149.824C388.843 150.294 388.357 150.662 387.771 150.928C387.184 151.195 386.528 151.328 385.803 151.328C384.928 151.328 384.149 151.142 383.467 150.768C382.784 150.395 382.251 149.862 381.867 149.168C381.483 148.475 381.291 147.664 381.291 146.736C381.291 145.808 381.477 144.998 381.851 144.304C382.235 143.611 382.768 143.078 383.451 142.704C384.133 142.331 384.917 142.144 385.803 142.144C386.667 142.144 387.435 142.326 388.107 142.688C388.779 143.051 389.301 143.568 389.675 144.24C390.059 144.912 390.251 145.696 390.251 146.592ZM387.451 145.872C387.451 145.403 387.291 145.03 386.971 144.752C386.651 144.475 386.251 144.336 385.771 144.336C385.312 144.336 384.923 144.47 384.603 144.736C384.293 145.003 384.101 145.382 384.027 145.872H387.451ZM394.91 143.76C395.23 143.27 395.63 142.886 396.11 142.608C396.59 142.32 397.124 142.176 397.71 142.176V145.072H396.958C396.276 145.072 395.764 145.222 395.422 145.52C395.081 145.808 394.91 146.32 394.91 147.056V151.2H392.174V142.272H394.91V143.76ZM408.618 142.272L403.018 155.44H400.074L402.122 150.896L398.49 142.272H401.546L403.61 147.856L405.658 142.272H408.618ZM422.038 139.968V142.16H419.062V151.2H416.326V142.16H413.35V139.968H422.038ZM429.379 142.176C430.403 142.176 431.224 142.518 431.843 143.2C432.462 143.872 432.771 144.8 432.771 145.984V151.2H430.051V146.352C430.051 145.755 429.896 145.291 429.587 144.96C429.278 144.63 428.862 144.464 428.339 144.464C427.816 144.464 427.4 144.63 427.091 144.96C426.782 145.291 426.627 145.755 426.627 146.352V151.2H423.891V139.36H426.627V143.472C426.904 143.078 427.283 142.763 427.763 142.528C428.243 142.294 428.782 142.176 429.379 142.176ZM439.216 151.328C438.342 151.328 437.552 151.142 436.848 150.768C436.155 150.395 435.606 149.862 435.2 149.168C434.806 148.475 434.608 147.664 434.608 146.736C434.608 145.819 434.811 145.014 435.216 144.32C435.622 143.616 436.176 143.078 436.88 142.704C437.584 142.331 438.374 142.144 439.248 142.144C440.123 142.144 440.912 142.331 441.616 142.704C442.32 143.078 442.875 143.616 443.28 144.32C443.686 145.014 443.888 145.819 443.888 146.736C443.888 147.654 443.68 148.464 443.264 149.168C442.859 149.862 442.299 150.395 441.584 150.768C440.88 151.142 440.091 151.328 439.216 151.328ZM439.216 148.96C439.739 148.96 440.182 148.768 440.544 148.384C440.918 148 441.104 147.451 441.104 146.736C441.104 146.022 440.923 145.472 440.56 145.088C440.208 144.704 439.771 144.512 439.248 144.512C438.715 144.512 438.272 144.704 437.92 145.088C437.568 145.462 437.392 146.011 437.392 146.736C437.392 147.451 437.563 148 437.904 148.384C438.256 148.768 438.694 148.96 439.216 148.96ZM454.636 142.272V151.2H451.9V149.984C451.622 150.379 451.244 150.699 450.764 150.944C450.294 151.179 449.772 151.296 449.196 151.296C448.513 151.296 447.91 151.147 447.388 150.848C446.865 150.539 446.46 150.096 446.172 149.52C445.884 148.944 445.74 148.267 445.74 147.488V142.272H448.46V147.12C448.46 147.718 448.614 148.182 448.924 148.512C449.233 148.843 449.649 149.008 450.172 149.008C450.705 149.008 451.126 148.843 451.436 148.512C451.745 148.182 451.9 147.718 451.9 147.12V142.272H454.636ZM460.473 142.144C461.102 142.144 461.652 142.272 462.121 142.528C462.601 142.784 462.969 143.12 463.225 143.536V142.272H465.961V151.184C465.961 152.006 465.796 152.747 465.465 153.408C465.145 154.08 464.649 154.614 463.977 155.008C463.316 155.403 462.489 155.6 461.497 155.6C460.174 155.6 459.102 155.286 458.281 154.656C457.46 154.038 456.99 153.195 456.873 152.128H459.577C459.662 152.47 459.865 152.736 460.185 152.928C460.505 153.131 460.9 153.232 461.369 153.232C461.934 153.232 462.382 153.067 462.713 152.736C463.054 152.416 463.225 151.899 463.225 151.184V149.92C462.958 150.336 462.59 150.678 462.121 150.944C461.652 151.2 461.102 151.328 460.473 151.328C459.737 151.328 459.07 151.142 458.473 150.768C457.876 150.384 457.401 149.846 457.049 149.152C456.708 148.448 456.537 147.638 456.537 146.72C456.537 145.803 456.708 144.998 457.049 144.304C457.401 143.611 457.876 143.078 458.473 142.704C459.07 142.331 459.737 142.144 460.473 142.144ZM463.225 146.736C463.225 146.054 463.033 145.515 462.649 145.12C462.276 144.726 461.817 144.528 461.273 144.528C460.729 144.528 460.265 144.726 459.881 145.12C459.508 145.504 459.321 146.038 459.321 146.72C459.321 147.403 459.508 147.947 459.881 148.352C460.265 148.747 460.729 148.944 461.273 148.944C461.817 148.944 462.276 148.747 462.649 148.352C463.033 147.958 463.225 147.419 463.225 146.736ZM473.908 142.176C474.932 142.176 475.754 142.518 476.372 143.2C476.991 143.872 477.3 144.8 477.3 145.984V151.2H474.58V146.352C474.58 145.755 474.426 145.291 474.116 144.96C473.807 144.63 473.391 144.464 472.868 144.464C472.346 144.464 471.93 144.63 471.62 144.96C471.311 145.291 471.156 145.755 471.156 146.352V151.2H468.42V139.36H471.156V143.472C471.434 143.078 471.812 142.763 472.292 142.528C472.772 142.294 473.311 142.176 473.908 142.176ZM484.658 148.88V151.2H483.266C482.274 151.2 481.5 150.96 480.946 150.48C480.391 149.99 480.114 149.195 480.114 148.096V144.544H479.026V142.272H480.114V140.096H482.85V142.272H484.642V144.544H482.85V148.128C482.85 148.395 482.914 148.587 483.042 148.704C483.17 148.822 483.383 148.88 483.682 148.88H484.658ZM497.524 149.216H493.332L492.66 151.2H489.796L493.86 139.968H497.028L501.092 151.2H498.196L497.524 149.216ZM496.82 147.104L495.428 142.992L494.052 147.104H496.82ZM508.249 142.176C509.295 142.176 510.127 142.518 510.745 143.2C511.375 143.872 511.689 144.8 511.689 145.984V151.2H508.969V146.352C508.969 145.755 508.815 145.291 508.505 144.96C508.196 144.63 507.78 144.464 507.257 144.464C506.735 144.464 506.319 144.63 506.009 144.96C505.7 145.291 505.545 145.755 505.545 146.352V151.2H502.809V142.272H505.545V143.456C505.823 143.062 506.196 142.752 506.665 142.528C507.135 142.294 507.663 142.176 508.249 142.176ZM513.526 146.72C513.526 145.803 513.697 144.998 514.038 144.304C514.39 143.611 514.865 143.078 515.462 142.704C516.06 142.331 516.726 142.144 517.462 142.144C518.049 142.144 518.582 142.267 519.062 142.512C519.553 142.758 519.937 143.088 520.214 143.504V139.36H522.95V151.2H520.214V149.92C519.958 150.347 519.59 150.688 519.11 150.944C518.641 151.2 518.092 151.328 517.462 151.328C516.726 151.328 516.06 151.142 515.462 150.768C514.865 150.384 514.39 149.846 514.038 149.152C513.697 148.448 513.526 147.638 513.526 146.72ZM520.214 146.736C520.214 146.054 520.022 145.515 519.638 145.12C519.265 144.726 518.806 144.528 518.262 144.528C517.718 144.528 517.254 144.726 516.87 145.12C516.497 145.504 516.31 146.038 516.31 146.72C516.31 147.403 516.497 147.947 516.87 148.352C517.254 148.747 517.718 148.944 518.262 148.944C518.806 148.944 519.265 148.747 519.638 148.352C520.022 147.958 520.214 147.419 520.214 146.736ZM536.272 149.216H532.08L531.408 151.2H528.544L532.608 139.968H535.776L539.84 151.2H536.944L536.272 149.216ZM535.568 147.104L534.176 142.992L532.8 147.104H535.568ZM541.013 146.736C541.013 145.808 541.2 144.998 541.573 144.304C541.957 143.611 542.485 143.078 543.157 142.704C543.84 142.331 544.619 142.144 545.493 142.144C546.613 142.144 547.547 142.438 548.293 143.024C549.051 143.611 549.547 144.438 549.781 145.504H546.869C546.624 144.822 546.149 144.48 545.445 144.48C544.944 144.48 544.544 144.678 544.245 145.072C543.947 145.456 543.797 146.011 543.797 146.736C543.797 147.462 543.947 148.022 544.245 148.416C544.544 148.8 544.944 148.992 545.445 148.992C546.149 148.992 546.624 148.651 546.869 147.968H549.781C549.547 149.014 549.051 149.835 548.293 150.432C547.536 151.03 546.603 151.328 545.493 151.328C544.619 151.328 543.84 151.142 543.157 150.768C542.485 150.395 541.957 149.862 541.573 149.168C541.2 148.475 541.013 147.664 541.013 146.736ZM556.701 148.88V151.2H555.309C554.317 151.2 553.543 150.96 552.989 150.48C552.434 149.99 552.157 149.195 552.157 148.096V144.544H551.069V142.272H552.157V140.096H554.893V142.272H556.685V144.544H554.893V148.128C554.893 148.395 554.957 148.587 555.085 148.704C555.213 148.822 555.426 148.88 555.725 148.88H556.701ZM560.081 141.344C559.601 141.344 559.206 141.206 558.897 140.928C558.598 140.64 558.449 140.288 558.449 139.872C558.449 139.446 558.598 139.094 558.897 138.816C559.206 138.528 559.601 138.384 560.081 138.384C560.55 138.384 560.934 138.528 561.233 138.816C561.542 139.094 561.697 139.446 561.697 139.872C561.697 140.288 561.542 140.64 561.233 140.928C560.934 141.206 560.55 141.344 560.081 141.344ZM561.441 142.272V151.2H558.705V142.272H561.441ZM567.968 151.328C567.093 151.328 566.304 151.142 565.6 150.768C564.906 150.395 564.357 149.862 563.952 149.168C563.557 148.475 563.36 147.664 563.36 146.736C563.36 145.819 563.562 145.014 563.968 144.32C564.373 143.616 564.928 143.078 565.632 142.704C566.336 142.331 567.125 142.144 568 142.144C568.874 142.144 569.664 142.331 570.368 142.704C571.072 143.078 571.626 143.616 572.032 144.32C572.437 145.014 572.64 145.819 572.64 146.736C572.64 147.654 572.432 148.464 572.016 149.168C571.61 149.862 571.05 150.395 570.336 150.768C569.632 151.142 568.842 151.328 567.968 151.328ZM567.968 148.96C568.49 148.96 568.933 148.768 569.296 148.384C569.669 148 569.856 147.451 569.856 146.736C569.856 146.022 569.674 145.472 569.312 145.088C568.96 144.704 568.522 144.512 568 144.512C567.466 144.512 567.024 144.704 566.672 145.088C566.32 145.462 566.144 146.011 566.144 146.736C566.144 147.451 566.314 148 566.656 148.384C567.008 148.768 567.445 148.96 567.968 148.96ZM580.011 142.176C581.056 142.176 581.888 142.518 582.507 143.2C583.136 143.872 583.451 144.8 583.451 145.984V151.2H580.731V146.352C580.731 145.755 580.576 145.291 580.267 144.96C579.958 144.63 579.542 144.464 579.019 144.464C578.496 144.464 578.08 144.63 577.771 144.96C577.462 145.291 577.307 145.755 577.307 146.352V151.2H574.571V142.272H577.307V143.456C577.584 143.062 577.958 142.752 578.427 142.528C578.896 142.294 579.424 142.176 580.011 142.176ZM587.112 151.328C586.632 151.328 586.238 151.19 585.928 150.912C585.63 150.624 585.48 150.272 585.48 149.856C585.48 149.43 585.63 149.072 585.928 148.784C586.238 148.496 586.632 148.352 587.112 148.352C587.582 148.352 587.966 148.496 588.264 148.784C588.574 149.072 588.728 149.43 588.728 149.856C588.728 150.272 588.574 150.624 588.264 150.912C587.966 151.19 587.582 151.328 587.112 151.328Z" fill="black"/>
<path d="M378.095 80.6548L369.599 69.4948V80.6548H363.443V55.3828H369.599V66.4708L378.023 55.3828H385.259L375.467 67.7668L385.619 80.6548H378.095ZM392.72 58.4788C391.641 58.4788 390.753 58.1668 390.056 57.5428C389.385 56.8948 389.049 56.1028 389.049 55.1668C389.049 54.2068 389.385 53.4148 390.056 52.7908C390.753 52.1428 391.641 51.8188 392.72 51.8188C393.776 51.8188 394.641 52.1428 395.313 52.7908C396.009 53.4148 396.357 54.2068 396.357 55.1668C396.357 56.1028 396.009 56.8948 395.313 57.5428C394.641 58.1668 393.776 58.4788 392.72 58.4788ZM395.781 60.5668V80.6548H389.625V60.5668H395.781ZM413.562 60.3508C415.914 60.3508 417.786 61.1188 419.178 62.6548C420.594 64.1668 421.302 66.2548 421.302 68.9188V80.6548H415.182V69.7468C415.182 68.4028 414.834 67.3588 414.138 66.6148C413.442 65.8708 412.506 65.4988 411.33 65.4988C410.154 65.4988 409.218 65.8708 408.522 66.6148C407.826 67.3588 407.478 68.4028 407.478 69.7468V80.6548H401.322V60.5668H407.478V63.2308C408.102 62.3428 408.942 61.6468 409.998 61.1428C411.054 60.6148 412.242 60.3508 413.562 60.3508ZM425.436 70.5748C425.436 68.5108 425.82 66.6988 426.588 65.1388C427.38 63.5788 428.448 62.3788 429.792 61.5388C431.136 60.6988 432.636 60.2788 434.292 60.2788C435.612 60.2788 436.812 60.5548 437.892 61.1068C438.996 61.6588 439.86 62.4028 440.484 63.3388V54.0148H446.64V80.6548H440.484V77.7748C439.908 78.7348 439.08 79.5028 438 80.0788C436.944 80.6548 435.708 80.9428 434.292 80.9428C432.636 80.9428 431.136 80.5228 429.792 79.6828C428.448 78.8188 427.38 77.6068 426.588 76.0468C425.82 74.4628 425.436 72.6388 425.436 70.5748ZM440.484 70.6108C440.484 69.0748 440.052 67.8628 439.188 66.9748C438.348 66.0868 437.316 65.6428 436.092 65.6428C434.868 65.6428 433.824 66.0868 432.96 66.9748C432.12 67.8388 431.7 69.0388 431.7 70.5748C431.7 72.1108 432.12 73.3348 432.96 74.2468C433.824 75.1348 434.868 75.5788 436.092 75.5788C437.316 75.5788 438.348 75.1348 439.188 74.2468C440.052 73.3588 440.484 72.1468 440.484 70.6108ZM464.413 60.3508C466.765 60.3508 468.637 61.1188 470.029 62.6548C471.445 64.1668 472.153 66.2548 472.153 68.9188V80.6548H466.033V69.7468C466.033 68.4028 465.685 67.3588 464.989 66.6148C464.293 65.8708 463.357 65.4988 462.181 65.4988C461.005 65.4988 460.069 65.8708 459.373 66.6148C458.677 67.3588 458.329 68.4028 458.329 69.7468V80.6548H452.173V60.5668H458.329V63.2308C458.953 62.3428 459.793 61.6468 460.849 61.1428C461.905 60.6148 463.093 60.3508 464.413 60.3508ZM496.447 70.2868C496.447 70.8628 496.411 71.4628 496.339 72.0868H482.407C482.503 73.3348 482.899 74.2948 483.595 74.9668C484.315 75.6148 485.191 75.9388 486.223 75.9388C487.759 75.9388 488.827 75.2908 489.427 73.9948H495.979C495.643 75.3148 495.031 76.5028 494.143 77.5588C493.279 78.6148 492.187 79.4428 490.867 80.0428C489.547 80.6428 488.071 80.9428 486.439 80.9428C484.471 80.9428 482.719 80.5228 481.183 79.6828C479.647 78.8428 478.447 77.6428 477.583 76.0828C476.719 74.5228 476.287 72.6988 476.287 70.6108C476.287 68.5228 476.707 66.6988 477.547 65.1388C478.411 63.5788 479.611 62.3788 481.147 61.5388C482.683 60.6988 484.447 60.2788 486.439 60.2788C488.383 60.2788 490.111 60.6868 491.623 61.5028C493.135 62.3188 494.311 63.4828 495.151 64.9948C496.015 66.5068 496.447 68.2708 496.447 70.2868ZM490.147 68.6668C490.147 67.6108 489.787 66.7708 489.067 66.1468C488.347 65.5228 487.447 65.2108 486.367 65.2108C485.335 65.2108 484.459 65.5108 483.739 66.1108C483.043 66.7108 482.611 67.5628 482.443 68.6668H490.147ZM508.946 80.9428C507.194 80.9428 505.634 80.6428 504.266 80.0428C502.898 79.4428 501.818 78.6268 501.026 77.5948C500.234 76.5388 499.79 75.3628 499.694 74.0668H505.778C505.85 74.7628 506.174 75.3268 506.75 75.7588C507.326 76.1908 508.034 76.4068 508.874 76.4068C509.642 76.4068 510.23 76.2628 510.638 75.9748C511.07 75.6628 511.286 75.2668 511.286 74.7868C511.286 74.2108 510.986 73.7908 510.386 73.5268C509.786 73.2388 508.814 72.9268 507.47 72.5908C506.03 72.2548 504.83 71.9068 503.87 71.5468C502.91 71.1628 502.082 70.5748 501.386 69.7828C500.69 68.9668 500.342 67.8748 500.342 66.5068C500.342 65.3548 500.654 64.3108 501.278 63.3748C501.926 62.4148 502.862 61.6588 504.086 61.1068C505.334 60.5548 506.81 60.2788 508.514 60.2788C511.034 60.2788 513.014 60.9028 514.454 62.1508C515.918 63.3988 516.758 65.0548 516.974 67.1188H511.286C511.19 66.4228 510.878 65.8708 510.35 65.4628C509.846 65.0548 509.174 64.8508 508.334 64.8508C507.614 64.8508 507.062 64.9948 506.678 65.2828C506.294 65.5468 506.102 65.9188 506.102 66.3988C506.102 66.9748 506.402 67.4068 507.002 67.6948C507.626 67.9828 508.586 68.2708 509.882 68.5588C511.37 68.9428 512.582 69.3268 513.518 69.7108C514.454 70.0708 515.27 70.6708 515.966 71.5108C516.686 72.3268 517.058 73.4308 517.082 74.8228C517.082 75.9988 516.746 77.0548 516.074 77.9908C515.426 78.9028 514.478 79.6228 513.23 80.1508C512.006 80.6788 510.578 80.9428 508.946 80.9428ZM530.101 80.9428C528.349 80.9428 526.789 80.6428 525.421 80.0428C524.053 79.4428 522.973 78.6268 522.181 77.5948C521.389 76.5388 520.945 75.3628 520.849 74.0668H526.933C527.005 74.7628 527.329 75.3268 527.905 75.7588C528.481 76.1908 529.189 76.4068 530.029 76.4068C530.797 76.4068 531.385 76.2628 531.793 75.9748C532.225 75.6628 532.441 75.2668 532.441 74.7868C532.441 74.2108 532.141 73.7908 531.541 73.5268C530.941 73.2388 529.969 72.9268 528.625 72.5908C527.185 72.2548 525.985 71.9068 525.025 71.5468C524.065 71.1628 523.237 70.5748 522.541 69.7828C521.845 68.9668 521.497 67.8748 521.497 66.5068C521.497 65.3548 521.809 64.3108 522.433 63.3748C523.081 62.4148 524.017 61.6588 525.241 61.1068C526.489 60.5548 527.965 60.2788 529.669 60.2788C532.189 60.2788 534.169 60.9028 535.609 62.1508C537.073 63.3988 537.913 65.0548 538.129 67.1188H532.441C532.345 66.4228 532.033 65.8708 531.505 65.4628C531.001 65.0548 530.329 64.8508 529.489 64.8508C528.769 64.8508 528.217 64.9948 527.833 65.2828C527.449 65.5468 527.257 65.9188 527.257 66.3988C527.257 66.9748 527.557 67.4068 528.157 67.6948C528.781 67.9828 529.741 68.2708 531.037 68.5588C532.525 68.9428 533.737 69.3268 534.673 69.7108C535.609 70.0708 536.425 70.6708 537.121 71.5108C537.841 72.3268 538.213 73.4308 538.237 74.8228C538.237 75.9988 537.901 77.0548 537.229 77.9908C536.581 78.9028 535.633 79.6228 534.385 80.1508C533.161 80.6788 531.733 80.9428 530.101 80.9428Z" fill="black"/>
<path d="M220.296 81.592V73.96H233.592V109H225.048V81.592H220.296Z" fill="black"/>
<defs>
<filter id="filter0_d_939_1264" x="0" y="28.7998" width="954" height="144.146" filterUnits="userSpaceOnUse" color-interpolation-filters="sRGB">
<feFlood flood-opacity="0" result="BackgroundImageFix"/>
<feColorMatrix in="SourceAlpha" type="matrix" values="0 0 0 0 0 0 0 0 0 0 0 0 0 0 0 0 0 0 127 0" result="hardAlpha"/>
<feOffset dy="4"/>
<feGaussianBlur stdDeviation="2"/>
<feComposite in2="hardAlpha" operator="out"/>
<feColorMatrix type="matrix" values="0 0 0 0 0 0 0 0 0 0 0 0 0 0 0 0 0 0 0.25 0"/>
<feBlend mode="normal" in2="BackgroundImageFix" result="effect1_dropShadow_939_1264"/>
<feBlend mode="normal" in="SourceGraphic" in2="effect1_dropShadow_939_1264" result="shape"/>
</filter>
<linearGradient id="paint0_linear_939_1264" x1="153.99" y1="100" x2="299.826" y2="100" gradientUnits="userSpaceOnUse">
<stop offset="0.1" stop-color="#822FFF"/>
<stop offset="0.9" stop-color="#FF35C4"/>
</linearGradient>
<linearGradient id="paint1_linear_939_1264" x1="812.69" y1="101.633" x2="862.502" y2="101.633" gradientUnits="userSpaceOnUse">
<stop offset="0.1" stop-color="#822FFF"/>
<stop offset="0.9" stop-color="#FF35C4"/>
</linearGradient>
</defs>
</svg>
