<svg width="26" height="21" viewBox="0 0 26 21" fill="none" xmlns="http://www.w3.org/2000/svg">
<path d="M5.84023 10.3568H6.29551C7.53125 10.3568 8.63691 10.8338 9.6125 11.7877C10.6098 12.7199 11.1084 13.8906 11.1084 15.2998C11.1084 16.6873 10.6098 17.8363 9.6125 18.7468C8.63691 19.6357 7.42285 20.0801 5.97031 20.0801C4.3877 20.0801 3.06523 19.4514 2.00293 18.194C0.962305 16.9149 0.441992 15.1047 0.441992 12.7633C0.441992 10.617 0.897266 8.61159 1.80781 6.74714C2.74004 4.86101 3.86738 3.37595 5.18984 2.29196C6.53398 1.1863 7.72637 0.633467 8.76699 0.633467C9.46074 0.633467 10.0027 0.839424 10.393 1.25134C10.7832 1.66325 10.9783 2.1944 10.9783 2.84479C10.9783 3.7987 10.5556 4.50329 9.71006 4.95856C8.56103 5.58728 7.65049 6.32438 6.97842 7.16989C6.30635 8.0154 5.92695 9.0777 5.84023 10.3568ZM20.2139 10.3568H20.6366C21.8507 10.3568 22.9455 10.8338 23.9211 11.7877C24.9184 12.7199 25.417 13.8906 25.417 15.2998C25.417 16.6656 24.9184 17.8146 23.9211 18.7468C22.9455 19.6791 21.7314 20.1452 20.2789 20.1452C18.6746 20.1452 17.3521 19.4948 16.3115 18.194C15.2709 16.8932 14.7506 15.083 14.7506 12.7633C14.7506 11.0939 15.0216 9.52214 15.5636 8.04792C16.1056 6.5737 16.7993 5.2946 17.6448 4.21062C18.512 3.10495 19.4334 2.23776 20.409 1.60905C21.4062 0.958662 22.2951 0.633467 23.0756 0.633467C23.791 0.633467 24.333 0.839424 24.7016 1.25134C25.0918 1.64157 25.2869 2.17272 25.2869 2.84479C25.2869 3.82038 24.8642 4.52497 24.0187 4.95856C22.8263 5.63063 21.9266 6.37858 21.3195 7.20241C20.7125 8.00456 20.3439 9.05603 20.2139 10.3568Z" fill="#373737"/>
</svg>
