<svg width="765" height="79" viewBox="0 0 765 79" fill="none" xmlns="http://www.w3.org/2000/svg">
<path opacity="0.7" d="M705.372 1.2792C704.9 1.37742 702.999 1.15848 702.176 1.20398C703.103 0.191819 707.075 0.922621 705.372 1.2792ZM621.369 74.8877C622.051 74.6345 622.732 74.3814 623.413 74.1282C621.472 73.9792 618.866 74.1789 617.064 73.9545C616.77 73.9168 617.53 73.1917 616.833 73.1641C616.136 73.1367 616.275 74.12 615.262 74.2319C614.126 74.3544 608.917 73.7028 607.114 73.7313C600.372 73.8418 593.575 74.4483 586.817 74.0838C593.788 73.3101 586.755 72.615 584.804 72.9434C584.371 73.0193 584.45 74.8484 577.45 74.4335C573.001 74.1703 577.095 71.5277 569.681 72.8867C575.397 74.6792 569.785 74.5877 565.312 74.6778C564.54 74.6936 558.311 74.4594 555.56 74.5585C554.619 74.5928 553.19 75.5606 551.942 75.5939C551.083 75.6161 550.43 75.0964 549.154 75.1314C543.207 75.2885 537.358 75.3675 531.399 75.2293C534.867 72.7438 528.66 74.1976 528.38 74.0817C526.957 73.4224 533.376 73.19 530.835 72.7884C527.287 72.8879 523.739 72.9875 520.192 73.087C523.105 73.3703 516.347 75.1861 515.098 74.3884C515.658 76.561 498.916 72.6002 496.374 73.3435C495.845 73.5005 499.321 74.5533 491.269 74.114C490.397 74.065 490.723 73.4063 490.266 73.4705C489.992 73.5091 488.346 75.6068 486.574 74.4652C485.927 74.0485 490.045 72.6509 480.989 73.2611C484.608 75.3615 468.434 74.4936 465.457 73.9808C466.053 74.2622 466.648 74.5437 467.244 74.8252C464.299 74.0746 463.773 74.8003 463.11 74.7652C460.439 74.6246 456.765 73.9209 454.279 74.0036C451.369 74.099 451.366 75.42 447.971 74.9284C448.777 75.2146 449.584 75.5008 450.39 75.7869C448.047 75.7321 445.703 75.6772 443.36 75.6224C448.777 73.8383 442.189 75.5466 441.755 75.5871C441.062 75.6553 442.054 74.9329 440.895 75.0296C440.775 75.0451 440.952 75.7181 439.166 75.8055C435.433 75.9858 436.019 75.1344 434.452 75.1542C434.308 75.1595 434.814 75.7635 432.108 75.9249C423.506 76.4386 432.148 75.4592 432.478 75.3731C432.911 75.2596 429.947 72.741 437.26 73.5931C434.805 73.3227 434.552 72.2012 434.275 72.1752C434.031 72.1538 429.78 72.3399 429.545 72.3801C427.457 72.7751 429.301 73.5305 428.894 73.6707C428.561 73.7838 423.433 72.8172 422.245 75.1334C419.783 73.0202 423.645 73.19 427.753 72.8359C428.351 72.395 423.835 71.9997 423.598 72.0024C417.775 72.0444 421.008 73.7747 419.741 74.9026C419.076 75.4927 416.697 74.3134 418.896 75.8695C413.612 76.0698 416.812 75.1388 416.47 75.0064C415.954 74.8119 414.108 75.2741 413.876 75.2156C413.536 75.1291 414.714 74.5776 413.373 74.3949C413.15 74.3685 410.997 75.3183 413.782 75.7473C410.064 75.6386 410.374 76.4344 409.105 74.8348C406.56 77.8934 407.237 73.049 406.228 72.8852C403.544 72.4534 404.335 74.8366 404.194 74.954C403.222 75.7066 395.795 74.9348 393.958 75.291C394.674 73.5662 399.843 75.2337 400.995 74.8925C404.835 73.7571 395.569 74.068 398.351 71.8884C397.183 72.4896 396.015 73.0909 394.847 73.6921C392.693 72.3165 395.735 71.6906 389.96 72.2363C389.021 73.4419 394.044 72.0201 393.04 72.9715C392.448 73.5298 389.098 73.6709 389.034 73.9636C388.97 74.3159 391.996 73.8791 391.521 74.4235C390.485 75.5982 379.434 74.5586 387.839 73.8662C385.494 73.9015 384.273 71.5862 382.243 72.3234C380.93 72.8018 388.346 75.9619 377.243 75.4462C377.001 74.3508 381.679 75.0932 381.8 75.009C381.97 74.8863 381.111 72.4164 380.964 72.2951C380.444 71.8963 369.116 73.296 366.714 72.068C367.67 73.4925 358.15 72.3793 357.116 72.822C356.841 72.9442 357.877 73.8138 357.582 73.9085C355.746 74.4727 350.761 72.9408 348.453 72.9153C345.869 72.8863 346.2 73.6411 346.056 73.6406C344.919 73.6058 345.824 73.0868 345.13 73.0927C344.08 73.1021 336.865 73.0443 336.504 73.1538C336.398 73.1878 337.58 74.0448 336.008 74.2191C335.736 74.2493 335.903 73.223 331.248 73.6963C325.642 74.2656 335.15 74.9457 332.825 76.0345C329.214 74.5295 329.339 76.0435 328.362 75.9309C328.023 75.8898 325.498 74.6184 322.765 74.7178C324.726 74.4959 326.687 74.274 328.649 74.0521C326.718 73.8389 322.973 74.1429 321.382 73.8982C320.606 73.7791 321.239 72.7169 319.555 72.7565C319.198 72.7707 317.793 75.3576 322.199 74.1721C322.557 75.0902 320.454 74.5046 319.482 74.7713C319.335 74.8128 318.762 76.3542 317.513 75.4068C317.213 75.1736 320.441 70.6671 312.072 73.9683C311.802 74.0747 312.744 74.6303 312.481 74.7484C312.301 74.8285 310.159 74.6153 309.923 74.6965C309.682 74.7836 310.719 75.3901 310.431 75.5126C308.958 76.1441 307.007 73.7246 310.053 73.89C309.033 73.596 308.014 73.3021 306.995 73.0081C308.094 74.8341 305.399 73.5343 303.992 73.6C294.969 74.0199 301.018 75.1725 299.47 75.7995C296.98 76.8063 298.869 73.6569 295.17 74.6237C294.828 74.7141 299.313 76.0163 290.565 75.3222C291.855 75.2619 293.145 75.2015 294.436 75.1412C293.682 73.3731 289.776 75.2933 289.475 75.3202C286.043 75.5861 288.361 74.9317 283.267 75.8781C282.812 75.9631 281.818 75.532 280.846 75.7566C276.815 76.6822 286.174 76.2674 286.434 76.9835C286.557 77.3345 276.489 77.3118 276.142 77.147C274.671 76.4163 280.705 76.7911 279.55 75.8795C279.129 75.556 264.783 76.3201 261.902 75.9813C258.578 75.5869 257.07 73.1928 257.063 75.8939C256.111 73.2488 255.293 75.0631 254.868 75.0477C249.729 74.8359 249.719 74.8092 245.315 75.0919C244.343 75.1534 243.517 74.3544 243.174 74.4924C242.974 74.5758 243.353 75.4342 242.373 75.7063C241.013 76.0785 232.818 75.2467 232.207 74.7748C231.596 74.3029 235.664 74.5458 234.931 73.7681C231.987 73.7083 229.165 73.9204 226.201 73.8573C224.97 73.8288 225.599 73.277 225.067 73.2696C224.841 73.2644 220.593 73.7744 220.774 73.9752C221.199 74.4422 234.322 74.0406 230.871 75.0216C230.205 75.2111 227.843 73.9646 228.226 75.4967C216.497 75.2255 204.769 74.9544 193.041 74.6832C199.772 73.4914 207.36 74.4682 214.416 74.3144C215.383 74.2948 218.654 74.4214 218.252 73.6484C212.25 73.4869 204.792 73.9398 199.027 73.4721C198.842 73.4566 199.516 72.7553 198.825 72.6494C197.532 72.4517 193.334 73.6031 192.626 73.3171C192.505 73.2502 194.892 72.3159 194.161 71.7369C192.286 70.2509 191.83 73.5722 190.224 73.5434C188.982 73.5197 180.629 71.9699 178.556 72.9972C176.352 74.0921 184.709 73.5842 184.096 74.4716C178.445 75.3964 172.713 74.4859 167.369 74.6315C167.275 74.6349 168.096 75.3218 166.904 75.4265C164.83 75.6086 164.28 74.6302 163.27 74.4798C162.179 74.3197 158.328 74.4856 157.811 74.1309C157.745 74.0844 158.52 73.1053 158.639 73.0772C160.314 72.6648 160.917 73.925 161.07 73.9402C161.644 73.9844 162.205 73.4965 162.728 73.5219C163.59 73.5644 164.067 74.0092 165.204 74.0413C165.989 74.0652 165.227 73.2099 165.984 73.2443C166.262 73.2604 169.266 75.2051 169.535 73.1981C169.618 72.5654 145.127 71.9138 142.682 72.4354C144.783 72.6628 146.884 72.8901 148.984 73.1175C144.718 72.5585 139.605 74.1941 139.23 71.8262C123.419 71.7359 107.609 71.6456 91.7981 71.5553C88.974 71.3718 90.5138 69.8385 85.8717 70.3122C87.0745 70.7896 88.2773 71.267 89.4801 71.7444C87.0979 71.4196 76.5463 70.8236 74.8408 71.1489C74.62 71.1916 74.3204 72.5721 71.6854 72.7078C69.3472 72.8276 68.966 71.7973 67.7146 71.6076C66.6639 71.4512 65.4864 71.7295 65.1746 71.6746C64.9353 71.6305 64.8372 70.9995 64.2616 70.8931C62.4436 70.5645 63.925 72.3332 62.1113 70.3029C62.5498 70.2222 62.9882 70.1415 63.4268 70.0608C61.2334 69.7796 58.2342 68.8722 61.4602 68.3936C62.0148 68.311 61.5413 68.9252 61.9553 68.9214C78.1658 68.7018 65.2145 67.5987 59.5384 68.5847C58.0747 67.6889 49.9007 68.2952 49.6281 68.1186C49.2489 67.8626 50.6443 67.1299 48.8067 66.5171C48.4201 66.3874 37.4901 66.9659 41.4204 65.7368C42.2316 65.4833 47.4744 65.7098 48.7381 65.6661C45.7547 63.7666 38.8001 66.5615 38.016 66.4962C34.8531 66.2178 44.0803 64.7934 36.9572 64.617C31.4799 64.4817 36.6282 65.7294 34.5248 66.2901C33.3428 66.6047 27.1378 65.2337 27.3157 67.0606C25.1895 67.2697 26.4294 66.2937 26.1664 66.2258C25.9094 66.1663 21.7296 66.7408 20.3698 66.3644C20.2049 66.3176 20.7183 65.3641 20.5476 65.2875C20.2157 65.1565 16.183 65.3729 16.0213 65.4544C15.9185 65.511 16.8847 66.3366 16.4903 66.5409C16.031 66.7765 12.1483 66.6062 11.9357 66.8454C11.6352 67.2069 16.4259 66.9387 15.6322 67.8741C13.4223 67.6543 9.82676 68.2985 8.37294 69.0569C8.72908 68.8405 10.8706 68.7957 11.6143 68.8663C11.2718 70.231 6.67296 70.2425 8.23945 69.1539C7.24341 69.7396 7.92711 70.0423 7.3673 70.5925C7.22049 70.7319 5.80075 70.7697 5.5284 71.0074C5.49304 71.0546 6.96077 71.5591 6.66899 71.8377C6.14059 72.3412 1.83503 72.2569 1.48209 72.128C0.488609 71.7628 3.9961 71.29 4.28575 70.7134C4.32699 70.6249 1.3355 69.5183 1.28986 69.4192C1.10963 68.3532 4.43561 69.1005 4.05065 68.1422C3.22809 67.9446 2.40541 67.747 1.58285 67.5495C4.7465 66.5558 10.6113 67.0177 12.1171 65.9011C7.42078 66.2612 2.50376 66.2544 2.50067 63.7621C2.49838 62.7125 4.52198 62.0839 4.44214 61.8175C4.13824 60.8646 1.32987 61.9204 1.22622 61.8706C1.1404 61.813 1.10108 61.7566 1.10073 61.7014C1.10073 61.7014 1.10073 61.7014 1.10073 61.7013C1.09788 61.1422 5.10663 60.7134 5.30593 60.4568C5.64102 60.0011 3.84595 58.1462 3.84642 57.7333C3.90817 57.65 6.76207 57.1896 5.79452 56.4754C4.81554 55.7541 2.31534 55.7544 2.22738 55.6793C1.74749 55.2471 6.11852 54.8214 6.24746 54.5635C6.31556 54.433 3.96292 53.6498 3.89334 53.4207C3.83364 53.1906 5.61557 52.6762 6.31508 51.9445C6.83648 51.4008 5.30746 50.9966 5.57542 50.9101C5.76694 50.8527 9.89894 50.8349 10.1017 50.7386C10.4035 50.5961 9.43227 49.9568 9.57219 49.7944C9.7708 49.5609 11.1063 49.7852 10.9314 49.5475C10.8 49.3703 5.61516 47.1783 5.64553 46.5835C5.69917 45.5691 11.1897 47.8665 6.07103 43.8981C6.03522 43.872 4.79601 44.1646 4.76142 44.1401C3.9918 43.4089 7.9632 42.2503 3.1007 42.4801C12.1411 41.1421 4.21852 40.9483 5.54794 39.2321C6.06149 38.5724 9.56722 38.2788 9.58301 38.1802C9.23765 37.3498 8.12375 38.0029 7.74165 37.5971C7.53125 37.3704 10.6646 36.4695 9.95539 35.9025C9.58862 35.6103 6.25818 35.737 6.12039 35.6804C4.79931 35.1471 6.41265 34.5528 6.12106 34.1697C5.92721 33.9129 3.91721 33.9056 3.86457 33.8595C3.77941 33.7633 6.50311 32.7027 7.0697 32.3323C7.50037 32.0475 5.87579 31.6162 6.17662 31.4913C7.98973 30.7441 11.8656 32.5941 8.12634 29.9907C7.89792 29.831 6.48935 29.9054 6.44765 29.8735C5.57293 29.1343 8.16705 29.0529 8.62783 28.4401C9.41917 27.3841 5.69327 27.9943 8.7904 27.235C6.46046 26.5631 5.16418 26.6003 2.44307 26.8096C9.97762 26.2259 12.6234 23.4883 4.25554 23.6115C6.91774 23.6365 6.61424 22.1032 7.40811 22.071C7.90194 22.0528 11.7698 23.554 9.98188 20.1406C9.75755 19.7143 7.41571 20.2732 8.14546 19.3927C13.7739 19.5794 8.2618 18.8348 8.25548 18.7191C8.31762 16.7011 22.0763 18.2635 24.4377 18.018C27.1777 17.7333 29.6057 16.1276 30.2016 16.1217C32.1622 16.1081 30.5395 16.926 30.9794 17.2199C31.4255 17.511 36.9924 15.9282 37.2714 16.0113C38.3531 16.3454 37.2622 17.309 37.3747 17.3565C38.7151 17.9339 46.1988 17.136 48.2964 17.3446C48.2281 16.7245 44.0191 16.7028 46.6415 15.6891C49.6953 14.5071 49.8851 17.2413 49.9657 17.3611C63.9856 17.2434 78.0053 17.1257 92.0252 17.008C91.8426 15.5539 82.6825 16.7114 82.473 16.5212C81.2424 15.3948 96.7267 15.3144 98.6289 15.8158C97.1843 15.5109 95.7397 15.206 94.2949 14.9011C96.7499 13.2119 102.214 15.3499 105.774 14.5879C106.924 14.3409 104.71 13.7097 104.756 13.6653C106.046 13.007 108.125 13.494 106.577 14.3766C109.732 13.52 109.275 14.4454 111.699 14.4988C111.824 14.5009 110.78 13.8325 112.696 13.54C113.594 13.4036 118.387 13.37 119.026 12.7753C119.288 12.525 116.843 9.9227 116.555 12.178C111.336 11.1137 114.895 13.2158 112.869 13.1773C112.559 13.1675 113.266 11.905 108.17 12.5305C109.129 10.256 115.011 11.9136 116.016 11.6322C118.089 11.0539 109.527 9.9386 107.967 11.7169C108.691 9.94214 107.359 11.4824 105.452 11.4221C103.364 11.3569 104.271 10.8238 103.141 10.8284C100.052 10.8354 101.339 12.0764 98.7865 10.9667C101.288 14.4374 94.4293 11.4554 92.4306 10.5551C95.6738 10.3569 98.9172 10.1586 102.161 9.96041C101.974 9.77851 101.788 9.59662 101.601 9.41472C102.456 9.43507 103.311 9.45542 104.165 9.47577C104.029 9.65214 103.893 9.82852 103.757 10.0049C108.157 8.83512 109.239 10.1104 109.599 10.1223C114.225 10.2408 119.567 10.1948 124.244 10.1684C124.946 10.1644 124.458 9.02627 129.577 9.88628C131.209 10.1601 129.674 11.0581 131.522 10.9127C133.822 8.48501 133.789 10.4096 134.477 10.4081C136.45 10.3949 137.653 9.78937 137.835 9.78188C140.273 9.67266 143.844 9.74908 146.522 9.64263C146.572 9.63319 145.174 8.90108 146.915 9.10901C147.526 9.18333 153.023 12.3116 157.807 11.2489C156.56 11.0434 155.313 10.8379 154.066 10.6324C155.533 10.9214 165.794 10.0568 163.279 9.22624C161.738 8.71865 157.993 10.7827 157.57 8.82412C160.989 9.38876 179.85 8.38738 181.322 8.83349C181.525 8.89719 180.279 9.54175 180.56 9.62129C180.777 9.68189 185.098 9.50282 185.673 9.74348C186.015 9.88645 184.108 10.289 184.264 10.5172C184.401 10.6798 189.799 10.917 190.103 10.1173C188.78 10.4462 185.053 10.191 187.003 9.50588C187.254 9.42075 188.559 9.92667 188.864 9.81874C191.691 8.82291 183.228 9.11289 181.917 9.11342C187.229 8.06245 195.459 9.20654 201.616 8.50382C204.11 9.1514 197.931 9.54354 200.751 10.0751C206.6 11.177 202.301 9.14692 202.482 9.06124C203.929 8.38197 208.892 11.9391 208.88 9.20706C211 9.60446 210.317 9.9534 213.304 9.57638C212.91 9.38974 212.516 9.2031 212.121 9.01646C215.432 7.41219 222.478 11.3588 221.953 11.6668C220.542 12.4912 216.877 11.2437 216.564 11.2763C216.102 11.3246 214.839 14.1053 209.764 11.6596C207.702 13.5326 217.793 12.8621 213.206 14.1595C216.307 13.9312 229.075 15.1419 230.908 14.3138C231.127 14.2058 230.096 12.3598 233.253 13.2821C234.753 13.7213 231.144 13.7665 231.831 14.1841C233.945 15.4656 262.602 14.4495 268.046 14.3454C268.399 14.341 268.273 14.9168 268.62 14.9093C269.687 14.8863 273.57 14.0034 275.48 14.2555C271.519 13.2171 279.201 13.0841 281.155 13.1884C284.122 13.3473 283.944 14.3603 285.227 14.5671C290.17 15.3643 297.809 12.9118 301.657 15.1326C301.435 12.905 308.299 16.182 311.414 16.1811C313.853 16.1811 317.384 14.6829 314.087 13.806C318.298 13.8811 322.729 13.4362 326.678 13.275C327.331 13.248 326.435 13.913 327.549 13.8461C327.65 13.8353 327.786 13.1884 328.743 13.115C336.637 12.5003 332.801 13.898 334.281 14.2919C335.109 14.5124 335.72 14.6208 336.168 14.6549C331.566 14.8113 326.258 15.0997 324.838 15.1273C326.057 16.5458 335.039 14.7866 337.674 15.1532C337.765 15.1666 337.451 15.9548 337.544 15.9598C337.546 15.9598 337.548 15.9597 337.55 15.9597C338.537 16.0135 344.82 15.6822 343.521 14.7533C343.173 14.5051 340.28 14.5245 336.849 14.6322C337.777 14.4502 337.079 13.5741 337.243 13.5355C339.228 13.0871 344.1 13.9148 345.828 14.0195C346.223 14.0423 346.191 13.4783 346.256 13.4765C347.827 13.5943 347.192 15.2097 348.794 13.5377C351.649 15.527 343.465 13.8707 344.048 15.171C344.496 16.1721 362.65 15.5141 362.587 13.9327C362.651 14.1014 362.901 14.3098 363.415 14.5453C364.553 15.0686 369.606 14.8695 370.477 14.5723C370.624 14.514 370.557 12.9791 370.739 12.9637C371.195 12.9255 377.379 14.0887 379.681 13.1662C378.434 12.9592 377.187 12.7522 375.94 12.5452C383.463 12.4826 382.298 12.0333 379.789 11.5907C379.664 11.5873 379.541 11.5299 379.421 11.5244C377.477 11.1977 374.984 10.8871 374.946 10.7663C374.801 10.3051 387.564 9.96437 385.116 11.4047C384.775 11.6016 378.866 11.0061 381.795 12.0033C382.308 12.178 386.099 11.8631 386.299 11.9738C387.636 12.7098 379.359 13.7534 380.377 14.8051C382.382 13.7844 384.964 14.2981 387.268 14.0229C388.317 13.8985 388.57 13.1271 388.7 13.1117C390.633 12.8981 389.552 13.7122 390.197 13.6879C390.544 13.6718 394.346 11.9292 393.638 14.3017C406.187 12.4777 397.103 12.5389 389.4 12.7226C391.829 11.8443 396.604 12.2302 398.745 12.016C399.513 11.9383 399.053 11.1511 400.35 10.9846C403.02 10.642 415.779 11.4662 419.103 11.6584C417.064 11.9509 417.665 12.8077 419.24 12.7379C420.815 12.6677 419.486 11.5276 419.792 11.4021C420.121 11.2721 427.514 11.766 428.743 11.6091C423.182 12.0615 424.441 12.9116 429.164 12.9705C428.483 13.2222 427.801 13.4738 427.12 13.7255C429.886 13.36 435.712 14.6312 437.31 14.2311C437.561 14.1668 436.655 13.4511 436.796 13.415C438.198 13.0992 442.976 13.8039 443.197 13.5562C443.384 13.35 441.345 12.7583 442.099 12.4555C442.256 12.3918 444.225 13.3544 446.158 13.1019C446.874 13.009 446.439 12.3294 446.619 12.2886C448.124 11.9505 447.241 13.1056 449.993 12.9029C452.009 12.753 453.506 11.6196 456.295 11.9735C447.135 10.6011 454.832 11.149 458.657 10.69C459.27 10.6167 458.738 9.38122 462.405 9.96045C454.619 12.2517 464.635 11.13 466.685 11.141C466.798 11.1479 466.841 11.9647 467.846 11.9712C467.931 11.9699 467.806 11.4185 468.74 11.3702C477.601 10.913 471.937 11.5738 473.624 12.1073C474.342 12.3346 478.648 11.5256 479.809 11.4992C480.075 11.4955 479.956 12.07 480.988 12.0408C482.815 11.9877 484.449 11.3662 485.654 11.3098C485.795 11.3061 485.806 12.2113 488.09 11.9028C488.732 11.8165 489.452 11.4903 488.538 11.236C485.506 10.3998 479.772 11.9189 476.345 11.0869C473.221 10.3292 483.059 10.1915 483.571 10.1836C483.759 10.1795 481.84 10.6416 483.793 10.7177C485.46 10.7809 488.498 9.19741 490.985 9.52163C491.174 9.54565 493.166 10.8583 493.075 10.9363C492.993 10.9933 489.946 11.301 490.39 11.6817C490.443 11.7251 492.381 11.7035 492.635 11.9875C492.947 12.3331 493.8 15.7397 494.214 15.8226C495.277 16.027 494.582 15.2533 495.269 15.3029C496.742 15.4075 501.856 16.3831 502.016 15.1993C501.171 15.1346 500.327 15.0699 499.483 15.0053C504.177 14.8529 502.173 14.3626 502.837 14.1364C503.552 13.8918 503.356 14.9326 504.939 15.0199C505.284 15.0391 511.905 14.7788 511.782 14.3434C508.124 15.0616 509.475 13.768 509.305 13.7462C508.663 13.6667 507.848 14.3926 506.987 14.3839C500.932 14.3108 507.032 13.1334 505.601 12.8502C505.108 12.755 504.131 13.3766 503.922 13.3465C503.244 13.249 503.228 12.4435 502.776 12.5117C501.721 12.6698 502.96 13.8016 502.876 13.8615C501.937 14.581 498.234 13.7176 500.53 12.4623C499.146 12.0243 498.992 13.5328 497.893 12.9373C495.708 11.7583 498.973 12.0434 499.856 11.8395C503.024 11.104 503.968 11.6764 508.457 11.449C510.073 11.3686 511.985 10.6238 512.735 10.5787C513.207 10.5503 517.683 13.0688 517.793 9.08066C519.53 9.45513 522.265 12.0648 524.051 11.9329C525.655 11.8128 525.137 10.4056 525.287 10.3501C525.516 10.2628 527.456 10.3613 528.112 10.1576C528.879 9.91707 528.492 9.38117 529.711 9.15374C532.745 8.58925 532.673 10.0296 532.985 10.1211C536.614 11.179 535.016 9.1414 535.819 8.97185C536.566 8.816 547.057 9.53562 549.261 9.0029C548.365 9.29718 547.468 9.59146 546.571 9.88573C548.183 10.7733 549.88 9.2973 549.918 10.9076C550.23 8.30535 553.558 10.0216 554.554 9.94794C554.946 9.91772 554.913 9.47485 555.405 9.45253C557.325 9.36228 561.656 9.68664 562.697 9.45517C567.196 8.45844 555.669 6.92486 554.762 6.8336C556.577 6.85041 566.843 6.20086 562.116 4.98178C561.385 4.7937 560.099 5.96572 559.689 6.01396C556.917 6.33169 559.093 5.2747 558.875 5.17695C558.504 5.01929 556.684 6.03925 556.202 5.92233C556.041 5.8849 557.071 4.93395 554.425 4.9314C555.721 4.00756 563.161 4.70463 564.135 4.48331C564.483 4.40428 562.294 2.46266 568.668 4.32089C568.593 4.13979 568.518 3.95868 568.443 3.77758C571.986 3.67962 575.529 3.58167 579.072 3.48371C578.689 3.90458 576.704 4.75789 579.209 4.5632C580.651 4.45057 579.579 3.52574 579.71 3.49784C581.003 3.23289 603.918 3.39302 608.358 3.26001C609.868 3.21638 614.074 2.43995 614.395 2.42394C616.314 2.33641 623.115 2.77936 624.47 2.66472C625.317 2.59135 624.508 1.81765 625.264 1.84924C625.968 1.87967 625.243 2.63733 625.452 2.66745C627.184 2.92895 640.319 1.85547 643.444 2.54513C641.535 2.34444 632.026 3.91094 632.22 4.44059C632.262 4.51311 634.578 5.07071 635.054 4.78827C635.846 5.43497 638.542 3.43258 640.016 3.81275C640.183 3.85594 639.533 4.97348 642.161 5.15835C643.067 5.22147 645.432 4.3382 647.822 5.29526C651.273 4.8053 669.436 6.13024 670.675 4.92597C670.711 4.86258 668.153 4.46744 669.877 3.96525C672.17 3.29774 670.12 5.50909 672.797 5.68117C673.2 5.70737 680.645 5.43623 680.888 5.29861C683.136 4.05035 676.627 3.59292 676.718 3.44896C676.943 3.08639 682.347 2.83255 682.568 2.91626C682.777 3.00348 678.377 4.66675 683.672 4.01231C683.064 3.82096 682.456 3.62962 681.848 3.43827C684.337 3.04158 684.581 4.17075 685.185 4.23588C687.062 4.44229 689.083 2.71148 692.101 4.81321C692.899 5.37101 691.583 6.00484 691.683 6.08861C692.642 6.84012 693.849 4.80505 695.293 6.30761C695.402 6.41967 692.065 7.34731 697.906 7.31138C697.503 7.16905 697.1 7.02672 696.698 6.88439C697.519 6.55536 703.433 6.32433 704.229 6.39563C706.554 6.60402 704.533 7.65792 706.868 7.51825C705.362 6.10194 712.465 5.86934 712.063 7.09971C713.047 5.5513 719.088 6.70126 721.925 6.71929C723.715 6.72953 727.363 6.03277 727.932 6.10774C728.625 6.19964 728.42 7.25289 729.673 7.47888C730.03 7.54333 733.75 6.74788 737.025 7.81531C737.659 8.02097 738.999 9.79647 737.824 10.2501C735.813 11.0264 731.992 9.61394 732.047 10.6679C732.11 11.7953 737.242 11.091 738.625 11.2291C745.01 11.8681 741.331 13.0912 741.497 13.4535C741.928 14.3326 745.414 14.2824 745.56 14.3608C746.165 14.7091 743.698 15.4232 743.664 15.9617C743.622 16.6629 746.99 17.9057 746.227 18.1469C745.135 18.4896 742.041 17.4556 741.845 17.5072C739.3 18.2039 742.803 19.8001 743.77 20.5893C744.063 20.8321 742.902 21.2419 743.145 21.3121C746.845 22.3771 743.911 19.0315 746.37 19.2401C748.564 19.4261 745.748 20.5085 745.832 20.5666C745.941 20.6304 748.563 20.6713 748.975 21.0451C749.179 21.2323 742.376 23.3465 742.665 24.2726C744.838 24.0539 747.011 23.8352 749.184 23.6165C749.361 24.8253 746.229 23.9551 745.907 24.082C745.257 24.3366 747.076 24.937 747 25.32C746.959 25.5636 744.833 26.4458 746.76 26.7911C747.422 26.9104 748.806 26.0529 751.221 26.9038C742.84 28.0656 748.656 28.7077 748.905 29.1347C749.15 29.5617 745.151 30.5966 750.01 30.3864C750.233 32.7397 749.909 31.1314 748.531 31.5543C746.842 32.0741 750.756 32.8238 744.569 32.276C744.927 33.3762 749.896 33.2656 750.16 33.3519C750.388 33.4301 749.286 33.9796 749.681 34.1607C754.351 36.2604 751.146 35.3086 752.502 36.6601C752.623 36.7809 757.029 37.2564 753.678 37.4764C747.572 37.8766 745.012 36.3311 744.003 39.6776C748.528 41.0989 753.99 38.9072 755.363 38.8617C757.465 38.7953 755.291 39.4907 755.551 39.6799C755.641 39.741 757.452 39.6729 757.477 39.7268C758.782 42.2657 749.414 39.8218 746.471 40.2841C747.262 40.6604 748.054 41.0367 748.845 41.413C747.774 41.4353 746.703 41.4576 745.632 41.4798C750.739 42.2133 745.814 41.769 744.553 43.8399C744.269 44.3053 747.617 43.4885 743.8 44.8016C746.622 45.0805 745.725 45.5078 748.276 44.9097C748.214 45.7369 742.473 46.7071 740.209 47.1461C748.22 48.0228 743.639 45.0202 750.569 46.5794C751.847 45.5472 748.544 45.7682 748.812 45.5974C749.776 44.9835 752.047 45.9334 754.769 43.7868C755.212 43.4344 753.323 42.3709 756.11 42.4047C756.419 42.41 758.2 43.3177 758.175 43.3845C757.944 44.1061 756.185 43.8478 756.114 44.1488C756.047 44.4338 758.007 44.2498 758.014 44.3286C758.079 45.2303 756.38 44.6841 756.628 44.9649C757.163 45.5756 764.226 47.4706 755.019 46.9622C762.659 45.8924 755.993 45.9598 753.017 46.3711C752.259 46.4742 752.069 47.0143 750.988 47.2084C749.598 47.4596 747.968 47.2116 747.248 47.3152C746.475 47.4293 750.882 48.6741 744.515 48.3357C747.761 49.5813 753.475 48.1932 756.662 49.0619C763.09 50.8173 752.198 51.2745 751.064 51.4562C750.761 51.5053 751.779 52.2263 751.578 52.2722C751.249 52.3428 745.063 52.0469 744.457 52.653C743.852 53.2586 746.722 52.6105 746.916 53.2366C747.048 53.6582 739.592 54.4562 743.632 54.7185C746.416 54.8982 751.537 53.1669 752.411 54.9861C748.319 55.1639 744.227 55.3418 740.134 55.5196C742.378 56.1992 744.622 56.8789 746.866 57.5585C742.273 57.8088 738.298 57.0509 733.94 58.0734C744.436 60.2296 730.545 59.8712 730.394 60.143C730.344 60.3052 734.48 62.084 735.146 62.41C731.493 63.1286 720.383 63.5408 726.896 65.728C725.713 65.2323 722.862 66.4938 722.901 66.5873C723.269 67.57 729.498 66.8905 728.486 67.7868C727.313 68.827 725.655 67.4371 723.844 67.5608C714.548 68.2048 717.127 73.3306 707.798 72.5779C707.985 72.7598 708.171 72.9417 708.358 73.1236C698.221 72.8985 688.085 72.6734 677.949 72.4482C673.992 74.0446 663.444 75.07 658.26 74.9301C657.216 74.9031 652.087 74.1125 651.7 73.9705C650.982 73.6983 654.919 73.5668 653.137 73.0593C652.761 72.9551 644.084 72.6656 644.709 73.5402C645.681 73.6357 648.721 73.1741 649.22 73.3779C652.726 74.8327 625.975 73.8272 624.653 74.4313C625.247 74.7128 625.841 74.9943 626.434 75.2758C624.746 75.1464 623.058 75.0171 621.369 74.8877ZM698.543 3.81427C699.551 2.92604 702.093 3.57157 703.592 3.31429C705.662 2.95418 709.167 -0.463689 707.668 2.94884C704.626 3.23732 701.585 3.5258 698.543 3.81427ZM654.058 2.79154C656.101 3.25172 654.529 5.16243 652.852 4.38339C652.666 4.29483 651.294 2.17225 654.058 2.79154ZM675.457 3.55335C675.371 3.57908 673.607 3.54032 673.546 3.51092C671.96 2.75827 677.278 2.87942 675.457 3.55335ZM572.113 5.20476C574.361 5.10801 572.723 3.3911 571.329 4.1112C571.241 4.15691 571.965 5.20976 572.113 5.20476ZM573.712 5.24007C575.467 6.77566 578.967 3.61732 576.173 3.95131C575.902 3.98497 573.631 5.16527 573.712 5.24007ZM661.336 3.49926C661.11 4.09369 659.003 3.82117 658.103 3.68523C658.125 3.14374 660.455 3.5713 661.336 3.49926ZM607.965 4.01335C607.879 4.48006 615.195 4.40642 615.69 3.78883C614.537 4.05703 608.047 3.59392 607.965 4.01335ZM589.205 4.79076C589.391 4.87013 591.918 4.73108 591.842 4.32029C590.606 3.78884 588.368 4.43149 589.205 4.79076ZM551.911 5.00736C551.775 5.11158 553.682 7.71646 549.187 6.02317C548.527 5.77524 550.875 5.076 550.641 4.98363C550.15 4.80368 549.762 4.72084 549.451 4.70759C551.539 4.47698 553.708 4.36073 553.919 4.51812C554.909 5.26149 551.972 4.96385 551.911 5.00736ZM532.343 7.08561C531.914 7.51533 529.165 7.30509 528.538 7.1334C528.431 7.10103 528.893 5.97595 527.656 6.06795C526.662 6.14372 528.153 7.2832 526.216 7.11197C524.259 6.9402 526.868 6.10409 526.697 6.04675C526.468 5.97163 523.445 6.50746 523.535 5.83855C523.603 5.34307 526.846 5.65656 527.647 5.54612C528.673 5.4042 527.424 4.58758 529.14 4.75353C530.219 4.85713 529.629 6.31137 529.857 6.38315C530.048 6.44095 533.811 5.58163 532.337 7.08107C532.339 7.08259 532.341 7.0841 532.343 7.08561ZM548.886 4.77537C549.043 4.72534 549.228 4.69807 549.451 4.70759C549.262 4.72852 549.073 4.75262 548.886 4.77537ZM692.65 4.48917C691.587 4.0488 694.732 3.45464 695.928 4.03282C695.951 4.50524 692.819 4.55769 692.65 4.48917ZM546.955 5.96911C543.85 5.62609 546.13 5.11146 548.886 4.77537C548.012 5.0541 547.998 6.08366 546.955 5.96911ZM635.054 4.78827C634.923 4.68096 634.839 4.51285 634.827 4.23584C635.172 4.53663 635.204 4.69919 635.054 4.78827ZM627.812 4.34125C625.335 5.20151 630.377 5.13445 630.342 4.5307C630.326 4.30281 627.911 4.30704 627.812 4.34125ZM569.228 5.14124C569.456 5.22235 565.943 7.79407 571.053 5.84803C568.318 5.56554 571.2 5.26913 571.156 5.04622C571.042 4.40545 566.454 5.05212 565.436 4.78151C564.647 5.93449 568.477 4.87402 569.223 5.14128C569.224 5.14126 569.226 5.14125 569.228 5.14124ZM497.053 6.69855C497.671 6.02191 499.645 6.2254 500.977 6.25628C500.359 6.93291 498.384 6.72943 497.053 6.69855ZM148.603 8.8828C157.724 8.20127 158.921 10.9324 150.567 9.90456C150.403 9.88289 148.051 9.16405 148.603 8.8828ZM226.912 9.07989C227.778 10.268 224.934 10.4786 223.063 9.99778C222.639 9.88966 221.07 8.69077 222.854 8.44266C222.804 9.88994 225.568 10.4246 226.912 9.07989ZM545.206 6.74507C544.306 7.54707 541.522 6.99861 540.056 6.88864C540.947 6.22732 543.908 6.50438 545.206 6.74507ZM178.593 10.1148C179.555 10.1989 180.199 9.15614 180.032 9.07082C179.287 8.67933 177.494 9.53079 178.593 10.1148ZM554.185 6.80991C554.314 7.2848 550.633 7.76682 550.37 6.59225C551.158 6.6722 554.092 6.51199 554.185 6.80991ZM499.566 7.03918C500.139 7.27732 497.179 7.72976 496.282 7.49557C496.351 6.98878 499.19 6.88441 499.566 7.03918ZM194.074 9.66103C194.936 9.74561 197.088 9.75903 197.324 9.33762C197.617 8.8109 194.463 9.0104 194.074 9.66103ZM33.8395 11.6161C33.7297 11.4282 37.0548 10.0471 38.5377 10.3814C41.3541 11.0211 33.9579 11.7485 33.8395 11.6161ZM169.492 10.71C166.771 9.74007 169.792 10.6769 169.667 9.63764C167.839 9.61214 163.293 9.5906 166.424 10.5928C167.034 10.7866 168.64 10.6483 169.492 10.71ZM171.999 11.0415C172.289 10.7027 174.241 9.62775 172.549 9.71492C171.767 9.75683 170.512 10.9453 171.999 11.0415ZM54.4824 11.0186C56.9214 11.9234 45.76 11.5025 45.4385 11.3433C45.2685 11.2593 45.157 11.1797 45.0935 11.1121C44.6853 11.4066 42.5777 11.473 42.3297 10.7365C42.9621 10.7933 44.687 10.7171 44.8879 10.7976C44.9744 10.8319 45.0389 10.8641 45.0836 10.897C45.8239 10.2514 54.0148 10.8471 54.4824 11.0186ZM72.9771 11.8452C70.1991 13.2218 69.6934 10.9156 69.9332 10.8397C72.9604 9.87466 70.9921 11.5907 71.0854 11.6699C71.298 11.8012 73.4477 10.9969 72.9683 11.8453C72.9713 11.8453 72.974 11.8452 72.9771 11.8452ZM58.2743 11.3738C58.1601 11.4046 55.8212 11.3485 55.725 11.3126C53.8042 10.5491 60.4223 10.7045 58.2743 11.3738ZM517.593 8.79814C515.918 8.57953 517.556 7.71914 518.67 8.01743C518.762 8.04695 519.071 8.99129 517.593 8.79814ZM173.335 10.8039C173.724 10.9619 183.657 11.5023 183.054 10.223C182.211 10.38 170.921 9.79329 173.335 10.8039ZM247.543 10.6295C245.792 10.6311 247.695 9.40831 248.632 9.85333C248.979 10.0187 247.985 10.6284 247.543 10.6295ZM559.157 7.87607C560.972 7.19927 560.608 9.43233 559.028 8.67805C558.966 8.64852 559.086 7.90251 559.157 7.87607ZM233.551 10.0253C239.586 9.25231 238.176 13.0986 230.318 11.8547C230.563 11.6822 230.808 11.5097 231.052 11.3372C221.987 10.8209 230.431 11.0708 232.649 10.8415C233.492 10.7543 232.781 10.1185 233.545 10.0207C233.547 10.0222 233.549 10.0238 233.551 10.0253ZM256.752 10.6425C262.582 13.3278 251.471 11.627 248.288 12.0026C251.369 10.8578 255.389 11.0017 249.916 9.88613C257.908 9.61117 254.586 10.7176 254.906 10.8057C255.284 10.9043 256.504 10.5272 256.752 10.6425ZM241.412 10.7612C241.076 10.8429 238.54 10.305 237.628 10.4014C238.899 9.46277 243.641 10.2063 241.412 10.7612ZM92.3577 11.0866C92.1511 11.8169 91.6341 12.3572 89.6333 12.0979C90.2491 11.7276 91.5241 11.4042 92.3577 11.0866ZM700.486 7.63784C701.863 7.6811 704.606 7.93784 703.761 7.17693C703.668 7.11221 700.488 7.20766 700.486 7.63784ZM202.179 11.2057C202.472 11.2934 210.044 11.304 207.425 10.5167C206.635 10.2793 199.746 10.4274 202.179 11.2057ZM162.967 11.3707C163.601 11.3742 166.175 11.2201 166.228 11.0473C166.399 10.4501 163.241 10.7985 162.967 11.3707ZM707.435 8.33856C707.616 8.413 711.821 8.25152 711.357 7.90089C710.476 7.23783 706.812 8.08212 707.435 8.33856ZM511.511 10.5455C511.16 10.5748 510.691 9.786 510.569 9.778C510.283 9.76857 503.85 10.1152 506.303 9.08261C506.712 8.90956 515.972 9.23936 517.177 9.3319C517.648 10.4158 513.688 9.40768 512.726 9.52583C512.557 9.54819 512.453 10.4583 511.514 10.5409C511.513 10.5424 511.512 10.544 511.511 10.5455ZM81.9473 11.9239C81.6671 12.6168 74.1052 13.1238 74.1884 12.2859C76.7747 12.1652 79.361 12.0445 81.9473 11.9239ZM85.7904 12.0132C87.4069 12.4914 83.6279 12.6779 82.5125 12.4695C82.4982 12.0047 85.5549 11.9432 85.7904 12.0132ZM177.328 13.8587C178.087 13.6847 175.744 12.6917 176.266 12.4923C176.601 12.368 178.301 12.7348 178.841 12.4159C178.994 12.3147 177.257 11.3782 176.756 11.4224C176.044 11.4818 176.739 12.2231 175.962 12.2333C173.383 12.2662 171.094 11.7492 168.676 11.7774C168.458 11.7814 170.154 12.2971 168.292 12.3018C168.004 12.3036 166.271 11.5303 164.044 11.6613C159.137 14.1232 155.512 11.7611 149.273 12.6781C149.51 12.9054 154.182 13.4885 154.458 13.5094C159.678 13.8748 169.028 13.8575 174.493 13.8269C175.896 13.8198 175.212 13.31 175.816 13.2872C176.294 13.2702 175.731 14.2261 177.328 13.8587ZM699.757 8.16907C700.419 9.11589 702.717 8.49884 704.188 8.53835C703.666 7.68381 701.195 8.37043 699.757 8.16907ZM119.756 12.5279C120.492 12.4864 122.778 12.7579 122.966 12.4703C123.207 12.0947 119.908 11.8804 119.756 12.5279ZM475.229 10.5128C475.158 10.5392 473.385 10.4999 473.318 10.4704C471.73 9.71745 477.048 9.83906 475.229 10.5128ZM432.822 10.6073C431.478 10.7335 430.124 11.0396 429.668 10.2708C430.525 10.3834 432.977 10.0687 432.822 10.6073ZM374.318 11.013C374.601 12.0218 370.551 11.3938 369.786 11.3082C370.067 10.8572 374.11 10.2862 374.318 11.013ZM92.6659 14.2571C90.1919 14.2135 90.7224 15.7409 89.1481 15.0584C88.8911 14.943 88.0458 11.7608 90.7711 12.9373C91.2616 13.1488 89.3514 13.9189 92.6659 14.2571ZM229.039 11.831C228.414 12.5037 226.446 12.3181 225.117 12.2733C225.413 11.7746 228.094 11.8849 229.039 11.831ZM715.033 9.05335C716.199 9.98957 721.555 9.25436 720.225 8.6394C720.036 8.55929 715.786 9.08409 715.033 9.05335ZM538.932 9.83501C536.731 10.5927 541.3 10.793 542.738 10.0573C542.086 10.1092 539.081 9.78511 538.932 9.83501ZM388.374 11.4704C388.268 11.5015 385.929 11.4451 385.824 11.4092C383.903 10.6457 390.521 10.8011 388.374 11.4704ZM446.774 11.7428C445.934 12.36 440.392 11.9027 439.147 11.2983C440.337 10.3962 447.815 10.9721 446.774 11.7428ZM102.842 13.7556C101.078 13.7988 99.4022 13.6214 97.7797 13.3676C98.118 12.8504 102.654 13.3722 102.842 13.7556ZM379.789 11.5907C379.664 11.5873 379.541 11.5299 379.421 11.5244C379.547 11.5454 379.669 11.5695 379.789 11.5907ZM142.343 13.8588C143.823 14.0525 143.511 13.1109 143.42 13.0826C142.305 12.7843 140.668 13.6401 142.343 13.8588ZM701.455 9.5588C701.972 10.4069 704.456 9.73023 705.888 9.92349C705.469 9.2537 702.607 9.46192 701.455 9.5588ZM262.99 12.3459C264.853 13.257 257.299 14.3789 255.703 13.7944C255.582 13.2248 262.717 12.2213 262.99 12.3459ZM545.788 11.0674C545.94 11.7336 549.11 10.9077 548.434 10.5969C548.006 10.3991 545.697 10.6534 545.788 11.0674ZM251.899 13.4302C251.19 13.6385 249.531 12.9909 250.112 12.5858C250.857 12.0666 252.082 13.3707 251.899 13.4302ZM188.177 14.3828C188.488 14.4827 192.661 13.7705 190.932 13.1013C189.732 12.6362 189.547 13.6019 189.265 13.6066C188.951 13.6056 182.24 12.4691 188.177 14.3828ZM305.332 12.6502C303.758 12.917 301.851 12.6317 300.202 12.6609C300.872 12.2438 304.659 12.1065 305.332 12.6502ZM533.548 11.326C533.932 11.5933 544.358 11.6876 538.431 10.8958C538.086 10.8511 532.381 10.5164 533.548 11.326ZM92.6659 14.2571C92.978 14.2626 93.3381 14.2921 93.756 14.3553C93.3413 14.332 92.9802 14.2892 92.6659 14.2571ZM120.761 14.174C120.194 14.6634 123.064 14.7745 123.909 14.5104C124.166 13.9153 120.839 14.1055 120.761 14.174ZM300.081 13.3392C299.132 13.6233 297.406 13.338 296.229 13.3781C296.426 12.9253 299.667 12.8832 300.081 13.3392ZM366.809 13.4106C364.92 13.1546 362.599 13.2932 362.566 13.8458C362.527 13.7598 362.435 13.6687 362.282 13.5776C362.128 13.4874 360.108 13.7575 359.229 13.5747C353.966 12.4892 379.529 12.7841 364.722 14.4406C365.418 14.0973 366.113 13.754 366.809 13.4106ZM454.276 12.9939C455.351 13.6592 458.346 12.7971 457.566 12.5374C457.023 12.3596 453.2 12.324 454.276 12.9939ZM413.069 13.6618C413.39 13.7797 416.316 13.2897 416.389 12.9351C414.704 12.573 411.608 13.1139 413.069 13.6618ZM462.513 13.7274C463.185 13.8244 464.037 12.7347 463.958 12.6879C463.273 12.2966 461.381 13.1311 462.513 13.7274ZM97.8057 17.1442C98.8075 17.4481 101.991 16.6425 102.682 15.922C102.812 16.0596 103.161 16.2379 103.8 16.4503C103.799 16.4503 103.796 16.4503 103.795 16.4503C104.658 16.7339 130.427 16.8812 113.136 15.6155C112.594 15.5749 113.337 16.2127 111.134 16.1139C110.988 16.1066 110.913 15.5824 110.464 15.5598C109.429 15.5111 103.919 15.217 102.814 15.6465C102.804 15.5493 102.732 15.4572 102.58 15.3733C101.218 14.6255 97.0286 16.9099 97.8057 17.1442ZM407.264 13.7959C407.854 13.9865 409.719 13.7897 409.909 13.3254C408.983 13.1045 405.894 13.3513 407.264 13.7959ZM533.882 13.2237C535.084 13.5966 538.123 12.8648 537.202 12.4924C536.637 12.2633 532.495 12.7955 533.882 13.2237ZM425.947 13.4265C419.06 12.9242 424.304 13.4815 423.254 14.1674C424.151 13.9204 425.049 13.6734 425.947 13.4265ZM65.9325 15.5994C67.0311 15.7485 65.7481 17.0968 64.5354 16.3777C64.1548 16.1493 65.3178 15.5186 65.9325 15.5994ZM16.3619 16.3404C17.3053 17.5223 12.7254 16.8542 14.5045 16.0276C14.5873 15.9995 16.2947 16.2957 16.3619 16.3404ZM51.0046 16.599C51.7455 15.7852 52.2302 15.686 54.3305 15.8722C51.2242 16.1204 54.1101 16.817 51.0046 16.599ZM362.587 13.9327C362.575 13.9001 362.565 13.876 362.566 13.8458C362.58 13.8755 362.586 13.9036 362.587 13.9327ZM468.985 13.4744C469.85 14.154 472.265 14.0878 471.542 13.4027C471.472 13.3393 469.335 12.9658 468.985 13.4744ZM102.682 15.922C102.567 15.8 102.625 15.7202 102.814 15.6465C102.824 15.738 102.775 15.8247 102.682 15.922ZM456.018 14.1178C456.102 13.606 452.425 13.4312 452.277 13.4922C450.172 14.3927 454.501 14.1585 456.018 14.1178ZM558.193 13.7833C558.382 13.7287 557.152 12.4169 556.405 12.9389C555.827 13.3439 557.483 13.991 558.193 13.7833ZM43.8779 16.9752C42.7139 16.9819 41.0748 16.9933 40.7692 16.3684C41.5498 16.4595 43.8996 16.5151 43.8779 16.9752ZM18.1581 17.1893C19.5301 16.4434 22.673 16.4249 24.6803 16.5332C24.7224 17.503 19.4482 16.9528 18.1581 17.1893ZM94.646 16.8032C94.7417 16.842 97.6624 17.1124 97.2603 16.4656C96.6728 15.5172 93.8204 16.4555 94.646 16.8032ZM552.52 13.12C551.217 13.5757 554.228 14.9304 555.6 13.8598C556.305 13.3115 552.74 13.0436 552.52 13.12ZM476.532 14.3223C478.252 13.9352 473.979 13.2938 473.386 13.9766C474.18 14.0259 475.92 14.4593 476.532 14.3223ZM417.92 15.3926C423.359 17.3153 420.383 13.7622 419.422 14.0826C419.287 14.1283 417.787 15.3474 417.92 15.3926ZM728.525 12.8792C729.292 12.602 726.421 11.6351 726.054 12.2865C725.827 12.694 728.034 13.0558 728.525 12.8792ZM336.168 14.6549C336.397 14.6471 336.625 14.6392 336.849 14.6322C336.681 14.6652 336.459 14.6771 336.168 14.6549ZM492.183 16.843C488.347 14.1032 488.76 16.2315 488.428 16.2221C487.71 16.197 486.038 15.4604 484.687 15.5919C486.234 15.2705 487.781 14.9491 489.328 14.6277C488.104 14.4361 477.47 13.4879 477.249 13.9376C476.934 14.5782 480.277 14.356 480.375 14.4116C480.515 14.4908 481.047 16.2624 481.358 16.3279C481.869 16.4324 490.757 16.4111 492.183 16.843ZM429.271 15.0116C428.397 14.8063 428.145 14.1046 427.741 14.2754C427.603 14.3338 427.584 15.0047 427.113 15.1813C427.832 15.1247 428.552 15.0681 429.271 15.0116ZM499.013 14.3125C500.099 15.1251 495.247 14.8456 495.091 14.7548C494.259 14.2046 498.125 13.6487 499.013 14.3125ZM457.857 14.7009C458.034 14.7475 461.76 14.9791 461.728 14.5245C460.74 14.1842 455.76 14.1158 457.857 14.7009ZM426.531 15.2309C425.222 15.1612 422.744 14.5019 423.034 15.5102C423.035 15.5102 423.037 15.5101 423.039 15.5101C424.203 15.4171 425.367 15.324 426.531 15.2309ZM548.063 15.2825C550.496 16.8753 549.336 14.8501 547.186 14.3452C546.54 15.0717 547.664 15.0233 548.063 15.2825ZM555.83 16.4311C556.506 16.7161 563.456 16.3534 562.391 15.5092C562.012 15.2083 558.019 15.9995 557.834 15.9418C557.554 15.8564 558.825 14.9064 556.694 15.107C556.82 15.4252 555.598 16.3359 555.83 16.4311ZM550.075 16.2993C552.492 17.507 553.021 15.247 551.209 15.2527C550.5 15.2534 549.73 16.1251 550.075 16.2993ZM540.231 16.1715C541.099 16.3798 543.41 16.6768 544.998 15.916C542.867 15.8658 540.737 15.8157 538.606 15.7655C538.362 16.1923 539.471 15.9884 540.236 16.1715C540.235 16.1715 540.233 16.1715 540.231 16.1715ZM3.7078 23.0658C5.62595 23.6931 1.21614 23.9672 1.0287 23.8112C0.471933 23.2929 2.8503 22.7856 3.7078 23.0658ZM743.59 33.2804C744.124 33.532 744.476 34.369 745.645 33.9216C744.463 33.3098 743.282 32.698 742.101 32.0862C741.193 33.5117 743.007 33.0029 743.59 33.2804ZM748.116 38.4376C747.95 38.473 748.87 40.6499 746.713 39.2067C745.255 38.2322 753.148 37.2216 754.579 38.1801C753.006 38.6402 749.547 38.148 748.116 38.4376ZM762.001 47.7955C762.093 47.969 759.093 48.2439 758.745 48.1235C756.918 47.4886 761.503 46.8661 762.001 47.7955ZM752.426 47.4416C753.835 47.8563 750.719 48.1499 749.789 47.912C749.697 47.5063 752.208 47.3812 752.426 47.4416ZM23.2666 54.5528C24.7972 56.0263 26.1423 52.8239 23.8027 53.4826C23.6911 53.5136 23.2013 54.4806 23.2666 54.5528ZM759.079 50.0166C757.669 49.6019 760.785 49.3083 761.716 49.5461C761.804 49.9514 759.294 50.0772 759.079 50.0166ZM24.3574 58.0798C26.3856 59.1341 25.6542 55.5559 25.4007 55.4132C24.3565 54.8498 20.7948 56.2794 20.0673 56.6338C25.4071 56.0612 23.4026 57.583 24.3574 58.0798ZM33.6738 55.8672C35.5479 55.4727 30.7493 54.7731 29.8396 55.7779C30.7717 55.724 33.1409 55.9812 33.6738 55.8672ZM45.0674 56.9417C46.0769 57.0634 49.0789 57.351 49.5792 56.784C48.4784 56.8933 45.49 56.3588 45.0674 56.9417ZM47.3603 58.6159C48.9414 59.3716 49.3075 57.1373 47.493 57.8139C47.4224 57.8401 47.3023 58.5737 47.3603 58.6159ZM56.2293 59.3636C57.2685 60.2444 58.4378 58.0753 56.7611 58.028C56.2631 58.0179 56.1192 59.2626 56.2293 59.3636ZM26.9095 61.9177C28.3929 62.2891 30.2933 60.7288 27.1296 60.5795C28.2393 60.3357 29.349 60.0919 30.4585 59.8481C26.3112 59.0077 26.6268 61.1522 25.4368 61.0713C23.7741 60.956 23.8955 59.1838 24.2264 58.6254C22.8694 59.7196 17.0796 59.7748 13.7344 60.0034C16.6779 60.4396 21.4542 61.1979 24.3581 61.4674C25.1871 61.5456 25.9887 61.0545 26.6955 61.1042C27.8286 61.1865 26.8265 61.8926 26.9038 61.9177C26.9057 61.9177 26.9077 61.9177 26.9095 61.9177ZM67.882 59.3194C70.9279 60.3049 68.9935 58.1468 67.2778 58.5451C67.2044 58.5754 67.8063 59.2953 67.882 59.3194ZM763.146 56.5867C759.079 55.706 762.025 54.4841 753.537 56.3658C757.1 55.0497 753.729 55.4348 754.424 54.9088C754.98 54.4926 757.077 54.8205 755.855 53.9976C757.46 54.8915 764.407 54.5959 764.718 54.7407C764.715 54.7407 764.712 54.7408 764.709 54.7408C764.896 54.8266 764.444 56.8668 763.146 56.5867ZM45.1123 62.618C46.1405 65.2453 46.5159 61.0621 48.5212 63.232C51.1586 60.0447 41.1891 63.2795 39.9656 60.6099C50.8127 60.8501 32.786 58.0038 40.3777 61.9623C34.1334 60.5484 38.3366 62.4721 37.3767 62.9891C36.3498 63.5399 32.8189 62.9717 33.0033 63.9516C33.0052 63.9516 33.0071 63.9516 33.0091 63.9516C35.1665 63.8688 37.3236 63.786 39.481 63.7032C37.3577 61.6007 41.7705 62.2064 43.2752 63.921C43.8875 63.4867 44.5 63.0523 45.1123 62.618ZM32.8898 60.7112C33.1027 60.7583 37.7942 60.4309 37.489 60.0081C36.8609 59.7413 30.2019 60.1097 32.8898 60.7112ZM12.2382 61.3087C13.9233 61.3028 16.5309 61.6987 17.4449 60.8947C15.7593 60.9003 13.1512 60.5043 12.2382 61.3087ZM99.0067 60.8919C101.151 60.223 94.5371 60.0723 96.4544 60.8354C96.5488 60.8713 98.9013 60.9232 99.0067 60.8919ZM49.9955 62.1878C52.1836 62.9784 51.1377 60.4231 49.5236 61.1013C49.43 61.1413 49.8945 62.1517 49.9955 62.1878ZM759.856 56.9196C759.713 57.5483 753.817 57.1459 752.772 57.1582C753.363 56.5708 760.02 56.1989 759.856 56.9196ZM9.28517 63.6765C12.65 65.9117 17.1859 63.2748 17.6851 63.3285C18.1813 63.3833 17.4087 64.3751 17.5218 64.4008C17.78 64.4545 23.0631 64.3371 23.3185 64.2668C23.5012 64.212 22.5378 62.8317 23.6259 62.3878C21.503 63.1896 11.841 62.7599 11.3408 62.9168C10.9531 63.0421 13.888 64.479 9.29095 63.6765C9.2891 63.6765 9.28709 63.6765 9.28517 63.6765ZM18.9335 63.6225C17.6105 63.0499 21.3115 62.953 22.2085 63.1616C24.2013 63.6285 19.1032 63.6903 18.9335 63.6225ZM27.8389 64.0998C28.2624 64.2274 32.0777 64.3209 32.3987 63.6717C30.5885 62.8442 26.8784 63.8024 27.8389 64.0998ZM70.2886 63.7351C71.279 63.6457 74.0062 64.1251 74.1594 63.5587C73.168 63.6476 70.4413 63.1686 70.2886 63.7351ZM739.773 61.986C741.421 62.4483 737.609 62.6665 736.495 62.4469C736.433 62.0701 739.632 61.9463 739.773 61.986ZM50.3943 67.5917C50.9818 67.7598 62.9478 67.2524 64.6251 66.9767C62.9806 66.5598 51.1196 66.6046 50.5825 66.8168C50.4256 66.8803 50.3194 67.5651 50.3943 67.5917ZM24.5126 68.022C23.4197 68.8618 22.6982 67.8679 22.5598 67.8562C21.2021 67.7377 18.3891 67.9438 19.0018 67.1379C21.3982 67.4458 26.6881 66.3543 24.5126 68.022ZM71.1594 67.497C75.2217 67.1614 67.4111 66.3353 68.4397 67.1989C68.506 67.2511 70.7393 67.5322 71.1594 67.497ZM49.0585 67.843C48.1657 68.5217 36.191 68.0198 34.269 68.0314C35.9841 66.7792 37.3763 67.7127 39.6885 67.6343C40.3123 67.6116 40.1429 67.0965 40.2099 67.0952C41.2903 67.0643 40.4847 67.6658 41.151 67.6705C41.5719 67.6718 50.3148 66.8869 49.0585 67.843ZM23.8893 68.6029C23.2225 69.0846 15.7486 69.3369 15.4471 69.2121C13.1924 68.2834 23.3075 68.4405 23.8893 68.6029ZM50.1627 68.9391C48.8832 70.3897 42.9323 69.4628 46.9977 68.7172C47.3861 68.6492 49.0348 69.2636 50.1627 68.9391ZM70.7327 68.8731C70.9328 68.9142 75.1709 69.1748 75.2444 68.7154C74.6313 68.5411 68.4548 68.4216 70.7327 68.8731ZM68.5444 70.4394C68.6467 70.4277 67.6486 69.5504 69.6356 69.6494C69.8012 69.6589 70.1153 70.6512 72.6105 70.2708C73.1167 70.1926 73.8984 69.5296 73.8414 69.4891C71.2327 67.9457 63.4177 70.9856 68.5444 70.4394ZM23.7567 69.4095C24.1619 69.8265 23.1968 71.0786 22.3173 70.4535C21.9404 70.1835 22.637 69.4314 23.7567 69.4095ZM84.1702 69.1881C81.7116 69.9597 89.4442 70.0519 89.8371 69.856C89.5863 69.387 84.4162 69.1127 84.1702 69.1881ZM735.95 67.8433C735.952 67.8432 735.954 67.8432 735.956 67.8432C733.883 67.6856 735.163 67.0487 735.066 67.0296C730.648 66.1353 731.826 67.5512 731.137 67.7237C729.659 68.0967 729.888 66.3641 727.396 67.0981C731.516 66.0112 727.763 66.4801 727.642 65.865C727.167 63.3548 733.142 67.0059 735.197 66.4657C735.483 66.3908 733.362 65.6026 734.096 65.3696C736.479 64.6146 743.904 68.4459 735.95 67.8433ZM21.642 70.5678C20.6852 71.3123 13.3906 70.644 15.3203 70.0232C15.6307 69.9236 23.049 69.4825 21.642 70.5678ZM362.222 69.4284C360.474 70.0788 364.538 70.8032 365.289 70.3011C365.661 70.0509 362.991 69.143 362.222 69.4284ZM390.71 71.975C392.791 71.8317 394.972 69.1531 392.384 69.5835C392.109 69.6305 390.469 71.607 390.71 71.975ZM253.983 71.501C256.163 72.4389 256.024 70.6707 254.428 70.7061C253.864 70.7183 253.915 71.4713 253.983 71.501ZM336.96 70.7291C337.178 70.7894 339.691 70.66 339.597 70.254C338.666 70.0162 335.55 70.3144 336.96 70.7291ZM253.294 71.7573C254.582 71.43 252.356 70.1651 250.787 71.4258C251.587 71.318 253.162 71.7907 253.294 71.7573ZM54.6756 72.8191C55.751 72.0856 58.8063 72.2851 60.5597 72.1488C60.7538 73.0887 55.9279 72.6403 54.6756 72.8191ZM381.866 70.9617C383.833 70.2855 379.608 69.7701 380 70.6443C380.054 70.6915 381.788 70.9904 381.866 70.9617ZM183.843 72.308C185.273 71.7372 180.719 71.012 181.977 71.9906C182.039 72.0304 183.765 72.3397 183.843 72.308ZM163.976 72.1129C165.064 72.2952 169.7 72.2066 167.892 71.6707C167.612 71.5884 164.055 71.5982 163.976 72.1129ZM731.018 68.402C731.609 69.3649 728.208 69.157 727.72 68.9912C727.529 68.9222 730.247 67.1492 731.018 68.402ZM268.104 71.5597C269.228 71.4313 272.147 71.6421 272.658 71.1316C271.283 71.2456 267.729 70.5518 268.104 71.5597ZM372.879 71.025C374.601 72.0643 377.533 71.9414 376.8 70.5736C373.562 70.6868 377.207 71.8047 372.879 71.025ZM246.055 72.9354C246.958 73.0096 247.642 71.687 247.54 71.6256C246.559 71.0412 245.156 72.4284 246.055 72.9354ZM313.742 71.4075C313.797 71.9704 316.687 71.6958 316.3 71.3358C316.172 71.2149 313.698 70.9519 313.742 71.4075ZM92.5481 72.8917C93.8758 73.3972 89.8322 73.9263 88.6321 73.3339C88.0456 72.4728 92.3803 72.8337 92.5481 72.8917ZM221.039 72.7695C220.909 73.6064 225.426 73.1041 223.641 72.4229C223.194 72.2524 221.084 72.4897 221.039 72.7695ZM177.775 74.0552C180.801 73.0385 168.067 72.4141 171.419 73.6344C171.659 73.7214 177.512 74.1411 177.775 74.0552ZM156.981 73.5687C157.504 73.6751 157.259 76.4859 155.088 75.4168C154.803 75.2782 156.129 74.527 155.895 74.3586C155.758 74.2627 151.05 73.899 150.833 73.966C150.6 74.042 150.88 74.9405 150.644 75.0431C150.378 75.1577 147.476 74.3858 145.959 74.387C143.099 74.3909 142.794 75.1423 142.56 75.1463C141.877 75.1558 140.726 74.6312 139.341 74.6409C132.361 74.6926 121.689 75.3977 116.147 73.8451C121.075 74.4509 125.764 73.7433 130.662 73.5029C129.236 75.0765 137.864 72.2505 132.818 74.0885C135.144 73.6818 155.265 73.237 156.975 73.5687C156.977 73.5687 156.979 73.5687 156.981 73.5687ZM398.932 72.7086C397.658 73.6761 404.22 73.4174 404.771 72.3041C403.904 72.1558 399.09 72.5989 398.932 72.7086ZM368.665 75.246C368.057 75.4155 367.488 77.294 364.287 76.3642C364.284 76.3642 364.281 76.3642 364.278 76.3642C363.342 76.0927 364.405 75.6289 364.233 75.4673C364.17 75.4012 361.25 74.4877 363.67 74.3219C367.36 74.0676 364.025 75.7143 365.994 75.7213C366.234 75.7212 369.954 74.6821 369.736 74.4607C369.714 74.4349 368.594 74.6569 368.408 74.5656C367.707 74.2221 368.045 73.6344 367.946 73.6072C367.623 73.5379 361.737 74.5739 360.876 73.7084C360.596 73.4294 370.262 72.7181 370.64 72.8617C370.878 72.9522 370.786 74.5779 371.034 74.7361C371.161 74.8148 375.048 74.1804 375.553 74.3265C375.7 74.3688 375.812 74.4146 375.895 74.4525C375.304 73.9536 378.826 73.9667 378.721 74.5347C378.661 74.758 376.236 74.6449 376.149 74.6065C376.111 74.5902 376.078 74.5677 376.047 74.5522C376.552 75.1616 368.344 75.1877 370.121 76.0879C367.744 76.603 370.451 74.7481 368.665 75.246ZM357.234 76.3234C357.479 76.1508 357.723 75.9783 357.968 75.8058C353.805 76.2514 348.994 75.4601 344.196 75.4977C342.978 75.506 344.384 76.542 342.787 76.2668C341.507 76.0463 340.087 75.0861 340.781 74.8654C340.95 74.8103 343.557 75.4247 344.859 75.3514C348.704 75.1344 347.728 74.2444 347.953 74.2187C348.201 74.1916 350.625 74.8061 351.947 74.7694C355.27 74.6751 356.785 74.1149 361.33 74.8041C358.713 75.412 360.155 76.686 357.234 76.3234ZM201.962 75.4305C201.807 75.9957 199.078 75.513 198.089 75.6024C198.241 75.0358 200.972 75.5199 201.962 75.4305ZM608.162 73.5047C608.994 72.5734 602.718 72.3852 604.376 73.1449C604.743 73.3135 607.373 73.5032 608.162 73.5047ZM579.969 73.1261C579.13 73.3875 582.514 74.032 582.504 73.3155C582.498 73.0858 580.076 73.0921 579.969 73.1261ZM303.385 75.7648C303.227 75.7948 300.917 75.6037 300.844 75.5571C299.309 74.5841 306.912 75.1025 303.385 75.7648ZM545.705 74.4902C548.627 73.8642 539.819 73.6589 542.514 74.415C542.648 74.4518 545.564 74.5206 545.705 74.4902ZM533.464 74.7397C534.166 74.7026 537.282 74.9835 537.321 74.7007C537.381 74.2446 533.814 73.9565 533.464 74.7397ZM245.465 76.4368C245.809 77.4777 241.698 76.7146 240.27 76.8553C239.926 75.8137 244.039 76.5779 245.465 76.4368ZM271.393 77.0362C254.083 77.9718 257.888 75.7181 272.422 76.5213C272.446 77.1904 272.486 76.9773 271.393 77.0362ZM249.221 77.0577C249.847 76.3853 251.814 76.5706 253.143 76.6154C252.906 77.0816 250.178 76.9313 249.221 77.0577ZM615.642 74.8886C614.56 75.7399 609.746 74.7306 610.599 74.3768C610.798 74.3003 616.038 74.4217 615.642 74.8886ZM301.94 76.6669C302.348 77.6788 297.147 77.299 296.747 77.0763C295.138 76.1806 301.52 76.8936 301.94 76.6669ZM220.895 77.4903C219.981 78.2909 217.371 77.8993 215.694 77.8997C216.454 77.2152 219.472 77.4853 220.895 77.4903ZM233.005 78.0336C232.9 78.0648 230.561 78.0084 230.456 77.9725C228.535 77.2089 235.153 77.3644 233.005 78.0336ZM738.863 75.4556C738.785 75.4817 737.014 75.4426 736.952 75.4131C735.367 74.6606 740.684 74.7817 738.863 75.4556Z" fill="url(#paint0_linear_939_1276)"/>
<defs>
<linearGradient id="paint0_linear_939_1276" x1="764.656" y1="37.293" x2="0.992151" y2="41.3732" gradientUnits="userSpaceOnUse">
<stop offset="0.1" stop-color="#822FFF"/>
<stop offset="0.9" stop-color="#FF35C4"/>
</linearGradient>
</defs>
</svg>
