<svg width="534" height="17" viewBox="0 0 534 17" fill="none" xmlns="http://www.w3.org/2000/svg">
<path d="M5.60471 0.595376C8.59223 0.411189 12.5066 0.634804 15.4811 0.932729C16.4132 1.02517 15.9396 1.42095 16.583 1.50266C17.8414 1.66196 19.0151 1.47139 20.2585 1.66019C20.6706 1.72471 20.155 2.35252 20.5872 2.40575C22.9553 2.69295 25.1973 2.54096 27.5968 2.68383C39.4162 3.38863 51.0358 3.66863 63.0012 4.00046C66.9465 4.10933 71.7408 4.69884 75.8172 4.4642C76.2931 4.43624 76.0115 3.88243 76.1022 3.83721C77.5245 3.14511 77.0483 4.25922 77.9747 4.41095C81.6516 5.01014 85.7425 5.0764 89.284 4.87636C90.7907 4.78964 89.2845 3.68608 90.7989 4.30801C90.904 4.35004 90.5197 4.93559 90.9325 4.99974C91.8688 5.14406 93.6466 5.04581 94.3724 5.09504C95.7714 5.19289 96.0029 5.18786 97.3264 5.19951C99.1356 5.22055 101.286 5.52041 103.228 5.39469C103.643 5.36611 103.096 4.76234 103.758 4.66242C104.419 4.56268 106.169 4.62026 106.758 4.76432C107.348 4.90845 107.095 5.38045 107.199 5.48924C108.054 6.40744 110.083 5.1478 110.344 5.11744C115.094 4.60127 119.163 5.33844 123.62 5.35311C127.004 5.36271 130.622 5.13796 133.842 5.18272C137.677 5.23838 140.927 5.57664 144.653 5.53457C145.047 5.53082 144.589 4.82161 145.069 4.81561C150.172 4.75243 155.239 4.84856 160.318 5.34524C160.828 5.39568 160.169 6.01438 160.678 6.1019C163.793 6.62408 168.72 7.86889 170.581 5.17135C172.692 5.28488 175.255 5.40361 177.141 5.95586C178.358 6.3113 177.173 6.98356 178.67 6.70042C179.007 6.63736 178.571 6.04309 179.077 5.99333C181.208 5.78438 183.535 5.98575 185.644 5.68746C186.072 5.6254 185.957 5.09395 186.079 4.99879C187.103 4.22823 188.797 5.51472 189.167 5.60913C191.986 6.31337 194.047 6.04813 196.675 6.07493C197.284 6.08144 196.566 5.36548 197.153 5.34613C200.197 5.25532 203.349 5.32846 206.328 5.65613C206.991 5.73073 206.379 6.33602 206.695 6.40275C208.091 6.68962 208.405 5.54324 209.743 5.79621C210.026 5.84806 209.865 6.36759 209.916 6.42491C210.719 7.32464 211.424 6.0567 211.631 6.02943C214.256 5.65598 215.928 6.98868 218.462 6.81037C218.766 6.7877 218.084 6.12702 218.937 6.10353C224.615 5.94316 230.618 6.14647 236.236 6.69396C237.109 6.77819 236.483 7.27024 236.538 7.33139C237.431 8.287 238.015 7.01327 238.3 6.96629C240.549 6.62884 242.645 7.70671 244.177 6.19275C253.694 6.75585 263.172 5.93801 272.606 7.33489C272.726 7.35111 272.509 7.97869 272.748 8.00834C275.63 8.37199 275.08 7.39329 276.992 6.20602C277.474 5.90789 278.93 7.35545 279.059 7.46164C279.529 7.85294 279.037 8.78597 279.194 8.862C280.498 9.45927 280.297 6.36682 282.059 6.37243C282.114 6.37779 281.88 6.94598 282.028 7.00311C282.486 7.18247 282.943 6.95806 283.391 7.15563C284.418 7.61276 284.779 9.11641 286.354 8.24799C286.553 8.13526 286.256 6.38041 287.829 6.46915C288.455 6.50602 291.231 6.48638 292.008 6.60294C292.785 6.71937 292.249 7.2825 292.305 7.30718C294.395 8.06233 293.6 8.36907 294.645 9.47936C295.689 10.5855 295.409 7.95557 295.837 7.66376C296.266 7.37279 297.799 7.99511 298.175 8.21087C298.552 8.42671 298.08 8.78405 298.415 8.90665C300.634 9.7078 299.395 7.60546 300.129 7.19097C301.859 6.20951 303.197 8.1641 304.777 8.36107C305.204 8.41426 304.857 7.96893 305.238 7.92883C306.747 7.77591 307.652 8.38763 309.37 7.83631C309.651 7.74647 311.043 6.57955 311.937 7.44311C312.064 7.56762 311.701 8.05209 312.343 8.16332C313.303 8.33024 315.033 8.44292 316.066 8.28441C316.828 8.16712 315.958 7.36332 316.916 7.6156C317.342 7.72824 316.55 8.19358 317.351 8.36613C318.147 8.53862 320.184 8.52568 320.959 8.51242C321.733 8.4988 321.312 7.88998 321.374 7.84931C321.754 7.61639 323.24 7.32915 323.371 7.33037C329.99 7.28108 336.09 8.32753 342.536 8.01294C343.042 7.98913 342.707 7.34753 342.784 7.3373C344.517 7.07551 343.145 8.77289 344.353 9.34728C344.183 8.0472 344.896 8.28516 346.116 8.14723C346.704 8.0797 346.386 7.57535 346.44 7.52405C347.314 6.7631 347.917 7.75247 348.073 7.95498C348.647 8.69995 349.279 7.82463 349.669 8.32261C350.06 8.81687 349.154 9.54403 350.324 9.53906C350.653 9.07514 349.79 7.85631 350.678 7.66263C354.032 6.93001 360.283 7.90722 362.976 8.0164C365.665 8.12547 366.533 8.04291 368.099 8.2169C370.928 8.53147 369.895 7.62571 371.653 7.21949C373.417 6.81333 372.552 9.02915 372.804 9.50714C373.051 9.98489 373.324 9.49507 373.632 9.75835C373.94 10.0216 373.271 10.3434 373.996 10.4445C374.721 10.5456 376.708 9.70473 376.967 9.2069C377.515 8.15222 376.625 7.03979 378.543 7.43669C378.654 7.46023 378.293 8.04237 378.716 8.10292C382.072 8.56471 385.561 8.60565 388.913 9.01552C389.374 9.07279 388.959 9.72035 389.227 9.76103C392.021 10.1867 391.026 9.08847 392.563 7.87839C392.213 9.49511 393.056 10.4882 395.178 10.5057C396.453 10.5168 396.236 9.80932 397.063 9.31435C397.311 9.16514 398.212 9.65375 398.377 9.32203C398.92 8.2377 398.075 7.0184 400.26 7.51085C400.356 7.53422 400.048 8.12773 400.38 8.16499C402.522 8.40876 402.783 7.27341 405.101 7.14449C406.917 7.04333 410.145 7.74836 412.212 7.86881C412.162 9.68776 414.117 9.27853 414.914 8.02726C416.256 8.08365 417.706 8.01818 419.002 8.19641C419.449 8.25719 419.153 8.78278 419.209 8.83989C420.069 9.73585 420.657 8.5178 420.947 8.47105C424.088 8.0178 426.643 8.95224 429.643 8.05964C429.749 8.02749 429.926 6.76453 430.724 7.69016C430.776 7.75396 429.784 8.32516 431.193 8.37491C432.603 8.42476 435.258 9.11212 437.217 8.53393C437.691 8.39474 438.893 7.37344 439.851 8.17852C439.979 8.28783 439.838 8.64971 440.022 8.85207C440.617 9.4969 440.948 8.22093 441.647 9.30861C442.345 10.3962 443.803 11.2143 445.78 10.4731C445.843 10.4516 446.314 9.44104 446.935 9.45937C447.925 9.48951 449.331 9.70567 450.366 9.70296C450.861 9.7013 450.547 9.07152 450.633 9.06034C453.965 8.7206 456.333 9.28988 459.9 9.54648C460.554 9.59476 462.437 8.74464 463.701 9.42707C465.089 10.1741 463.648 13.2548 466.847 12.5315C468.137 12.2423 469.784 8.3333 472.093 10.3704C476.588 9.88465 480.739 10.9384 485.247 10.2376C485.449 10.2066 486.094 9.11628 486.57 9.13294C487.277 9.15978 487.664 9.67194 488.168 9.70748C490.283 9.86925 492.221 9.43958 494.261 9.51519C495.035 9.54279 494.762 10.0698 495.686 10.1028C496.609 10.1353 497.227 9.44226 498.477 9.78278C499.421 10.0423 500.36 11.4671 501.613 11.6375C501.666 10.2358 502.527 10.2679 504.06 9.90352C504.354 9.83282 504.04 9.34369 504.18 9.28508C504.747 9.03571 505.27 9.44208 505.809 9.17034C505.94 9.10508 505.948 8.62633 506.055 8.54596C506.968 7.84429 508.462 8.92686 508.719 9.11534C509.703 9.83117 510.166 9.21021 510.921 9.49348C511.676 9.77671 510.545 10.123 511.427 10.2965C513.254 10.6553 515.605 10.5868 517.462 10.6157C518.203 10.6243 517.7 9.98336 517.806 9.96975C519.34 9.81341 520.887 10.499 521.741 9.22921C522.792 12.5247 522.667 8.91341 524.855 9.58055C525.027 9.63449 525.241 11.1919 524.578 11.4179C523.914 11.6437 522.912 11.1534 521.991 11.5062C521.773 11.5889 520.521 13.0428 520.35 13.1306C519.015 13.8161 518.835 11.4893 518.765 11.3613C517.971 9.97957 516.441 11.5452 516.039 11.6523C514.202 12.1429 512.643 11.8099 511.107 12.1593C510.102 12.385 509.998 13.9083 509.209 13.8587C506.589 13.6947 505.682 11.5658 503.205 13.3995C502.674 13.7906 503.194 15.4578 501.301 14.1412C501.182 14.0582 499.778 12.855 498.961 13.6097C498.858 13.7048 498.859 14.1902 498.724 14.2304C497.82 14.4908 497.218 14.1019 496.233 14.2834C495.248 14.4648 494.064 14.7365 492.941 14.5676C492.264 14.4667 491.398 13.5592 491.075 13.3366C490.161 12.6954 489.176 13.7373 488.612 12.9629C488.043 12.1846 489.165 11.0101 487.667 10.503C487.607 11.7637 487.474 13.0575 487.38 14.3252C484.094 14.2685 480.861 13.8486 477.563 13.8919C477.155 13.8986 477.57 14.578 477.132 14.6026C475.282 14.7034 473.669 14.2141 471.75 14.3993C470.265 14.5453 468.635 15.2569 467.082 15.4319C466.14 13.9855 463.834 14.4667 462.162 14.3285C461.576 14.2808 461.616 13.8956 461.2 13.7683C459.629 13.2974 460.362 14.5752 459.93 14.7743C458.077 15.6237 457.929 12.7371 455.749 12.8003C455.633 12.8026 454.215 14.3357 454.02 14.4307C452.782 15.0508 453.818 13.8945 453.045 13.778C451.633 13.565 450.653 13.1939 448.995 13.6383C448.511 13.7699 447.349 14.7244 446.413 13.9792C446.29 13.8816 446.36 13.3734 446.261 13.3433C444.465 12.8402 444.412 14.4377 443.382 14.9749C442.352 15.5121 440.769 14.4032 440.447 14.0841C439.605 13.2586 441.096 13.7351 441.142 13.6546C441.684 12.6962 440.525 12.8572 439.641 12.7728C439.519 11.2057 438.282 11.2951 438.724 12.6915C438.775 12.844 439.464 12.7005 439.641 12.7728C438.859 14.3069 437.499 14.4986 436.003 13.0567C435.302 12.3809 435.97 11.5984 433.833 11.8776C432.864 12.0036 433.234 13.0836 432.378 13.3745C430.422 14.0381 427.887 13.0224 425.872 13.1734C425.141 13.2282 425.851 13.8213 425.351 13.8791C424.025 14.0344 422.857 13.587 421.525 13.8089C421.404 13.8298 421.697 14.449 421.283 14.4553C418.143 14.5153 415.412 14.1092 412.134 14.0859C410.551 14.0749 407.718 14.4052 406.078 14.3305C403.236 14.2047 399.741 13.2928 397.312 13.502C395.727 13.6358 396.072 14.2553 395.392 14.674C394.079 15.4856 391.766 14.0144 391.455 13.7867C391.445 13.7792 392.809 13.6386 392.083 13.3185C391.663 12.6557 391.47 13.7839 391.455 13.7867C391.251 13.6397 388.528 13.4891 387.987 13.6053C387.693 13.6687 387.855 14.2551 387.702 14.2771C384.059 14.7876 380.411 14.9228 376.719 14.6351C376.654 14.623 376.754 13.9682 376.601 13.948C374.465 13.6487 373.093 14.445 371.327 14.9142C369.563 15.3832 368.165 15.2187 367.126 14.09C365.795 14.2267 363.888 13.7223 362.791 13.4164C361.694 13.1106 361.536 14.3853 361.44 14.4102C358.423 15.2058 356.683 14.4693 353.557 14.344C352.071 14.2822 349.121 14.4561 347.511 14.5896C346.239 14.6971 345.473 14.3954 344.301 14.5821C344.142 14.607 344.3 15.1755 344.251 15.1971C342.941 15.8716 343.575 14.4858 343.306 14.2369C342.33 13.3316 341.727 12.8492 340.05 13.267C339.663 13.3627 338.53 15.3572 337.825 15.4715C336.909 15.6164 337.257 14.9012 336.298 15.0712C336.216 15.0851 336.231 15.5271 335.639 15.5054C332.893 15.4104 329.899 15.142 327.044 15.1756C326.654 15.1785 327.151 15.8814 326.588 15.8972C323.944 15.9703 321.046 15.9335 318.472 15.5957C317.839 15.5104 318.238 15.021 318.101 14.8747C317.259 13.9897 316.056 15.2665 315.859 15.2902C311.141 15.8882 307.536 14.7151 302.728 15.2492C302.466 15.2806 300.447 16.6467 299.553 15.4652C299.492 15.3866 298.608 14.178 297.819 14.9991C297.769 15.0505 298.321 15.6731 297.355 15.6062C296.388 15.5395 294.831 15.948 293.505 15.2612C293.085 15.0449 292.095 13.8388 290.837 14.7925C290.755 14.8591 288.81 17.019 288.124 15.5212C288.013 15.2747 288.136 13.6928 286.635 14.4985C286.349 14.6547 286.867 15.0095 286.112 15.2271C284.956 15.5624 283.427 15.1329 282.005 15.8324C281.757 15.9563 280.699 17.0263 279.856 16.208C279.724 16.0798 279.978 15.5525 279.532 15.4917C277.409 15.2002 275.185 15.5452 273.03 15.1716C272.267 15.0403 272.661 14.1878 271.866 13.956C271.07 13.7242 269.467 13.4981 268.633 13.8853C267.798 14.2725 268.703 15.637 267.455 15.7412C262.027 16.1938 256.655 15.3753 251.237 15.2381C250.434 15.2177 251.098 15.7072 249.914 15.712C245.548 15.7318 238.008 16.1602 234.224 15.1111C231.191 14.2709 235.014 13.6542 232.695 13.3082C231.577 13.1431 230.36 14.7209 230.089 14.7697C227.448 15.2658 225.616 14.558 223.239 14.7641C222.748 14.8069 223.227 15.45 222.809 15.4794C221.383 15.5852 219.885 15.2933 218.522 15.3406C217.91 15.3633 218.021 15.8535 217.459 15.8136C216.113 15.7237 214.923 15.5134 213.613 15.0493C213.493 15.0071 214.302 14.4008 213.306 14.3744C211.694 14.3334 209.695 13.873 207.839 14.3337C207.288 14.4723 207.262 15.5917 206.082 14.8142C205.835 14.6518 206.156 13.3087 204.774 14.465C204.542 14.6572 202.221 16.2151 201.089 15.201C200.79 14.9341 200.03 13.8312 199.367 14.0016C199.278 14.0289 199.635 14.6315 199.086 14.6881C197.153 14.8771 195.128 14.8054 193.142 14.9863C192.612 15.0358 193.399 15.661 192.608 15.7149C190.435 15.864 187.723 15.6954 185.599 15.4926C184.816 15.4167 185.359 14.9033 185.302 14.847C184.389 13.9312 183.842 15.1606 183.538 15.2313C181.644 15.6542 180.205 15.0703 178.461 15.2168C177.979 15.2557 178.318 15.8442 178.222 15.8962C177.227 16.404 177.971 15.3523 177.342 15.2337C175.582 14.8979 173.617 14.9378 171.835 15.0061C171.181 15.0321 171.914 15.7157 171.326 15.7311C167.849 15.8354 164.235 15.7567 160.844 15.3686C160.205 15.2943 160.609 14.7715 160.477 14.6513C159.562 13.8101 158.213 14.9478 157.903 15.0555C156.494 15.5472 155.949 15.0815 154.706 15.1634C148.634 15.5715 141.141 15.2363 135.411 15.0251C127.945 14.7529 122.153 14.2324 115.032 14.3352C114.58 14.3411 115.033 15.0402 114.643 15.0543C109.606 15.2035 104.649 14.9124 99.6011 15.0949C99.1869 15.1086 99.7814 15.772 99.1165 15.8163C97.7527 15.9118 96.0257 15.8694 94.648 15.6531C93.976 15.5488 94.88 14.9848 94.2035 14.8915C92.6284 14.6729 90.9394 14.6194 89.3203 14.7194C88.6312 14.7633 89.668 15.4435 88.7726 15.4479C82.6733 15.4921 76.6829 15.5861 70.5228 14.6873C70.1005 14.6256 69.7349 13.2498 68.8356 13.51C68.7665 13.8912 68.7685 14.3399 68.7374 14.7474C59.8579 14.9337 51.0716 14.4243 42.1683 14.3172C41.7929 14.3129 42.4389 15.0435 41.7122 15.0388C37.5058 15.0122 33.4203 15.1986 29.1203 14.4587C28.6936 14.3863 28.9175 13.106 27.6587 13.2951C27.4366 13.3296 25.5412 13.4933 25.0502 13.7696C24.9835 13.8113 25.327 14.4106 24.7164 14.4257C21.1678 14.5032 17.4499 14.3527 13.9092 13.9741C13.3378 13.9118 13.9489 13.2773 13.5419 13.2274C10.655 12.8786 7.51157 13.3509 4.75388 12.7623C2.90799 12.3661 3.59607 11.2679 2.61847 10.1808C2.4802 10.0274 1.33636 9.99886 1.27957 9.36824C1.13364 7.78248 1.69424 6.04878 1.47323 4.35827C1.42656 3.99415 -0.106938 4.38039 0.803419 3.50431C0.867007 3.44569 1.97883 3.15797 2.25352 2.86064C2.44476 2.65508 2.10394 2.01268 2.49355 1.75009C2.88312 1.48774 3.30811 2.02676 3.95355 1.71895C4.59871 1.40729 4.31828 0.676886 5.60471 0.595376ZM357.852 12.0493C356.837 11.433 356.679 13.6757 357.78 13.1431C357.834 13.1147 357.904 12.0796 357.852 12.0493ZM480.886 12.1567C479.56 11.1623 478.645 12.6137 479.58 13.3813C480.515 14.1481 481.29 12.4581 480.886 12.1567ZM494.674 11.486C493.123 10.7001 492.867 13.8801 494.533 13.2433C494.63 13.2074 494.765 11.5317 494.674 11.486ZM7.17205 9.88932C7.15812 9.85948 6.33593 9.82736 6.31617 9.85681C5.87563 10.5676 7.51969 10.6313 7.17205 9.88932ZM508.357 10.751C507.873 10.3188 506.475 10.8103 507.076 11.3476C507.559 11.7799 508.959 11.2885 508.357 10.751ZM304.815 9.45618C304.8 9.4227 304.21 9.39039 304.221 9.57938C304.259 10.1881 305.08 10.0194 304.815 9.45618ZM531.607 10.8016C528.172 10.6689 526.1 8.03353 529.839 8.34406C530.516 8.40025 528.376 9.17651 529.237 9.41664C530.813 9.85414 531.867 8.20825 533.474 9.09837C533.765 9.26127 531.803 10.815 531.601 10.8052C531.603 10.804 531.605 10.8028 531.607 10.8016ZM357.276 9.35274C357.256 9.323 356.44 9.29181 356.42 9.32115C355.976 10.0316 357.62 10.0949 357.276 9.35274ZM270.42 7.94009C270.376 7.87672 268.482 7.81049 268.42 7.8685C267.427 9.02935 271.256 9.16669 270.42 7.94009ZM412.245 7.91746C413.138 7.20437 414.204 7.12401 414.91 8.02633C414.025 7.97526 413.134 7.96488 412.245 7.91746Z" fill="url(#paint0_linear_939_1294)"/>
<defs>
<linearGradient id="paint0_linear_939_1294" x1="0.498124" y1="8.5" x2="533.498" y2="10.5" gradientUnits="userSpaceOnUse">
<stop offset="0.1" stop-color="#822FFF"/>
<stop offset="0.9" stop-color="#FF35C4"/>
</linearGradient>
</defs>
</svg>
