<svg width="205" height="70" viewBox="0 0 205 70" fill="none" xmlns="http://www.w3.org/2000/svg">
<path opacity="0.7" d="M15.862 69.4409C15.9889 69.3521 16.4991 69.5681 16.7199 69.5307C16.4696 70.4697 15.4045 69.7633 15.862 69.4409ZM38.517 1.25414C38.3338 1.48629 38.1505 1.71843 37.9673 1.95058C38.488 2.10142 39.188 1.93103 39.6713 2.15139C39.7503 2.1884 39.5452 2.86054 39.7323 2.89056C39.9194 2.92038 39.8833 2.00183 40.1553 1.90358C40.4605 1.79616 41.8579 2.43609 42.3418 2.42057C44.1518 2.35856 45.9773 1.83399 47.7909 2.21548C45.9186 2.89505 47.8053 3.58669 48.3297 3.29218C48.446 3.22399 48.4274 1.51634 50.3059 1.94631C51.4997 2.21916 50.3971 4.66049 52.3892 3.43745C50.8573 1.72957 52.3637 1.84926 53.5646 1.79249C53.7716 1.78243 55.4434 2.03903 56.182 1.9634C56.4346 1.93709 56.8196 1.04262 57.1548 1.01915C57.3854 1.00366 57.5599 1.49267 57.9024 1.46777C59.4991 1.35755 61.0693 1.31952 62.6688 1.48486C61.7341 3.78345 63.4024 2.46449 63.4774 2.57438C63.8584 3.19847 62.135 3.37611 62.8166 3.76644C63.7691 3.69523 64.7215 3.62402 65.6741 3.55281C64.8923 3.27059 66.709 1.61719 67.0434 2.3693C66.8961 0.338182 71.3846 4.1371 72.0678 3.45881C72.2101 3.31554 71.2786 2.3117 73.4395 2.77092C73.6735 2.82195 73.585 3.43476 73.7077 3.37763C73.7812 3.34328 74.2261 1.39554 74.7001 2.47184C74.8732 2.86467 73.7658 4.14391 76.1976 3.62972C75.2292 1.6473 79.5696 2.55612 80.3681 3.05291C80.2086 2.78659 80.0491 2.52026 79.8895 2.25393C80.6789 2.97239 80.8214 2.29838 80.9992 2.33511C81.7159 2.48265 82.7011 3.1619 83.3687 3.09991C84.1499 3.0286 84.1526 1.79572 85.0633 2.2753C84.8472 2.00327 84.6311 1.73125 84.415 1.45923C85.044 1.52474 85.6731 1.59025 86.302 1.65577C84.8455 3.28775 86.6163 1.73363 86.7329 1.69849C86.919 1.6391 86.6517 2.30722 86.9628 2.22403C86.995 2.21033 86.9485 1.58116 87.4281 1.5105C88.4303 1.36501 88.2719 2.15606 88.6927 2.14712C88.7312 2.14304 88.5962 1.57623 89.323 1.44214C91.6327 1.01526 89.3115 1.8765 89.2229 1.95485C89.1065 2.05819 89.8985 4.42691 87.9365 3.58699C88.5952 3.85438 88.6615 4.90258 88.7357 4.9286C88.8013 4.94999 89.9427 4.80234 90.0057 4.76624C90.5668 4.41029 90.073 3.69399 90.1824 3.56563C90.2718 3.46215 91.647 4.39563 91.9693 2.24112C92.6273 4.2284 91.5907 4.04633 90.4874 4.35179C90.3264 4.75959 91.5381 5.15613 91.6018 5.15505C93.1646 5.15142 92.2994 3.51676 92.6411 2.47184C92.8205 1.92511 93.4573 3.04033 92.8694 1.57459C94.2879 1.41987 93.4277 2.26923 93.5193 2.39493C93.6576 2.57961 94.1539 2.15952 94.216 2.21548C94.3072 2.29832 93.9902 2.8058 94.3498 2.98455C94.4095 3.01054 94.9889 2.13726 94.2418 1.71986C95.2399 1.844 95.1577 1.09935 95.4962 2.60002C96.1836 -0.239053 95.995 4.27817 96.2657 4.43724C96.9855 4.85657 96.7767 2.62753 96.8147 2.51884C97.0766 1.82227 99.0692 2.588 99.5627 2.26675C99.368 3.87224 97.983 2.28428 97.6733 2.59574C96.6409 3.63197 99.1285 3.39843 98.3787 5.41568C98.6931 4.86166 99.0074 4.30764 99.3218 3.75363C99.8982 5.05063 99.0805 5.61619 100.632 5.14223C100.885 4.02274 99.5349 5.31905 99.8059 4.43724C99.9656 3.91972 100.865 3.80857 100.883 3.53572C100.9 3.20729 100.088 3.59653 100.216 3.09137C100.495 2.00124 103.46 3.03904 101.203 3.63399C101.833 3.61536 102.157 5.78365 102.703 5.10805C103.056 4.66952 101.07 1.67488 104.05 2.22403C104.113 3.2479 102.859 2.52637 102.826 2.60429C102.78 2.71771 103.007 5.02818 103.047 5.14223C103.185 5.5177 106.228 4.28049 106.871 5.44131C106.617 4.10594 109.171 5.20303 109.449 4.79615C109.523 4.68381 109.246 3.86584 109.325 3.77926C109.819 3.26397 111.155 4.72413 111.775 4.76196C112.468 4.80483 112.38 4.09837 112.419 4.09971C112.724 4.13911 112.48 4.61804 112.667 4.61669C112.949 4.6144 114.885 4.71235 114.982 4.61242C115.011 4.58128 114.695 3.77426 115.117 3.62117C115.19 3.59465 115.144 4.55147 116.394 4.13816C117.9 3.64107 115.348 2.9483 115.974 1.94631C116.941 3.37299 116.91 1.9592 117.172 2.07021C117.263 2.11065 117.939 3.31268 118.673 3.23664C118.146 3.43175 117.619 3.62687 117.092 3.82199C117.61 4.03276 118.616 3.77187 119.043 4.00998C119.251 4.12589 119.079 5.11336 119.531 5.08668C119.627 5.07565 120.008 2.66987 118.824 3.74935C118.729 2.89032 119.293 3.44972 119.554 3.20673C119.594 3.16887 119.75 1.73376 120.084 2.62565C120.164 2.84509 119.291 7.03141 121.542 4.00144C121.614 3.90378 121.362 3.3795 121.433 3.27082C121.482 3.19722 122.056 3.40929 122.12 3.33491C122.185 3.2551 121.907 2.68273 121.985 2.57011C122.381 1.98976 122.901 4.25986 122.084 4.08689C122.357 4.36746 122.63 4.64803 122.903 4.9286C122.611 3.2177 123.333 4.44722 123.711 4.39452C126.133 4.05777 124.511 2.94502 124.927 2.3693C125.597 1.4449 125.086 4.37275 126.08 3.493C126.172 3.41074 124.97 2.16791 127.317 2.86919C126.971 2.91762 126.624 2.96604 126.278 3.01446C126.478 4.66928 127.529 2.90095 127.61 2.87774C128.531 2.65052 127.908 3.24708 129.277 2.39493C129.399 2.31842 129.665 2.72682 129.927 2.52311C131.01 1.68384 128.497 2.01382 128.428 1.34387C128.396 1.01559 131.098 1.09826 131.191 1.25414C131.585 1.94511 129.966 1.55848 130.275 2.41629C130.387 2.72088 134.239 2.0953 135.012 2.42911C135.904 2.81756 136.305 5.06118 136.311 2.5402C136.563 5.01476 136.785 3.32641 136.899 3.34345C138.278 3.57252 138.281 3.5975 139.463 3.36054C139.725 3.30904 139.945 4.05986 140.037 3.93308C140.091 3.8565 139.991 3.05301 140.254 2.8051C140.62 2.46595 142.818 3.29237 142.982 3.73653C143.145 4.1807 142.053 3.92915 142.249 4.65942C143.039 4.73324 143.797 4.55255 144.593 4.62951C144.923 4.66367 144.753 5.17479 144.896 5.18495C144.957 5.19124 146.098 4.74114 146.05 4.55261C145.936 4.1142 142.413 4.40889 143.341 3.51436C143.52 3.34151 144.152 4.51934 144.051 3.0871C147.199 3.41182 150.347 3.73653 153.495 4.06125C151.686 5.13251 149.651 4.17445 147.757 4.27489C147.497 4.28729 146.619 4.14914 146.726 4.87305C148.337 5.06046 150.34 4.68329 151.886 5.15505C151.936 5.17065 151.754 5.82105 151.94 5.92412C152.286 6.11649 153.415 5.06752 153.605 5.33877C153.637 5.40196 152.995 6.25938 153.19 6.80428C153.691 8.20262 153.819 5.10553 154.25 5.14223C154.583 5.17192 156.823 6.66941 157.381 5.7233C157.974 4.71487 155.73 5.13785 155.896 4.31334C157.414 3.48475 158.952 4.36956 160.386 4.26634C160.411 4.26371 160.192 3.61758 160.512 3.52718C161.069 3.36985 161.215 4.28635 161.487 4.43297C161.779 4.58905 162.813 4.45771 162.951 4.79187C162.969 4.83569 162.759 5.74475 162.728 5.7703C162.277 6.14497 162.117 4.9651 162.076 4.94996C161.922 4.90522 161.771 5.35714 161.63 5.33022C161.399 5.28534 161.272 4.86724 160.966 4.83033C160.756 4.80331 160.959 5.6062 160.756 5.56949C160.682 5.55276 159.878 3.71941 159.803 5.59085C159.78 6.18091 166.353 6.93866 167.01 6.46674C166.446 6.24172 165.883 6.01669 165.319 5.79167C166.464 6.33942 167.838 4.84412 167.936 7.05636C172.18 7.23724 176.424 7.41811 180.668 7.59899C181.426 7.78746 181.01 9.20907 182.257 8.79532C181.935 8.34242 181.612 7.88952 181.29 7.43663C181.929 7.75434 184.761 8.37505 185.219 8.08179C185.278 8.04336 185.361 6.75673 186.068 6.64619C186.696 6.54858 186.797 7.51259 187.133 7.69726C187.414 7.84962 187.731 7.59704 187.815 7.65026C187.879 7.69287 187.904 8.28235 188.059 8.38515C188.546 8.70297 188.151 7.04318 188.635 8.94914C188.517 9.02177 188.399 9.0944 188.281 9.16704C188.87 9.4429 189.674 10.3082 188.807 10.7351C188.658 10.8088 188.786 10.2385 188.675 10.2395C184.323 10.3454 187.798 11.4541 189.323 10.5685C189.715 11.4135 191.91 10.8976 191.983 11.0641C192.084 11.3053 191.709 11.9806 192.201 12.5638C192.305 12.6872 195.239 12.214 194.183 13.3371C193.964 13.5688 192.557 13.3254 192.218 13.3585C193.016 15.1495 194.887 12.5835 195.098 12.6492C195.946 12.9284 193.467 14.2014 195.379 14.4095C196.849 14.5692 195.469 13.3733 196.034 12.8629C196.352 12.5764 198.016 13.8939 197.971 12.1878C198.542 12.0056 198.207 12.909 198.278 12.9739C198.347 13.0311 199.47 12.5203 199.834 12.8799C199.878 12.9247 199.739 13.8115 199.785 13.884C199.874 14.0082 200.957 13.831 201 13.7558C201.028 13.7036 200.77 12.9272 200.876 12.739C200.999 12.5218 202.041 12.7045 202.099 12.4826C202.18 12.147 200.894 12.3681 201.108 11.4999C201.701 11.7185 202.667 11.1392 203.058 10.4403C202.963 10.6401 202.388 10.6688 202.188 10.5984C202.282 9.32681 203.516 9.34413 203.094 10.3506C203.363 9.81006 203.18 9.52331 203.331 9.01322C203.37 8.88401 203.751 8.8574 203.825 8.63723C203.834 8.59337 203.441 8.11361 203.52 7.85534C203.662 7.38864 204.818 7.49364 204.913 7.61608C205.179 7.96305 204.237 8.38288 204.158 8.91923C204.147 9.00159 204.948 10.0526 204.96 10.1455C205.007 11.1414 204.115 10.4237 204.217 11.3204C204.438 11.5099 204.658 11.6993 204.879 11.8887C204.028 12.7968 202.455 12.3298 202.049 13.3628C203.31 13.0554 204.63 13.0917 204.627 15.4179C204.626 16.3975 204.082 16.9718 204.103 17.2209C204.183 18.1122 204.939 17.144 204.967 17.191C204.99 17.2453 205 17.2982 205 17.3497C205 17.3497 205 17.3497 205 17.3498C205 17.8716 203.923 18.2474 203.869 18.4856C203.779 18.9089 204.258 20.651 204.257 21.0364C204.241 21.1138 203.474 21.5261 203.733 22.1985C203.994 22.8778 204.665 22.8928 204.689 22.9633C204.817 23.3697 203.643 23.7403 203.608 23.9802C203.59 24.1015 204.22 24.8469 204.238 25.0612C204.254 25.2762 203.775 25.7454 203.586 26.4242C203.446 26.9284 203.855 27.315 203.783 27.394C203.732 27.4464 202.623 27.4379 202.568 27.5265C202.487 27.6576 202.747 28.2603 202.709 28.4109C202.655 28.6277 202.297 28.4101 202.344 28.6331C202.379 28.7993 203.767 30.8768 203.758 31.4317C203.742 32.3781 202.272 30.2004 203.64 33.9354C203.65 33.96 203.983 33.6945 203.992 33.7175C204.198 34.4047 203.13 35.4618 204.436 35.277C202.007 36.4706 204.133 36.6998 203.774 38.2935C203.635 38.9061 202.694 39.1587 202.689 39.2506C202.781 40.0277 203.081 39.425 203.183 39.806C203.239 40.0189 202.396 40.8406 202.586 41.3741C202.684 41.649 203.578 41.5512 203.615 41.6048C203.969 42.1106 203.535 42.6555 203.613 43.0148C203.665 43.2557 204.204 43.2747 204.218 43.3181C204.241 43.4083 203.508 44.3817 203.356 44.7238C203.24 44.987 203.675 45.3995 203.594 45.5142C203.106 46.2005 202.069 44.4502 203.069 46.9028C203.13 47.0532 203.508 46.9925 203.519 47.0225C203.753 47.7178 203.056 47.7778 202.932 48.347C202.718 49.3278 203.719 48.781 202.886 49.4707C203.511 50.1121 203.859 50.0853 204.59 49.9065C202.566 50.4053 201.852 52.9442 204.099 52.8802C203.384 52.8407 203.463 54.2736 203.25 54.2988C203.117 54.3127 202.081 52.8881 202.556 56.0847C202.616 56.484 203.245 55.9767 203.048 56.794C201.538 56.5854 203.016 57.314 203.018 57.422C202.998 59.305 199.307 57.7628 198.673 57.9775C197.937 58.2265 197.283 59.7103 197.123 59.7122C196.597 59.7128 197.033 58.9594 196.916 58.6825C196.796 58.408 195.3 59.8513 195.225 59.772C194.935 59.4536 195.229 58.5609 195.199 58.5158C194.84 57.9688 192.83 58.6678 192.267 58.4603C192.285 59.0394 193.415 59.0854 192.709 60.0155C191.888 61.1 191.841 58.547 191.819 58.4347C188.056 58.4589 184.292 58.4831 180.529 58.5073C180.576 59.8655 183.036 58.8412 183.092 59.02C183.421 60.0788 179.264 60.0593 178.754 59.5797C179.142 59.8731 179.529 60.1665 179.916 60.4599C179.255 62.0214 177.791 59.9926 176.834 60.6821C176.525 60.9055 177.119 61.5082 177.106 61.5494C176.759 62.1559 176.202 61.6886 176.619 60.8743C175.771 61.6545 175.894 60.7937 175.244 60.7291C175.21 60.7263 175.49 61.3565 174.975 61.6178C174.734 61.7397 173.447 61.7417 173.275 62.2928C173.204 62.5249 173.856 64.9686 173.937 62.8654C175.336 63.8906 174.384 61.907 174.928 61.9553C175.011 61.9663 174.819 63.1402 176.188 62.5876C175.928 64.7046 174.351 63.1216 174.081 63.3781C173.524 63.9052 175.82 64.9984 176.242 63.3482C176.045 65.0002 176.404 63.5708 176.916 63.6387C177.477 63.7124 177.233 64.2043 177.536 64.207C178.365 64.2193 178.021 63.0531 178.705 64.1044C178.038 60.8499 179.875 63.675 180.411 64.5274C179.54 64.6926 178.669 64.8578 177.798 65.023C177.848 65.1939 177.897 65.3648 177.947 65.5358C177.718 65.5115 177.488 65.4873 177.259 65.4631C177.296 65.2993 177.332 65.1356 177.369 64.9718C176.186 66.0367 175.898 64.8398 175.801 64.8265C174.56 64.6877 173.126 64.698 171.87 64.694C171.682 64.6935 171.811 65.7587 170.438 64.9248C170 64.6592 170.414 63.8305 169.917 63.9549C169.297 66.2067 169.308 64.4106 169.124 64.4078C168.594 64.4081 168.27 64.9659 168.221 64.9718C167.567 65.0588 166.608 64.9657 165.889 65.0487C165.876 65.0572 166.25 65.749 165.783 65.5443C165.619 65.4712 164.148 62.518 162.862 63.4806C163.197 63.68 163.531 63.8794 163.865 64.0788C163.472 63.8002 160.716 64.5444 161.39 65.3349C161.803 65.8181 162.812 63.9146 162.922 65.7451C162.005 65.1972 156.941 66.0166 156.547 65.5913C156.492 65.5306 156.828 64.9366 156.752 64.8607C156.694 64.8028 155.534 64.9435 155.38 64.7154C155.288 64.5799 155.801 64.2159 155.759 64.0019C155.723 63.8493 154.274 63.595 154.191 64.3394C154.547 64.0406 155.547 64.3015 155.022 64.929C154.955 65.007 154.605 64.5268 154.523 64.6257C153.763 65.5378 156.035 65.3189 156.387 65.3264C154.96 66.2748 152.752 65.1568 151.098 65.775C150.43 65.1554 152.089 64.8271 151.333 64.3138C149.764 63.2497 150.916 65.1706 150.867 65.2495C150.477 65.8746 149.15 62.5244 149.149 65.0743C148.581 64.6905 148.765 64.369 147.962 64.7026C148.068 64.8792 148.174 65.0558 148.279 65.2324C147.388 66.7095 145.502 62.983 145.644 62.6987C146.024 61.938 147.006 63.1246 147.09 63.0961C147.214 63.0539 147.557 60.4663 148.916 62.7799C149.472 61.0445 146.762 61.6086 147.995 60.4257C147.163 60.6198 143.737 59.4119 143.244 60.1736C143.185 60.2731 143.459 62.0022 142.613 61.1221C142.211 60.703 143.18 60.6829 142.996 60.289C142.43 59.08 134.736 59.8533 133.275 59.9173C133.18 59.9192 133.214 59.3825 133.121 59.3874C132.835 59.4024 131.791 60.2027 131.279 59.9557C132.341 60.9491 130.279 61.0263 129.754 60.917C128.958 60.7506 129.007 59.8062 128.663 59.6054C127.337 58.8312 125.283 61.0734 124.253 58.9773C124.31 61.0577 122.472 57.9573 121.636 57.939C120.981 57.9241 120.031 59.3008 120.915 60.1394C119.784 60.0436 118.595 60.4318 117.534 60.5581C117.359 60.5794 117.6 59.9642 117.301 60.0198C117.274 60.0293 117.237 60.6322 116.98 60.6949C114.86 61.2204 115.891 59.9392 115.495 59.5626C115.273 59.3517 115.109 59.2469 114.989 59.2123C116.224 59.0944 117.65 58.8577 118.031 58.8406C117.706 57.5093 115.292 59.0962 114.585 58.738C114.561 58.725 114.646 57.9912 114.621 57.986C114.621 57.986 114.62 57.986 114.62 57.986C114.355 57.9298 112.668 58.2006 113.015 59.0755C113.108 59.3093 113.885 59.3088 114.806 59.2294C114.556 59.3935 114.743 60.2155 114.699 60.2505C114.165 60.6568 112.858 59.8546 112.395 59.7463C112.289 59.7226 112.296 60.2492 112.279 60.2505C111.857 60.1309 112.03 58.6272 111.598 60.1779C110.834 58.3038 113.029 59.8996 112.874 58.6825C112.755 57.7454 107.881 58.2487 107.896 59.725C107.879 59.5671 107.812 59.3711 107.675 59.1482C107.37 58.6528 106.013 58.8078 105.779 59.0798C105.739 59.1334 105.755 60.5663 105.706 60.5795C105.584 60.6124 103.925 59.489 103.306 60.336C103.641 60.5368 103.975 60.7376 104.309 60.9384C102.29 60.9509 102.602 61.3773 103.275 61.8058C103.309 61.8096 103.341 61.864 103.373 61.8698C103.895 62.1866 104.564 62.4917 104.574 62.6047C104.612 63.0361 101.186 63.2761 101.845 61.9468C101.936 61.7651 103.522 62.357 102.737 61.4084C102.6 61.2422 101.581 61.513 101.528 61.4084C101.17 60.7133 103.393 59.7898 103.122 58.8021C102.582 59.7425 101.889 59.2472 101.271 59.49C100.989 59.5997 100.92 60.3182 100.885 60.3317C100.366 60.5192 100.657 59.766 100.484 59.7848C100.391 59.7978 99.3677 61.4009 99.5611 59.1909C96.1899 60.8167 98.6285 60.815 100.697 60.6906C100.043 61.4955 98.762 61.1062 98.1871 61.293C97.9808 61.3609 98.1031 62.0983 97.7547 62.2458C97.0375 62.5492 93.6136 61.7021 92.7216 61.5024C93.2694 61.2418 93.1092 60.4386 92.6864 60.4941C92.2635 60.5499 92.6188 61.6221 92.5363 61.7374C92.4479 61.8567 90.464 61.3506 90.1339 61.4896C91.6275 61.1012 91.2905 60.3002 90.0229 60.2163C90.2061 59.9856 90.3894 59.7549 90.5726 59.5242C89.8296 59.8484 88.2675 58.6264 87.8379 58.9901C87.7706 59.0485 88.0126 59.7221 87.9748 59.7549C87.598 60.0411 86.3163 59.3542 86.2567 59.584C86.2061 59.7753 86.7528 60.34 86.5499 60.618C86.5076 60.6765 85.9805 59.7661 85.4614 59.9899C85.2688 60.0722 85.3848 60.7092 85.3363 60.7461C84.9319 61.0525 85.1705 59.9799 84.4315 60.1522C83.89 60.2798 83.4867 61.3285 82.7384 60.9811C85.1953 62.318 83.13 61.7596 82.1026 62.1647C81.938 62.2293 82.0791 63.3856 81.0954 62.8226C83.1889 60.7317 80.4985 61.7175 79.9482 61.6947C79.918 61.6876 79.9077 60.925 79.6377 60.9128C79.6149 60.9135 79.6477 61.4288 79.3969 61.4682C77.0177 61.8408 78.539 61.2586 78.087 60.7504C77.8945 60.5339 76.7376 61.2626 76.426 61.2802C76.3543 61.282 76.3873 60.7465 76.11 60.7675C75.6196 60.806 75.1802 61.376 74.8565 61.4212C74.8187 61.4238 74.8171 60.5789 74.2035 60.853C74.0309 60.9296 73.8372 61.2296 74.0823 61.4725C74.895 62.2715 76.4365 60.8887 77.355 61.6861C78.1926 62.4124 75.5514 62.4809 75.414 62.4851C75.3636 62.4878 75.8794 62.0682 75.3554 61.9852C74.9079 61.9161 74.09 63.3754 73.423 63.0576C73.3722 63.0341 72.8393 61.7967 72.8639 61.7246C72.8862 61.6719 73.7046 61.4033 73.5857 61.0452C73.5715 61.0044 73.0514 61.0127 72.9835 60.7461C72.9004 60.4216 72.6762 57.237 72.5652 57.1571C72.2802 56.9599 72.4656 57.6862 72.2813 57.6357C71.886 57.5291 70.5148 56.5874 70.4701 57.6912C70.6967 57.7567 70.9232 57.8222 71.1497 57.8878C69.8894 58.0013 70.4266 58.4712 70.2481 58.6782C70.0558 58.9022 70.1099 57.9319 69.685 57.8408C69.5926 57.8207 67.815 58.0233 67.8473 58.4304C68.8303 57.7824 68.4658 58.9815 68.5112 59.0029C68.6834 59.081 68.9034 58.4084 69.1345 58.4218C70.7597 58.5271 69.1207 59.5887 69.5044 59.8617C69.6364 59.9536 69.8995 59.3794 69.9556 59.4088C70.1377 59.5039 70.1407 60.2558 70.2621 60.195C70.5456 60.0538 70.2146 58.9899 70.2371 58.9346C70.4904 58.2687 71.483 59.0972 70.8651 60.2548C71.236 60.672 71.2795 59.265 71.5736 59.8275C72.1584 60.9413 71.2823 60.6552 71.0449 60.8401C70.1935 61.5072 69.9409 60.9672 68.7356 61.152C68.3016 61.2172 67.7875 61.9007 67.5861 61.9382C67.4592 61.9618 66.2614 59.5839 66.2262 63.3054C65.7605 62.9453 65.03 60.493 64.5503 60.6051C64.1196 60.7075 64.2566 62.024 64.2164 62.0749C64.1548 62.155 63.634 62.0512 63.4578 62.2373C63.2514 62.4571 63.3545 62.9596 63.0269 63.1644C62.2119 63.6728 62.2333 62.3289 62.1495 62.2416C61.177 61.2321 61.6028 63.1436 61.387 63.2969C61.1864 63.4378 58.3714 62.7021 57.7788 63.1858C58.0199 62.9166 58.2611 62.6475 58.5022 62.3783C58.0707 61.5401 57.6133 62.9073 57.6052 61.4041C57.5177 63.8309 56.627 62.2088 56.3595 62.2715C56.254 62.2973 56.2623 62.7108 56.1303 62.7286C55.6148 62.8011 54.4526 62.472 54.173 62.6816C52.9637 63.5844 56.0558 65.0861 56.2993 65.1769C55.812 65.1501 53.0551 65.6936 54.3223 66.8603C54.5182 67.0403 54.8653 65.9543 54.9753 65.9117C55.7199 65.6321 55.1343 66.6053 55.1927 66.6979C55.292 66.8473 55.782 65.9065 55.9114 66.0186C55.9545 66.0545 55.6767 66.9357 56.3868 66.9543C56.0376 67.8086 54.0415 67.1125 53.7796 67.3132C53.6863 67.3848 54.2711 69.2103 52.5628 67.4371C52.5826 67.6066 52.6024 67.776 52.6222 67.9455C51.671 68.0153 50.7198 68.0851 49.7686 68.1549C49.872 67.7644 50.4061 66.9801 49.7335 67.1465C49.3462 67.2428 49.6327 68.1125 49.5974 68.1378C49.2499 68.3772 43.0991 68.0878 41.907 68.1848C41.5016 68.2163 40.3713 68.9152 40.2851 68.9282C39.7698 68.9982 37.945 68.5432 37.5809 68.642C37.3536 68.7053 37.5697 69.4323 37.3667 69.3982C37.1779 69.3655 37.3734 68.6628 37.3174 68.6334C36.853 68.3788 33.3254 69.3004 32.4877 68.6377C32.9996 68.8366 35.5545 67.4327 35.5031 66.9372C35.492 66.8692 34.8711 66.3347 34.743 66.5954C34.5314 65.987 33.8048 67.8394 33.4097 67.4755C33.365 67.4342 33.541 66.3952 32.8357 66.2066C32.5927 66.1421 31.9565 66.952 31.3162 66.0442C30.3893 66.4804 25.5157 65.1329 25.1813 66.2493C25.1714 66.3082 25.8577 66.6926 25.394 67.1508C24.7776 67.7598 25.3312 65.7084 24.6128 65.5315C24.5045 65.5046 22.5058 65.7122 22.4404 65.8391C21.835 66.9904 23.5815 67.4571 23.5571 67.5909C23.4962 67.9279 22.045 68.1318 21.986 68.0523C21.9299 67.9696 23.1134 66.4442 21.6912 67.0226C21.8541 67.2049 22.017 67.3872 22.1799 67.5695C21.5111 67.9246 21.4473 66.8692 21.2853 66.8047C20.7816 66.6006 20.2367 68.2037 19.4296 66.2236C19.2162 65.6982 19.5705 65.1147 19.5438 65.0359C19.2874 64.3286 18.9603 66.2206 18.5749 64.8094C18.5458 64.7042 19.443 63.8588 17.8749 63.8566C17.9829 63.9919 18.0908 64.1272 18.1987 64.2625C17.9776 64.5646 16.39 64.7441 16.1764 64.6727C15.5525 64.464 16.0966 63.4927 15.4695 63.6088C15.8717 64.9399 13.9647 65.1136 14.0744 63.9677C13.808 65.4068 12.188 64.2967 11.4265 64.2625C10.9459 64.242 9.96582 64.87 9.81316 64.7966C9.62717 64.7066 9.68369 63.7248 9.34786 63.5063C9.25209 63.4439 8.25236 64.1636 7.37483 63.1474C7.20476 62.9515 6.84759 61.2863 7.16369 60.87C7.70474 60.1578 8.72826 61.4994 8.71521 60.5154C8.69986 59.4628 7.32127 60.0888 6.9502 59.9514C5.23709 59.316 6.22632 58.197 6.18226 57.8579C6.06801 57.0347 5.13197 57.0602 5.09291 56.9862C4.93104 56.6575 5.59434 56.006 5.60435 55.5036C5.61644 54.8495 4.71419 53.669 4.91931 53.4485C5.21292 53.1354 6.0421 54.1193 6.09467 54.0723C6.77901 53.4377 5.84098 51.9265 5.58245 51.184C5.50409 50.9556 5.81635 50.5802 5.75137 50.5132C4.75949 49.4967 5.54228 52.6371 4.88255 52.4273C4.29394 52.2404 5.05127 51.2473 5.02879 51.1926C4.99973 51.1324 4.29595 51.0782 4.18578 50.7268C4.13148 50.5509 5.9607 48.6192 5.88431 47.7531C5.30067 47.9439 4.71703 48.1348 4.13338 48.3256C4.08763 47.1963 4.9271 48.0276 5.01393 47.9112C5.18873 47.6775 4.70132 47.1061 4.72224 46.749C4.73346 46.5219 5.30552 45.7116 4.78871 45.3775C4.61109 45.2621 4.23834 46.0539 3.59144 45.2451C5.84275 44.212 4.28263 43.5772 4.21627 43.1771C4.15127 42.7771 5.22606 41.8357 3.92146 42.0021C3.86489 39.8044 3.94958 41.3075 4.32028 40.9212C4.77441 40.4464 3.72484 39.7227 5.38461 40.2717C5.29018 39.2428 3.95611 39.3156 3.88548 39.2335C3.82449 39.1591 4.12103 38.653 4.0153 38.4815C2.76465 36.4933 3.62366 37.4012 3.26143 36.1316C3.22922 36.0181 2.04716 35.5474 2.94706 35.3625C4.58655 35.0263 5.27175 36.4844 5.54726 33.3672C4.33459 32.0131 2.86526 34.0252 2.49662 34.0593C1.93238 34.1084 2.51689 33.4727 2.44736 33.2945C2.42321 33.237 1.93698 33.2895 1.93044 33.239C1.58373 30.8614 4.09503 33.1995 4.88568 32.7861C4.67375 32.43 4.46183 32.074 4.2499 31.7179C4.53742 31.7037 4.82494 31.6895 5.11246 31.6752C3.74272 30.9595 5.06417 31.4042 5.40572 29.4791C5.4824 29.0465 4.58252 29.7884 5.60904 28.5861C4.85193 28.3086 5.09342 27.9153 4.40787 28.4579C4.42556 27.6863 5.96802 26.8158 6.5764 26.4199C4.42715 25.5527 5.65278 28.3831 3.79477 26.8856C3.45022 27.8411 4.33708 27.6551 4.26476 27.8128C4.0053 28.3798 3.39705 27.4794 2.66319 29.4663C2.5437 29.7925 3.04931 30.7966 2.30112 30.7481C2.21837 30.7412 1.74163 29.8831 1.74824 29.8209C1.81144 29.1489 2.28321 29.4007 2.30268 29.1202C2.32096 28.8546 1.79463 29.0143 1.79281 28.9407C1.77664 28.0988 2.23196 28.619 2.16583 28.3554C2.02301 27.7822 0.129792 25.9704 2.60063 26.5011C0.548336 27.4529 2.33787 27.4307 3.13709 27.0651C3.34091 26.9734 3.39253 26.4705 3.68294 26.296C4.05651 26.07 4.49375 26.3114 4.68705 26.2191C4.89495 26.1173 3.71368 24.9286 5.42214 25.2834C4.55265 24.101 3.01681 25.3616 2.1627 24.5314C0.439512 22.8538 3.36419 22.4936 3.66886 22.331C3.75004 22.2869 3.4779 21.6078 3.53201 21.5662C3.62049 21.5024 5.28037 21.8163 5.44404 21.2543C5.60726 20.6928 4.83606 21.2802 4.7848 20.6946C4.75005 20.3003 6.75245 19.6011 5.66848 19.3316C4.92136 19.1469 3.54423 20.7314 3.31227 19.0283C4.411 18.8873 5.50973 18.7463 6.60846 18.6053C6.00709 17.9572 5.40572 17.3092 4.80435 16.6612C6.03756 16.4557 7.10367 17.1873 8.27493 16.2596C5.46043 14.1831 9.18877 14.6024 9.22977 14.3497C9.24349 14.1986 8.13568 12.5132 7.95743 12.2049C8.93908 11.5565 11.9219 11.2397 10.1768 9.15849C10.4935 9.62841 11.2606 8.46843 11.2505 8.38088C11.1531 7.46146 9.48008 8.05766 9.75294 7.22727C10.0691 6.26361 10.5122 7.57094 10.9987 7.46653C13.4949 6.92225 12.8101 2.12251 15.3131 2.88201C15.2633 2.71111 15.2135 2.5402 15.1637 2.3693C17.8843 2.64132 20.605 2.91334 23.3256 3.18537C24.39 1.71962 27.223 0.827073 28.6144 0.989238C28.8945 1.02082 30.2701 1.79008 30.3739 1.92494C30.5661 2.18341 29.5092 2.28203 29.9868 2.76665C30.0876 2.86612 32.4165 3.18934 32.2499 2.3693C31.989 2.27421 31.1723 2.68643 31.0386 2.4932C30.0997 1.11401 37.2792 2.21583 37.6349 1.66004C37.4759 1.39371 37.3169 1.12739 37.1579 0.861059C37.6109 0.992086 38.064 1.12311 38.517 1.25414ZM17.699 67.1166C17.4271 67.9395 16.7456 67.3215 16.343 67.5524C15.7867 67.8759 14.841 71.0444 15.2482 67.8686C16.0651 67.6179 16.8821 67.3673 17.699 67.1166ZM29.6388 68.3429C29.091 67.9009 29.5159 66.1272 29.9649 66.8645C30.0147 66.9483 30.38 68.9377 29.6388 68.3429ZM23.8957 67.5012C23.9187 67.4777 24.3921 67.5246 24.4087 67.5524C24.8332 68.2646 23.4059 68.119 23.8957 67.5012ZM51.6392 66.5911C51.0356 66.6677 51.4727 68.2801 51.848 67.6165C51.8716 67.5744 51.6789 66.5873 51.6392 66.5911ZM51.2099 66.5484C50.7411 65.1045 49.7969 68.0308 50.5475 67.7362C50.6204 67.7064 51.2316 66.6187 51.2099 66.5484ZM27.6861 67.6379C27.7478 67.0845 28.3128 67.3517 28.5541 67.4841C28.5476 67.9893 27.9227 67.576 27.6861 67.6379ZM42.0134 67.4841C42.0374 67.049 40.0733 67.0731 39.9395 67.6464C40.2495 67.4032 41.9908 67.875 42.0134 67.4841ZM47.0504 66.8731C47.0006 66.7979 46.3221 66.9122 46.3419 67.2961C46.6731 67.7996 47.2745 67.2135 47.0504 66.8731ZM57.0617 66.8987C57.0985 66.8023 56.5904 64.3595 57.7945 65.9673C57.9712 66.2027 57.3399 66.841 57.4027 66.9286C57.5342 67.0996 57.6382 67.1793 57.7217 67.1935C57.161 67.396 56.5785 67.4913 56.5221 67.3431C56.2575 66.6432 57.0454 66.939 57.0617 66.8987ZM62.3176 65.0786C62.4332 64.6801 63.171 64.8932 63.339 65.0572C63.3678 65.0881 63.2421 66.1353 63.5743 66.057C63.8411 65.9924 63.4426 64.9198 63.9622 65.0914C64.4873 65.2637 63.7858 66.0281 63.8316 66.0826C63.8931 66.1542 64.7054 65.6725 64.6801 66.2963C64.6613 66.7583 63.7911 66.4459 63.5759 66.5441C63.3004 66.6703 63.6345 67.4401 63.174 67.2747C62.8846 67.1714 63.045 65.8178 62.9839 65.7494C62.9327 65.6943 61.9212 66.4733 62.3192 65.0829C62.3187 65.0814 62.3182 65.08 62.3176 65.0786ZM57.8735 67.1337C57.8312 67.1795 57.7817 67.2038 57.7217 67.1935C57.7726 67.1752 57.8233 67.1538 57.8735 67.1337ZM19.2818 66.5227C19.5666 66.9402 18.7213 67.4756 18.4012 66.9286C18.3957 66.4876 19.2365 66.4577 19.2818 66.5227ZM58.3935 66.0314C59.2265 66.3705 58.6138 66.8369 57.8735 67.1337C58.1085 66.8789 58.1138 65.9181 58.3935 66.0314ZM34.743 66.5954C34.7781 66.6963 34.8004 66.8537 34.8032 67.1124C34.7109 66.8295 34.7026 66.6776 34.743 66.5954ZM36.6863 67.0568C37.3525 66.269 35.999 66.3008 36.0075 66.8645C36.0116 67.0773 36.6596 67.0881 36.6863 67.0568ZM52.4134 66.668C52.3525 66.5909 53.2992 64.2121 51.9247 65.9972C52.6583 66.2775 51.8843 66.5366 51.8957 66.7449C51.9256 67.3436 53.158 66.7681 53.4308 67.0269C53.6445 65.9556 52.6146 66.922 52.415 66.668C52.4145 66.668 52.4139 66.668 52.4134 66.668ZM71.7902 65.6554C71.6232 66.2831 71.0935 66.0811 70.736 66.0442C70.903 65.4165 71.4327 65.6184 71.7902 65.6554ZM165.329 65.7451C162.88 66.3255 162.563 63.7691 164.804 64.7795C164.848 64.8007 165.478 65.486 165.329 65.7451ZM144.309 65.0829C144.078 63.9687 144.842 63.7895 145.343 64.2497C145.457 64.3532 145.877 65.4817 145.397 65.7024C145.413 64.3519 144.671 63.836 144.309 65.0829ZM58.8643 65.3179C59.1069 64.5748 59.8534 65.1037 60.2469 65.2153C60.0068 65.8271 59.2121 65.5504 58.8643 65.3179ZM157.281 64.4121C157.023 64.3277 156.848 65.297 156.893 65.3777C157.092 65.7476 157.575 64.9639 157.281 64.4121ZM56.4541 65.2025C56.42 64.7585 57.4089 64.3311 57.4778 65.4289C57.2663 65.3495 56.4786 65.4811 56.4541 65.2025ZM71.1161 65.3221C70.9626 65.0964 71.7577 64.6922 71.9982 64.9162C71.9789 65.3888 71.2167 65.4689 71.1161 65.3221ZM153.124 64.741C152.893 64.6568 152.316 64.6312 152.252 65.023C152.172 65.5128 153.019 65.3459 153.124 64.741ZM196.14 63.8951C196.169 64.0711 195.275 65.3398 194.877 65.0188C194.122 64.4045 196.108 63.7707 196.14 63.8951ZM159.725 63.9122C160.454 64.834 159.644 63.9412 159.676 64.912C160.167 64.9469 161.387 64.9948 160.548 64.0403C160.385 63.8557 159.953 63.975 159.725 63.9122ZM159.052 63.5874C158.974 63.9019 158.448 64.8933 158.903 64.8222C159.113 64.7879 159.451 63.6864 159.052 63.5874ZM190.598 64.3266C189.944 63.4672 192.94 63.9283 193.026 64.0788C193.071 64.1583 193.101 64.2332 193.118 64.2967C193.228 64.0243 193.794 63.9752 193.86 64.6641C193.69 64.6073 193.227 64.6679 193.173 64.5915C193.15 64.559 193.132 64.5285 193.121 64.4975C192.921 65.0955 190.723 64.4895 190.598 64.3266ZM185.634 63.4422C186.382 62.1744 186.514 64.3299 186.45 64.3992C185.636 65.2814 186.167 63.6918 186.142 63.6173C186.085 63.4935 185.507 64.2311 185.637 63.4422C185.636 63.4422 185.635 63.4422 185.634 63.4422ZM189.58 63.972C189.611 63.9439 190.239 64.0106 190.265 64.0446C190.779 64.769 189.003 64.5835 189.58 63.972ZM66.2793 63.5703C66.7288 63.7846 66.2879 64.5776 65.9892 64.2924C65.9647 64.2643 65.8829 63.3811 66.2793 63.5703ZM158.693 63.8011C158.589 63.6512 155.923 63.0862 156.084 64.2839C156.31 64.1425 159.34 64.759 158.693 63.8011ZM138.773 63.5105C139.243 63.5198 138.73 64.6494 138.48 64.2283C138.387 64.0719 138.654 63.5089 138.773 63.5105ZM55.1208 64.1771C54.6327 64.7976 54.7336 62.7157 55.1567 63.4294C55.1733 63.4573 55.1399 64.1528 55.1208 64.1771ZM142.528 64.16C140.907 64.8445 141.291 61.2633 143.399 62.4723C143.333 62.6318 143.267 62.7913 143.201 62.9508C145.633 63.488 143.367 63.2032 142.771 63.4037C142.545 63.4799 142.735 64.0777 142.53 64.1642C142.529 64.1628 142.529 64.1614 142.528 64.16ZM136.301 63.4422C134.74 60.9003 137.72 62.5556 138.575 62.2245C137.746 63.2741 136.667 63.1153 138.135 64.1899C135.989 64.3977 136.882 63.3853 136.797 63.3012C136.695 63.2068 136.368 63.5513 136.301 63.4422ZM140.419 63.4251C140.509 63.3509 141.189 63.8684 141.434 63.784C141.092 64.6523 139.82 63.9294 140.419 63.4251ZM180.431 64.0318C180.487 63.3515 180.627 62.8503 181.164 63.1046C180.998 63.4465 180.655 63.7405 180.431 64.0318ZM17.1829 63.5362C16.8133 63.4874 16.0774 63.231 16.3031 63.9463C16.3278 64.0073 17.1817 63.9377 17.1829 63.5362ZM150.951 63.2499C150.873 63.1663 148.84 63.1101 149.542 63.8609C149.754 64.0873 151.603 63.9911 150.951 63.2499ZM161.477 63.3354C161.307 63.3282 160.616 63.4564 160.601 63.6173C160.555 64.1736 161.403 63.8678 161.477 63.3354ZM15.3185 62.8397C15.2699 62.7692 14.1411 62.8942 14.2652 63.2243C14.5007 63.8485 15.4854 63.0829 15.3185 62.8397ZM67.9145 61.9767C68.0089 61.9515 68.1337 62.6905 68.1663 62.6987C68.243 62.7093 69.9703 62.425 69.3104 63.3738C69.2003 63.5328 66.7152 63.1684 66.3919 63.0747C66.2669 62.0602 67.3285 63.0253 67.5869 62.9209C67.6324 62.9011 67.6615 62.0523 67.9137 61.9809C67.914 61.9795 67.9143 61.9781 67.9145 61.9767ZM183.227 63.314C183.303 62.669 185.333 62.2419 185.31 63.0235C184.615 63.1203 183.921 63.2171 183.227 63.314ZM182.195 63.2072C181.762 62.7509 182.776 62.6 183.076 62.8013C183.079 63.2352 182.258 63.2739 182.195 63.2072ZM157.626 60.9256C157.422 61.0833 158.049 62.0244 157.909 62.2074C157.819 62.3213 157.363 61.9686 157.217 62.2629C157.176 62.3565 157.641 63.2411 157.776 63.2029C157.967 63.1519 157.782 62.4557 157.99 62.4509C158.682 62.436 159.296 62.9325 159.945 62.9209C160.004 62.9185 159.549 62.4269 160.049 62.4338C160.126 62.4339 160.591 63.1662 161.189 63.0576C162.509 60.7899 163.479 63.0165 165.155 62.1988C165.092 61.9853 163.838 61.4125 163.765 61.3913C162.364 61.0184 159.854 60.9774 158.387 60.9726C158.01 60.9706 158.193 61.4506 158.031 61.4682C157.903 61.4812 158.055 60.5924 157.626 60.9256ZM17.3792 63.0448C17.203 62.1571 16.5851 62.719 16.1905 62.6731C16.3294 63.4738 16.9935 62.8481 17.3792 63.0448ZM173.078 62.5193C172.88 62.5536 172.267 62.2862 172.217 62.5535C172.151 62.9025 173.037 63.1226 173.078 62.5193ZM77.6537 62.2287C77.6728 62.2045 78.1488 62.2521 78.1667 62.28C78.5919 62.9925 77.1645 62.8465 77.6537 62.2287ZM89.0375 62.3996C89.3984 62.2901 89.7624 62.0127 89.8837 62.7329C89.6537 62.6226 88.9952 62.9013 89.0375 62.3996ZM104.743 62.3783C104.668 61.4351 105.754 62.0459 105.96 62.1305C105.884 62.5497 104.797 63.0579 104.743 62.3783ZM180.353 61.0709C181.017 61.1267 180.876 59.6979 181.298 60.3445C181.367 60.4538 181.589 63.4289 180.859 62.3142C180.728 62.1138 181.242 61.4068 180.353 61.0709ZM143.742 62.5022C143.911 61.8782 144.438 62.0634 144.795 62.1134C144.715 62.577 143.996 62.4577 143.742 62.5022ZM13.2798 62.1262C12.9684 61.2453 11.5294 61.8988 11.8855 62.4808C11.9361 62.5568 13.078 62.0929 13.2798 62.1262ZM60.5526 62.4723C61.1447 61.7786 59.9184 61.5637 59.5313 62.2416C59.7066 62.1971 60.5127 62.5179 60.5526 62.4723ZM100.97 61.8656C100.999 61.8371 101.626 61.9041 101.655 61.9382C102.169 62.6626 100.393 62.4771 100.97 61.8656ZM85.294 61.2546C85.5202 60.6837 87.0073 61.1443 87.3406 61.716C87.0198 62.5507 85.0133 61.9676 85.294 61.2546ZM177.62 61.4768C178.094 61.4472 178.543 61.623 178.979 61.8698C178.887 62.3505 177.67 61.8358 177.62 61.4768ZM103.275 61.8058C103.309 61.8096 103.341 61.864 103.373 61.8698C103.34 61.8495 103.307 61.8262 103.275 61.8058ZM167.017 61.1392C166.62 60.9494 166.702 61.8301 166.727 61.857C167.025 62.1422 167.466 61.3535 167.017 61.1392ZM16.9256 61.7374C16.788 60.9427 16.1202 61.5591 15.7361 61.3699C15.8476 61.9976 16.6162 61.8208 16.9256 61.7374ZM134.629 61.8143C134.13 60.9526 136.16 59.9516 136.587 60.5069C136.619 61.0393 134.702 61.9322 134.629 61.8143ZM58.7141 61.2802C58.6743 60.6575 57.8222 61.409 58.0033 61.7032C58.1179 61.8904 58.7379 61.6671 58.7141 61.2802ZM137.608 60.87C137.798 60.68 138.243 61.2945 138.086 61.669C137.885 62.1491 137.558 60.9245 137.608 60.87ZM154.714 60.3702C154.631 60.275 153.51 60.9142 153.973 61.5494C154.294 61.9908 154.345 61.0906 154.421 61.088C154.505 61.0908 156.305 62.1925 154.714 60.3702ZM123.263 61.2717C123.686 61.0322 124.198 61.3102 124.64 61.293C124.46 61.6782 123.443 61.7832 123.263 61.2717ZM62.0001 61.1136C61.8974 60.8618 59.0989 60.7101 60.6887 61.4853C60.7814 61.5291 62.3121 61.8763 62.0001 61.1136ZM180.353 61.0709C180.269 61.0638 180.172 61.0341 180.06 60.9726C180.171 60.9968 180.268 61.039 180.353 61.0709ZM172.811 60.9769C172.964 60.5235 172.194 60.4023 171.966 60.6436C171.896 61.1975 172.79 61.0402 172.811 60.9769ZM124.674 60.6607C124.929 60.4013 125.392 60.6781 125.708 60.6479C125.654 61.0693 124.784 61.0888 124.674 60.6607ZM106.762 60.1864C107.268 60.4369 107.892 60.3217 107.901 59.8062C107.912 59.8867 107.936 59.9723 107.977 60.0583C108.018 60.1434 108.561 59.9036 108.797 60.0796C110.208 61.1248 103.346 60.6935 107.323 59.2379C107.136 59.5541 106.949 59.8703 106.762 60.1864ZM83.2819 60.0412C82.9944 59.4136 82.1893 60.2 82.3982 60.4471C82.5437 60.6164 83.5697 60.673 83.2819 60.0412ZM94.3443 59.6694C94.2584 59.5574 93.4722 59.9969 93.452 60.3274C93.9039 60.6757 94.7358 60.1897 94.3443 59.6694ZM81.0719 59.3063C80.8915 59.2116 80.6613 60.2235 80.6825 60.2676C80.8658 60.637 81.375 59.8697 81.0719 59.3063ZM178.977 58.3449C178.709 58.0552 177.853 58.7876 177.666 59.4558C177.632 59.3266 177.538 59.1581 177.367 58.9559C177.367 58.9559 177.368 58.9559 177.368 58.9559C177.137 58.686 170.22 58.3911 174.86 59.678C175.005 59.7192 174.807 59.1194 175.398 59.2251C175.437 59.2328 175.456 59.7225 175.577 59.7463C175.855 59.7981 177.333 60.1063 177.63 59.7122C177.633 59.8029 177.652 59.8893 177.693 59.9685C178.057 60.6748 179.185 58.5684 178.977 58.3449ZM95.9028 59.5797C95.7447 59.3983 95.2439 59.5706 95.192 60.0027C95.4403 60.2145 96.27 60.003 95.9028 59.5797ZM61.9133 59.3405C61.591 58.985 60.7742 59.6495 61.0211 60.0027C61.1724 60.22 62.2851 59.7485 61.9133 59.3405ZM90.887 59.8104C92.7352 60.3213 91.3281 59.7691 91.6111 59.1354C91.3698 59.3604 91.1284 59.5854 90.887 59.8104ZM187.531 59.9813C187.236 59.8355 187.582 58.585 187.907 59.2635C188.009 59.479 187.696 60.0606 187.531 59.9813ZM200.838 59.5925C200.587 58.4837 201.815 59.1352 201.336 59.8959C201.314 59.9215 200.856 59.6347 200.838 59.5925ZM191.539 59.1396C191.339 59.8947 191.209 59.9842 190.646 59.7976C191.48 59.5849 190.706 58.9172 191.539 59.1396ZM107.896 59.725C107.899 59.7555 107.902 59.7781 107.901 59.8062C107.898 59.7784 107.896 59.7521 107.896 59.725ZM79.3343 59.5028C79.103 58.8632 78.4545 58.9103 78.6477 59.5541C78.6663 59.6137 79.2395 59.9754 79.3343 59.5028ZM177.666 59.4558C177.697 59.5704 177.681 59.6445 177.63 59.7122C177.628 59.6267 177.641 59.546 177.666 59.4558ZM82.8158 58.9816C82.7927 59.4587 83.7796 59.6443 83.8191 59.5883C84.3855 58.7607 83.2233 58.9528 82.8158 58.9816ZM55.3882 58.6696C55.3373 58.7194 55.6655 59.9512 55.8668 59.4686C56.0226 59.0942 55.5788 58.4801 55.3882 58.6696ZM193.453 58.832C193.765 58.8328 194.205 58.8323 194.287 59.4174C194.077 59.3275 193.446 59.2613 193.453 58.832ZM200.357 58.7893C199.988 59.4771 199.144 59.4752 198.606 59.3618C198.596 58.4564 200.011 59.0022 200.357 58.7893ZM179.825 58.6825C179.799 58.6456 179.015 58.3755 179.123 58.9816C179.279 59.8703 180.046 59.0121 179.825 58.6825ZM56.91 59.3234C57.2604 58.906 56.454 57.6233 56.0842 58.6141C55.8943 59.1215 56.8509 59.3933 56.91 59.3234ZM77.3097 58.6654C76.8472 59.0161 77.9934 59.6409 78.1534 59.0072C77.9404 58.9563 77.4739 58.5412 77.3097 58.6654ZM93.0446 58.0245C91.5873 56.1968 92.381 59.531 92.6395 59.2379C92.6759 59.1961 93.0802 58.0675 93.0446 58.0245ZM9.66379 58.4731C9.45749 58.7271 10.2266 59.647 10.3262 59.0414C10.3877 58.6624 9.79573 58.3113 9.66379 58.4731ZM114.989 59.2123C114.927 59.2181 114.866 59.2241 114.806 59.2294C114.851 59.1995 114.911 59.1898 114.989 59.2123ZM73.1118 56.2172C74.1376 58.7977 74.0299 56.8088 74.119 56.8196C74.3117 56.8474 74.7594 57.5451 75.1224 57.4306C74.7066 57.7211 74.2908 58.0117 73.875 58.3022C74.2035 58.4885 77.0567 59.4384 77.1165 59.02C77.2021 58.4241 76.3044 58.6111 76.2782 58.5586C76.2405 58.4838 76.1002 56.8271 76.017 56.7641C75.88 56.6634 73.4942 56.629 73.1118 56.2172ZM89.9971 58.3107C90.2314 58.5077 90.298 59.1641 90.4068 59.0072C90.4439 58.9535 90.4499 58.3274 90.5765 58.1655C90.3834 58.2139 90.1902 58.2623 89.9971 58.3107ZM71.2748 58.5372C70.9844 57.7722 72.2865 58.0627 72.3282 58.1484C72.5509 58.667 71.5121 59.1622 71.2748 58.5372ZM82.3231 58.4261C82.2756 58.3815 81.2758 58.1426 81.2839 58.5671C81.5483 58.8907 82.8852 58.985 82.3231 58.4261ZM90.7329 58.1228C91.0842 58.1958 91.7483 58.8262 91.6721 57.8835C91.6716 57.8835 91.6711 57.8835 91.6706 57.8835C91.358 57.9632 91.0455 58.043 90.7329 58.1228ZM58.1096 57.3323C57.4586 55.8308 57.767 57.7281 58.3434 58.2125C58.518 57.5384 58.2163 57.5766 58.1096 57.3323ZM56.0263 56.2129C55.8452 55.9427 53.9789 56.2388 54.2637 57.0332C54.3649 57.3164 55.4381 56.6023 55.4875 56.6572C55.5625 56.7387 55.2201 57.6176 55.7925 57.4434C55.759 57.1456 56.0884 56.3031 56.0263 56.2129ZM57.5708 56.371C56.9239 55.2291 56.7785 57.3351 57.265 57.3409C57.4551 57.3446 57.6631 56.5357 57.5708 56.371ZM60.2132 56.5504C59.9805 56.3507 59.3605 56.0594 58.9331 56.7598C59.505 56.8196 60.0769 56.8794 60.6488 56.9392C60.7148 56.5424 60.4169 56.726 60.2117 56.5504C60.2122 56.5504 60.2127 56.5504 60.2132 56.5504ZM204.245 53.393C203.731 52.7957 204.915 52.5669 204.965 52.7136C205.114 53.2007 204.475 53.6597 204.245 53.393ZM5.64893 39.3403C5.50611 39.1022 5.41274 38.3189 5.09839 38.7293C5.41458 39.3075 5.73078 39.8858 6.04697 40.464C6.29269 39.1391 5.80503 39.6029 5.64893 39.3403ZM4.44149 34.4994C4.48616 34.4673 4.24217 32.43 4.81921 33.7902C5.20909 34.7086 3.08892 35.6036 2.7062 34.7002C3.12908 34.2805 4.05701 34.761 4.44149 34.4994ZM0.727706 25.6807C0.703259 25.5183 1.50876 25.2799 1.602 25.3945C2.09156 25.9982 0.859966 26.5512 0.727706 25.6807ZM3.29741 26.0695C2.91964 25.6739 3.75651 25.4189 4.00591 25.6465C4.0301 26.0258 3.35577 26.1272 3.29741 26.0695ZM199.04 23.8862C198.631 22.5016 198.265 25.4823 198.894 24.8817C198.924 24.8535 199.057 23.954 199.04 23.8862ZM1.51519 23.6256C1.89296 24.0212 1.05609 24.2763 0.806689 24.0486C0.783495 23.6698 1.45768 23.5677 1.51519 23.6256ZM198.752 20.5878C198.209 19.5914 198.4 22.9354 198.468 23.0702C198.747 23.6023 199.706 22.2898 199.901 21.9635C198.467 22.4654 199.008 21.0573 198.752 20.5878ZM196.248 22.5959C195.744 22.9526 197.031 23.6349 197.277 22.7027C197.027 22.7473 196.391 22.4928 196.248 22.5959ZM193.191 21.5235C192.92 21.4037 192.115 21.1169 191.98 21.6431C192.275 21.5478 193.077 22.0649 193.191 21.5235ZM192.578 19.9469C192.155 19.2319 192.053 21.315 192.541 20.6946C192.56 20.6706 192.593 19.9866 192.578 19.9469ZM190.198 19.1949C189.92 18.3665 189.604 20.3838 190.054 20.4382C190.187 20.4507 190.228 19.2899 190.198 19.1949ZM198.072 16.9902C197.675 16.6345 197.162 18.0792 198.011 18.2378C197.713 18.4586 197.415 18.6793 197.117 18.9001C198.229 19.7098 198.147 17.7064 198.466 17.7892C198.913 17.9069 198.877 19.5602 198.788 20.0793C199.154 19.0664 200.708 19.0502 201.606 18.8573C200.817 18.4323 199.536 17.6953 198.757 17.426C198.534 17.3481 198.318 17.8015 198.129 17.7507C197.825 17.667 198.095 17.0142 198.074 16.9902C198.073 16.9902 198.073 16.9902 198.072 16.9902ZM187.07 19.165C186.254 18.2266 186.77 20.2526 187.231 19.8913C187.251 19.8635 187.09 19.1879 187.07 19.165ZM0.432886 17.4687C1.52337 18.3156 0.730723 19.438 3.01197 17.7336C2.05356 18.9402 2.95897 18.6014 2.77189 19.0881C2.62182 19.4731 2.05949 19.1542 2.38636 19.9298C1.95672 19.0857 0.0914106 19.3191 0.00825205 19.1821C0.00903407 19.1821 0.00981608 19.1821 0.0105981 19.1821C-0.0393478 19.1009 0.0849157 17.1994 0.432886 17.4687ZM193.187 16.2254C192.915 13.7671 192.808 17.669 192.273 15.6315C191.56 18.5902 194.241 15.632 194.566 18.131C191.654 17.8406 196.489 20.6072 194.457 16.8663C196.131 18.2241 195.006 16.403 195.264 15.9263C195.541 15.4186 196.488 15.9704 196.439 15.0547C196.439 15.0547 196.438 15.0547 196.438 15.0547C195.859 15.1188 195.279 15.1829 194.7 15.247C195.267 17.2222 194.084 16.63 193.682 15.0205C193.517 15.4222 193.352 15.8238 193.187 16.2254ZM196.465 18.0797C196.408 18.0345 195.148 18.3113 195.23 18.7078C195.398 18.9607 197.186 18.6575 196.465 18.0797ZM202.01 17.6482C201.557 17.6434 200.858 17.258 200.612 18.0028C201.064 18.0078 201.763 18.3934 202.01 17.6482ZM178.717 17.5072C178.141 18.1184 179.916 18.2994 179.402 17.5756C179.377 17.5415 178.746 17.4787 178.717 17.5072ZM191.876 16.5971C191.289 15.8458 191.566 18.2372 192.001 17.614C192.026 17.5773 191.903 16.6314 191.876 16.5971ZM1.31656 17.1782C1.35578 16.5923 2.93796 17.0039 3.21842 16.9988C3.05908 17.5434 1.27158 17.8499 1.31656 17.1782ZM202.806 15.4563C201.906 13.3496 200.684 15.783 200.551 15.7298C200.417 15.6756 200.626 14.7547 200.596 14.73C200.527 14.6783 199.108 14.7556 199.04 14.8197C198.991 14.8697 199.247 16.1638 198.954 16.5715C199.525 15.8361 202.118 16.2962 202.253 16.1528C202.357 16.0383 201.571 14.6793 202.804 15.4563C202.805 15.4563 202.805 15.4563 202.806 15.4563ZM200.216 15.4478C200.57 15.9903 199.576 16.0582 199.336 15.858C198.802 15.41 200.17 15.3835 200.216 15.4478ZM197.826 14.9479C197.713 14.8262 196.688 14.7157 196.601 15.3196C197.086 16.103 198.083 15.2314 197.826 14.9479ZM186.43 15.0291C186.164 15.1065 185.433 14.6424 185.391 15.1701C185.657 15.0931 186.389 15.5568 186.43 15.0291ZM6.71481 12.5723C6.27295 12.1308 7.2967 11.9504 7.59536 12.1621C7.61157 12.5142 6.75243 12.6102 6.71481 12.5723ZM191.776 11.5512C191.619 11.3907 188.406 11.7911 187.955 12.0382C188.396 12.4373 191.58 12.468 191.725 12.2732C191.767 12.2149 191.796 11.5764 191.776 11.5512ZM198.725 11.3076C199.019 10.5305 199.211 11.4625 199.248 11.4743C199.613 11.5932 200.368 11.418 200.203 12.1664C199.56 11.8644 198.138 12.8508 198.725 11.3076ZM186.202 11.5127C185.111 11.8011 187.207 12.6198 186.932 11.8075C186.914 11.7584 186.315 11.4824 186.202 11.5127ZM192.135 11.3247C192.376 10.6968 195.59 11.2383 196.106 11.2393C195.643 12.3975 195.271 11.5177 194.65 11.5768C194.483 11.5941 194.527 12.0759 194.509 12.0767C194.219 12.099 194.436 11.5425 194.258 11.5341C194.145 11.5303 191.797 12.2094 192.135 11.3247ZM198.893 10.7693C199.072 10.3238 201.079 10.1339 201.16 10.2523C201.764 11.1328 199.049 10.9244 198.893 10.7693ZM191.84 10.295C192.186 8.94896 193.782 9.85041 192.69 10.5215C192.585 10.5825 192.144 9.99901 191.84 10.295ZM186.319 10.2309C186.265 10.1913 185.128 9.92228 185.107 10.3506C185.272 10.517 186.929 10.6663 186.319 10.2309ZM186.908 8.7825C186.881 8.79277 187.147 9.61765 186.614 9.51312C186.57 9.50328 186.487 8.57522 185.817 8.91495C185.681 8.98492 185.47 9.59887 185.485 9.63703C186.183 11.0935 188.285 8.30401 186.908 8.7825ZM198.929 10.0173C198.821 9.62556 199.082 8.46287 199.317 9.05168C199.418 9.30592 199.23 10.0037 198.929 10.0173ZM182.712 9.85493C183.373 9.14979 181.297 9.01648 181.192 9.19695C181.258 9.63618 182.646 9.9238 182.712 9.85493ZM7.74942 7.129C7.7489 7.129 7.74838 7.129 7.74786 7.129C8.30404 7.28878 7.95954 7.87537 7.98559 7.8938C9.17029 8.7554 8.85605 7.42679 9.04131 7.26999C9.43855 6.93089 9.37455 8.54657 10.0446 7.87671C8.937 8.86592 9.94522 8.45123 9.9766 9.02604C10.1007 11.3718 8.50187 7.92766 7.94961 8.41933C7.87267 8.48741 8.4408 9.23606 8.24365 9.44903C7.60267 10.1391 5.61523 6.51799 7.74942 7.129ZM199.499 8.94914C199.757 8.26011 201.714 8.92841 201.195 9.49603C201.111 9.58704 199.12 9.95343 199.499 8.94914ZM108.073 7.93225C108.544 7.33597 107.454 6.63498 107.251 7.09909C107.151 7.33031 107.867 8.19394 108.073 7.93225ZM100.43 5.38149C99.871 5.50254 99.2818 7.98914 99.9771 7.60326C100.051 7.56108 100.494 5.72642 100.43 5.38149ZM137.131 6.65901C136.548 5.77038 136.583 7.42146 137.011 7.39817C137.162 7.39021 137.15 6.68713 137.131 6.65901ZM114.857 6.87264C114.798 6.815 114.123 6.92043 114.148 7.2999C114.397 7.52757 115.234 7.26827 114.857 6.87264ZM137.317 6.42401C136.971 6.72159 137.566 7.91579 137.989 6.74873C137.774 6.84446 137.352 6.39361 137.317 6.42401ZM190.635 6.64619C190.345 7.32417 189.525 7.1193 189.054 7.23581C189.003 6.35745 190.298 6.80544 190.635 6.64619ZM102.803 6.38129C102.273 7.00034 103.407 7.50717 103.303 6.68892C103.289 6.64447 102.823 6.35489 102.803 6.38129ZM155.961 6.33429C155.576 6.85824 156.797 7.56286 156.461 6.64192C156.445 6.60437 155.982 6.30514 155.961 6.33429ZM161.293 6.63765C161.002 6.46091 159.757 6.51528 160.242 7.02645C160.317 7.10501 161.271 7.11755 161.293 6.63765ZM9.07415 6.63765C8.91692 5.73536 9.82953 5.95014 9.96017 6.10784C10.0115 6.17343 9.27922 7.81158 9.07415 6.63765ZM133.341 6.51801C133.039 6.6309 132.256 6.41638 132.118 6.88973C132.487 6.79175 133.44 7.46094 133.341 6.51801ZM105.215 6.37702C104.754 5.39655 103.967 5.49332 104.162 6.77437C105.031 6.68852 104.054 5.62293 105.215 6.37702ZM139.262 5.36868C139.019 5.29388 138.834 6.52415 138.861 6.5821C139.124 7.13354 139.502 5.84734 139.262 5.36868ZM121.09 6.38129C121.076 5.85554 120.3 6.09416 120.403 6.43256C120.437 6.54617 121.101 6.80676 121.09 6.38129ZM180.468 6.34711C180.113 5.86723 181.199 5.39808 181.52 5.9583C181.676 6.76554 180.513 6.40223 180.468 6.34711ZM145.977 5.67631C146.013 4.89607 144.8 5.3372 145.278 5.98393C145.397 6.14576 145.964 5.93719 145.977 5.67631ZM157.592 4.7406C156.778 5.67104 160.196 6.33159 159.298 5.17214C159.234 5.08952 157.663 4.66203 157.592 4.7406ZM163.173 5.32168C163.033 5.21916 163.103 2.59736 163.684 3.60836C163.76 3.73947 163.403 4.43254 163.466 4.59106C163.502 4.6814 164.766 5.04962 164.824 4.98841C164.887 4.91891 164.813 4.0786 164.877 3.98435C164.948 3.879 165.726 4.61718 166.133 4.62524C166.901 4.63908 166.984 3.93966 167.047 3.93735C167.23 3.93271 167.538 4.42931 167.91 4.4287C169.784 4.42312 172.649 3.83026 174.135 5.31313C172.813 4.71765 171.553 5.34945 170.238 5.54385C170.623 4.08392 168.303 6.66874 169.66 4.98414C169.035 5.34955 163.634 5.64177 163.175 5.32168C163.174 5.32168 163.174 5.32168 163.173 5.32168ZM98.2239 4.6466C98.5672 3.75143 96.8054 3.95279 96.6559 4.98841C96.8885 5.13214 98.1813 4.74806 98.2239 4.6466ZM106.352 2.46329C106.516 2.30878 106.671 0.55901 107.529 1.44641C107.53 1.44641 107.531 1.44641 107.531 1.44641C107.782 1.70556 107.496 2.13192 107.542 2.28384C107.559 2.34588 108.342 3.21629 107.692 3.35627C106.701 3.57103 107.598 2.05456 107.07 2.03603C107.005 2.0346 106.005 2.98174 106.064 3.18964C106.07 3.21386 106.37 3.0135 106.42 3.09991C106.608 3.42475 106.516 3.97116 106.543 3.99716C106.629 4.0638 108.211 3.13291 108.441 3.94589C108.516 4.20805 105.92 4.81281 105.819 4.67651C105.755 4.59062 105.782 3.07391 105.716 2.92474C105.681 2.85044 104.637 3.4188 104.502 3.27936C104.463 3.23903 104.432 3.19556 104.41 3.15973C104.568 3.62898 103.623 3.59519 103.652 3.06573C103.668 2.85763 104.319 2.97809 104.342 3.01446C104.353 3.02986 104.361 3.05109 104.37 3.06573C104.235 2.49387 106.438 2.51966 105.963 1.66859C106.601 1.20235 105.872 2.91708 106.352 2.46329ZM109.422 1.52759C109.356 1.6871 109.29 1.84661 109.224 2.00612C110.343 1.6157 111.633 2.38356 112.921 2.37784C113.248 2.37755 112.872 1.402 113.3 1.66859C113.644 1.88222 114.023 2.78707 113.837 2.98883C113.791 3.03916 113.092 2.44981 112.743 2.51029C111.71 2.68935 111.971 3.52594 111.911 3.54854C111.844 3.57232 111.194 2.98399 110.839 3.01019C109.947 3.0779 109.539 3.59153 108.32 2.92046C109.024 2.3691 108.639 1.17131 109.422 1.52759ZM151.101 3.30927C151.144 2.7827 151.876 3.24989 152.141 3.17255C152.1 3.70042 151.367 3.23189 151.101 3.30927ZM42.0603 2.62565C41.8356 3.48975 43.5201 3.70371 43.0762 2.98455C42.9779 2.82495 42.272 2.6318 42.0603 2.62565ZM49.6279 3.15119C49.8532 2.91228 48.9459 2.29015 48.9475 2.95892C48.9489 3.17337 49.5989 3.18225 49.6279 3.15119ZM123.876 2.37784C123.919 2.35078 124.539 2.54324 124.558 2.5872C124.969 3.5047 122.929 2.97441 123.876 2.37784ZM58.8275 2.0873C58.0421 2.65368 60.4062 2.89916 59.6838 2.17703C59.6478 2.14185 58.8653 2.05978 58.8275 2.0873ZM62.1135 1.92922C61.9253 1.95957 61.0892 1.67835 61.0781 1.94203C61.0615 2.36742 62.0185 2.65809 62.1135 1.92922ZM139.425 2.10439C139.334 1.13078 140.437 1.8681 140.82 1.74549C140.911 2.71978 139.808 1.98144 139.425 2.10439ZM132.466 1.38659C137.114 0.619084 136.089 2.69926 132.189 1.86085C132.184 1.23625 132.173 1.43493 132.466 1.38659ZM138.418 1.50195C138.249 2.12568 137.721 1.94073 137.364 1.89076C137.429 1.45711 138.161 1.61405 138.418 1.50195ZM40.0545 1.28832C40.346 0.500406 41.6369 1.47177 41.4073 1.79676C41.3539 1.86695 39.9474 1.72162 40.0545 1.28832ZM124.266 1.54468C124.157 0.59781 125.553 0.984041 125.66 1.19432C126.091 2.04014 124.379 1.33569 124.266 1.54468ZM146.022 1.27123C146.269 0.529563 146.969 0.911032 147.419 0.920876C147.214 1.55506 146.404 1.28457 146.022 1.27123ZM142.772 0.690154C142.8 0.661687 143.428 0.728646 143.456 0.762789C143.971 1.48719 142.195 1.30167 142.772 0.690154ZM6.97835 0.00653469C6.99927 -0.0173654 7.47478 0.0299258 7.49135 0.0578062C7.91578 0.769877 6.48862 0.624376 6.97835 0.00653469Z" fill="url(#paint0_linear_939_1284)"/>
<defs>
<linearGradient id="paint0_linear_939_1284" x1="0" y1="35.5" x2="205" y2="35.5" gradientUnits="userSpaceOnUse">
<stop offset="0.1" stop-color="#822FFF"/>
<stop offset="0.9" stop-color="#FF35C4"/>
</linearGradient>
</defs>
</svg>
