<svg width="312" height="16" viewBox="0 0 312 16" fill="none" xmlns="http://www.w3.org/2000/svg">
<path d="M309.037 14.9428C307.296 15.1494 305.01 14.9551 303.272 14.6796C302.727 14.5941 303 14.1948 302.624 14.1179C301.888 13.9681 301.205 14.1674 300.478 13.988C300.237 13.9266 300.533 13.2949 300.28 13.2449C298.896 12.9755 297.589 13.1443 296.188 13.0195C289.286 12.4034 282.504 12.2106 275.519 11.9686C273.217 11.8893 270.414 11.3358 268.038 11.601C267.76 11.6326 267.93 12.1842 267.877 12.2301C267.053 12.9329 267.321 11.8152 266.78 11.6705C264.629 11.0989 262.242 11.0633 260.177 11.2899C259.299 11.388 260.187 12.4802 259.298 11.8696C259.236 11.8284 259.456 11.24 259.214 11.1789C258.667 11.0417 257.63 11.1532 257.206 11.1095C256.389 11.0221 256.254 11.0289 255.482 11.0272C254.426 11.0197 253.169 10.736 252.037 10.8763C251.795 10.908 252.119 11.5076 251.734 11.6125C251.349 11.7172 250.328 11.6727 249.982 11.5331C249.637 11.3934 249.781 10.9195 249.719 10.8115C249.212 9.8998 248.039 11.1746 247.888 11.2069C245.12 11.7587 242.74 11.0521 240.139 11.0709C238.165 11.0867 236.056 11.3386 234.177 11.318C231.938 11.2911 230.039 10.9773 227.866 11.0473C227.636 11.054 227.91 11.7597 227.629 11.7693C224.652 11.8708 221.695 11.8127 218.727 11.3542C218.43 11.3076 218.809 10.6839 218.511 10.6002C216.689 10.1014 213.804 8.89367 212.741 11.6051C211.509 11.5074 210.012 11.4079 208.907 10.8698C208.194 10.5235 208.88 9.8424 208.009 10.1368C207.812 10.2024 208.072 10.7933 207.777 10.8469C206.535 11.0718 205.176 10.8879 203.948 11.202C203.699 11.2673 203.77 11.7979 203.7 11.8939C203.109 12.6721 202.11 11.3984 201.893 11.3068C200.243 10.6237 199.042 10.9044 197.509 10.8973C197.153 10.8954 197.578 11.606 197.236 11.6297C195.461 11.7433 193.621 11.6939 191.88 11.3886C191.493 11.3189 191.845 10.7091 191.659 10.6447C190.843 10.3684 190.669 11.517 189.886 11.2741C189.721 11.2244 189.811 10.7037 189.78 10.6468C189.304 9.75308 188.903 11.0263 188.783 11.0551C187.254 11.4482 186.268 10.1281 184.79 10.3254C184.614 10.3504 185.017 11.0059 184.52 11.0358C181.208 11.2388 177.704 11.0805 174.421 10.5752C173.911 10.4976 174.272 10.0008 174.239 9.9401C173.71 8.99122 173.38 10.2693 173.214 10.3184C171.905 10.6727 170.673 9.61061 169.792 11.136C164.235 10.6444 158.712 11.5333 153.195 10.2073C153.125 10.1919 153.246 9.56277 153.107 9.53491C151.422 9.19291 151.751 10.1674 150.646 11.369C150.367 11.6707 149.505 10.2342 149.429 10.1289C149.151 9.74119 149.431 8.80451 149.338 8.72967C148.572 8.1422 148.716 11.233 147.688 11.2406C147.656 11.2357 147.788 10.6658 147.701 10.6097C147.432 10.4338 147.167 10.6617 146.904 10.4675C146.301 10.0181 146.077 8.51718 145.166 9.39737C145.051 9.51159 145.239 11.2641 144.321 11.1872C143.955 11.155 142.336 11.1955 141.881 11.0848C141.427 10.9742 141.735 10.4071 141.702 10.3828C140.476 9.64338 140.937 9.33069 140.318 8.22828C139.699 7.13004 139.886 9.75773 139.638 10.0527C139.39 10.3469 138.491 9.73614 138.269 9.52321C138.048 9.3102 138.32 8.94933 138.123 8.82925C136.821 8.04479 137.563 10.1377 137.138 10.5577C136.137 11.5521 135.34 9.60766 134.416 9.42256C134.166 9.37258 134.373 9.81528 134.151 9.85823C133.272 10.0225 132.738 9.41757 131.741 9.98177C131.578 10.0737 130.776 11.251 130.246 10.3942C130.171 10.2707 130.379 9.78349 130.003 9.67708C129.442 9.51737 128.431 9.41767 127.83 9.58393C127.386 9.70694 127.901 10.5042 127.34 10.2591C127.09 10.1497 127.548 9.67839 127.08 9.51185C126.614 9.34535 125.425 9.37357 124.973 9.39265C124.522 9.41208 124.773 10.0177 124.737 10.0589C124.517 10.2946 123.653 10.593 123.576 10.5928C119.714 10.6917 116.146 9.69108 112.388 10.054C112.093 10.0816 112.294 10.7207 112.249 10.7315C111.241 11.0063 112.026 9.29869 111.317 8.73339C111.427 10.0321 111.009 9.79954 110.298 9.94662C109.956 10.0186 110.146 10.5205 110.115 10.5722C109.611 11.3397 109.251 10.3549 109.158 10.1535C108.817 9.41292 108.456 10.2929 108.223 9.79791C107.991 9.30661 108.514 8.57268 107.831 8.58643C107.643 9.0528 108.157 10.2651 107.641 10.4654C105.69 11.2232 102.035 10.2929 100.462 10.204C98.8927 10.1151 98.3866 10.2042 97.4713 10.0419C95.8181 9.7486 96.4291 10.6466 95.4064 11.066C94.3808 11.4853 94.8664 9.26312 94.7155 8.78705C94.5673 8.31117 94.412 8.80301 94.2299 8.54206C94.0483 8.28116 94.4357 7.95431 94.0119 7.85863C93.5879 7.76305 92.4359 8.61876 92.289 9.11851C91.9786 10.1773 92.5073 11.283 91.3846 10.9005C91.32 10.8778 91.5254 10.2929 91.2783 10.2356C89.316 9.79898 87.2802 9.78423 85.3206 9.39954C85.0512 9.34573 85.2876 8.69508 85.1307 8.65642C83.4969 8.25173 84.087 9.34245 83.2008 10.564C83.3912 8.94473 82.8904 7.95802 81.6524 7.95643C80.9082 7.9549 81.0409 8.66073 80.5627 9.16188C80.4193 9.31295 79.8895 8.83112 79.7963 9.16406C79.4886 10.2524 79.9925 11.4653 78.713 10.9893C78.6569 10.9666 78.8313 10.3709 78.6376 10.3361C77.3853 10.1084 77.243 11.2457 75.8919 11.392C74.8328 11.5068 72.9436 10.826 71.7363 10.721C71.75 8.9018 70.6129 9.32568 70.1586 10.5829C69.3752 10.5366 68.5298 10.6129 67.7719 10.4444C67.5109 10.387 67.6787 9.85921 67.6455 9.80251C67.1361 8.91305 66.8035 10.1355 66.6348 10.1844C64.8058 10.6612 63.3072 9.74596 61.5647 10.661C61.5028 10.694 61.4104 11.9582 60.9371 11.0386C60.9065 10.9752 61.4802 10.3966 60.6575 10.3574C59.8346 10.3181 58.2796 9.65074 57.1414 10.2436C56.866 10.3863 56.1735 11.4166 55.6074 10.6188C55.5319 10.5104 55.6114 10.1475 55.5022 9.94653C55.1493 9.30619 54.9671 10.5846 54.5502 9.5022C54.1333 8.41986 53.2754 7.61277 52.1286 8.36877C52.092 8.39077 51.8259 9.4048 51.4636 9.39113C50.8853 9.36842 50.0631 9.16282 49.4596 9.1733C49.1705 9.17868 49.3596 9.80607 49.3094 9.81789C47.3683 10.1826 45.9814 9.63114 43.8979 9.40133C43.5159 9.35796 42.4246 10.2222 41.6814 9.54925C40.8653 8.81263 41.6792 5.72132 39.8191 6.46852C39.0689 6.76743 38.1417 10.6886 36.777 8.66891C34.1588 9.18839 31.7277 8.16585 29.1035 8.90045C28.9855 8.93301 28.6187 10.0281 28.3407 10.015C27.928 9.99346 27.6982 9.48422 27.4034 9.45247C26.168 9.30658 25.0411 9.75078 23.8504 9.69047C23.3984 9.66868 23.5529 9.13961 23.0138 9.11357C22.475 9.08801 22.1203 9.78567 21.3882 9.45453C20.8353 9.2021 20.275 7.78437 19.5423 7.62341C19.5234 9.02552 19.0206 8.99987 18.1298 9.37569C17.9586 9.4486 18.1458 9.93536 18.065 9.99502C17.736 10.2486 17.4276 9.8462 17.1155 10.122C17.0395 10.1882 17.039 10.667 16.9771 10.7482C16.4508 11.4567 15.5696 10.3854 15.4182 10.1988C14.838 9.49038 14.5731 10.1148 14.1298 9.83721C13.6872 9.55965 14.344 9.2049 13.828 9.03805C12.7586 8.69297 11.3878 8.77911 10.3038 8.76408C9.87128 8.76104 10.1704 9.39822 10.1087 9.41263C9.21539 9.58047 8.3067 8.90648 7.81906 10.1827C7.17785 6.89516 7.28187 10.5054 5.99936 9.85471C5.8983 9.80206 5.76019 8.24636 6.1453 8.01536C6.53041 7.78458 7.11968 8.26735 7.65377 7.90769C7.78024 7.82328 8.49839 6.36004 8.59711 6.27105C9.37028 5.57553 9.49541 7.90084 9.5374 8.02834C10.0128 9.40404 10.8918 7.82699 11.1252 7.71691C12.1931 7.21252 13.1052 7.53378 13.9987 7.17291C14.5832 6.93963 14.6307 5.41563 15.0911 5.45931C16.6215 5.60362 17.1691 7.72566 18.5985 5.87347C18.9049 5.47842 18.5872 3.81512 19.7029 5.11745C19.773 5.19956 20.6029 6.39219 21.073 5.63142C21.132 5.5355 21.127 5.05019 21.2054 5.00891C21.7309 4.7418 22.0851 5.12618 22.6583 4.93731C23.2315 4.74844 23.9203 4.46794 24.5772 4.62834C24.973 4.72423 25.4858 5.62519 25.6765 5.84535C26.2147 6.47964 26.7808 5.43035 27.1167 6.20047C27.4554 6.97446 26.8106 8.15734 27.6889 8.6532C27.7132 7.39208 27.7793 6.09741 27.8233 4.82902C29.7414 4.86108 31.631 5.25667 33.5549 5.18859C33.7934 5.17889 33.545 4.50259 33.8006 4.47472C34.8788 4.36009 35.8244 4.83726 36.9421 4.63763C37.8072 4.48051 38.7524 3.75668 39.6569 3.57004C40.2193 5.00931 41.5602 4.51086 42.5373 4.63644C42.8795 4.6798 42.8592 5.06529 43.1032 5.18945C44.0237 5.6485 43.5855 4.37625 43.8358 4.17398C44.9094 3.31068 45.0205 6.19601 46.2923 6.11652C46.3597 6.11329 47.1738 4.56966 47.2866 4.47314C48.0037 3.84383 47.4095 5.0078 47.8615 5.11856C48.6867 5.32097 49.2617 5.68467 50.2255 5.22787C50.5066 5.0926 51.1765 4.12943 51.7288 4.86755C51.8015 4.9642 51.7648 5.47293 51.823 5.50233C52.8754 5.99195 52.8927 4.39409 53.4888 3.84914C54.085 3.3043 55.0183 4.40125 55.2088 4.71791C55.7072 5.53706 54.8332 5.07177 54.807 5.15263C54.4995 6.11498 55.1739 5.9453 55.6905 6.02313C55.7753 7.5892 56.4965 7.49053 56.2261 6.0975C56.1954 5.94536 55.7946 6.09403 55.6905 6.02313C56.1337 4.48321 56.9257 4.28127 57.811 5.71194C58.2255 6.38248 57.8429 7.16986 59.0868 6.87471C59.6514 6.74146 59.426 5.66422 59.923 5.36693C61.0586 4.68863 62.5464 5.6853 63.7206 5.51921C64.1467 5.45891 63.7274 4.87113 64.0185 4.80958C64.7911 4.64437 65.4762 5.083 66.2517 4.85106C66.3219 4.8293 66.146 4.21233 66.3875 4.2029C68.2186 4.11934 69.8159 4.50497 71.7283 4.50364C72.6523 4.50272 74.302 4.15122 75.2596 4.2136C76.9192 4.31806 78.9658 5.20372 80.3816 4.97626C81.3049 4.83056 81.0982 4.21366 81.4915 3.78991C82.2505 2.96852 83.6127 4.42231 83.7963 4.6476C83.8019 4.65506 83.0076 4.80591 83.434 5.12052C83.685 5.78016 83.7874 4.65052 83.7963 4.6476C83.9169 4.79312 85.5067 4.92324 85.8214 4.80303C85.9924 4.73735 85.8927 4.15225 85.982 4.12908C88.1031 3.59126 90.2305 3.42871 92.387 3.68871C92.425 3.7003 92.3721 4.35582 92.4614 4.37489C93.7108 4.65817 94.5044 3.85157 95.5301 3.36912C96.5558 2.88687 97.3725 3.04093 97.9888 4.16173C98.764 4.01513 99.8808 4.5052 100.524 4.80279C101.166 5.10037 101.247 3.82449 101.304 3.79891C103.057 2.98065 104.078 3.70408 105.903 3.80595C106.771 3.85657 108.491 3.66053 109.429 3.51503C110.17 3.39791 110.619 3.69391 111.302 3.4984C111.394 3.47229 111.297 2.90505 111.325 2.88301C112.084 2.19872 111.726 3.58924 111.886 3.83615C112.463 4.73405 112.819 5.21195 113.794 4.78154C114.018 4.68296 114.662 2.67998 115.072 2.56045C115.606 2.4087 115.409 3.12643 115.967 2.94929C116.015 2.93479 116.002 2.49286 116.348 2.51013C117.951 2.58447 119.7 2.83042 121.365 2.77541C121.593 2.76959 121.297 2.07041 121.625 2.05046C123.167 1.95744 124.858 1.97251 126.363 2.291C126.734 2.37159 126.505 2.86395 126.586 3.00918C127.085 3.88788 127.775 2.60205 127.891 2.57689C130.638 1.94345 132.751 3.0895 135.552 2.51938C135.705 2.48599 136.871 1.10482 137.403 2.27951C137.439 2.35766 137.965 3.5596 138.419 2.73258C138.447 2.68084 138.12 2.06242 138.684 2.12204C139.249 2.18151 140.154 1.76131 140.933 2.43808C141.18 2.65127 141.768 3.84985 142.494 2.88674C142.541 2.81952 143.658 0.645166 144.071 2.13775C144.138 2.38345 144.079 3.96614 144.948 3.14928C145.114 2.99093 144.809 2.63996 145.247 2.41675C145.919 2.07277 146.814 2.4908 147.638 1.78064C147.782 1.65493 148.39 0.577039 148.889 1.38898C148.967 1.51615 148.823 2.04532 149.084 2.10276C150.325 2.37836 151.62 2.01668 152.88 2.37407C153.327 2.49963 153.104 3.35504 153.57 3.5809C154.036 3.80668 154.973 4.02072 155.457 3.62736C155.94 3.23383 155.401 1.87625 156.128 1.76266C159.291 1.2693 162.433 2.04753 165.595 2.14399C166.064 2.15842 165.672 1.67391 166.363 1.66022C168.91 1.60761 173.306 1.1227 175.523 2.14332C177.299 2.96077 175.074 3.60611 176.43 3.93469C177.084 4.09139 177.781 2.50455 177.938 2.45372C179.475 1.9378 180.55 2.63184 181.935 2.40787C182.221 2.36141 181.936 1.72189 182.179 1.68943C183.011 1.57286 183.887 1.85349 184.682 1.79602C185.039 1.76876 184.97 1.27936 185.298 1.31506C186.084 1.39482 186.78 1.59625 187.549 2.05041C187.619 2.0918 187.152 2.70414 187.734 2.72307C188.674 2.75196 189.845 3.19734 190.924 2.72269C191.244 2.57993 191.249 1.46039 191.945 2.22906C192.09 2.3896 191.914 3.73502 192.711 2.56838C192.845 2.37449 194.185 0.799188 194.854 1.80476C195.031 2.06941 195.484 3.16654 195.869 2.99119C195.922 2.96326 195.708 2.36331 196.027 2.3026C197.154 2.0991 198.336 2.15565 199.493 1.95987C199.802 1.9064 199.337 1.28713 199.798 1.2273C201.065 1.06188 202.649 1.21013 203.89 1.39692C204.348 1.46696 204.035 1.98443 204.069 2.04031C204.609 2.94922 204.918 1.71572 205.095 1.64277C206.196 1.20571 207.04 1.77877 208.057 1.61915C208.338 1.57666 208.135 0.990757 208.19 0.93804C208.767 0.422744 208.342 1.48002 208.709 1.59389C209.74 1.91641 210.885 1.86185 211.925 1.78013C212.306 1.74925 211.873 1.07116 212.215 1.05132C214.243 0.920952 216.352 0.97254 218.334 1.33515C218.708 1.40467 218.476 1.93045 218.555 2.04969C219.096 2.88402 219.873 1.73625 220.053 1.62623C220.871 1.12393 221.193 1.58551 221.917 1.49431C225.456 1.04068 229.832 1.31962 233.176 1.48782C237.535 1.70395 240.919 2.18096 245.072 2.02473C245.336 2.01546 245.066 1.31973 245.293 1.30278C248.231 1.11575 251.126 1.36967 254.069 1.14929C254.311 1.13244 253.958 0.473503 254.346 0.424236C255.141 0.318545 256.149 0.348002 256.954 0.553947C257.347 0.653145 256.825 1.22388 257.22 1.31214C258.141 1.51894 259.127 1.55969 260.071 1.44762C260.473 1.39848 259.862 0.726163 260.384 0.714999C263.943 0.625027 267.437 0.486088 271.039 1.33863C271.286 1.39719 271.511 2.77015 272.033 2.50322C272.07 2.12154 272.065 1.67289 272.08 1.2651C277.259 1.01218 282.39 1.45564 287.586 1.4959C287.805 1.49744 287.421 0.771674 287.846 0.770947C290.3 0.765929 292.682 0.548869 295.197 1.25651C295.447 1.3257 295.327 2.6076 296.06 2.40913C296.189 2.37294 297.294 2.19498 297.578 1.91505C297.617 1.87285 297.411 1.27619 297.767 1.25647C299.837 1.15235 302.007 1.27491 304.077 1.62697C304.411 1.68494 304.059 2.324 304.297 2.37081C305.985 2.69799 307.815 2.20214 309.429 2.76994C310.509 3.1523 310.117 4.25558 310.697 5.33538C310.779 5.48772 311.447 5.50765 311.485 6.13782C311.584 7.72242 311.272 9.46025 311.415 11.149C311.446 11.5128 312.337 11.1151 311.813 11.9979C311.777 12.057 311.131 12.3531 310.973 12.6525C310.863 12.8594 311.068 13.4993 310.842 13.7648C310.617 14.03 310.365 13.4942 309.991 13.8069C309.617 14.1234 309.787 14.8516 309.037 14.9428ZM103.417 6.13277C104.015 6.74141 104.088 4.49768 103.45 5.03849C103.419 5.0673 103.387 6.10292 103.417 6.13277ZM31.6311 6.94874C32.4132 7.93314 32.9346 6.47493 32.3825 5.71433C31.8304 4.95456 31.3929 6.65033 31.6311 6.94874ZM23.5922 7.7228C24.5037 8.49706 24.626 5.31525 23.6591 5.96452C23.6029 6.00123 23.5389 7.67784 23.5922 7.7228ZM308.043 5.66099C308.051 5.69072 308.531 5.71667 308.542 5.68707C308.793 4.973 307.833 4.92161 308.043 5.66099ZM15.6153 8.56055C15.9011 8.98901 16.7127 8.48706 16.3576 7.95426C16.0718 7.52564 15.2594 8.02757 15.6153 8.56055ZM134.384 8.32778C134.394 8.36114 134.738 8.38903 134.73 8.20012C134.702 7.59171 134.225 7.76654 134.384 8.32778ZM2.04934 8.68441C4.05445 8.79125 5.28658 11.411 3.10199 11.1286C2.70643 11.0774 3.94846 10.2852 3.44387 10.0515C2.52055 9.62585 1.91985 11.2796 0.974806 10.4016C0.803703 10.2408 1.93489 8.67248 2.05287 8.68073C2.05168 8.68195 2.05057 8.68318 2.04934 8.68441ZM103.776 8.82491C103.788 8.85449 104.265 8.87956 104.276 8.85008C104.529 8.13628 103.57 8.08537 103.776 8.82491ZM154.465 9.58569C154.492 9.64872 155.598 9.70073 155.633 9.64226C156.202 8.47402 153.967 8.36542 154.465 9.58569ZM71.717 10.6726C71.202 11.3924 70.581 11.4808 70.161 10.5838C70.6776 10.6282 71.1975 10.6319 71.717 10.6726Z" fill="url(#paint0_linear_939_1295)"/>
<defs>
<linearGradient id="paint0_linear_939_1295" x1="1.00322" y1="17.5" x2="312.003" y2="15.5" gradientUnits="userSpaceOnUse">
<stop offset="0.1" stop-color="#822FFF"/>
<stop offset="0.9" stop-color="#FF35C4"/>
</linearGradient>
</defs>
</svg>
