<svg width="312" height="16" viewBox="0 0 312 16" fill="none" xmlns="http://www.w3.org/2000/svg">
<path d="M3.86632 1.05753C5.60782 0.850933 7.89364 1.04516 9.63165 1.32075C10.1763 1.40619 9.90338 1.80552 10.2795 1.88239C11.0151 2.03224 11.6982 1.83287 12.4254 2.01233C12.6664 2.07376 12.3709 2.70541 12.6235 2.7554C14.0077 3.02481 15.3145 2.856 16.7158 2.98085C23.6179 3.59693 30.3999 3.78972 37.3841 4.03174C39.6869 4.111 42.4893 4.6645 44.8656 4.39928C45.1431 4.36775 44.974 3.81608 45.0265 3.77018C45.8504 3.06743 45.5822 4.18507 46.124 4.32985C48.2745 4.90141 50.6619 4.93697 52.7265 4.71037C53.6048 4.61234 52.7165 3.52013 53.6055 4.13067C53.6672 4.17191 53.448 4.76031 53.6894 4.82137C54.237 4.95865 55.2733 4.84707 55.6973 4.89085C56.5143 4.9782 56.6494 4.97143 57.4217 4.97315C58.4775 4.98061 59.735 5.26431 60.8668 5.12403C61.1084 5.09234 60.7845 4.49269 61.1694 4.38782C61.5547 4.28311 62.576 4.32756 62.9211 4.46719C63.2663 4.60689 63.1227 5.08077 63.1843 5.18878C63.6915 6.10051 64.8643 4.8257 65.016 4.79339C67.7831 4.24159 70.1636 4.9482 72.7642 4.92941C74.7385 4.91362 76.848 4.66173 78.7268 4.68233C80.9651 4.7092 82.864 5.02306 85.0379 4.95303C85.2673 4.94633 84.9939 4.24059 85.2741 4.23097C88.2511 4.1295 91.2084 4.1876 94.1761 4.64615C94.4738 4.69276 94.0946 5.31638 94.3922 5.40008C96.2141 5.89886 99.0996 7.10664 100.162 4.39524C101.395 4.49293 102.891 4.59242 103.997 5.13049C104.71 5.47679 104.024 6.15791 104.895 5.86355C105.091 5.79795 104.832 5.20699 105.127 5.15343C106.368 4.92849 107.727 5.11239 108.955 4.7983C109.205 4.73302 109.133 4.20246 109.203 4.10638C109.794 3.32817 110.794 4.6019 111.011 4.69353C112.661 5.37658 113.861 5.09589 115.395 5.10296C115.751 5.1049 115.325 4.39436 115.668 4.37061C117.443 4.25696 119.283 4.30644 121.023 4.61174C121.411 4.68137 121.059 5.29122 121.244 5.35557C122.061 5.63195 122.234 4.48327 123.017 4.72618C123.182 4.77592 123.093 5.29663 123.123 5.35356C123.6 6.24723 124 4.97405 124.121 4.94522C125.649 4.5521 126.636 5.8722 128.113 5.67487C128.29 5.64992 127.887 4.99438 128.384 4.9645C131.695 4.76152 135.2 4.91978 138.482 5.42508C138.992 5.50276 138.632 5.99948 138.664 6.06021C139.193 7.00909 139.523 5.73103 139.689 5.68191C140.998 5.3276 142.23 6.3897 143.112 4.8643C148.669 5.35596 154.192 4.46703 159.708 5.79304C159.779 5.80836 159.657 6.43754 159.797 6.4654C161.482 6.8074 161.152 5.83288 162.258 4.6313C162.536 4.32958 163.398 5.76615 163.475 5.87136C163.752 6.25912 163.473 7.1958 163.566 7.27064C164.331 7.85811 164.187 4.7673 165.215 4.75969C165.247 4.76464 165.116 5.33455 165.203 5.39058C165.472 5.56649 165.736 5.33866 166 5.53285C166.603 5.98226 166.826 7.48313 167.737 6.60294C167.853 6.48872 167.664 4.73617 168.582 4.81311C168.949 4.84527 170.568 4.80479 171.022 4.91552C171.476 5.02612 171.169 5.59324 171.201 5.61751C172.428 6.35693 171.966 6.66962 172.586 7.77204C173.205 8.87027 173.018 6.24258 173.265 5.94756C173.513 5.65338 174.413 6.26418 174.634 6.4771C174.856 6.69011 174.584 7.05098 174.78 7.17106C176.082 7.95552 175.341 5.86256 175.766 5.44258C176.767 4.44818 177.564 6.39265 178.487 6.57775C178.737 6.62773 178.531 6.18503 178.753 6.14208C179.632 5.97784 180.165 6.58274 181.163 6.01854C181.326 5.9266 182.128 4.74929 182.657 5.60609C182.732 5.72965 182.525 6.21682 182.9 6.32323C183.462 6.48294 184.472 6.58264 185.073 6.41638C185.517 6.29337 185.002 5.49614 185.564 5.74121C185.813 5.85065 185.355 6.32192 185.824 6.48846C186.29 6.65496 187.478 6.62674 187.93 6.60766C188.382 6.58823 188.131 5.9826 188.167 5.94146C188.386 5.7057 189.251 5.40733 189.327 5.40756C193.189 5.30859 196.757 6.30923 200.515 5.94628C200.81 5.91867 200.609 5.27961 200.654 5.26879C201.663 4.99401 200.877 6.70162 201.587 7.26692C201.476 5.96817 201.895 6.20077 202.605 6.05369C202.948 5.98176 202.758 5.47981 202.789 5.42811C203.292 4.66062 203.653 5.64543 203.745 5.84677C204.087 6.58739 204.448 5.70738 204.68 6.2024C204.912 6.6937 204.39 7.42763 205.072 7.41388C205.261 6.94751 204.746 5.73522 205.263 5.53488C207.213 4.77712 210.869 5.70738 212.441 5.79634C214.011 5.88523 214.517 5.79616 215.432 5.95838C217.085 6.25171 216.474 5.35374 217.497 4.93434C218.523 4.51497 218.037 6.73719 218.188 7.21326C218.336 7.68914 218.491 7.1973 218.674 7.45825C218.855 7.71915 218.468 8.046 218.892 8.14168C219.316 8.23726 220.468 7.38155 220.614 6.8818C220.925 5.82305 220.396 4.71734 221.519 5.09983C221.584 5.12254 221.378 5.70736 221.625 5.76474C223.588 6.20133 225.623 6.21608 227.583 6.60077C227.852 6.65458 227.616 7.30523 227.773 7.34389C229.407 7.74858 228.816 6.65786 229.703 5.4363C229.512 7.05558 230.013 8.04229 231.251 8.04388C231.995 8.04541 231.863 7.33958 232.341 6.83843C232.484 6.68736 233.014 7.16919 233.107 6.83625C233.415 5.74789 232.911 4.53499 234.191 5.01101C234.247 5.03367 234.072 5.62946 234.266 5.66423C235.518 5.8919 235.661 4.75465 237.012 4.60834C238.071 4.49355 239.96 5.17433 241.167 5.27926C241.154 7.09851 242.291 6.67463 242.745 5.41743C243.528 5.46375 244.374 5.3874 245.132 5.5559C245.393 5.61333 245.225 6.1411 245.258 6.1978C245.767 7.08726 246.1 5.86485 246.269 5.81592C248.098 5.33912 249.596 6.25435 251.339 5.33928C251.401 5.30633 251.493 4.04209 251.966 4.9617C251.997 5.02511 251.423 5.60373 252.246 5.6429C253.069 5.68217 254.624 6.34957 255.762 5.7567C256.038 5.61396 256.73 4.58369 257.296 5.38154C257.372 5.48989 257.292 5.85282 257.401 6.05379C257.754 6.69412 257.936 5.41572 258.353 6.49811C258.77 7.58045 259.628 8.38754 260.775 7.63154C260.811 7.60954 261.078 6.59551 261.44 6.60918C262.018 6.63189 262.84 6.83749 263.444 6.82701C263.733 6.82163 263.544 6.19424 263.594 6.18242C265.535 5.81769 266.922 6.36917 269.006 6.59898C269.388 6.64235 270.479 5.77814 271.222 6.45106C272.038 7.18768 271.224 10.279 273.084 9.53179C273.835 9.23289 274.762 5.31169 276.127 7.3314C278.745 6.81192 281.176 7.83446 283.8 7.09986C283.918 7.0673 284.285 5.97223 284.563 5.98532C284.976 6.00685 285.205 6.51609 285.5 6.54784C286.736 6.69373 287.862 6.24953 289.053 6.30984C289.505 6.33163 289.351 6.8607 289.89 6.88674C290.428 6.9123 290.783 6.21465 291.515 6.54578C292.068 6.79822 292.629 8.21594 293.361 8.3769C293.38 6.97479 293.883 7.00044 294.774 6.62462C294.945 6.55171 294.758 6.06495 294.839 6.0053C295.167 5.75168 295.476 6.15411 295.788 5.87834C295.864 5.8121 295.864 5.33331 295.926 5.25213C296.453 4.54365 297.334 5.61496 297.485 5.8015C298.065 6.50993 298.33 5.88551 298.774 6.1631C299.216 6.44066 298.559 6.79541 299.075 6.96226C300.145 7.30734 301.516 7.2212 302.6 7.23623C303.032 7.23927 302.733 6.60209 302.795 6.58769C303.688 6.41984 304.597 7.09383 305.084 5.81764C305.726 9.10515 305.622 5.49491 306.904 6.1456C307.005 6.19825 307.143 7.75395 306.758 7.98495C306.373 8.21573 305.784 7.73296 305.25 8.09262C305.123 8.17703 304.405 9.64027 304.306 9.72926C303.533 10.4248 303.408 8.09947 303.366 7.97198C302.891 6.59627 302.012 8.17332 301.778 8.2834C300.71 8.78779 299.798 8.46653 298.905 8.8274C298.32 9.06068 298.273 10.5847 297.812 10.541C296.282 10.3967 295.734 8.27465 294.305 10.1268C293.999 10.5219 294.316 12.1852 293.201 10.8829C293.13 10.8008 292.301 9.60812 291.831 10.3689C291.772 10.4648 291.777 10.9501 291.698 10.9914C291.173 11.2585 290.818 10.8741 290.245 11.063C289.672 11.2519 288.983 11.5324 288.326 11.372C287.931 11.2761 287.418 10.3751 287.227 10.155C286.689 9.52067 286.123 10.57 285.787 9.79984C285.448 9.02585 286.093 7.84297 285.215 7.34712C285.19 8.60823 285.124 9.9029 285.08 11.1713C283.162 11.1392 281.272 10.7436 279.349 10.8117C279.11 10.8214 279.359 11.4977 279.103 11.5256C278.025 11.6402 277.079 11.1631 275.961 11.3627C275.096 11.5198 274.151 12.2436 273.247 12.4303C272.684 10.991 271.343 11.4894 270.366 11.3639C270.024 11.3205 270.044 10.935 269.8 10.8109C268.88 10.3518 269.318 11.6241 269.068 11.8263C267.994 12.6896 267.883 9.8043 266.611 9.88379C266.544 9.88702 265.73 11.4306 265.617 11.5272C264.9 12.1565 265.494 10.9925 265.042 10.8817C264.217 10.6793 263.642 10.3156 262.678 10.7724C262.397 10.9077 261.727 11.8709 261.175 11.1328C261.102 11.0361 261.139 10.5274 261.08 10.498C260.028 10.0084 260.011 11.6062 259.415 12.1512C258.819 12.696 257.885 11.5991 257.695 11.2824C257.196 10.4633 258.07 10.9285 258.097 10.8477C258.404 9.88533 257.73 10.055 257.213 9.97718C257.128 8.41111 256.407 8.50979 256.677 9.90281C256.708 10.055 257.109 9.90628 257.213 9.97718C256.77 11.5171 255.978 11.719 255.092 10.2884C254.678 9.61783 255.061 8.83045 253.817 9.1256C253.252 9.25885 253.478 10.3361 252.98 10.6334C251.845 11.3117 250.357 10.315 249.183 10.4811C248.757 10.5414 249.176 11.1292 248.885 11.1907C248.112 11.3559 247.427 10.9173 246.652 11.1492C246.582 11.171 246.758 11.788 246.516 11.7974C244.685 11.881 243.088 11.4953 241.175 11.4967C240.251 11.4976 238.601 11.8491 237.644 11.7867C235.984 11.6822 233.938 10.7966 232.522 11.024C231.599 11.1697 231.805 11.7866 231.412 12.2104C230.653 13.0318 229.291 11.578 229.107 11.3527C229.102 11.3453 229.896 11.1944 229.47 10.8798C229.219 10.2201 229.116 11.3498 229.107 11.3527C228.987 11.2072 227.397 11.0771 227.082 11.1973C226.911 11.263 227.011 11.8481 226.922 11.8712C224.8 12.4091 222.673 12.5716 220.517 12.3116C220.478 12.3 220.531 11.6445 220.442 11.6254C219.193 11.3421 218.399 12.1487 217.373 12.6312C216.348 13.1134 215.531 12.9594 214.915 11.8386C214.139 11.9852 213.023 11.4951 212.38 11.1975C211.737 10.8999 211.656 12.1758 211.6 12.2014C209.846 13.0197 208.825 12.2962 207 12.1944C206.132 12.1437 204.413 12.3398 203.475 12.4853C202.733 12.6024 202.284 12.3064 201.601 12.5019C201.509 12.528 201.606 13.0953 201.578 13.1173C200.819 13.8016 201.177 12.4111 201.018 12.1642C200.441 11.2663 200.085 10.7884 199.11 11.2188C198.885 11.3174 198.241 13.3203 197.831 13.4399C197.298 13.5916 197.495 12.8739 196.936 13.051C196.889 13.0655 196.901 13.5074 196.556 13.4902C194.953 13.4158 193.203 13.1699 191.538 13.2249C191.311 13.2307 191.607 13.9299 191.278 13.9498C189.736 14.0429 188.045 14.0278 186.54 13.7093C186.17 13.6287 186.399 13.1364 186.318 12.9911C185.819 12.1124 185.128 13.3983 185.013 13.4234C182.265 14.0569 180.152 12.9108 177.351 13.4809C177.199 13.5143 176.033 14.8955 175.501 13.7208C175.464 13.6427 174.938 12.4407 174.485 13.2677C174.457 13.3195 174.784 13.9379 174.219 13.8783C173.655 13.8188 172.75 14.239 171.97 13.5622C171.723 13.349 171.136 12.1505 170.41 13.1136C170.362 13.1808 169.246 15.3551 168.833 13.8626C168.766 13.6169 168.824 12.0342 167.956 12.851C167.79 13.0094 168.095 13.3604 167.657 13.5836C166.985 13.9275 166.089 13.5095 165.265 14.2197C165.122 14.3454 164.513 15.4233 164.015 14.6113C163.937 14.4842 164.08 13.955 163.819 13.8975C162.579 13.6219 161.284 13.9836 160.023 13.6262C159.577 13.5007 159.799 12.6453 159.333 12.4194C158.867 12.1936 157.93 11.9796 157.447 12.3729C156.963 12.7665 157.503 14.1241 156.775 14.2377C153.612 14.731 150.471 13.9528 147.309 13.8563C146.84 13.8419 147.232 14.3264 146.541 14.3401C143.993 14.3927 139.598 14.8776 137.381 13.857C135.604 13.0395 137.829 12.3942 136.474 12.0656C135.819 11.9089 135.123 13.4958 134.966 13.5466C133.429 14.0625 132.354 13.3685 130.969 13.5924C130.683 13.6389 130.968 14.2784 130.724 14.3109C129.893 14.4275 129.016 14.1468 128.221 14.2043C127.865 14.2316 127.934 14.7209 127.605 14.6853C126.819 14.6055 126.123 14.4041 125.355 13.9499C125.285 13.9085 125.751 13.2962 125.17 13.2772C124.229 13.2483 123.059 12.803 121.98 13.2776C121.66 13.4204 121.654 14.5399 120.959 13.7713C120.813 13.6107 120.989 12.2653 120.193 13.4319C120.059 13.6258 118.718 15.2011 118.049 14.1956C117.872 13.9309 117.419 12.8338 117.034 13.0091C116.982 13.037 117.196 13.637 116.876 13.6977C115.75 13.9012 114.568 13.8447 113.41 14.0404C113.101 14.0939 113.566 14.7132 113.105 14.773C111.839 14.9384 110.255 14.7902 109.013 14.6034C108.556 14.5333 108.869 14.0159 108.835 13.96C108.294 13.0511 107.986 14.2846 107.809 14.3575C106.708 14.7946 105.863 14.2215 104.847 14.3812C104.566 14.4237 104.769 15.0096 104.713 15.0623C104.137 15.5776 104.562 14.5203 104.194 14.4064C103.164 14.0839 102.018 14.1385 100.979 14.2202C100.597 14.2511 101.031 14.9291 100.688 14.949C98.6605 15.0794 96.5513 15.0278 94.5692 14.6652C94.196 14.5956 94.4271 14.0699 94.3487 13.9506C93.8079 13.1163 93.0305 14.2641 92.8506 14.3741C92.0327 14.8764 91.7109 14.4148 90.9864 14.506C87.4472 14.9596 83.0719 14.6807 79.7273 14.5125C75.3689 14.2964 71.985 13.8193 67.8311 13.9756C67.5671 13.9849 67.8378 14.6806 67.6103 14.6975C64.6726 14.8846 61.7776 14.6306 58.8342 14.851C58.5926 14.8679 58.9452 15.5268 58.5577 15.5761C57.7628 15.6818 56.7548 15.6523 55.9491 15.4464C55.5561 15.3472 56.0787 14.7764 55.6832 14.6882C54.7623 14.4814 53.7763 14.4406 52.8325 14.5527C52.4309 14.6018 53.0416 15.2741 52.5193 15.2853C48.9609 15.3753 45.4666 15.5142 41.8647 14.6617C41.6178 14.6031 41.3926 13.2302 40.8702 13.4971C40.8331 13.8788 40.8381 14.3274 40.8235 14.7352C35.6443 14.9881 30.5135 14.5447 25.3179 14.5044C25.0988 14.5029 25.4821 15.2286 25.058 15.2294C22.6035 15.2344 20.2214 15.4514 17.7062 14.7438C17.4566 14.6746 17.5762 13.3927 16.8433 13.5912C16.7141 13.6274 15.6096 13.8053 15.3255 14.0853C15.287 14.1275 15.4925 14.7241 15.1364 14.7438C13.0666 14.848 10.8961 14.7254 8.82696 14.3733C8.49301 14.3154 8.84414 13.6763 8.60625 13.6295C6.91882 13.3023 5.08884 13.7982 3.47478 13.2304C2.39437 12.848 2.78636 11.7447 2.20661 10.6649C2.12461 10.5126 1.45698 10.4927 1.41841 9.86249C1.3196 8.27789 1.63174 6.54006 1.48821 4.85127C1.45785 4.48752 0.566446 4.88525 1.09005 4.00238C1.12664 3.94328 1.77286 3.64723 1.93057 3.34785C2.04038 3.14087 1.83599 2.50105 2.06104 2.23554C2.28608 1.97029 2.53869 2.50609 2.91262 2.19345C3.28636 1.87696 3.11645 1.14869 3.86632 1.05753ZM209.486 9.86754C208.889 9.2589 208.816 11.5026 209.454 10.9618C209.485 10.933 209.517 9.89739 209.486 9.86754ZM281.272 9.05157C280.49 8.06717 279.969 9.52538 280.521 10.286C281.073 11.0458 281.511 9.34998 281.272 9.05157ZM289.311 8.27751C288.4 7.50325 288.277 10.6851 289.244 10.0358C289.301 9.99909 289.365 8.32247 289.311 8.27751ZM4.86091 10.3393C4.85253 10.3096 4.37254 10.2836 4.36126 10.3132C4.11035 11.0273 5.07014 11.0787 4.86091 10.3393ZM297.288 7.43976C297.002 7.0113 296.191 7.51325 296.546 8.04605C296.832 8.47467 297.644 7.97275 297.288 7.43976ZM178.519 7.67253C178.51 7.63917 178.166 7.61128 178.174 7.80019C178.201 8.4086 178.679 8.23377 178.519 7.67253ZM310.854 7.3159C308.849 7.20906 307.617 4.5893 309.802 4.87176C310.197 4.92286 308.955 5.71515 309.46 5.94881C310.383 6.37446 310.984 4.72074 311.929 5.59875C312.1 5.75947 310.969 7.32783 310.851 7.31958C310.852 7.31836 310.853 7.31713 310.854 7.3159ZM209.127 7.1754C209.115 7.14582 208.639 7.12075 208.627 7.15023C208.374 7.86403 209.334 7.91494 209.127 7.1754ZM158.438 6.41463C158.412 6.35159 157.306 6.29958 157.27 6.35805C156.701 7.5263 158.936 7.6349 158.438 6.41463ZM241.187 5.32766C241.702 4.6079 242.323 4.51955 242.743 5.41653C242.226 5.3721 241.706 5.3684 241.187 5.32766Z" fill="url(#paint0_linear_939_1293)"/>
<defs>
<linearGradient id="paint0_linear_939_1293" x1="1.00322" y1="16.5" x2="312.003" y2="14.5" gradientUnits="userSpaceOnUse">
<stop offset="0.1" stop-color="#822FFF"/>
<stop offset="0.9" stop-color="#FF35C4"/>
</linearGradient>
</defs>
</svg>
