<svg width="281" height="77" viewBox="0 0 281 77" fill="none" xmlns="http://www.w3.org/2000/svg">
<path opacity="0.7" d="M22.0606 75.6668C22.2328 75.5698 22.9321 75.7937 23.2333 75.7503C22.9022 76.76 21.4394 76.0189 22.0606 75.6668ZM52.2212 2.28214C51.9736 2.53353 51.726 2.78493 51.4783 3.03632C52.1914 3.19031 53.1455 2.99751 53.8081 3.22653C53.9164 3.26502 53.6441 3.98813 53.8999 4.01755C54.1558 4.04677 54.0959 3.06319 54.4664 2.95395C54.882 2.8344 56.798 3.49954 57.4588 3.47583C59.9302 3.38291 62.4176 2.79419 64.8991 3.17637C62.3496 3.93183 64.9345 4.64523 65.6474 4.32202C65.8053 4.24727 65.7604 2.41801 68.3311 2.85118C69.9648 3.12604 68.4868 5.75773 71.1937 4.41825C69.0817 2.6109 71.1407 2.71709 72.7801 2.6387C73.0628 2.62489 75.3493 2.87534 76.3571 2.78349C76.7019 2.75162 77.2175 1.78767 77.675 1.75762C77.9899 1.73766 78.2338 2.25901 78.7013 2.22732C80.8808 2.08587 83.0251 2.02215 85.2116 2.17588C83.9614 4.65219 86.225 3.21468 86.3286 3.33132C86.8562 3.99437 84.5043 4.20991 85.4397 4.61813C86.7399 4.5279 88.04 4.43767 89.3402 4.34743C88.2692 4.05651 90.7315 2.25852 91.1969 3.05942C90.9725 0.885503 97.1466 4.88985 98.072 4.15316C98.2647 3.99758 96.9809 2.93573 99.9376 3.3961C100.258 3.44734 100.144 4.10519 100.311 4.04219C100.411 4.00431 100.996 1.91106 101.656 3.05723C101.897 3.47556 100.399 4.8623 103.715 4.27583C102.369 2.16611 108.308 3.07626 109.404 3.59683C109.183 3.31383 108.962 3.03083 108.742 2.74783C109.828 3.50601 110.015 2.78181 110.258 2.81856C111.239 2.96614 112.592 3.67945 113.503 3.60327C114.569 3.51543 114.559 2.19453 115.808 2.695C115.51 2.40673 115.212 2.11845 114.914 1.83018C115.773 1.89116 116.633 1.95215 117.493 2.01313C115.522 3.7829 117.923 2.09195 118.082 2.0526C118.336 1.98624 117.978 2.70596 118.402 2.61227C118.446 2.59713 118.375 1.92374 119.03 1.84101C120.397 1.67048 120.189 2.52031 120.764 2.50456C120.817 2.49963 120.626 1.89434 121.617 1.74005C124.767 1.2489 121.606 2.20558 121.486 2.29081C121.328 2.40323 122.437 4.92941 119.748 4.05827C120.651 4.33509 120.753 5.45712 120.855 5.48392C120.945 5.50587 122.502 5.33098 122.588 5.29139C123.35 4.90183 122.667 4.14163 122.815 4.00251C122.936 3.89033 124.825 4.87031 125.241 2.55732C126.162 4.6768 124.744 4.49691 123.241 4.84032C123.026 5.27957 124.685 5.68668 124.772 5.68458C126.907 5.65783 125.706 3.91917 126.161 2.79468C126.4 2.2063 127.282 3.39179 126.462 1.83005C128.398 1.64353 127.233 2.5661 127.359 2.69943C127.55 2.89526 128.223 2.43793 128.309 2.49697C128.434 2.58439 128.007 3.13273 128.5 3.31898C128.582 3.34595 129.364 2.40186 128.339 1.9656C129.703 2.084 129.582 1.28741 130.062 2.89022C130.968 -0.161528 130.762 4.68084 131.134 4.84731C132.122 5.28603 131.811 2.90096 131.862 2.78395C132.212 2.03384 134.942 2.82505 135.612 2.47366C135.365 4.19658 133.455 2.51556 133.036 2.85378C131.637 3.97907 135.032 3.69246 134.031 5.86464C134.454 5.26648 134.877 4.66833 135.3 4.07017C136.103 5.45131 134.992 6.0692 137.105 5.53871C137.439 4.33561 135.609 5.74419 135.969 4.7955C136.182 4.2387 137.409 4.10645 137.43 3.81388C137.45 3.46174 136.344 3.89066 136.514 3.34757C136.883 2.17555 140.945 3.24403 137.869 3.91447C138.729 3.88529 139.197 6.20358 139.934 5.47177C140.412 4.99678 137.664 1.81749 141.741 2.36222C141.839 3.45824 140.117 2.70358 140.073 2.78753C140.012 2.90972 140.349 5.38176 140.404 5.50337C140.598 5.9036 144.74 4.53357 145.631 5.76782C145.268 4.34088 148.769 5.47888 149.144 5.03889C149.244 4.91746 148.857 4.04516 148.964 3.95125C149.633 3.39195 151.474 4.93677 152.321 4.96824C153.268 5.00402 153.14 4.24843 153.193 4.24929C153.61 4.28704 153.283 4.80372 153.538 4.79955C153.923 4.79296 156.569 4.86956 156.7 4.76108C156.739 4.7273 156.298 3.86731 156.873 3.69712C156.972 3.66763 156.92 4.69341 158.623 4.23231C160.674 3.67771 157.181 2.97284 158.024 1.89018C159.362 3.40453 159.302 1.8903 159.662 2.00539C159.786 2.04739 160.723 3.32532 161.725 3.23311C161.008 3.44986 160.29 3.66661 159.573 3.88336C160.283 4.10159 161.654 3.80737 162.239 4.05623C162.525 4.17736 162.302 5.23781 162.919 5.20262C163.05 5.18939 163.542 2.60634 161.937 3.7802C161.798 2.86125 162.574 3.45232 162.928 3.18816C162.982 3.14702 163.179 1.60721 163.645 2.55787C163.757 2.79179 162.613 7.28966 165.653 4.0105C165.751 3.90481 165.4 3.3468 165.496 3.22933C165.561 3.14976 166.349 3.36856 166.434 3.28794C166.522 3.20149 166.137 2.59233 166.241 2.47054C166.776 1.84298 167.512 4.26747 166.394 4.09412C166.77 4.39071 167.147 4.68731 167.523 4.9839C167.104 3.15518 168.103 4.46189 168.619 4.3999C171.924 4.00367 169.696 2.83525 170.258 2.21233C171.162 1.21216 170.497 4.35646 171.845 3.39936C171.97 3.30989 170.314 1.99596 173.528 2.71293C173.055 2.76988 172.583 2.82683 172.11 2.88378C172.402 4.65377 173.817 2.74386 173.927 2.71781C175.184 2.46089 174.339 3.10914 176.199 2.17615C176.365 2.09239 176.733 2.52604 177.088 2.30396C178.558 1.38893 175.13 1.77925 175.028 1.06249C174.98 0.711261 178.672 0.760282 178.801 0.925927C179.347 1.66044 177.131 1.26991 177.562 2.18443C177.72 2.50911 182.974 1.78251 184.033 2.12883C185.255 2.53195 185.83 4.92982 185.808 2.22884C186.181 4.87632 186.465 3.06423 186.621 3.08082C188.507 3.30605 188.511 3.33277 190.123 3.0616C190.479 3.0026 190.789 3.80377 190.914 3.66659C190.987 3.58377 190.84 2.7244 191.197 2.45495C191.693 2.08624 194.705 2.93947 194.933 3.41294C195.161 3.88641 193.667 3.63289 193.943 4.41241C195.023 4.47993 196.056 4.27526 197.144 4.34607C197.595 4.37783 197.369 4.92791 197.565 4.93671C197.648 4.94255 199.201 4.44364 199.133 4.24235C198.973 3.77432 194.164 4.14161 195.421 3.16965C195.663 2.98185 196.541 4.23448 196.387 2.70149C200.69 3.00332 204.994 3.30515 209.297 3.60698C206.839 4.78115 204.048 3.7845 201.461 3.91983C201.107 3.93692 199.906 3.80176 200.06 4.57577C202.263 4.75298 204.994 4.31958 207.112 4.80237C207.18 4.81837 206.939 5.51784 207.194 5.62555C207.669 5.82658 209.199 4.68623 209.461 4.97406C209.506 5.04129 208.639 5.9693 208.912 6.55023C209.612 8.04103 209.751 4.72105 210.34 4.75405C210.795 4.78099 213.872 6.35257 214.623 5.33078C215.422 4.24169 212.362 4.7277 212.579 3.84192C214.643 2.93197 216.753 3.85744 218.711 3.72585C218.746 3.72266 218.439 3.03364 218.875 2.9321C219.634 2.75539 219.844 3.73516 220.216 3.88828C220.617 4.05121 222.028 3.89536 222.221 4.25135C222.245 4.29804 221.97 5.27504 221.927 5.30289C221.316 5.71088 221.084 4.44915 221.027 4.43353C220.817 4.38785 220.615 4.87424 220.423 4.84745C220.107 4.80275 219.928 4.35668 219.51 4.3216C219.222 4.29573 219.509 5.15296 219.232 5.11659C219.13 5.09976 218.011 3.14733 217.93 5.15343C217.905 5.78594 226.892 6.50157 227.784 5.98636C227.011 5.75352 226.239 5.52069 225.467 5.28785C227.036 5.85795 228.897 4.23581 229.055 6.60451C234.854 6.73619 240.652 6.86786 246.451 6.99954C247.488 7.19037 246.937 8.71952 248.635 8.258C248.19 7.77749 247.745 7.29699 247.3 6.81648C248.176 7.14752 252.051 7.77108 252.673 7.4502C252.754 7.40815 252.852 6.02849 253.817 5.89971C254.673 5.78595 254.822 6.81728 255.282 7.01021C255.669 7.16932 256.098 6.89409 256.213 6.94988C256.302 6.99459 256.343 7.62578 256.555 7.73365C257.225 8.06701 256.666 6.29456 257.349 8.32945C257.189 8.40899 257.028 8.48854 256.868 8.56808C257.675 8.85501 258.783 9.77028 257.604 10.2403C257.402 10.3215 257.57 9.70861 257.418 9.71129C251.475 9.88851 256.234 11.0254 258.307 10.0543C258.852 10.9539 261.844 10.369 261.946 10.5463C262.087 10.8033 261.582 11.5323 262.261 12.1499C262.404 12.2806 266.407 11.7307 264.976 12.9494C264.681 13.2008 262.756 12.9606 262.293 13.001C263.404 14.9082 265.93 12.1317 266.218 12.199C267.38 12.4857 264.009 13.8859 266.623 14.0809C268.633 14.2304 266.734 12.9694 267.5 12.4142C267.931 12.1027 270.218 13.4898 270.137 11.6626C270.915 11.4591 270.469 12.4318 270.566 12.5004C270.661 12.5606 272.188 11.997 272.69 12.3769C272.751 12.4242 272.571 13.3763 272.635 13.4533C272.757 13.5851 274.234 13.3794 274.293 13.2982C274.33 13.2419 273.969 12.4139 274.111 12.2106C274.278 11.9762 275.703 12.1567 275.779 11.918C275.886 11.5574 274.132 11.813 274.414 10.8797C275.227 11.1052 276.54 10.4705 277.066 9.71594C276.937 9.93145 276.153 9.9706 275.879 9.89805C275.993 8.53436 277.679 8.53486 277.114 9.61928C277.474 9.03629 277.221 8.73176 277.422 8.18305C277.474 8.04404 277.994 8.00995 278.092 7.773C278.105 7.72586 277.562 7.21762 277.667 6.93977C277.856 6.43768 279.436 6.53325 279.566 6.66304C279.934 7.03088 278.652 7.49447 278.551 8.07024C278.536 8.15865 279.643 9.27298 279.66 9.37226C279.736 10.4386 278.51 9.68268 278.659 10.642C278.963 10.8417 279.266 11.0414 279.569 11.2411C278.418 12.2264 276.263 11.7492 275.721 12.8618C277.44 12.514 279.243 12.5336 279.266 15.0258C279.276 16.0754 278.539 16.6987 278.571 16.9652C278.691 17.9189 279.711 16.8705 279.75 16.9205C279.782 16.9784 279.797 17.0349 279.797 17.09C279.797 17.0901 279.797 17.0901 279.797 17.0901C279.803 17.6492 278.337 18.0675 278.266 18.3236C278.147 18.7784 278.822 20.6379 278.825 21.0507C278.803 21.1339 277.761 21.5868 278.122 22.3035C278.487 23.0274 279.404 23.0336 279.437 23.1089C279.617 23.5423 278.018 23.9565 277.973 24.2141C277.949 24.3444 278.818 25.1337 278.846 25.363C278.87 25.5932 278.221 26.1029 277.971 26.8328C277.784 27.3751 278.348 27.7833 278.251 27.869C278.181 27.9259 276.666 27.933 276.593 28.0287C276.483 28.1704 276.845 28.8122 276.795 28.9742C276.724 29.2072 276.232 28.9794 276.299 29.2176C276.349 29.3951 278.269 31.6005 278.263 32.1952C278.252 33.2094 276.219 30.8978 278.131 34.8794C278.144 34.9055 278.596 34.6162 278.609 34.6408C278.897 35.374 277.451 36.5221 279.232 36.3051C275.929 37.6193 278.836 37.8338 278.363 39.5465C278.181 40.2048 276.898 40.4892 276.893 40.5877C277.027 41.419 277.429 40.7689 277.573 41.1756C277.652 41.4029 276.511 42.2955 276.776 42.8643C276.913 43.1574 278.133 43.0395 278.184 43.0964C278.674 43.6332 278.087 44.2233 278.197 44.607C278.271 44.8644 279.008 44.8769 279.028 44.9232C279.06 45.0195 278.07 46.073 277.866 46.4418C277.71 46.7256 278.31 47.161 278.2 47.2852C277.542 48.0276 276.105 46.1676 277.499 48.7806C277.584 48.9408 278.1 48.8702 278.115 48.9022C278.442 49.6436 277.492 49.7182 277.328 50.3298C277.047 51.3837 278.408 50.7832 277.279 51.5344C278.14 52.2124 278.615 52.1786 279.611 51.9763C276.853 52.5403 275.906 55.2709 278.974 55.1695C277.998 55.1376 278.122 56.6716 277.831 56.7017C277.65 56.7186 276.219 55.2074 276.904 58.6252C276.99 59.0522 277.844 58.4994 277.584 59.3779C275.519 59.1766 277.547 59.9355 277.55 60.0512C277.545 62.0689 272.486 60.4706 271.622 60.7099C270.62 60.9875 269.743 62.5867 269.525 62.5911C268.806 62.5995 269.394 61.7859 269.23 61.4909C269.064 61.1986 267.036 62.7668 266.933 62.6829C266.533 62.3461 266.925 61.3854 266.883 61.3375C266.387 60.7567 263.649 61.535 262.878 61.3209C262.909 61.9411 264.453 61.9738 263.5 62.9807C262.39 64.1545 262.297 61.4201 262.266 61.3C257.126 61.381 251.986 61.462 246.845 61.5431C246.925 62.9975 250.274 61.8641 250.353 62.0548C250.814 63.1844 245.136 63.2243 244.434 62.718C244.967 63.0266 245.499 63.3353 246.032 63.644C245.146 65.3266 243.123 63.1745 241.825 63.9271C241.405 64.1711 242.223 64.8081 242.206 64.8523C241.739 65.5072 240.972 65.0148 241.532 64.1362C240.383 64.9845 240.542 64.0604 239.653 64.0007C239.607 63.9983 239.996 64.6693 239.295 64.9568C238.967 65.0909 237.21 65.1119 236.981 65.7049C236.887 65.9546 237.806 68.5631 237.892 66.3086C239.815 67.3865 238.492 65.2753 239.235 65.3191C239.349 65.3297 239.101 66.5902 240.964 65.9781C240.632 68.25 238.461 66.5771 238.095 66.8558C237.34 67.4287 240.489 68.5663 241.046 66.7922C240.796 68.565 241.271 67.0283 241.971 67.0935C242.737 67.1643 242.409 67.6949 242.823 67.6933C243.956 67.6943 243.473 66.45 244.419 67.5663C243.471 64.0893 246.012 67.0891 246.753 67.9945C245.566 68.1843 244.378 68.374 243.19 68.5638C243.26 68.7462 243.33 68.9285 243.4 69.1109C243.087 69.0883 242.773 69.0657 242.46 69.0431C242.508 68.8671 242.556 68.6911 242.604 68.5151C241.001 69.6733 240.593 68.3953 240.461 68.3824C238.764 68.2519 236.805 68.2839 235.09 68.2981C234.833 68.3002 235.022 69.4395 233.137 68.5662C232.536 68.2881 233.091 67.3942 232.415 67.5347C231.593 69.9563 231.588 68.0319 231.336 68.0315C230.612 68.0396 230.176 68.642 230.11 68.649C229.217 68.7518 227.906 68.6661 226.925 68.7655C226.907 68.7748 227.426 69.5105 226.786 69.2981C226.561 69.2222 224.518 66.0797 222.773 67.1299C223.232 67.3386 223.691 67.5473 224.15 67.756C223.61 67.4633 219.854 68.301 220.784 69.138C221.353 69.6496 222.709 67.5955 222.881 69.5551C221.622 68.9815 214.714 69.9335 214.171 69.4836C214.096 69.4194 214.547 68.7781 214.443 68.6978C214.363 68.6367 212.78 68.8044 212.567 68.5623C212.44 68.4184 213.136 68.0209 213.077 67.7923C213.025 67.6293 211.044 67.3781 210.939 68.1768C211.422 67.8515 212.791 68.1164 212.081 68.7964C211.99 68.8808 211.507 68.3715 211.397 68.4787C210.368 69.467 213.469 69.1992 213.95 69.2021C212.011 70.2391 208.983 69.0736 206.731 69.7601C205.811 69.1061 208.074 68.7301 207.035 68.1912C204.88 67.0741 206.475 69.1153 206.409 69.2005C205.884 69.8759 204.033 66.306 204.062 69.038C203.28 68.635 203.528 68.2879 202.436 68.6571C202.582 68.8447 202.728 69.0324 202.875 69.2201C201.675 70.8156 199.056 66.8508 199.246 66.5441C199.756 65.7235 201.111 66.9805 201.225 66.9487C201.395 66.9016 201.834 64.1244 203.716 66.5832C204.456 64.7158 200.761 65.3598 202.432 64.0745C201.297 64.2946 196.604 63.0506 195.939 63.8739C195.86 63.9813 196.254 65.8299 195.088 64.8994C194.534 64.4563 195.857 64.4205 195.602 64.0012C194.815 62.7142 184.315 63.6553 182.32 63.7452C182.19 63.7486 182.231 63.1732 182.104 63.1798C181.713 63.2 180.297 64.0727 179.594 63.8156C181.056 64.8643 178.24 64.9772 177.522 64.8678C176.433 64.7012 176.489 63.6886 176.017 63.4785C174.198 62.6685 171.418 65.1008 169.987 62.8701C170.088 65.0982 167.542 61.8034 166.4 61.7961C165.505 61.7897 164.224 63.2786 165.441 64.1641C163.895 64.078 162.275 64.5112 160.828 64.6621C160.589 64.6874 160.911 64.0248 160.503 64.0888C160.466 64.0994 160.422 64.7458 160.072 64.8167C157.183 65.4108 158.577 64.0231 158.031 63.6254C157.725 63.4027 157.5 63.2928 157.336 63.2575C159.022 63.1131 160.966 62.8386 161.486 62.8147C161.027 61.3932 157.749 63.1287 156.779 62.7553C156.745 62.7417 156.854 61.9543 156.82 61.9491C156.819 61.9491 156.818 61.9491 156.817 61.9491C156.455 61.8928 154.154 62.2076 154.638 63.1399C154.768 63.3889 155.829 63.3771 157.086 63.2785C156.747 63.4579 157.011 64.3359 156.951 64.3741C156.227 64.8172 154.433 63.9768 153.799 63.8676C153.654 63.8437 153.67 64.4079 153.647 64.4095C153.069 64.2875 153.288 62.6739 152.715 64.3416C151.651 62.345 154.667 64.0226 154.441 62.7208C154.268 61.7186 147.617 62.3291 147.654 63.9106C147.629 63.7417 147.535 63.5327 147.345 63.2958C146.923 62.7695 145.072 62.9555 144.755 63.2503C144.702 63.3083 144.74 64.8432 144.673 64.8581C144.506 64.8952 142.228 63.7158 141.392 64.6323C141.851 64.8426 142.31 65.0528 142.769 65.2631C140.011 65.306 140.442 65.7583 141.366 66.2075C141.412 66.2111 141.457 66.2689 141.501 66.2747C142.217 66.6065 143.134 66.9235 143.149 67.0445C143.207 67.506 138.529 67.8133 139.414 66.3795C139.538 66.1835 141.71 66.7944 140.627 65.7896C140.437 65.6136 139.05 65.9186 138.975 65.8073C138.479 65.0678 141.505 64.0459 141.122 62.9917C140.396 64.0071 139.444 63.4866 138.602 63.7558C138.219 63.8775 138.132 64.6482 138.085 64.6632C137.378 64.8717 137.767 64.0605 137.531 64.0831C137.404 64.0984 136.025 65.8309 136.264 63.4604C131.678 65.2515 135.009 65.214 137.832 65.0505C136.948 65.9224 135.194 65.524 134.411 65.7326C134.13 65.8083 134.306 66.5966 133.831 66.7597C132.855 67.0953 128.169 66.2378 126.948 66.0369C127.694 65.7497 127.466 64.8915 126.889 64.9571C126.312 65.0232 126.809 66.1667 126.698 66.2914C126.579 66.4205 123.863 65.9074 123.414 66.061C125.449 65.6231 124.98 64.7698 123.248 64.6985C123.495 64.4487 123.743 64.1988 123.99 63.9489C122.979 64.3072 120.832 63.0209 120.249 63.4168C120.158 63.4804 120.496 64.1984 120.445 64.2341C119.934 64.5463 118.175 63.8291 118.096 64.0762C118.029 64.2819 118.783 64.8789 118.509 65.1797C118.451 65.243 117.721 64.2753 117.015 64.5227C116.752 64.6137 116.918 65.2945 116.852 65.3347C116.304 65.6689 116.617 64.5162 115.61 64.7117C114.872 64.8563 114.333 65.9857 113.307 65.6245C116.678 67.0208 113.851 66.4528 112.452 66.9018C112.228 66.9735 112.434 68.2103 111.084 67.6215C113.919 65.3507 110.256 66.4462 109.504 66.4298C109.463 66.4226 109.44 65.6058 109.071 65.5967C109.04 65.5977 109.09 66.1494 108.748 66.1953C105.503 66.6292 107.574 65.9833 106.951 65.4454C106.686 65.2162 105.114 66.0139 104.688 66.0373C104.59 66.0403 104.629 65.4661 104.251 65.4927C103.582 65.541 102.988 66.1582 102.546 66.2114C102.495 66.2147 102.483 65.3095 101.648 65.6121C101.413 65.6967 101.152 66.0209 101.489 66.2776C102.609 67.1217 104.698 65.6177 105.962 66.4586C107.114 67.2244 103.508 67.3365 103.32 67.343C103.251 67.3466 103.951 66.8896 103.234 66.8083C102.622 66.7408 101.522 68.3162 100.607 67.9855C100.537 67.961 99.7955 66.6432 99.8282 66.5655C99.858 66.5087 100.973 66.209 100.806 65.8271C100.786 65.7836 100.076 65.8001 99.9804 65.5155C99.8631 65.1691 99.5204 61.7604 99.3677 61.6765C98.9762 61.4693 99.2379 62.2448 98.9855 62.1933C98.4443 62.085 96.5606 61.0961 96.5124 62.2794C96.8225 62.3462 97.1327 62.4131 97.4428 62.48C95.7227 62.62 96.4619 63.1156 96.2204 63.34C95.9603 63.5828 96.023 62.5425 95.4417 62.4511C95.3152 62.4309 92.8896 62.6739 92.9384 63.1097C94.2737 62.4011 93.7896 63.691 93.8518 63.7133C94.0879 63.7945 94.3807 63.0707 94.6964 63.0817C96.9175 63.1707 94.691 64.332 95.2182 64.6189C95.3996 64.7154 95.7524 64.0964 95.8293 64.1271C96.0791 64.2263 96.0918 65.0318 96.257 64.9648C96.6425 64.8095 96.1783 63.6745 96.2084 63.6148C96.5467 62.8978 97.9119 63.7708 97.0812 65.0201C97.5926 65.4616 97.6359 63.9537 98.044 64.552C98.8555 65.7367 97.6557 65.443 97.3336 65.6446C96.1783 66.3718 95.8271 65.7969 94.183 66.0126C93.5909 66.0888 92.8965 66.8285 92.6219 66.8716C92.4489 66.8988 90.7856 64.3687 90.7802 68.3564C90.14 67.9774 89.1141 65.3607 88.4602 65.4879C87.8731 65.6038 88.0753 67.0123 88.021 67.0674C87.9378 67.1541 87.2252 67.0506 86.9868 67.2525C86.7074 67.491 86.8539 68.0279 86.4089 68.2521C85.3015 68.8086 85.3153 67.3685 85.1998 67.2762C83.8599 66.2089 84.4635 68.2506 84.1705 68.418C83.8981 68.5719 80.0447 67.8249 79.241 68.3518C79.5672 68.0599 79.8935 67.768 80.2197 67.4761C79.6207 66.5843 79.0116 68.0558 78.9834 66.4455C78.8916 69.0468 77.6565 67.3219 77.2918 67.393C77.1481 67.4222 77.1642 67.8651 76.9841 67.8861C76.2808 67.9714 74.6896 67.6357 74.3101 67.8644C72.6688 68.8493 76.9094 70.413 77.2429 70.5066C76.5771 70.485 72.8179 71.1077 74.5621 72.3391C74.8317 72.5291 75.2933 71.3605 75.4431 71.3133C76.4569 71.0028 75.6682 72.0541 75.749 72.1524C75.8863 72.311 76.5449 71.2959 76.7228 71.414C76.7822 71.4519 76.4128 72.4001 77.383 72.4096C76.9157 73.33 74.1814 72.6135 73.826 72.8322C73.6994 72.9104 74.519 74.8576 72.1654 72.9828C72.1944 73.1641 72.2234 73.3454 72.2524 73.5267C70.9541 73.6153 69.6557 73.704 68.3573 73.7927C68.494 73.3729 69.2144 72.5248 68.2976 72.7129C67.7698 72.8218 68.1711 73.7494 68.1232 73.7769C67.6513 74.0385 59.2468 73.8184 57.6198 73.9398C57.0664 73.9795 55.5307 74.7449 55.4131 74.76C54.71 74.8425 52.2123 74.3818 51.7162 74.4929C51.4065 74.5641 51.71 75.3398 51.4323 75.3063C51.1741 75.274 51.4331 74.5183 51.3562 74.4876C50.719 74.2216 45.9113 75.2607 44.7595 74.5629C45.4611 74.7685 48.9345 73.227 48.8587 72.6969C48.8427 72.6243 47.9885 72.0606 47.8165 72.3418C47.5205 71.6931 46.5494 73.6883 46.0055 73.3043C45.944 73.2607 46.1725 72.1449 45.2069 71.9532C44.8744 71.8877 44.0147 72.7647 43.1297 71.8014C41.8686 72.2824 35.1966 70.91 34.7527 72.1109C34.7399 72.1742 35.6816 72.576 35.0536 73.0737C34.2186 73.7352 34.9512 71.5293 33.9679 71.3502C33.8198 71.323 31.0922 71.5746 31.0042 71.7116C30.1906 72.9539 32.5815 73.4283 32.5496 73.5721C32.4703 73.934 30.4905 74.1737 30.4091 74.0894C30.3314 74.0017 31.9304 72.35 29.9946 72.9906C30.2192 73.1835 30.4438 73.3764 30.6684 73.5693C29.7589 73.9595 29.6598 72.8297 29.4377 72.763C28.7474 72.5517 28.0215 74.2772 26.8964 72.1677C26.5989 71.6078 27.0761 70.9775 27.0387 70.8934C26.6804 70.1394 26.2554 72.1712 25.7127 70.665C25.6719 70.5526 26.8875 69.6338 24.7458 69.6544C24.8948 69.7978 25.0437 69.9412 25.1927 70.0846C24.8941 70.4114 22.7278 70.627 22.4352 70.5536C21.5806 70.3391 22.3127 69.2906 21.4574 69.4241C22.0221 70.8443 19.4194 71.0583 19.556 69.8291C19.2087 71.3748 16.9833 70.2091 15.9428 70.1837C15.2862 70.1688 13.9547 70.8559 13.7454 70.7795C13.4903 70.6858 13.5562 69.6331 13.095 69.4039C12.9635 69.3385 11.6063 70.1242 10.396 69.0482C10.1615 68.8409 9.65455 67.062 10.0815 66.6115C10.8123 65.8405 12.2257 67.2629 12.1966 66.2088C12.1635 65.0813 10.2878 65.7722 9.77937 65.6304C7.43222 64.9748 8.77052 63.7614 8.70645 63.3987C8.54095 62.5184 7.26275 62.5595 7.20855 62.4808C6.98369 62.131 7.88217 61.4233 7.89008 60.8849C7.89908 60.1839 6.65319 58.9324 6.93082 58.6931C7.32826 58.3534 8.47209 59.3954 8.54336 59.3443C9.47078 58.6543 8.17222 57.049 7.81059 56.2573C7.70093 56.0138 8.12312 55.607 8.03361 55.5362C6.66718 54.4616 7.7724 57.8147 6.8689 57.5996C6.06279 57.408 7.0858 56.3329 7.05446 56.2746C7.01408 56.2105 6.0522 56.1628 5.89769 55.788C5.8215 55.6002 8.29778 53.5039 8.1835 52.5771C7.38852 52.7901 6.59354 53.0031 5.79856 53.2162C5.7231 52.0069 6.87924 52.8853 6.9965 52.7592C7.23257 52.5064 6.56028 51.9012 6.58475 51.5184C6.59748 51.2749 7.36952 50.3984 6.6598 50.0481C6.41588 49.927 5.91585 50.7808 5.02299 49.9237C8.08608 48.7839 5.94791 48.1266 5.85268 47.699C5.7593 47.2714 7.2165 46.247 5.43651 46.4445C5.33403 44.0907 5.46695 45.6998 5.96884 45.2805C6.58366 44.7652 5.1418 44.0052 7.4151 44.5692C7.27431 43.4682 5.45301 43.5657 5.3556 43.4788C5.27144 43.3999 5.67066 42.8534 5.52427 42.6712C3.79325 40.5594 4.97695 41.5195 4.46763 40.1646C4.42233 40.0435 2.80241 39.5565 4.02942 39.3452C6.26486 38.9611 7.21748 40.5132 7.55801 37.1695C5.88612 35.7365 3.90234 37.9137 3.39922 37.9557C2.62911 38.0165 3.42017 37.3269 3.32315 37.137C3.28951 37.0757 2.62599 37.1391 2.61649 37.0851C2.11564 34.5429 5.57254 37.0111 6.64771 36.5566C6.35416 36.1782 6.06062 35.7999 5.76707 35.4215C6.15962 35.4021 6.55216 35.3826 6.94471 35.3631C5.06562 34.6164 6.87564 35.0735 7.32005 33.006C7.41981 32.5414 6.19923 33.3494 7.58751 32.0463C6.55022 31.76 6.87555 31.3351 5.94541 31.9265C5.96072 31.0996 8.05749 30.1444 8.8839 29.7113C5.93839 28.8137 7.64492 31.8282 5.08995 30.251C4.63032 31.2797 5.8395 31.0674 5.74254 31.2374C5.39466 31.8488 4.55354 30.893 3.57401 33.0324C3.41455 33.3836 4.11666 34.452 3.09419 34.4109C2.98108 34.4048 2.32007 33.4924 2.32838 33.4257C2.40699 32.7048 3.05425 32.9677 3.07764 32.6669C3.09955 32.3821 2.38249 32.5609 2.37916 32.4821C2.34741 31.5803 2.97529 32.1309 2.88194 31.8495C2.68029 31.2374 0.0736265 29.3241 3.45452 29.8565C0.662313 30.9063 3.10631 30.8563 4.19373 30.4529C4.47105 30.3517 4.53579 29.8121 4.93044 29.6209C5.43809 29.3733 6.03806 29.6255 6.30103 29.5238C6.58382 29.4118 4.95674 28.1555 7.29432 28.5106C6.09315 27.2565 4.00988 28.6296 2.83377 27.7526C0.460883 25.9805 4.45143 25.5518 4.8657 25.3731C4.97607 25.3248 4.59658 24.6011 4.67 24.5558C4.79013 24.4861 7.06088 24.7981 7.27797 24.1936C7.49447 23.5897 6.44786 24.2302 6.37113 23.6036C6.31914 23.1818 9.04609 22.4033 7.56245 22.1304C6.53988 21.9435 4.67711 23.6613 4.34073 21.8399C5.83982 21.6728 7.33891 21.5056 8.83799 21.3385C8.00917 20.653 7.18035 19.9676 6.35153 19.2821C8.03355 19.0439 9.4981 19.8121 11.0872 18.801C7.2192 16.6176 12.3164 17.0123 12.3695 16.7409C12.3865 16.5788 10.854 14.7893 10.607 14.4616C11.9404 13.7526 16.0109 13.3695 13.6034 11.1653C14.0414 11.6641 15.0758 10.4102 15.061 10.3165C14.9174 9.33289 12.6391 9.99613 13.0023 9.10248C13.4231 8.06543 14.0433 9.45957 14.7065 9.3406C18.1098 8.72094 17.1193 3.58867 20.5467 4.36575C20.4768 4.18338 20.4068 4.001 20.3368 3.81863C24.0559 4.07025 27.775 4.32187 31.4941 4.5735C32.9312 2.98756 36.7903 1.98987 38.6926 2.14324C39.0757 2.17298 40.9633 2.97701 41.1066 3.11998C41.3721 3.39408 39.9296 3.5152 40.5876 4.02742C40.7264 4.13251 43.911 4.44473 43.6741 3.56859C43.3166 3.47054 42.2058 3.92412 42.021 3.71906C40.7228 2.25518 50.5416 3.33057 51.0211 2.72991C50.8008 2.4469 50.5806 2.16389 50.3603 1.88089C50.9806 2.01464 51.6009 2.14838 52.2212 2.28214ZM24.5429 73.1497C24.181 74.0352 23.2431 73.3831 22.6958 73.6364C21.9397 73.9911 20.6844 77.3996 21.2041 73.9912C22.317 73.7107 23.43 73.4302 24.5429 73.1497ZM40.865 74.2887C40.1117 73.8232 40.6717 71.9167 41.2934 72.7001C41.3624 72.7892 41.8842 74.9152 40.865 74.2887ZM33.0111 73.471C33.0423 73.4455 33.6895 73.4888 33.7124 73.5184C34.3004 74.2752 32.3493 74.1401 33.0111 73.471ZM70.8943 72.09C70.0707 72.1808 70.6863 73.9019 71.1912 73.1855C71.223 73.14 70.9484 72.0853 70.8943 72.09ZM70.3074 72.0505C69.6505 70.5104 68.3945 73.6594 69.4163 73.3327C69.5154 73.2998 70.3378 72.1255 70.3074 72.0505ZM38.1898 73.562C38.2677 72.9682 39.0426 73.2462 39.3737 73.3845C39.3705 73.9259 38.5123 73.4923 38.1898 73.562ZM57.757 73.1875C57.7848 72.7211 55.1024 72.7756 54.9263 73.3918C55.3468 73.1267 57.7307 73.6067 57.757 73.1875ZM64.6298 72.4592C64.5609 72.3794 63.6355 72.5118 63.6669 72.9228C64.1251 73.4574 64.9399 72.8207 64.6298 72.4592ZM78.3041 72.3402C78.3533 72.2363 77.6312 69.6266 79.2943 71.3316C79.5384 71.5812 78.6834 72.2743 78.7702 72.3672C78.9518 72.5485 79.0948 72.6323 79.209 72.6464C78.4454 72.8715 77.6509 72.9821 77.5722 72.8242C77.2028 72.0782 78.2823 72.3835 78.3041 72.3402ZM85.4621 70.3132C85.6153 69.8847 86.6255 70.1021 86.8568 70.2754C86.8965 70.3081 86.7369 71.4319 87.1898 71.3431C87.5533 71.2699 86.9968 70.1266 87.7085 70.3029C88.4277 70.4798 87.4782 71.309 87.5415 71.3668C87.6263 71.4425 88.7302 70.9146 88.7028 71.5833C88.6824 72.0785 87.4903 71.7566 87.1975 71.8649C86.8226 72.0042 87.2878 72.824 86.6569 72.6536C86.2605 72.5472 86.464 71.0945 86.3798 71.0222C86.3092 70.9639 84.9366 71.8133 85.4642 70.3178C85.4635 70.3163 85.4628 70.3148 85.4621 70.3132ZM79.4155 72.5801C79.3584 72.6297 79.291 72.6565 79.209 72.6464C79.2783 72.6259 79.3473 72.6023 79.4155 72.5801ZM26.698 72.4902C27.0917 72.9334 25.9434 73.5193 25.4999 72.938C25.4873 72.4655 26.6353 72.4213 26.698 72.4902ZM80.1132 71.3915C81.2548 71.7426 80.4233 72.2512 79.4155 72.5801C79.7337 72.3037 79.7299 71.2742 80.1132 71.3915ZM47.8165 72.3418C47.8657 72.4495 47.8979 72.6178 47.9047 72.8948C47.7754 72.5931 47.7623 72.4305 47.8165 72.3418ZM50.4761 72.8077C51.377 71.954 49.5286 72.0079 49.5468 72.6117C49.5547 72.8396 50.4401 72.8417 50.4761 72.8077ZM71.9526 72.161C71.8685 72.0793 73.1342 69.5169 71.2773 71.4495C72.2826 71.7391 71.2283 72.028 71.2464 72.251C71.2941 72.892 72.9707 72.2574 73.3463 72.5307C73.6258 71.3798 72.2303 72.4302 71.9547 72.161C71.954 72.161 71.9533 72.161 71.9526 72.161ZM98.4068 70.7926C98.1859 71.4676 97.4601 71.2589 96.9714 71.2246C97.1923 70.5496 97.9181 70.7582 98.4068 70.7926ZM226.169 69.5198C222.83 70.1775 222.367 67.4433 225.44 68.493C225.5 68.5151 226.369 69.2401 226.169 69.5198ZM197.45 69.1179C197.122 67.9277 198.163 67.7245 198.854 68.2102C199.01 68.3194 199.596 69.5223 198.944 69.7658C198.949 68.3187 197.931 67.7768 197.45 69.1179ZM80.748 70.6201C81.0708 69.8205 82.0966 70.3762 82.6352 70.49C82.3144 71.149 81.2258 70.8642 80.748 70.6201ZM215.16 68.2094C214.807 68.1228 214.58 69.1639 214.642 69.2496C214.918 69.6431 215.568 68.7963 215.16 68.2094ZM77.4547 70.5318C77.403 70.0566 78.7488 69.5842 78.8555 70.7594C78.5659 70.6774 77.4914 70.8299 77.4547 70.5318ZM97.4822 70.4454C97.27 70.2058 98.3514 69.7611 98.6824 69.9976C98.6614 70.5042 97.6214 70.6011 97.4822 70.4454ZM209.487 68.6227C209.17 68.5359 208.381 68.5169 208.298 68.9376C208.195 69.4635 209.35 69.2723 209.487 68.6227ZM268.23 67.0869C268.272 67.2751 267.065 68.6474 266.518 68.3093C265.48 67.6622 268.186 66.9541 268.23 67.0869ZM218.492 67.6381C219.499 68.6151 218.383 67.6704 218.438 68.71C219.108 68.7402 220.776 68.7737 219.619 67.7634C219.393 67.5679 218.805 67.7021 218.492 67.6381ZM217.57 67.3C217.467 67.6381 216.761 68.7079 217.38 68.6251C217.667 68.5853 218.116 67.4002 217.57 67.3ZM260.665 67.6303C259.763 66.7192 263.86 67.1693 263.979 67.3293C264.042 67.4138 264.084 67.4936 264.108 67.5614C264.255 67.268 265.027 67.2071 265.124 67.9442C264.892 67.8858 264.26 67.9575 264.186 67.8764C264.154 67.842 264.13 67.8095 264.113 67.7765C263.847 68.4201 260.838 67.8031 260.665 67.6303ZM253.876 66.7554C254.883 65.3862 255.088 67.6936 255.001 67.7688C253.899 68.7259 254.606 67.0151 254.571 66.9357C254.492 66.8038 253.711 67.6025 253.879 66.7554C253.878 66.7554 253.877 66.7554 253.876 66.7554ZM259.272 67.2653C259.313 67.2347 260.171 67.297 260.207 67.3331C260.918 68.1016 258.49 67.9289 259.272 67.2653ZM90.8558 68.6394C91.4721 68.8624 90.8791 69.7184 90.4678 69.4172C90.434 69.3875 90.3121 68.4424 90.8558 68.6394ZM217.082 67.5342C216.938 67.3752 213.291 66.8088 213.523 68.0896C213.831 67.9349 217.976 68.551 217.082 67.5342ZM189.871 67.5144C190.513 67.5175 189.826 68.7352 189.478 68.2877C189.35 68.1215 189.709 67.5144 189.871 67.5144ZM75.6218 69.4527C74.9623 70.1247 75.0763 67.8927 75.6624 68.6511C75.6853 68.6808 75.6477 69.4264 75.6218 69.4527ZM195.007 68.1553C192.801 68.9124 193.284 65.07 196.177 66.3344C196.088 66.5062 196 66.6781 195.912 66.85C199.241 67.3899 196.142 67.118 195.331 67.3415C195.022 67.4264 195.289 68.0641 195.009 68.1598C195.009 68.1583 195.008 68.1568 195.007 68.1553ZM186.494 67.4774C184.332 64.777 188.422 66.5067 189.586 66.1395C188.466 67.2762 186.99 67.1218 189.007 68.2516C186.079 68.5056 187.287 67.408 187.169 67.319C187.03 67.2194 186.586 67.5933 186.494 67.4774ZM192.118 67.3988C192.241 67.318 193.175 67.8624 193.509 67.7684C193.051 68.7037 191.306 67.9478 192.118 67.3988ZM246.775 67.4633C246.845 66.7335 247.03 66.1946 247.766 66.4592C247.543 66.8279 247.078 67.1479 246.775 67.4633ZM23.7968 69.3213C23.2915 69.2744 22.2835 69.0105 22.5999 69.7736C22.6344 69.8385 23.7999 69.7514 23.7968 69.3213ZM206.502 67.057C206.393 66.9685 203.616 66.9381 204.584 67.7322C204.876 67.9716 207.401 67.8416 206.502 67.057ZM220.879 66.9945C220.647 66.9894 219.705 67.1368 219.686 67.3094C219.629 67.9061 220.784 67.566 220.879 66.9945ZM21.2425 68.6024C21.1752 68.5275 19.6349 68.678 19.8081 69.0298C20.137 69.6951 21.4731 68.8604 21.2425 68.6024ZM93.071 66.908C93.1996 66.8797 93.3785 67.6696 93.4232 67.678C93.5281 67.6881 95.884 67.3583 94.9936 68.3845C94.845 68.5564 91.4465 68.2024 91.0039 68.1067C90.8216 67.0217 92.2826 68.0401 92.6343 67.9245C92.6962 67.9026 92.7263 66.9928 93.07 66.9126C93.0703 66.9111 93.0706 66.9096 93.071 66.908ZM250.586 66.6533C250.682 65.9612 253.451 65.4739 253.428 66.3116C252.48 66.4255 251.533 66.5394 250.586 66.6533ZM249.176 66.554C248.579 66.0715 249.963 65.8949 250.374 66.1062C250.383 66.571 249.263 66.6245 249.176 66.554ZM215.591 64.4691C215.314 64.6411 216.182 65.6402 215.993 65.8382C215.871 65.9616 215.244 65.5904 215.049 65.9079C214.994 66.0087 215.639 66.9497 215.822 66.9067C216.083 66.8493 215.822 66.1061 216.107 66.098C217.052 66.0718 217.896 66.5948 218.782 66.5729C218.862 66.5695 218.236 66.0494 218.919 66.0495C219.024 66.0485 219.667 66.8262 220.482 66.7012C222.26 64.2522 223.61 66.6236 225.89 65.723C225.801 65.4952 224.082 64.8998 223.981 64.8782C222.064 64.4992 218.635 64.492 216.631 64.5083C216.117 64.5117 216.372 65.0233 216.151 65.0445C215.976 65.0603 216.174 64.1059 215.591 64.4691ZM24.0593 68.792C23.8085 67.8435 22.9711 68.4545 22.4315 68.4111C22.6304 69.267 23.5303 68.5869 24.0593 68.792ZM236.716 65.9504C236.446 65.99 235.605 65.7125 235.539 65.9996C235.454 66.3745 236.665 66.5974 236.716 65.9504ZM106.376 67.0356C106.402 67.0094 107.053 67.0533 107.077 67.083C107.666 67.8401 105.715 67.7046 106.376 67.0356ZM121.927 67.0521C122.418 66.9294 122.912 66.6269 123.086 67.3968C122.771 67.282 121.875 67.5902 121.927 67.0521ZM143.378 66.7994C143.265 65.7899 144.755 66.4284 145.037 66.5161C144.938 66.9663 143.46 67.5267 143.378 66.7994ZM246.635 64.2922C247.542 64.3422 247.334 62.8136 247.918 63.5001C248.013 63.6162 248.351 66.8004 247.341 65.6168C247.159 65.4041 247.853 64.639 246.635 64.2922ZM196.646 66.3614C196.869 65.6904 197.593 65.8811 198.08 65.9294C197.976 66.4273 196.992 66.31 196.646 66.3614ZM18.4497 67.8678C18.0142 66.9286 16.0563 67.6497 16.5493 68.2681C16.6193 68.3487 18.1736 67.8351 18.4497 67.8678ZM83.0214 67.5468C83.8221 66.7949 82.1447 66.5827 81.6238 67.3145C81.8626 67.2644 82.9674 67.5963 83.0214 67.5468ZM138.219 66.3053C138.258 66.2744 139.116 66.3369 139.154 66.3731C139.866 67.1416 137.437 66.9689 138.219 66.3053ZM116.801 65.8801C117.103 65.2652 119.139 65.7369 119.601 66.3445C119.173 67.2435 116.425 66.6481 116.801 65.8801ZM242.907 64.767C243.554 64.7284 244.17 64.9102 244.767 65.1683C244.648 65.6845 242.98 65.1509 242.907 64.767ZM141.366 66.2075C141.412 66.2111 141.457 66.2689 141.501 66.2747C141.455 66.2533 141.41 66.2289 141.366 66.2075ZM228.421 64.5606C227.876 64.363 227.999 65.3053 228.033 65.3338C228.444 65.635 229.037 64.7835 228.421 64.5606ZM23.4248 67.3979C23.2277 66.5484 22.3228 67.2186 21.796 67.0216C21.9554 67.6925 23.0031 67.4917 23.4248 67.3979ZM184.191 65.7578C183.5 64.8419 186.26 63.7397 186.851 64.3284C186.9 64.8983 184.292 65.8831 184.191 65.7578ZM80.4966 66.2965C80.4351 65.6299 79.2799 66.4476 79.5305 66.7601C79.6892 66.959 80.5335 66.7107 80.4966 66.2965ZM188.249 64.7025C188.507 64.4961 189.121 65.148 188.912 65.5515C188.643 66.0688 188.182 64.7616 188.249 64.7025ZM211.608 63.9166C211.493 63.8159 209.969 64.5171 210.609 65.1909C211.053 65.6591 211.113 64.6939 211.216 64.69C211.331 64.6918 213.802 65.8457 211.608 63.9166ZM168.661 65.3428C169.236 65.08 169.938 65.3704 170.542 65.3455C170.3 65.7608 168.913 65.8882 168.661 65.3428ZM84.9829 66.0699C84.8397 65.8016 81.0156 65.68 83.1959 66.4874C83.3231 66.5329 85.4178 66.8825 84.9829 66.0699ZM246.635 64.2922C246.52 64.2858 246.388 64.2554 246.234 64.1912C246.386 64.2155 246.519 64.2593 246.635 64.2922ZM236.333 64.3018C236.536 63.8139 235.483 63.6953 235.175 63.9571C235.086 64.5515 236.305 64.37 236.333 64.3018ZM170.581 64.6675C170.926 64.3859 171.562 64.6757 171.993 64.6387C171.925 65.0909 170.736 65.1246 170.581 64.6675ZM146.11 64.4215C146.805 64.6825 147.655 64.5499 147.662 63.9975C147.677 64.0836 147.712 64.1749 147.769 64.2664C147.826 64.357 148.564 64.0922 148.888 64.2773C150.828 65.3765 141.451 65.0148 146.866 63.3971C146.614 63.7386 146.362 64.0801 146.11 64.4215ZM114.038 64.6095C113.638 63.9414 112.548 64.7957 112.836 65.0573C113.037 65.2366 114.439 65.2822 114.038 64.6095ZM129.144 64.0494C129.025 63.9306 127.956 64.413 127.932 64.7674C128.554 65.1339 129.684 64.6011 129.144 64.0494ZM111.011 63.8545C110.764 63.7557 110.461 64.8432 110.491 64.8902C110.745 65.2832 111.432 64.4537 111.011 63.8545ZM244.724 61.3918C244.354 61.0853 243.194 61.8825 242.947 62.6012C242.898 62.4632 242.769 62.2841 242.532 62.07C242.533 62.07 242.534 62.0699 242.534 62.0699C242.215 61.7841 232.764 61.5694 239.116 62.8803C239.315 62.9223 239.037 62.2826 239.846 62.3872C239.899 62.3948 239.931 62.9192 240.096 62.943C240.476 62.9944 242.499 63.3029 242.901 62.8763C242.905 62.9736 242.933 63.0658 242.989 63.1501C243.495 63.9014 245.011 61.6281 244.724 61.3918ZM131.271 63.9304C131.053 63.7383 130.371 63.9303 130.305 64.394C130.647 64.6173 131.778 64.3786 131.271 63.9304ZM84.844 64.1715C84.3996 63.7954 83.2916 64.5193 83.6329 64.8941C83.8421 65.1246 85.3564 64.6033 84.844 64.1715ZM124.423 64.251C126.953 64.7713 125.025 64.2003 125.404 63.5172C125.077 63.7618 124.75 64.0064 124.423 64.251ZM256.426 63.0198C256.022 62.8679 256.481 61.5231 256.932 62.2453C257.073 62.4747 256.652 63.1023 256.426 63.0198ZM274.598 62.4085C274.242 61.2242 275.927 61.9043 275.282 62.7263C275.252 62.754 274.623 62.4535 274.598 62.4085ZM261.892 62.0594C261.627 62.8712 261.45 62.9691 260.679 62.7774C261.816 62.5373 260.751 61.8333 261.892 62.0594ZM147.654 63.9106C147.659 63.9432 147.663 63.9673 147.662 63.9975C147.657 63.9678 147.654 63.9396 147.654 63.9106ZM108.64 64.0905C108.317 63.4087 107.432 63.4686 107.703 64.1555C107.729 64.2191 108.516 64.5982 108.64 64.0905ZM242.947 62.6012C242.99 62.7235 242.97 62.8031 242.901 62.8763C242.897 62.7848 242.914 62.6982 242.947 62.6012ZM113.39 63.4811C113.363 63.9927 114.714 64.1771 114.767 64.1164C115.531 63.2215 113.946 63.4444 113.39 63.4811ZM75.9239 63.5483C75.8549 63.6024 76.3174 64.9173 76.5868 64.3973C76.7953 63.9939 76.1821 63.3425 75.9239 63.5483ZM264.502 61.7018C264.929 61.6981 265.53 61.6911 265.647 62.3167C265.36 62.2236 264.498 62.1619 264.502 61.7018ZM273.932 61.555C273.435 62.2973 272.283 62.3076 271.546 62.194C271.522 61.2242 273.461 61.7882 273.932 61.555ZM245.886 61.741C245.851 61.702 244.777 61.424 244.93 62.0717C245.154 63.0216 246.192 62.0909 245.886 61.741ZM78.01 64.2264C78.4838 63.7741 77.3676 62.4117 76.8739 63.4786C76.6204 64.025 77.9301 64.3022 78.01 64.2264ZM105.865 63.2229C105.238 63.6055 106.81 64.2581 107.022 63.5768C106.73 63.5254 106.088 63.0875 105.865 63.2229ZM127.35 62.306C125.338 60.3692 126.461 63.9298 126.81 63.612C126.86 63.5666 127.399 62.3516 127.35 62.306ZM13.4688 64.0069C13.1899 64.282 14.251 65.2564 14.38 64.606C14.4596 64.1991 13.6471 63.8316 13.4688 64.0069ZM157.336 63.2575C157.252 63.2647 157.168 63.272 157.086 63.2785C157.147 63.2458 157.229 63.2345 157.336 63.2575ZM100.104 60.6614C101.534 63.4111 101.364 61.2818 101.486 61.2921C101.75 61.3191 102.369 62.0601 102.864 61.932C102.299 62.2494 101.735 62.5668 101.17 62.8841C101.621 63.0789 105.529 64.0549 105.606 63.6057C105.716 62.966 104.492 63.1795 104.455 63.1236C104.403 63.044 104.192 61.2711 104.078 61.2049C103.89 61.099 100.631 61.0971 100.104 60.6614ZM123.19 62.6573C123.513 62.8649 123.611 63.5672 123.758 63.3975C123.808 63.3394 123.809 62.6686 123.98 62.4932C123.717 62.5479 123.454 62.6026 123.19 62.6573ZM97.6212 63.1739C97.2158 62.3586 98.9975 62.6507 99.0555 62.742C99.3656 63.2943 97.9525 63.84 97.6212 63.1739ZM112.71 62.8932C112.645 62.8461 111.276 62.6048 111.292 63.0595C111.657 63.4023 113.484 63.4838 112.71 62.8932ZM124.193 62.4452C124.674 62.5182 125.588 63.184 125.473 62.1751C125.473 62.1751 125.472 62.1751 125.471 62.1751C125.045 62.2651 124.619 62.3551 124.193 62.4452ZM79.6256 62.0757C78.7192 60.4766 79.1622 62.5047 79.9551 63.0153C80.1858 62.2905 79.7742 62.3359 79.6256 62.0757ZM76.7673 60.9069C76.5168 60.6201 73.9711 60.9646 74.3692 61.8116C74.5106 62.1134 75.9683 61.3327 76.0364 61.3908C76.1397 61.477 75.6822 62.4236 76.462 62.2287C76.4129 61.9101 76.853 61.0027 76.7673 60.9069ZM78.8786 61.0537C77.9819 59.8398 77.8076 62.0982 78.4721 62.0972C78.7318 62.0984 79.0066 61.2288 78.8786 61.0537ZM82.4899 61.2072C82.1696 60.9967 81.3194 60.6936 80.7437 61.4503C81.5256 61.506 82.3074 61.5617 83.0893 61.6174C83.1748 61.1913 82.77 61.3923 82.4877 61.2073C82.4884 61.2073 82.4891 61.2073 82.4899 61.2072ZM279.18 55.7167C278.471 55.0843 280.085 54.8218 280.156 54.9783C280.364 55.498 279.497 55.9991 279.18 55.7167ZM7.76543 43.5674C7.56763 43.3144 7.43111 42.4766 7.00646 42.9209C7.44497 43.5357 7.88349 44.1506 8.322 44.7655C8.64241 43.3424 7.98165 43.8464 7.76543 43.5674ZM6.06069 38.3987C6.12133 38.3637 5.76469 36.1845 6.56845 37.6333C7.1115 38.6115 4.22594 39.6015 3.69284 38.6392C4.2656 38.1833 5.53854 38.6845 6.06069 38.3987ZM0.886964 29.005C0.851709 28.8313 1.94918 28.5642 2.07783 28.6855C2.75343 29.3252 1.0776 29.9356 0.886964 29.005ZM4.40126 29.3839C3.88075 28.9656 5.02086 28.6801 5.36412 28.9204C5.40152 29.3263 4.48163 29.4448 4.40126 29.3839ZM271.731 24.1803C271.157 22.7028 270.692 25.9016 271.544 25.249C271.585 25.2183 271.756 24.2527 271.731 24.1803ZM1.93897 26.7917C2.45948 27.21 1.31937 27.4955 0.976109 27.2552C0.94008 26.8497 1.85974 26.7305 1.93897 26.7917ZM271.301 20.6506C270.548 19.5911 270.847 23.171 270.941 23.3143C271.329 23.8804 272.623 22.4602 272.886 22.1078C270.933 22.6664 271.655 21.1499 271.301 20.6506ZM267.903 22.8387C267.22 23.2283 268.986 23.9405 269.31 22.9381C268.969 22.9896 268.098 22.7262 267.903 22.8387ZM263.716 21.7345C263.345 21.6102 262.241 21.3147 262.063 21.8804C262.465 21.774 263.566 22.3162 263.716 21.7345ZM262.86 20.0544C262.274 19.2946 262.159 21.5278 262.819 20.856C262.844 20.83 262.882 20.0967 262.86 20.0544ZM259.601 19.2835C259.213 18.4001 258.803 20.566 259.418 20.6177C259.601 20.6291 259.643 19.3848 259.601 19.2835ZM270.331 16.8063C269.784 16.431 269.101 17.9863 270.262 18.1438C269.857 18.3847 269.452 18.6256 269.048 18.8664C270.576 19.7177 270.441 17.5725 270.879 17.6565C271.489 17.7761 271.46 19.5479 271.344 20.1054C271.832 19.0149 273.955 18.9747 275.179 18.755C274.096 18.3111 272.338 17.5403 271.271 17.2632C270.966 17.1829 270.676 17.6718 270.417 17.6203C270 17.535 270.362 16.8316 270.333 16.8063C270.332 16.8063 270.332 16.8063 270.331 16.8063ZM255.329 19.2973C254.203 18.3038 254.931 20.4669 255.557 20.0731C255.584 20.043 255.357 19.3215 255.329 19.2973ZM0.390019 20.2113C1.88918 21.1026 0.819426 22.3167 3.91571 20.4573C2.62052 21.764 3.85328 21.3878 3.60335 21.9119C3.40279 22.3266 2.63107 21.9932 3.08643 22.8193C2.48991 21.9213 -0.0551459 22.1987 -0.170302 22.0531C-0.169234 22.0531 -0.168166 22.053 -0.167098 22.053C-0.236248 21.9668 -0.0883493 19.9278 0.390019 20.2113ZM263.65 16.0584C263.25 13.4286 263.149 17.6105 262.394 15.4355C261.455 18.6158 265.083 15.4072 265.555 18.0798C261.575 17.8113 268.21 20.7046 265.392 16.7264C267.694 18.1566 266.136 16.222 266.483 15.7076C266.855 15.1595 268.155 15.7369 268.079 14.7566C268.078 14.7566 268.077 14.7566 268.076 14.7566C267.286 14.8337 266.496 14.9109 265.705 14.988C266.502 17.0959 264.879 16.4787 264.312 14.7603C264.091 15.193 263.87 15.6257 263.65 16.0584ZM268.149 17.9971C268.07 17.9495 266.353 18.2645 266.468 18.6881C266.701 18.9565 269.14 18.6055 268.149 17.9971ZM275.717 17.4536C275.099 17.4551 274.139 17.0525 273.811 17.854C274.429 17.8527 275.389 18.2556 275.717 17.4536ZM243.901 17.6434C243.121 18.3067 245.547 18.4746 244.838 17.7066C244.803 17.6705 243.939 17.6124 243.901 17.6434ZM261.863 16.4758C261.053 15.6795 261.459 18.2374 262.045 17.5635C262.079 17.5237 261.9 16.5121 261.863 16.4758ZM1.59366 19.8871C1.64049 19.2588 3.80625 19.6765 4.18926 19.667C3.97787 20.2528 1.53992 20.6073 1.59366 19.8871ZM276.779 15.0937C275.525 12.8498 273.885 15.4747 273.701 15.4196C273.519 15.3635 273.794 14.3739 273.752 14.3478C273.657 14.2935 271.72 14.3971 271.627 14.4667C271.561 14.521 271.926 15.9037 271.531 16.3448C272.303 15.5486 275.85 16.0035 276.032 15.8479C276.173 15.7237 275.084 14.2792 276.777 15.0937C276.777 15.0937 276.778 15.0937 276.779 15.0937ZM273.241 15.1224C273.731 15.6984 272.375 15.7857 272.044 15.5747C271.309 15.1026 273.178 15.0542 273.241 15.1224ZM269.971 14.6218C269.815 14.4931 268.415 14.3897 268.303 15.038C268.974 15.8702 270.326 14.9218 269.971 14.6218ZM254.407 14.8756C254.045 14.9623 253.041 14.4758 252.99 15.0418C253.352 14.9555 254.356 15.4416 254.407 14.8756ZM8.91401 14.8735C8.30542 14.4068 9.70164 14.1986 10.112 14.4211C10.1382 14.798 8.96582 14.9135 8.91401 14.8735ZM261.669 11.0712C261.452 10.9016 257.069 11.3776 256.456 11.649C257.063 12.0701 261.412 12.0564 261.607 11.8456C261.664 11.7825 261.697 11.098 261.669 11.0712ZM271.157 10.7086C271.55 9.87172 271.823 10.8675 271.874 10.8795C272.373 11.0015 273.403 10.8028 273.185 11.6071C272.304 11.2929 270.373 12.3705 271.157 10.7086ZM254.055 11.1116C252.568 11.4365 255.44 12.283 255.055 11.4168C255.03 11.3644 254.209 11.0775 254.055 11.1116ZM262.157 10.8233C262.478 10.1471 266.874 10.6802 267.579 10.6737C266.961 11.9213 266.442 10.9843 265.595 11.0566C265.366 11.0776 265.433 11.5932 265.408 11.5942C265.012 11.6224 265.303 11.023 265.058 11.0166C264.904 11.0142 261.704 11.7762 262.157 10.8233ZM271.38 10.1294C271.62 9.64947 274.359 9.41666 274.471 9.54231C275.306 10.4768 271.595 10.2932 271.38 10.1294ZM261.742 9.72447C262.199 8.2773 264.389 9.21973 262.905 9.95465C262.763 10.0216 262.153 9.4029 261.742 9.72447ZM254.2 9.73661C254.126 9.69498 252.57 9.42337 252.547 9.88251C252.773 10.0584 255.039 10.1941 254.2 9.73661ZM254.988 8.17619C254.951 8.1876 255.325 9.06744 254.595 8.96326C254.534 8.95337 254.41 7.96029 253.499 8.33407C253.314 8.41102 253.033 9.07187 253.054 9.11253C254.024 10.6627 256.864 7.6434 254.988 8.17619ZM271.422 9.32319C271.269 8.90508 271.612 7.65559 271.94 8.28298C272.081 8.5539 271.832 9.30423 271.422 9.32319ZM249.269 9.38657C250.164 8.62143 247.328 8.50898 247.185 8.70387C247.281 9.17347 249.18 9.46132 249.269 9.38657ZM10.2646 9.02652C10.2639 9.02653 10.2632 9.02654 10.2625 9.02654C11.024 9.18958 10.5602 9.82309 10.596 9.84244C12.224 10.7482 11.7796 9.32937 12.0308 9.15867C12.5695 8.78956 12.5006 10.5215 13.4082 9.794C11.9066 10.87 13.279 10.411 13.3284 11.0264C13.5249 13.5377 11.3016 9.87116 10.5529 10.406C10.4486 10.4801 11.2332 11.2738 10.9663 11.5049C10.0988 12.2536 7.34265 8.40314 10.2646 9.02652ZM272.187 8.17047C272.531 7.4285 275.212 8.11584 274.51 8.73157C274.397 8.83029 271.681 9.25199 272.187 8.17047ZM147.302 8.41894C147.937 7.77322 146.44 7.03816 146.17 7.53835C146.035 7.78754 147.022 8.70234 147.302 8.41894ZM136.833 5.798C136.071 5.93587 135.294 8.60855 136.24 8.18495C136.34 8.13868 136.924 6.16661 136.833 5.798ZM186.976 6.62959C186.169 5.68608 186.235 7.4545 186.82 7.42327C187.027 7.41253 187.002 6.65945 186.976 6.62959ZM156.554 7.18445C156.474 7.12355 155.553 7.24638 155.592 7.65257C155.935 7.89284 157.075 7.60279 156.554 7.18445ZM187.227 6.37512C186.757 6.69899 187.585 7.9697 188.149 6.71317C187.857 6.81887 187.275 6.34202 187.227 6.37512ZM260.053 5.83289C259.665 6.56349 258.543 6.356 257.902 6.48772C257.822 5.54742 259.596 6.00842 260.053 5.83289ZM140.085 6.83443C139.369 7.50541 140.923 8.03181 140.772 7.15669C140.752 7.10928 140.113 6.80584 140.085 6.83443ZM212.691 6.00615C212.171 6.57312 213.847 7.31016 213.378 6.32841C213.355 6.28842 212.719 5.97461 212.691 6.00615ZM219.978 6.25312C219.577 6.06804 217.878 6.1445 218.545 6.68507C218.649 6.76812 219.953 6.76759 219.978 6.25312ZM12.0684 8.48071C11.8433 7.51634 13.0922 7.73309 13.2725 7.90013C13.3433 7.96965 12.362 9.73543 12.0684 8.48071ZM181.797 6.53401C181.386 6.65937 180.314 6.441 180.131 6.95015C180.635 6.83977 181.944 7.54278 181.797 6.53401ZM143.38 6.79455C142.739 5.75085 141.665 5.86605 141.946 7.23567C143.132 7.13097 141.786 6.00363 143.38 6.79455ZM189.871 5.216C189.539 5.13941 189.3 6.46019 189.338 6.52188C189.703 7.10883 190.205 5.7253 189.871 5.216ZM165.063 6.56681C165.038 6.00374 163.98 6.27076 164.125 6.63179C164.173 6.753 165.083 7.02248 165.063 6.56681ZM246.164 5.66123C245.673 5.15231 247.151 4.63378 247.597 5.22929C247.819 6.09185 246.227 5.71963 246.164 5.66123ZM199.046 5.44731C199.087 4.61087 197.435 5.10124 198.095 5.78713C198.26 5.95875 199.032 5.727 199.046 5.44731ZM214.9 4.27485C213.799 5.2836 218.475 5.94129 217.235 4.71222C217.146 4.62465 214.996 4.18963 214.9 4.27485ZM222.53 4.81572C222.337 4.70794 222.403 1.898 223.208 2.97265C223.314 3.11201 222.834 3.85976 222.921 4.02868C222.972 4.12493 224.702 4.50094 224.781 4.43451C224.866 4.35914 224.756 3.45993 224.841 3.35802C224.938 3.24411 226.009 4.02359 226.565 4.02627C227.614 4.02986 227.719 3.27932 227.805 3.27591C228.055 3.26827 228.482 3.79579 228.99 3.7897C231.549 3.7563 235.456 3.07919 237.502 4.64615C235.69 4.02752 233.976 4.72284 232.182 4.95037C232.692 3.3806 229.552 6.18385 231.386 4.35916C230.537 4.7598 223.162 5.15193 222.532 4.8157C222.532 4.81571 222.531 4.81571 222.53 4.81572ZM133.811 5.04295C134.27 4.07887 131.866 4.32038 131.673 5.4321C131.993 5.58267 133.754 5.15227 133.811 5.04295ZM144.888 2.58487C145.11 2.41693 145.302 0.540016 146.484 1.47819C146.485 1.47818 146.486 1.47817 146.487 1.47816C146.833 1.75213 146.447 2.2131 146.512 2.3752C146.535 2.44141 147.614 3.3625 146.728 3.52197C145.377 3.76656 146.586 2.12872 145.864 2.11661C145.775 2.11602 144.42 3.14539 144.502 3.36728C144.511 3.39314 144.919 3.17407 144.988 3.26593C145.248 3.6112 145.13 4.19794 145.166 4.22542C145.285 4.29554 147.434 3.27508 147.758 4.14271C147.863 4.42249 144.325 5.10839 144.185 4.96384C144.097 4.87276 144.116 3.24741 144.024 3.08856C143.976 3.00946 142.557 3.63366 142.37 3.48626C142.316 3.44363 142.274 3.39749 142.244 3.35943C142.465 3.85986 141.173 3.83749 141.207 3.26982C141.227 3.04663 142.117 3.16616 142.149 3.20478C142.163 3.22114 142.176 3.24375 142.187 3.25932C141.997 2.64861 145.006 2.644 144.347 1.73915C145.214 1.2303 144.237 3.07807 144.888 2.58487ZM149.071 1.53746C148.982 1.70932 148.894 1.88118 148.806 2.05304C150.329 1.61839 152.1 2.42217 153.859 2.39719C154.306 2.39209 153.781 1.35243 154.369 1.63177C154.84 1.85563 155.37 2.81949 155.117 3.03838C155.055 3.09297 154.094 2.47178 153.617 2.5417C152.209 2.74865 152.575 3.64112 152.493 3.66622C152.402 3.69268 151.507 3.07187 151.023 3.10513C149.805 3.19073 149.254 3.74698 147.582 3.04586C148.536 2.44486 147.996 1.16722 149.071 1.53746ZM206.019 2.83636C206.071 2.27158 207.075 2.7614 207.438 2.67466C207.387 3.24081 206.381 2.74956 206.019 2.83636ZM57.0766 3.69967C56.7796 4.62873 59.0829 4.83331 58.4682 4.06932C58.3322 3.89976 57.3658 3.70316 57.0766 3.69967ZM67.4188 4.15197C67.7239 3.89272 66.4774 3.23946 66.4874 3.95593C66.4917 4.18568 67.3795 4.18568 67.4188 4.15197ZM168.822 2.23687C168.88 2.20726 169.729 2.40438 169.756 2.45119C170.328 3.42816 167.535 2.88988 168.822 2.23687ZM79.972 2.87753C78.9057 3.49582 82.1376 3.72422 81.1426 2.96113C81.093 2.92397 80.0233 2.84749 79.972 2.87753ZM84.4584 2.66007C84.2016 2.69535 83.0563 2.4063 83.0443 2.68896C83.0264 3.14495 84.337 3.44235 84.4584 2.66007ZM190.057 1.71636C189.922 0.674595 191.436 1.4484 191.958 1.31143C192.094 2.35392 190.579 1.57903 190.057 1.71636ZM180.543 1.04918C186.883 0.158872 185.507 2.4025 180.171 1.56133C180.156 0.892234 180.143 1.10525 180.543 1.04918ZM188.674 1.08567C188.45 1.75638 187.727 1.56596 187.24 1.51764C187.322 1.0521 188.324 1.20953 188.674 1.08567ZM54.3216 2.29625C54.7107 1.44784 56.485 2.46964 56.1752 2.82118C56.1031 2.89716 54.1803 2.76204 54.3216 2.29625ZM169.345 1.33855C169.186 0.325687 171.097 0.719057 171.245 0.942784C171.843 1.84266 169.497 1.11299 169.345 1.33855ZM199.058 0.727198C199.386 -0.0710063 200.346 0.327441 200.961 0.331399C200.689 1.01384 199.58 0.735904 199.058 0.727198ZM194.612 0.152214C194.65 0.1213 195.509 0.18385 195.547 0.220016C196.258 0.988588 193.83 0.815825 194.612 0.152214ZM9.12972 1.40703C9.15802 1.38112 9.80804 1.42483 9.83099 1.45445C10.4189 2.21113 8.46791 2.07613 9.12972 1.40703Z" fill="url(#paint0_linear_939_1296)"/>
<defs>
<linearGradient id="paint0_linear_939_1296" x1="0.00535684" y1="39.5" x2="280.005" y2="36.5" gradientUnits="userSpaceOnUse">
<stop offset="0.1" stop-color="#822FFF"/>
<stop offset="0.9" stop-color="#FF35C4"/>
</linearGradient>
</defs>
</svg>
