<svg width="61" height="60" viewBox="0 0 61 60" fill="none" xmlns="http://www.w3.org/2000/svg">
<path d="M11.2892 33.9702L18.1562 33.9702L6.89739 56.9722L0.000310028 56.9722L11.2892 33.9702Z" fill="#373737"/>
<path d="M26.7905 2.80213L33.6786 2.80213L26.4025 17.6591L20.0796 17.6591L26.7905 2.80213Z" fill="#373737"/>
<path d="M32.0025 26.4933L38.9092 26.5372L26.8945 51.3875L19.8596 51.3875L32.0025 26.4933Z" fill="#822FFF"/>
<path d="M39.0318 39.7898L32.2734 39.8956L40.8221 57.1295L47.8607 57.1158L39.0318 39.7898Z" fill="#822FFF"/>
<path d="M33.7097 2.80902L27.1029 2.80903L53.9986 57.0646L60.9987 57.0646L33.7097 2.80902Z" fill="#373737"/>
<path d="M18.1554 33.9706L11.2884 33.9705L19.8721 51.3981L26.8952 51.3981L18.1554 33.9706Z" fill="#373737"/>
</svg>
