<svg width="210" height="82" viewBox="0 0 210 82" fill="none" xmlns="http://www.w3.org/2000/svg">
<mask id="path-1-outside-1_2285_8581" maskUnits="userSpaceOnUse" x="0" y="0" width="210" height="82" fill="black">
<rect fill="white" width="210" height="82"/>
<path d="M34.2 5L48.3 46.1V5H67.3V77H43.9L31.1 39.6V77H12.1V15.3L8 5H34.2ZM71.7695 5H119.67L116.67 21H96.7695V32H115.47L112.47 48H96.7695V61H120.37L117.37 77H77.2695V18.7L71.7695 5ZM134.291 77L122.891 5H143.691L147.091 49L155.391 14.8H170.991L179.391 49.3L182.691 5H203.491L192.091 77H172.991L163.391 34.6L153.391 77H134.291Z"/>
</mask>
<path d="M34.2 5L48.3 46.1V5H67.3V77H43.9L31.1 39.6V77H12.1V15.3L8 5H34.2ZM71.7695 5H119.67L116.67 21H96.7695V32H115.47L112.47 48H96.7695V61H120.37L117.37 77H77.2695V18.7L71.7695 5ZM134.291 77L122.891 5H143.691L147.091 49L155.391 14.8H170.991L179.391 49.3L182.691 5H203.491L192.091 77H172.991L163.391 34.6L153.391 77H134.291Z" fill="#FF0066"/>
<path d="M34.2 5L38.9294 3.37749L37.7707 -3.8147e-06H34.2V5ZM48.3 46.1L43.5706 47.7225L53.3 46.1H48.3ZM48.3 5V-3.8147e-06H43.3V5H48.3ZM67.3 5H72.3V-3.8147e-06H67.3V5ZM67.3 77V82H72.3V77H67.3ZM43.9 77L39.1694 78.619L40.3265 82H43.9V77ZM31.1 39.6L35.8306 37.981L26.1 39.6H31.1ZM31.1 77V82H36.1V77H31.1ZM12.1 77H7.1V82H12.1V77ZM12.1 15.3H17.1V14.3414L16.7455 13.4508L12.1 15.3ZM8 5V-3.8147e-06H0.628142L3.35451 6.84917L8 5ZM34.2 5L29.4706 6.6225L43.5706 47.7225L48.3 46.1L53.0294 44.4775L38.9294 3.37749L34.2 5ZM48.3 46.1H53.3V5H48.3H43.3V46.1H48.3ZM48.3 5V10H67.3V5V-3.8147e-06H48.3V5ZM67.3 5H62.3V77H67.3H72.3V5H67.3ZM67.3 77V72H43.9V77V82H67.3V77ZM43.9 77L48.6306 75.381L35.8306 37.981L31.1 39.6L26.3694 41.219L39.1694 78.619L43.9 77ZM31.1 39.6H26.1V77H31.1H36.1V39.6H31.1ZM31.1 77V72H12.1V77V82H31.1V77ZM12.1 77H17.1V15.3H12.1H7.1V77H12.1ZM12.1 15.3L16.7455 13.4508L12.6455 3.15082L8 5L3.35451 6.84917L7.45451 17.1492L12.1 15.3ZM8 5V10H34.2V5V-3.8147e-06H8V5ZM71.7695 5V-3.8147e-06H64.3744L67.1295 6.86279L71.7695 5ZM119.67 5L124.584 5.92144L125.694 -3.8147e-06H119.67V5ZM116.67 21V26H120.819L121.584 21.9214L116.67 21ZM96.7695 21V16H91.7695V21H96.7695ZM96.7695 32H91.7695V37H96.7695V32ZM115.47 32L120.384 32.9214L121.494 27H115.47V32ZM112.47 48V53H116.619L117.384 48.9214L112.47 48ZM96.7695 48V43H91.7695V48H96.7695ZM96.7695 61H91.7695V66H96.7695V61ZM120.37 61L125.284 61.9214L126.394 56H120.37V61ZM117.37 77V82H121.519L122.284 77.9214L117.37 77ZM77.2695 77H72.2695V82H77.2695V77ZM77.2695 18.7H82.2695V17.7338L81.9096 16.8372L77.2695 18.7ZM71.7695 5V10H119.67V5V-3.8147e-06H71.7695V5ZM119.67 5L114.755 4.07855L111.755 20.0786L116.67 21L121.584 21.9214L124.584 5.92144L119.67 5ZM116.67 21V16H96.7695V21V26H116.67V21ZM96.7695 21H91.7695V32H96.7695H101.77V21H96.7695ZM96.7695 32V37H115.47V32V27H96.7695V32ZM115.47 32L110.555 31.0786L107.555 47.0786L112.47 48L117.384 48.9214L120.384 32.9214L115.47 32ZM112.47 48V43H96.7695V48V53H112.47V48ZM96.7695 48H91.7695V61H96.7695H101.77V48H96.7695ZM96.7695 61V66H120.37V61V56H96.7695V61ZM120.37 61L115.455 60.0786L112.455 76.0786L117.37 77L122.284 77.9214L125.284 61.9214L120.37 61ZM117.37 77V72H77.2695V77V82H117.37V77ZM77.2695 77H82.2695V18.7H77.2695H72.2695V77H77.2695ZM77.2695 18.7L81.9096 16.8372L76.4096 3.13721L71.7695 5L67.1295 6.86279L72.6295 20.5628L77.2695 18.7ZM134.291 77L129.352 77.7819L130.02 82H134.291V77ZM122.891 5V-3.8147e-06H117.037L117.952 5.78192L122.891 5ZM143.691 5L148.676 4.61478L148.319 -3.8147e-06H143.691V5ZM147.091 49L142.105 49.3852L151.95 50.1792L147.091 49ZM155.391 14.8V9.8H151.459L150.532 13.6208L155.391 14.8ZM170.991 14.8L175.849 13.6172L174.919 9.8H170.991V14.8ZM179.391 49.3L174.533 50.4828L184.377 49.6714L179.391 49.3ZM182.691 5V-3.8147e-06H178.049L177.704 4.62857L182.691 5ZM203.491 5L208.429 5.78192L209.345 -3.8147e-06H203.491V5ZM192.091 77V82H196.361L197.029 77.7819L192.091 77ZM172.991 77L168.114 78.1041L168.996 82H172.991V77ZM163.391 34.6L168.267 33.4959L158.524 33.4522L163.391 34.6ZM153.391 77V82H157.349L158.257 78.1478L153.391 77ZM134.291 77L139.229 76.2181L127.829 4.21807L122.891 5L117.952 5.78192L129.352 77.7819L134.291 77ZM122.891 5V10H143.691V5V-3.8147e-06H122.891V5ZM143.691 5L138.705 5.38521L142.105 49.3852L147.091 49L152.076 48.6148L148.676 4.61478L143.691 5ZM147.091 49L151.95 50.1792L160.25 15.9792L155.391 14.8L150.532 13.6208L142.232 47.8208L147.091 49ZM155.391 14.8V19.8H170.991V14.8V9.8H155.391V14.8ZM170.991 14.8L166.133 15.9828L174.533 50.4828L179.391 49.3L184.249 48.1172L175.849 13.6172L170.991 14.8ZM179.391 49.3L184.377 49.6714L187.677 5.37143L182.691 5L177.704 4.62857L174.404 48.9286L179.391 49.3ZM182.691 5V10H203.491V5V-3.8147e-06H182.691V5ZM203.491 5L198.552 4.21807L187.152 76.2181L192.091 77L197.029 77.7819L208.429 5.78192L203.491 5ZM192.091 77V72H172.991V77V82H192.091V77ZM172.991 77L177.867 75.8959L168.267 33.4959L163.391 34.6L158.514 35.7041L168.114 78.1041L172.991 77ZM163.391 34.6L158.524 33.4522L148.524 75.8522L153.391 77L158.257 78.1478L168.257 35.7478L163.391 34.6ZM153.391 77V72H134.291V77V82H153.391V77Z" fill="black" fill-opacity="0.67" mask="url(#path-1-outside-1_2285_8581)"/>
</svg>
