<svg width="143" height="49" viewBox="0 0 143 49" fill="none" xmlns="http://www.w3.org/2000/svg">
<path d="M53.2123 13.7441H45.3371C44.7982 13.7441 44.3399 14.1357 44.2559 14.6677L41.0708 34.8618C41.0074 35.2602 41.316 35.6195 41.7202 35.6195H45.4799C46.0188 35.6195 46.4771 35.228 46.5612 34.6948L47.4202 29.2481C47.5031 28.715 47.9626 28.3235 48.5003 28.3235H50.9934C56.1809 28.3235 59.1749 25.8132 59.9568 20.8386C60.3091 18.6623 59.9717 16.9523 58.9526 15.7547C57.8334 14.4397 55.8482 13.7441 53.2123 13.7441ZM54.1209 21.1196C53.6902 23.9454 51.5311 23.9454 49.4434 23.9454H48.2551L49.0888 18.668C49.1383 18.349 49.4146 18.1141 49.7371 18.1141H50.2817C51.7039 18.1141 53.0454 18.1141 53.7386 18.9248C54.152 19.4084 54.2786 20.127 54.1209 21.1196Z" fill="#253B80"/>
<path d="M76.7529 21.0286H72.9817C72.6605 21.0286 72.3829 21.2635 72.3334 21.5825L72.1665 22.6373L71.9028 22.255C71.0863 21.0701 69.2658 20.674 67.4487 20.674C63.2814 20.674 59.722 23.8303 59.0288 28.2578C58.6684 30.4664 59.1808 32.5783 60.4337 34.0511C61.5829 35.4053 63.2273 35.9695 65.1837 35.9695C68.5415 35.9695 70.4035 33.8104 70.4035 33.8104L70.2354 34.8583C70.172 35.259 70.4806 35.6183 70.8825 35.6183H74.2795C74.8195 35.6183 75.2756 35.2268 75.3608 34.6936L77.3989 21.7863C77.4634 21.389 77.156 21.0286 76.7529 21.0286ZM71.4963 28.3684C71.1324 30.5229 69.4224 31.9692 67.2414 31.9692C66.1463 31.9692 65.2712 31.6179 64.7093 30.9524C64.1519 30.2914 63.94 29.3506 64.1174 28.3027C64.4571 26.1667 66.1959 24.6732 68.3434 24.6732C69.4143 24.6732 70.2849 25.029 70.8583 25.7003C71.4329 26.3786 71.6609 27.3251 71.4963 28.3684Z" fill="#253B80"/>
<path d="M96.8376 21.0286H93.048C92.6864 21.0286 92.3467 21.2082 92.1417 21.5087L86.915 29.2078L84.6995 21.8093C84.5602 21.3464 84.133 21.0286 83.6493 21.0286H79.9253C79.4728 21.0286 79.1584 21.4707 79.3023 21.8968L83.4766 34.1466L79.5522 39.6866C79.2436 40.123 79.5545 40.7229 80.0877 40.7229H83.8727C84.232 40.7229 84.5682 40.5479 84.772 40.2531L97.3765 22.0592C97.6782 21.6239 97.3685 21.0286 96.8376 21.0286Z" fill="#253B80"/>
<path d="M109.384 13.7444H101.508C100.97 13.7444 100.512 14.1359 100.428 14.6679L97.2426 34.862C97.1793 35.2604 97.4879 35.6197 97.8898 35.6197H101.932C102.307 35.6197 102.628 35.3457 102.687 34.9726L103.591 29.2484C103.674 28.7152 104.133 28.3237 104.671 28.3237H107.163C112.352 28.3237 115.344 25.8134 116.127 20.8389C116.481 18.6625 116.141 16.9525 115.122 15.7549C114.004 14.4399 112.02 13.7444 109.384 13.7444ZM110.293 21.1198C109.863 23.9457 107.704 23.9457 105.615 23.9457H104.428L105.263 18.6683C105.312 18.3493 105.587 18.1144 105.91 18.1144H106.455C107.876 18.1144 109.218 18.1144 109.912 18.9251C110.325 19.4087 110.451 20.1272 110.293 21.1198Z" fill="#179BD7"/>
<path d="M132.924 21.0289H129.155C128.831 21.0289 128.556 21.2638 128.507 21.5827L128.341 22.6375L128.076 22.2552C127.259 21.0703 125.44 20.6742 123.623 20.6742C119.455 20.6742 115.897 23.8305 115.204 28.2581C114.845 30.4667 115.355 32.5786 116.608 34.0513C117.759 35.4055 119.401 35.9698 121.358 35.9698C124.716 35.9698 126.578 33.8107 126.578 33.8107L126.409 34.8586C126.346 35.2593 126.655 35.6186 127.059 35.6186H130.455C130.992 35.6186 131.451 35.227 131.535 34.6939L133.574 21.7866C133.636 21.3893 133.328 21.0289 132.924 21.0289ZM127.667 28.3686C127.305 30.5231 125.593 31.9694 123.412 31.9694C122.319 31.9694 121.442 31.6182 120.88 30.9526C120.323 30.2916 120.113 29.3509 120.288 28.303C120.63 26.1669 122.366 24.6734 124.514 24.6734C125.585 24.6734 126.456 25.0292 127.029 25.7006C127.606 26.3788 127.834 27.3253 127.667 28.3686Z" fill="#179BD7"/>
<path d="M137.369 14.2982L134.137 34.862C134.074 35.2604 134.382 35.6197 134.784 35.6197H138.034C138.574 35.6197 139.032 35.2281 139.115 34.695L142.303 14.502C142.366 14.1036 142.057 13.7432 141.655 13.7432H138.017C137.695 13.7443 137.419 13.9792 137.369 14.2982Z" fill="#179BD7"/>
<path d="M8.36781 39.544L8.97005 35.7186L7.62853 35.6876H1.22266L5.67441 7.46046C5.68823 7.37525 5.73314 7.29579 5.79878 7.23937C5.86441 7.18295 5.94847 7.15186 6.03599 7.15186H16.8372C20.423 7.15186 22.8976 7.89804 24.1896 9.37083C24.7953 10.0617 25.1811 10.7837 25.3676 11.5783C25.5634 12.412 25.5668 13.408 25.3757 14.6229L25.3619 14.7116V15.49L25.9676 15.8331C26.4777 16.1037 26.883 16.4135 27.1939 16.7682C27.7121 17.3589 28.0472 18.1097 28.1888 18.9998C28.3351 19.9152 28.2867 21.0046 28.0472 22.2379C27.7708 23.6565 27.324 24.8921 26.7207 25.9031C26.1656 26.8347 25.4586 27.6074 24.6191 28.2062C23.8177 28.775 22.8654 29.2068 21.7887 29.4832C20.7454 29.7549 19.5559 29.892 18.2513 29.892H17.4107C16.8096 29.892 16.2257 30.1085 15.7674 30.4965C15.308 30.8926 15.004 31.4339 14.9107 32.0257L14.8474 32.37L13.7834 39.1122L13.735 39.3597C13.7224 39.438 13.7005 39.4772 13.6682 39.5037C13.6394 39.5279 13.598 39.544 13.5577 39.544H8.36781Z" fill="#253B80"/>
<path d="M26.5392 14.8013C26.5069 15.0074 26.4701 15.2181 26.4286 15.4346C25.0042 22.7479 20.131 25.2743 13.907 25.2743H10.7381C9.97692 25.2743 9.33553 25.827 9.21692 26.5778L7.59443 36.8678L7.13498 39.7845C7.05783 40.2774 7.43783 40.7219 7.93528 40.7219H13.5558C14.2214 40.7219 14.7868 40.2382 14.8916 39.5819L14.9469 39.2963L16.0051 32.5807L16.073 32.2122C16.1767 31.5535 16.7432 31.0699 17.4088 31.0699H18.2494C23.6949 31.0699 27.9578 28.859 29.2038 22.4611C29.7243 19.7885 29.4548 17.5568 28.0776 15.9873C27.6607 15.5141 27.1437 15.1214 26.5392 14.8013Z" fill="#179BD7"/>
<path d="M25.0509 14.2071C24.8333 14.1437 24.6087 14.0862 24.3784 14.0343C24.147 13.9837 23.9098 13.9388 23.6657 13.8996C22.8112 13.7614 21.875 13.6958 20.8721 13.6958H12.4061C12.1977 13.6958 11.9997 13.743 11.8223 13.8282C11.432 14.0159 11.1418 14.3856 11.0715 14.8381L9.27057 26.245L9.21875 26.5778C9.33736 25.827 9.97875 25.2743 10.7399 25.2743H13.9089C20.1328 25.2743 25.006 22.7467 26.4304 15.4346C26.473 15.2181 26.5087 15.0074 26.541 14.8013C26.1806 14.6101 25.7902 14.4466 25.3699 14.3073C25.2663 14.2727 25.1592 14.2393 25.0509 14.2071Z" fill="#222D65"/>
<path d="M11.0707 14.8382C11.1409 14.3856 11.4311 14.016 11.8214 13.8294C11.9999 13.7442 12.1968 13.697 12.4053 13.697H20.8712C21.8742 13.697 22.8103 13.7627 23.6648 13.9008C23.9089 13.94 24.1461 13.9849 24.3776 14.0356C24.6079 14.0874 24.8324 14.145 25.05 14.2083C25.1583 14.2405 25.2654 14.2739 25.3702 14.3073C25.7905 14.4467 26.1808 14.6113 26.5413 14.8013C26.965 12.0987 26.5378 10.2586 25.0765 8.59235C23.4656 6.75799 20.558 5.97266 16.8374 5.97266H6.03623C5.27623 5.97266 4.62793 6.52538 4.51047 7.27732L0.0115023 35.7946C-0.0771644 36.3588 0.358108 36.8678 0.926957 36.8678H7.59538L9.26968 26.2451L11.0707 14.8382Z" fill="#253B80"/>
</svg>
