<svg width="143" height="27" viewBox="0 0 143 27" fill="none" xmlns="http://www.w3.org/2000/svg">
<path d="M0.0400391 26.4399L13.0492 0.332741H21.796L34.7608 26.4399H27.9232L25.3036 20.8011H9.40844L6.52244 26.4399H0.0400391ZM11.0068 16.4499H23.6608L17.578 4.32874H17.134L11.0068 16.4499ZM38.7669 26.4399V3.88474L38.3229 0.332741H45.0717L55.1061 18.0927L65.4957 0.332741H71.4897V26.4399H65.6289V9.87874H65.1405L63.4089 13.7415L57.8145 23.7759H52.4421L46.8477 13.7415L45.0717 9.87874H44.6277V26.4399H38.7669ZM75.0518 26.4399L88.061 0.332741H96.8078L109.773 26.4399H102.935L100.315 20.8011H84.4202L81.5342 26.4399H75.0518ZM86.0186 16.4499H98.6726L92.5898 4.32874H92.1458L86.0186 16.4499ZM110.227 26.4399L111.914 23.7759L121.771 13.3863L110.227 0.332741H117.331L125.9 10.1451H126.388L135.002 0.332741H142.106L140.374 2.95234L130.562 13.3863L142.106 26.4399H135.002L126.388 16.5387H125.9L117.331 26.4399H110.227Z" fill="white"/>
</svg>
